<?xml version="1.0" encoding="utf-8"?>
<!-- Generator: Adobe Illustrator 21.0.0, SVG Export Plug-In . SVG Version: 6.00 Build 0)  -->
<svg version="1.1" id="icons" xmlns="http://www.w3.org/2000/svg" xmlns:xlink="http://www.w3.org/1999/xlink" x="0px" y="0px"
	 viewBox="0 0 986.2 1024" style="enable-background:new 0 0 986.2 1024;" xml:space="preserve">
<path d="M912,779c-57.1-60.6-140.3-100.9-248.6-120.5c17.8-14.4,34.4-31,49.6-50c53.6-67.1,83.1-155.3,83.1-248.4
	c0-93.1-29.5-181.3-83.1-248.4C655.4,39.7,577.3,0,493.1,0c-84.2,0-162.2,39.7-219.9,111.7c-53.6,67.1-83.1,155.3-83.1,248.4
	c0,93,29.5,181.3,83.1,248.4c15.3,19,31.8,35.8,49.6,50.1c-108.3,19.7-191.6,60.1-248.7,120.9C3.5,854.5,0,933,0,948
	c0,20.1,8,39.5,22.2,53.7c14.3,14.3,33.6,22.3,53.6,22.3l834.5-0.2c41.9,0,75.8-34.2,75.8-76.1C986.2,932.7,982.7,854,912,779z
	 M266,360.1c0-157,101.7-284.3,227.1-284.3c125.5,0,227.2,127.2,227.2,284.3c0,157-101.7,284.3-227.2,284.3
	C367.6,644.4,266,517.1,266,360.1z M910.4,947.9l-834.5,0.2c0,0-3.6-227.7,417.4-227.7C914.3,720.5,910.4,947.9,910.4,947.9z" fill="#005641"/>
</svg>
