<svg xmlns="http://www.w3.org/2000/svg" viewBox="0 0 779.1 1024"><path d="M771.3 458.3c-15.6-30.7-49.7-44.2-91.1-36.5-39.6 7.5-69.3 25.6-90.9 45l-4.4-357.5C584.1 44.1 546.7.2 491.8 0c-54.9-.2-91.2 43.5-90.3 108.7l1.5 124.8c-12.7-7.2-27.3-11.5-43.6-11.6-40.8-.1-71.2 24-83.9 63.2-14.2-10.1-31.3-15.8-50.7-15.9-40.8-.1-71.2 24.1-83.9 63.2-14.2-10.1-31.3-15.8-50.7-15.9C35.4 316.3-.9 359.9 0 425.3l3.2 256.6c2.2 53.9 18.9 102.5 49 173.4C78 916.2 81.6 986.1 82.6 999.4c1 13.3 10.4 23.1 24.4 23.2 14 .1 405.2 1.4 417 1.4 11.9 0 23.6-8.7 22.5-25-1.1-16.4.5-102.8 26.5-141 11.6-17.1 24.1-33.5 36.2-49.3 25.8-34 50.3-66 62.2-99.4l1.4-4.1c14.7-41.3 42.2-118.3 76.6-148.9 28.6-25.4 37.8-66.7 21.9-98zm-54.5 62.1c-43.4 38.7-72.3 119.8-89.6 168.2l-1.4 4c-9.5 26.6-31.8 55.8-55.4 86.7-12.5 16.3-25.4 33.2-37.7 51.3-28.8 42.5-34.2 109.1-34.8 145.2l-369.1-1.3c-3.3-31.4-11.7-89.1-32.2-137.4-27.8-65.7-43.3-110-45.2-155.9l-3.2-255.9c-.3-18.3 3.4-61 42.5-61 39.2.1 44 42.8 44.2 61.2l1.2 98.5c.2 13.2 11.2 24 24.5 24 13.3.1 24-10.6 23.8-23.9l-1.2-98.5-.6-47.7c-.2-18.3 3.5-61 42.7-60.9 39.2.2 44 42.8 44.2 61.2l1.3 98.5c.1 13.3 11.1 24.1 24.4 24.1 13.4 0 24.1-10.6 23.9-23.9l-1.2-98.5-.6-47.7c-.2-18.3 3.5-61 42.7-60.9 39.2.1 44 42.8 44.2 61.2l1.7 138.7c.1 13.3 11.1 24 24.4 24.1 13.4 0 24.1-10.6 23.9-23.9l-1.7-138.8-2.8-222.3c-.2-18.3 3.5-61 42.7-60.9 39.2.1 44 42.8 44.2 61.2l6.2 516.7c.1 13.3 11.1 24 24.4 24.1 13.3 0 24-10.6 23.8-23.9l-.7-84.1c10.7-19.2 40.6-61.8 99.6-72.9 11.3-2.2 31.2-3.6 38.3 10.4 5.2 10.3 3 28.2-11.4 41z" fill="#005641"/></svg>