<svg xmlns="http://www.w3.org/2000/svg" viewBox="0 0 1024 1024"><path d="M841.1 74S810.9 1 731.6 1H74.7C34.4 1 1.6 33.7 1.6 74v875.8c0 40.3 32.8 73 73.1 73h656.8c76.5 0 109.5-73 109.5-73l182.4-437.9L841.1 74zm-73 839.3s-14.3 36.5-73 36.5H114.7c-20.2 0-36.6-16.3-36.6-36.5V110.5c0-20.2 16.5-36.5 36.6-36.5h580.4c64.9 0 73 36.5 73 36.5L939 511.9 768.1 913.3z" fill="#005641"/><path d="M548.8 411.3l55.5.1h3.8v-3.9c0-16.1-3.1-32-9.1-47-5.8-14.5-14.3-28-25.1-39.9-21.1-23.3-49.9-39.5-81.7-46V234h.1c-.1-17.2-14.3-31.1-31.7-31.1v.2c-17.3 0-31.5 14.1-31.7 30.7v.6l.3 40.4c-31.7 6.4-60.6 22.5-81.5 45.8-10.8 12-19.2 25.4-25 39.9-6 15.1-9.1 30.9-9.1 47.1 0 20.8 5 39.8 14.9 56.6 8.4 14.3 20.7 27.2 36.3 38.5 28.3 20.4 61.9 31.5 86.4 39.7h.1c34.9 11 58.1 21.7 72.8 33.7 14.1 11.5 20.7 24.5 20.7 40.9 0 40.3-37.7 73.2-84 73.2-22.5 0-43.7-7.8-59.6-21.7-15.8-13.8-24.5-32.1-24.5-51.4v-3.9l-3.8.1-55.5.1h-3.8v3.7c0 16.1 3.1 31.9 9.1 46.9 5.8 14.5 14.3 27.9 25.1 39.9 21.1 23.3 50 39.5 81.7 46v40.5l-.1.2v.6c.1 8.4 3.4 16.2 9.3 22 5.9 5.8 13.7 9 22 9s16.2-3.2 22-9c5.9-5.8 9.3-13.6 9.4-22l.1-.1-.1-41c31.7-6.4 60.6-22.7 81.6-45.9 10.8-12 19.3-25.4 25.1-40 6.1-15.1 9.1-30.9 9.1-47.1 0-39.3-18.1-72-53.8-97.1-29.1-20.4-63-31.2-83.3-37.6-36-12-59.5-23-73.9-34.6-13.9-11.3-20.1-23.5-20.1-39.9 0-40.3 37.7-72.9 84.1-72.9 22.5 0 43.7 7.5 59.6 21.5 15.8 13.8 24.5 32 24.4 51.3v3.9l3.9-.4z" fill="#005641"/></svg>