<svg xmlns="http://www.w3.org/2000/svg" viewBox="0 0 1024 732"><path d="M921.5 0H102C45.4 0 .1 45.3.1 101.2v529.5c0 55.9 45.3 101.2 101.9 101.2h819.6c56.6 0 102.5-45.3 102.5-101.2V101.2C1024 45.3 978.1 0 921.5 0zm53.2 582L692 390.4l-38.6 26.2 321.3 217.5c-1.2 27-23.5 48.6-51.2 48.6H99.9c-27.7 0-50.1-21.5-51.3-48.6L370 416.5l-38.8-26.2L48.2 582V198.7l463.3 313.9 463.3-313.9V582zm-463-121.3L48.1 146.6V100c0-28.1 23.3-50.7 51.8-50.7h823.7c28.4 0 51.2 22.6 51.2 50.7v46.7h.6l-463.7 314z" fill="#005641"/></svg>