<svg xmlns="http://www.w3.org/2000/svg" viewBox="0 0 986.2 1024"><path d="M912 779c-57.1-60.6-140.3-100.9-248.6-120.5 17.8-14.4 34.4-31 49.6-50 53.6-67.1 83.1-155.3 83.1-248.4S766.6 178.8 713 111.7C655.4 39.7 577.3 0 493.1 0c-84.2 0-162.2 39.7-219.9 111.7-53.6 67.1-83.1 155.3-83.1 248.4 0 93 29.5 181.3 83.1 248.4 15.3 19 31.8 35.8 49.6 50.1-108.3 19.7-191.6 60.1-248.7 120.9C3.5 854.5 0 933 0 948c0 20.1 8 39.5 22.2 53.7 14.3 14.3 33.6 22.3 53.6 22.3l834.5-.2c41.9 0 75.8-34.2 75.8-76.1.1-15-3.4-93.7-74.1-168.7zM266 360.1c0-157 101.7-284.3 227.1-284.3 125.5 0 227.2 127.2 227.2 284.3 0 157-101.7 284.3-227.2 284.3-125.5 0-227.1-127.3-227.1-284.3zm644.4 587.8l-834.5.2s-3.6-227.7 417.4-227.7c421 .1 417.1 227.5 417.1 227.5z" fill="#005641"/></svg>