<svg xmlns="http://www.w3.org/2000/svg" viewBox="0 0 1024 768.1"><path d="M960.1 0H64C28.7 0 0 28.7 0 64v640.1c0 35.3 28.7 64 64 64h896.1c35.3 0 63.9-28.7 63.9-64V64c0-35.3-28.6-64-63.9-64zm0 704.1H64V320h896.1v384.1zM64 194.7V64h896.1v130.7H64zM160 640h320c17.7 0 32-14.4 32-32s-14.3-32-32-32H160c-17.7 0-32 14.4-32 32s14.3 32 32 32zm416-32c0 17.7 14.3 32 32 32s32-14.3 32-32-14.3-32-32-32-32 14.3-32 32zm128 0c0 17.7 14.3 32 32 32s32-14.3 32-32-14.3-32-32-32-32 14.3-32 32zm128 0c0 17.7 14.3 32 32 32s32-14.3 32-32-14.3-32-32-32-32 14.3-32 32z" fill="#005641"/></svg>