<?xml version="1.0" encoding="utf-8"?>
<!-- Generator: Adobe Illustrator 21.0.0, SVG Export Plug-In . SVG Version: 6.00 Build 0)  -->
<svg version="1.1" id="icons" xmlns="http://www.w3.org/2000/svg" xmlns:xlink="http://www.w3.org/1999/xlink" x="0px" y="0px"
	 viewBox="0 0 1024 732" style="enable-background:new 0 0 1024 732;" xml:space="preserve">
<path d="M921.5,0H102C45.4,0,0.1,45.3,0.1,101.2v529.5c0,55.9,45.3,101.2,101.9,101.2h819.6c56.6,0,102.5-45.3,102.5-101.2V101.2
	C1024,45.3,978.1,0,921.5,0z M974.7,582L692,390.4l-38.6,26.2l321.3,217.5c-1.2,27-23.5,48.6-51.2,48.6H99.9
	c-27.7,0-50.1-21.5-51.3-48.6L370,416.5l-38.8-26.2L48.2,582V198.7l463.3,313.9l463.3-313.9V582z M511.7,460.7L48.1,146.6h0V100
	c0-28.1,23.3-50.7,51.8-50.7h823.7c28.4,0,51.2,22.6,51.2,50.7v46.7h0.6L511.7,460.7z" fill="#0078d2"/>
</svg>
