<?xml version="1.0" encoding="utf-8"?>
<!-- Generator: Adobe Illustrator 21.0.0, SVG Export Plug-In . SVG Version: 6.00 Build 0)  -->
<svg version="1.1" id="icons" xmlns="http://www.w3.org/2000/svg" xmlns:xlink="http://www.w3.org/1999/xlink" x="0px" y="0px"
	 viewBox="0 0 779.1 1024" style="enable-background:new 0 0 779.1 1024;" xml:space="preserve">
<path d="M771.3,458.3c-15.6-30.7-49.7-44.2-91.1-36.5c-39.6,7.5-69.3,25.6-90.9,45l-4.4-357.5C584.1,44.1,546.7,0.2,491.8,0
	c-54.9-0.2-91.2,43.5-90.3,108.7l1.5,124.8c-12.7-7.2-27.3-11.5-43.6-11.6c-40.8-0.1-71.2,24-83.9,63.2
	c-14.2-10.1-31.3-15.8-50.7-15.9c-40.8-0.1-71.2,24.1-83.9,63.2c-14.2-10.1-31.3-15.8-50.7-15.9C35.4,316.3-0.9,359.9,0,425.3
	l3.2,256.6c2.2,53.9,18.9,102.5,49,173.4C78,916.2,81.6,986.1,82.6,999.4c1,13.3,10.4,23.1,24.4,23.2c14,0.1,405.2,1.4,417,1.4
	c11.9,0,23.6-8.7,22.5-25c-1.1-16.4,0.5-102.8,26.5-141c11.6-17.1,24.1-33.5,36.2-49.3c25.8-34,50.3-66,62.2-99.4l1.4-4.1
	c14.7-41.3,42.2-118.3,76.6-148.9C778,530.9,787.2,489.6,771.3,458.3z M716.8,520.4c-43.4,38.7-72.3,119.8-89.6,168.2l-1.4,4
	c-9.5,26.6-31.8,55.8-55.4,86.7c-12.5,16.3-25.4,33.2-37.7,51.3c-28.8,42.5-34.2,109.1-34.8,145.2l-369.1-1.3
	c-3.3-31.4-11.7-89.1-32.2-137.4c-27.8-65.7-43.3-110-45.2-155.9l-3.2-255.9c-0.3-18.3,3.4-61,42.5-61c39.2,0.1,44,42.8,44.2,61.2
	l1.2,98.5c0.2,13.2,11.2,24,24.5,24c13.3,0.1,24-10.6,23.8-23.9l-1.2-98.5l-0.6-47.7c-0.2-18.3,3.5-61,42.7-60.9
	c39.2,0.2,44,42.8,44.2,61.2l1.3,98.5c0.1,13.3,11.1,24.1,24.4,24.1c13.4,0,24.1-10.6,23.9-23.9l-1.2-98.5l-0.6-47.7
	c-0.2-18.3,3.5-61,42.7-60.9c39.2,0.1,44,42.8,44.2,61.2l1.7,138.7c0.1,13.3,11.1,24,24.4,24.1c13.4,0,24.1-10.6,23.9-23.9
	l-1.7-138.8l-2.8-222.3c-0.2-18.3,3.5-61,42.7-60.9c39.2,0.1,44,42.8,44.2,61.2l6.2,516.7c0.1,13.3,11.1,24,24.4,24.1
	c13.3,0,24-10.6,23.8-23.9l-0.7-84.1c10.7-19.2,40.6-61.8,99.6-72.9c11.3-2.2,31.2-3.6,38.3,10.4
	C733.4,489.7,731.2,507.6,716.8,520.4z" fill="#0078d2"/>
</svg>
