<svg width="80" height="80" xmlns="http://www.w3.org/2000/svg" viewBox="0 0 100 100" preserveAspectRatio="xMidYMid" class="lds-hourglass" style="background:0 0"><defs><clipPath id="a"><path d="M0 0h100v31.956H0z"><animate attributeName="y" calcMode="spline" values="0;50;0;0;0" keyTimes="0;0.4;0.5;0.9;1" dur="2" keySplines="0.3 0 1 0.7;0.3 0 1 0.7;0.3 0 1 0.7;0.3 0 1 0.7" begin="0s" repeatCount="indefinite"/><animate attributeName="height" calcMode="spline" values="50;0;0;50;50" keyTimes="0;0.4;0.5;0.9;1" dur="2" keySplines="0.3 0 1 0.7;0.3 0 1 0.7;0.3 0 1 0.7;0.3 0 1 0.7" begin="0s" repeatCount="indefinite"/></path><path d="M0 50h100v18.044H0z"><animate attributeName="y" calcMode="spline" values="100;50;50;50;50" keyTimes="0;0.4;0.5;0.9;1" dur="2" keySplines="0.3 0 1 0.7;0.3 0 1 0.7;0.3 0 1 0.7;0.3 0 1 0.7" begin="0s" repeatCount="indefinite"/><animate attributeName="height" calcMode="spline" values="0;50;50;0;0" keyTimes="0;0.4;0.5;0.9;1" dur="2" keySplines="0.3 0 1 0.7;0.3 0 1 0.7;0.3 0 1 0.7;0.3 0 1 0.7" begin="0s" repeatCount="indefinite"/></path></clipPath></defs><g transform="matrix(-.9 0 0 -.9 95 95)"><animateTransform attributeName="transform" type="rotate" calcMode="linear" values="0 50 50;0 50 50;180 50 50;180 50 50;360 50 50" keyTimes="0;0.4;0.5;0.9;1" dur="2s" begin="0s" repeatCount="indefinite"/><path d="M54.864 50c0-1.291.689-2.412 1.671-2.729 9.624-3.107 17.154-12.911 19.347-25.296.681-3.844-1.698-7.475-4.791-7.475H28.908c-3.093 0-5.472 3.631-4.791 7.475 2.194 12.385 9.723 22.189 19.347 25.296.982.317 1.671 1.438 1.671 2.729 0 1.291-.689 2.412-1.671 2.729-9.624 3.107-17.153 12.911-19.347 25.296-.681 3.844 1.698 7.475 4.791 7.475h42.184c3.093 0 5.472-3.631 4.791-7.475-2.194-12.385-9.723-22.189-19.347-25.296-.983-.317-1.672-1.438-1.672-2.729z" clip-path="url(#a)" fill="#f6eddc"/><path d="M81 81.5h-2.724l.091-.578c.178-1.122.17-2.243-.022-3.333-2.332-13.169-10.242-23.556-20.642-27.106l-.339-.116v-.715l.339-.135c10.399-3.552 18.31-13.938 20.642-27.107.192-1.089.2-2.211.022-3.333l-.091-.577H81c2.481 0 4.5-2.019 4.5-4.5S83.481 9.5 81 9.5H19c-2.481 0-4.5 2.019-4.5 4.5s2.019 4.5 4.5 4.5h2.724l-.092.578a10.045 10.045 0 00.023 3.333c2.333 13.168 10.242 23.555 20.642 27.107l.338.116v.715l-.338.135c-10.4 3.551-18.31 13.938-20.642 27.106a10.045 10.045 0 00-.023 3.333l.092.578H19c-2.481 0-4.5 2.019-4.5 4.5s2.019 4.5 4.5 4.5h62c2.481 0 4.5-2.019 4.5-4.5S83.481 81.5 81 81.5zm-7.86-.309l-.128.309H26.988l-.128-.309a4.868 4.868 0 01-.28-2.729c2.014-11.375 8.944-20.542 17.654-23.354 2.035-.658 3.402-2.711 3.402-5.108 0-2.398-1.368-4.451-3.403-5.108-8.71-2.812-15.639-11.979-17.653-23.353a4.865 4.865 0 01.281-2.731l.128-.308h46.024l.128.308c.244.589.492 1.541.281 2.731-2.015 11.375-8.944 20.541-17.654 23.353-2.035.658-3.402 2.71-3.402 5.108 0 2.397 1.368 4.45 3.403 5.108 8.71 2.812 15.64 11.979 17.653 23.354a4.876 4.876 0 01-.282 2.729z" fill="#f08d43"/></g></svg>