<?xml version="1.0" encoding="utf-8"?>
<!-- Generator: Adobe Illustrator 21.0.0, SVG Export Plug-In . SVG Version: 6.00 Build 0)  -->
<svg version="1.1" id="Layer_1" xmlns="http://www.w3.org/2000/svg" xmlns:xlink="http://www.w3.org/1999/xlink" x="0px" y="0px"
	 viewBox="0 0 1024 1024" style="enable-background:new 0 0 1024 1024;" xml:space="preserve">
<style type="text/css">
	.st0{display:none;}
	.st1{display:inline;}
	.st2{fill:none;stroke:#EB2629;stroke-width:5;stroke-miterlimit:10;}
	.st3{display:inline;fill:none;stroke:#EB2629;stroke-width:5;stroke-linejoin:round;stroke-miterlimit:10;}
	.st4{display:inline;fill:#EC2427;}
</style>
<g class="st0">
	<g class="st1">
		<path class="st2" d="M429.6,537.1c8.2,0,14.9-6.8,14.9-15.1s-6.7-15.1-14.9-15.1c-8.2,0-14.9,6.7-14.9,15.1
			S421.4,537.1,429.6,537.1"/>
	</g>
	<path class="st3" d="M429.6,537.5c-15.3,0-27.7,14.5-27.7,32.3h55.4C457.3,552,444.9,537.5,429.6,537.5"/>
	<polygon class="st4" points="431.6,551.7 438.1,551.7 432.8,555.5 434.8,561.7 429.6,557.9 424.4,561.7 426.4,555.5 421.1,551.7 
		427.6,551.7 429.6,545.6 	"/>
</g>
<path d="M841.1,74c0,0-30.2-73-109.5-73H74.7C34.4,1,1.6,33.7,1.6,74v875.8c0,40.3,32.8,73,73.1,73h656.8c76.5,0,109.5-73,109.5-73
	l182.4-437.9L841.1,74z M768.1,913.3c0,0-14.3,36.5-73,36.5H114.7c-20.2,0-36.6-16.3-36.6-36.5V110.5c0-20.2,16.5-36.5,36.6-36.5
	h580.4c64.9,0,73,36.5,73,36.5L939,511.9L768.1,913.3z" fill="#005641"/>
<path d="M548.8,411.3l55.5,0.1h3.8l0-3.9c0-16.1-3.1-32-9.1-47c-5.8-14.5-14.3-28-25.1-39.9c-21.1-23.3-49.9-39.5-81.7-46l0-40.6
	l0.1,0c-0.1-17.2-14.3-31.1-31.7-31.1l0,0.1v0.1h0c-17.3,0-31.5,14.1-31.7,30.7h0v0.6h0l0.3,40.4c-31.7,6.4-60.6,22.5-81.5,45.8
	c-10.8,12-19.2,25.4-25,39.9c-6,15.1-9.1,30.9-9.1,47.1c0,20.8,5,39.8,14.9,56.6c8.4,14.3,20.7,27.2,36.3,38.5
	c28.3,20.4,61.9,31.5,86.4,39.7l0.1,0l0,0l0,0c34.9,11,58.1,21.7,72.8,33.7c14.1,11.5,20.7,24.5,20.7,40.9c0,40.3-37.7,73.2-84,73.2
	h0c-22.5,0-43.7-7.8-59.6-21.7c-15.8-13.8-24.5-32.1-24.5-51.4l0-3.9l-3.8,0.1l-55.5,0.1h-3.8l0,3.7c0,16.1,3.1,31.9,9.1,46.9
	c5.8,14.5,14.3,27.9,25.1,39.9c21.1,23.3,50,39.5,81.7,46l0,40.5l-0.1,0.2l0,0.6c0.1,8.4,3.4,16.2,9.3,22c5.9,5.8,13.7,9,22,9
	c8.3,0,16.2-3.2,22-9c5.9-5.8,9.3-13.6,9.4-22l0.1-0.1v0v0l-0.1-41c31.7-6.4,60.6-22.7,81.6-45.9c10.8-12,19.3-25.4,25.1-40
	c6.1-15.1,9.1-30.9,9.1-47.1c0-39.3-18.1-72-53.8-97.1c-29.1-20.4-63-31.2-83.3-37.6l0,0c-36-12-59.5-23-73.9-34.6
	c-13.9-11.3-20.1-23.5-20.1-39.9c0-40.3,37.7-72.9,84.1-72.9h0c22.5,0,43.7,7.5,59.6,21.5c15.8,13.8,24.5,32,24.4,51.3l0,3.9
	L548.8,411.3z" fill="#005641"/>
</svg>
