<?xml version="1.0" encoding="utf-8"?>
<!-- Generator: Adobe Illustrator 21.0.0, SVG Export Plug-In . SVG Version: 6.00 Build 0)  -->
<svg version="1.1" id="icons" xmlns="http://www.w3.org/2000/svg" xmlns:xlink="http://www.w3.org/1999/xlink" x="0px" y="0px"
	 viewBox="0 0 1024 768.1" style="enable-background:new 0 0 1024 768.1;" xml:space="preserve">
<g>
	<path d="M960.1,0H64C28.7,0,0,28.7,0,64v640.1c0,35.3,28.7,64,64,64h896.1c35.3,0,63.9-28.7,63.9-64V64C1024,28.7,995.4,0,960.1,0
		L960.1,0z M960.1,704.1H64V320h896.1V704.1L960.1,704.1z M64,194.7V64h896.1v130.7H64L64,194.7z M160,640h320c17.7,0,32-14.4,32-32
		s-14.3-32-32-32H160c-17.7,0-32,14.4-32,32S142.3,640,160,640L160,640z M576,608c0,17.7,14.3,32,32,32c17.7,0,32-14.3,32-32
		c0-17.7-14.3-32-32-32C590.3,576,576,590.3,576,608L576,608z M704,608c0,17.7,14.3,32,32,32c17.7,0,32-14.3,32-32
		c0-17.7-14.3-32-32-32C718.3,576,704,590.3,704,608L704,608z M832,608c0,17.7,14.3,32,32,32c17.7,0,32-14.3,32-32
		c0-17.7-14.3-32-32-32C846.3,576,832,590.3,832,608L832,608z" fill="#005641"/>
</g>
</svg>
