<svg xmlns="http://www.w3.org/2000/svg" width="24" height="24" viewBox="0 0 24 24">
    <defs>
        <filter id="prefix__a">
            <feColorMatrix in="SourceGraphic" values="0 0 0 0 0.000000 0 0 0 0 0.294118 0 0 0 0 0.576471 0 0 0 1.000000 0"/>
        </filter>
    </defs>
    <g fill="none" fill-rule="evenodd" filter="url(#prefix__a)" transform="translate(-275 -1084)">
        <g>
            <path fill="#004B93" d="M10.153 2.537c1.596-1.02 3.717-.553 4.737 1.043l7.67 12.72c.567.93.586 2.093.05 3.04l-.113.18c-.631.932-1.691 1.492-2.827 1.48H4.33c-1.215.005-2.338-.645-2.94-1.7l-.097-.19c-.419-.899-.368-1.952.147-2.81L9.11 3.58c.268-.419.624-.775 1.043-1.043zm2.74 1.796c-.651-.493-1.58-.365-2.073.287L3.14 17.35c-.179.31-.179.69 0 1l.08.121c.257.347.672.548 1.11.529h15.34c.487.021.945-.229 1.19-.65l.059-.12c.117-.29.093-.619-.069-.89L13.18 4.62c-.082-.108-.178-.205-.287-.287zm-.186 10.96c.39.39.39 1.024 0 1.414-.39.39-1.024.39-1.414 0-.39-.39-.39-1.024 0-1.414.39-.39 1.024-.39 1.414 0zM12 8l.117.007c.497.057.883.48.883.993v4c0 .552-.448 1-1 1s-1-.448-1-1V9l.007-.117c.057-.497.48-.883.993-.883z" transform="translate(275 1084)"/>
        </g>
    </g>
</svg>
