<svg xmlns="http://www.w3.org/2000/svg" width="24" height="24" viewBox="0 0 24 24">
    <defs>
        <filter id="prefix__a">
            <feColorMatrix in="SourceGraphic" values="0 0 0 0 0.000000 0 0 0 0 0.294118 0 0 0 0 0.576471 0 0 0 1.000000 0"/>
        </filter>
    </defs>
    <g fill="none" fill-rule="evenodd" filter="url(#prefix__a)" transform="translate(-397 -1084)">
        <g>
            <path fill="#004B93" d="M18 3c1.657 0 3 1.343 3 3l-.009.211c-.058.77-.412 1.49-.991 2.009V18c0 1.657-1.343 3-3 3H7c-1.657 0-3-1.343-3-3V8.22c-.621-.564-.977-1.363-.982-2.202C3.008 4.36 4.343 3.01 6 3zm0 6H6v9l.007.117c.057.497.48.883.993.883h10c.552 0 1-.448 1-1V9zm-3.87 3c.48 0 .87.39.87.87v.26c0 .48-.39.87-.87.87H9.87c-.48 0-.87-.39-.87-.87v-.26c0-.48.39-.87.87-.87h4.26zM18 5H6c-.552 0-1 .448-1 1s.448 1 1 1h12c.552 0 1-.448 1-1s-.448-1-1-1z" transform="translate(397 1084)"/>
        </g>
    </g>
</svg>
