<svg xmlns="http://www.w3.org/2000/svg" width="24" height="24" viewBox="0 0 24 24">
    <defs>
        <filter id="prefix__a">
            <feColorMatrix in="SourceGraphic" values="0 0 0 0 0.000000 0 0 0 0 0.294118 0 0 0 0 0.576471 0 0 0 1.000000 0"/>
        </filter>
    </defs>
    <g fill="none" fill-rule="evenodd" filter="url(#prefix__a)" transform="translate(-763 -1084)">
        <g>
            <path fill="#004B93" d="M12 2l.28.004C17.673 2.152 22 6.57 22 12l-.004.28C21.848 17.673 17.43 22 12 22 6.477 22 2 17.523 2 12S6.477 2 12 2zm0 2c-4.418 0-8 3.582-8 8s3.582 8 8 8l.25-.004C16.551 19.865 20 16.335 20 12l-.004-.25C19.865 7.449 16.335 4 12 4zm.465 4.275c.4-.381 1.034-.365 1.415.035l2.86 3c.033.04.063.084.09.13l.043.06c.027.04.05.084.067.13l.03.091c.017.062.027.125.03.189V12c0 .134-.027.267-.08.39l-.056.115c-.042.075-.094.144-.154.205l-3 3-.006.006c-.392.389-1.025.386-1.414-.006l-.003-.003c-.392-.395-.39-1.028.003-1.417l1.3-1.29H8c-.552 0-1-.448-1-1s.448-1 1-1h5.66l-1.23-1.31c-.381-.4-.365-1.034.035-1.415z" transform="translate(763 1084)"/>
        </g>
    </g>
</svg>
