<svg xmlns="http://www.w3.org/2000/svg" width="24" height="24" viewBox="0 0 24 24">
    <defs>
        <filter id="prefix__a">
            <feColorMatrix in="SourceGraphic" values="0 0 0 0 0.000000 0 0 0 0 0.294118 0 0 0 0 0.576471 0 0 0 1.000000 0"/>
        </filter>
    </defs>
    <g fill="none" fill-rule="evenodd" filter="url(#prefix__a)" transform="translate(-1744 -1088)">
        <g>
            <path fill="#004B93" d="M5.26 6.461c-.626-.502-1.484-.603-2.21-.26l-.142.07c-.55.305-.9.883-.908 1.52v8.42c.008.69.419 1.312 1.05 1.59l.174.07c.236.085.485.129.736.13l.177-.007c.41-.035.801-.192 1.123-.453l5.1-4.21c.1-.08.191-.17.271-.271.585-.735.464-1.804-.271-2.389zm11 0c-.626-.502-1.484-.603-2.21-.26l-.142.07c-.55.305-.9.883-.908 1.52v8.42c.008.69.419 1.312 1.05 1.59l.174.07c.236.085.485.129.736.13l.177-.007c.41-.035.801-.192 1.123-.453l5.1-4.21c.1-.08.191-.17.271-.271.585-.735.464-1.804-.271-2.389zm-12.3 1.54l4.86 4-4.86 3.9v-7.9zm11 0l4.86 4-4.86 3.9v-7.9z" transform="translate(1744 1088)"/>
        </g>
    </g>
</svg>
