<svg xmlns="http://www.w3.org/2000/svg" width="24" height="24" viewBox="0 0 24 24">
    <defs>
        <filter id="prefix__a">
            <feColorMatrix in="SourceGraphic" values="0 0 0 0 0.000000 0 0 0 0 0.294118 0 0 0 0 0.576471 0 0 0 1.000000 0"/>
        </filter>
    </defs>
    <g fill="none" fill-rule="evenodd" filter="url(#prefix__a)" transform="translate(-1495 -563)">
        <g>
            <path fill="#004B93" d="M12.594 5.217c.43-.346 1.06-.278 1.406.153l4.78 6c.3.371.296.903-.01 1.27l-5 6c-.19.229-.473.36-.77.36l-.138-.008c-.183-.023-.357-.096-.502-.212-.426-.355-.484-.986-.13-1.41L16.71 12l-4.27-5.37-.003-.004c-.346-.43-.278-1.06.153-1.406zm-7.029-.022c.445-.348 1.087-.27 1.435.175l4.77 6c.303.369.303.901 0 1.27l-5 6c-.19.229-.473.36-.77.36l-.139-.01c-.183-.025-.357-.1-.501-.22-.426-.355-.484-.986-.13-1.41L9.71 12 5.39 6.63c-.348-.445-.27-1.087.175-1.435z" transform="translate(1495 563)"/>
        </g>
    </g>
</svg>
