<svg xmlns="http://www.w3.org/2000/svg" width="24" height="24" viewBox="0 0 24 24">
    <defs>
        <filter id="prefix__a">
            <feColorMatrix in="SourceGraphic" values="0 0 0 0 0.000000 0 0 0 0 0.294118 0 0 0 0 0.576471 0 0 0 1.000000 0"/>
        </filter>
    </defs>
    <g fill="none" fill-rule="evenodd" filter="url(#prefix__a)" transform="translate(-1129 -1084)">
        <g>
            <path fill="#004B93" d="M13.54 18c-.473 0-.932-.162-1.3-.46l-5.1-4.21c-.735-.585-.856-1.654-.271-2.389.08-.1.17-.191.271-.271l5.1-4.21c.626-.502 1.484-.603 2.21-.26.631.278 1.042.9 1.05 1.59v8.42c-.008.69-.419 1.312-1.05 1.59-.286.13-.596.198-.91.2zm-4.86-6l4.82 4V8.09L8.68 12z" transform="translate(1129 1084)"/>
        </g>
    </g>
</svg>
