<svg xmlns="http://www.w3.org/2000/svg" width="24" height="24" viewBox="0 0 24 24">
    <defs>
        <filter id="prefix__a">
            <feColorMatrix in="SourceGraphic" values="0 0 0 0 0.000000 0 0 0 0 0.294118 0 0 0 0 0.576471 0 0 0 1.000000 0"/>
        </filter>
    </defs>
    <g fill="none" fill-rule="evenodd" filter="url(#prefix__a)" transform="translate(-1373 -563)">
        <g>
            <path fill="#004B93" d="M10.232 5.358c.353-.424.984-.482 1.408-.128l.09.086c.336.361.36.923.04 1.314L7.29 12l4.33 5.37c.145.18.224.403.223.633-.001.553-.45.999-1.003.997l-.128-.008c-.255-.032-.489-.16-.652-.362l-4.83-6c-.303-.369-.303-.901 0-1.27l5-6zm6.998-.008c.353-.425.985-.483 1.41-.13.425.353.483.985.13 1.41L14.29 12l4.33 5.36c.145.18.224.403.223.633-.001.553-.45.999-1.003.997l-.128-.008c-.255-.032-.489-.16-.652-.362l-4.83-6c-.303-.369-.303-.901 0-1.27z" transform="translate(1373 563)"/>
        </g>
    </g>
</svg>
