<svg xmlns="http://www.w3.org/2000/svg" width="24" height="24" viewBox="0 0 24 24">
    <defs>
        <filter id="prefix__a">
            <feColorMatrix in="SourceGraphic" values="0 0 0 0 0.000000 0 0 0 0 0.294118 0 0 0 0 0.576471 0 0 0 1.000000 0"/>
        </filter>
    </defs>
    <g fill="none" fill-rule="evenodd" filter="url(#prefix__a)" transform="translate(-1495 -1893)">
        <g>
            <path fill="#004B93" d="M16.211 13c.679-.001 1.297.388 1.59 1l.067.157c.26.69.14 1.471-.327 2.053l-4.21 5.1c-.055.063-.114.122-.177.177-.735.637-1.846.558-2.483-.177l-4.21-5.1c-.502-.626-.603-1.484-.26-2.21l.073-.137c.316-.532.89-.864 1.517-.863zM13.154 2.43c.063.055.122.114.177.177l4.21 5.1c.466.582.587 1.363.327 2.053l-.067.157c-.293.612-.911 1.001-1.59 1h-8.42c-.626.001-1.201-.33-1.517-.862l-.073-.138c-.343-.725-.242-1.583.26-2.21l4.21-5.1c.637-.734 1.748-.814 2.483-.177z" transform="translate(1495 1893)"/>
        </g>
    </g>
</svg>
