<svg xmlns="http://www.w3.org/2000/svg" width="24" height="24" viewBox="0 0 24 24">
    <defs>
        <filter id="prefix__a">
            <feColorMatrix in="SourceGraphic" values="0 0 0 0 0.000000 0 0 0 0 0.294118 0 0 0 0 0.576471 0 0 0 1.000000 0"/>
        </filter>
    </defs>
    <g fill="none" fill-rule="evenodd" filter="url(#prefix__a)" transform="translate(-641 -1893)">
        <g>
            <path fill="#004B93" d="M22 12c0-5.523-4.477-10-10-10S2 6.477 2 12s4.477 10 10 10 10-4.477 10-10zm-11.86 3.69l-2.86-3c-.042-.043-.076-.094-.1-.15-.042-.047-.076-.101-.1-.16-.107-.242-.107-.518 0-.76.048-.123.119-.235.21-.33l3-3c.392-.392 1.028-.392 1.42 0 .392.392.392 1.028 0 1.42L10.41 11H16c.552 0 1 .448 1 1s-.448 1-1 1h-5.66l1.25 1.31c.381.4.365 1.034-.035 1.415s-1.034.365-1.415-.035z" transform="translate(641 1893)"/>
        </g>
    </g>
</svg>
