<svg xmlns="http://www.w3.org/2000/svg" width="24" height="24" viewBox="0 0 24 24">
    <defs>
        <filter id="prefix__a">
            <feColorMatrix in="SourceGraphic" values="0 0 0 0 0.000000 0 0 0 0 0.294118 0 0 0 0 0.576471 0 0 0 1.000000 0"/>
        </filter>
    </defs>
    <g fill="none" fill-rule="evenodd" filter="url(#prefix__a)" transform="translate(-1744 -1893)">
        <g>
            <path fill="#004B93" d="M16.26 6.461l5.1 4.21c.735.585.856 1.654.271 2.389-.08.1-.17.191-.271.271l-5.1 4.21c-.322.261-.713.418-1.123.453L14.96 18c-.251-.001-.5-.045-.736-.13l-.174-.07c-.631-.278-1.042-.9-1.05-1.59v-8.42c.007-.637.358-1.215.908-1.52l.142-.07c.726-.343 1.584-.242 2.21.26zm-11 0l5.1 4.21c.735.585.856 1.654.271 2.389-.08.1-.17.191-.271.271l-5.1 4.21c-.322.261-.713.418-1.123.453L3.96 18c-.251-.001-.5-.045-.736-.13l-.174-.07c-.631-.278-1.042-.9-1.05-1.59v-8.42c.007-.637.358-1.215.908-1.52l.142-.07c.726-.343 1.584-.242 2.21.26z" transform="translate(1744 1893)"/>
        </g>
    </g>
</svg>
