<svg xmlns="http://www.w3.org/2000/svg" width="24" height="24" viewBox="0 0 24 24">
    <defs>
        <filter id="prefix__a">
            <feColorMatrix in="SourceGraphic" values="0 0 0 0 0.000000 0 0 0 0 0.294118 0 0 0 0 0.576471 0 0 0 1.000000 0"/>
        </filter>
    </defs>
    <g fill="none" fill-rule="evenodd" filter="url(#prefix__a)" transform="translate(-1251 -563)">
        <g>
            <path fill="#004B93" d="M5.23 12.36c.353-.425.985-.483 1.41-.13L12 16.71l5.37-4.32c.43-.352 1.06-.288 1.41.14l.002.002c.347.433.279 1.062-.152 1.408l-6 4.83c-.369.303-.901.303-1.27 0l-6-5-.092-.086c-.34-.363-.364-.931-.038-1.324zm0-7c.353-.425.985-.483 1.41-.13L12 9.71l5.37-4.33c.435-.35 1.064-.28 1.41.15l.002.002c.347.433.279 1.062-.152 1.408l-6 4.83c-.369.303-.901.303-1.27 0l-6-5c-.425-.353-.483-.985-.13-1.41z" transform="translate(1251 563)"/>
        </g>
    </g>
</svg>
