<svg xmlns="http://www.w3.org/2000/svg" width="24" height="24" viewBox="0 0 24 24">
    <defs>
        <filter id="prefix__a">
            <feColorMatrix in="SourceGraphic" values="0 0 0 0 0.000000 0 0 0 0 0.294118 0 0 0 0 0.576471 0 0 0 1.000000 0"/>
        </filter>
    </defs>
    <g fill="none" fill-rule="evenodd" filter="url(#prefix__a)" transform="translate(-885 -563)">
        <g>
            <path fill="#004B93" d="M12 16c-.234 0-.46-.08-.64-.23l-6-5c-.425-.353-.483-.985-.13-1.41.353-.425.985-.483 1.41-.13L12 13.71l5.36-4.32c.429-.348 1.059-.283 1.407.146l.003.004c.367.412.33 1.045-.082 1.412-.018.017-.038.033-.058.048l-6 4.83c-.185.126-.407.185-.63.17z" transform="translate(885 563)"/>
        </g>
    </g>
</svg>
