<svg xmlns="http://www.w3.org/2000/svg" width="24" height="24" viewBox="0 0 24 24">
    <defs>
        <filter id="prefix__a">
            <feColorMatrix in="SourceGraphic" values="0 0 0 0 0.000000 0 0 0 0 0.294118 0 0 0 0 0.576471 0 0 0 1.000000 0"/>
        </filter>
    </defs>
    <g fill="none" fill-rule="evenodd" filter="url(#prefix__a)" transform="translate(-1621 -1893)">
        <g>
            <path fill="#004B93" d="M16.26 6.461l5.1 4.21c.735.585.856 1.654.271 2.389-.08.1-.17.191-.271.271l-5.1 4.21c-.322.261-.713.418-1.123.453L14.96 18c-.251-.001-.5-.045-.736-.13l-.174-.07c-.631-.278-1.042-.9-1.05-1.59v-8.42c.007-.637.358-1.215.908-1.52l.142-.07c.726-.343 1.584-.242 2.21.26zm-8.519 0c.627-.502 1.484-.603 2.21-.26l.142.07c.55.305.9.883.908 1.52v8.42c-.008.69-.418 1.312-1.05 1.59l-.174.07c-.236.085-.485.129-.736.13l-.176-.007c-.41-.035-.802-.192-1.124-.453l-5.1-4.21c-.1-.08-.191-.17-.27-.271-.586-.735-.464-1.804.27-2.389z" transform="translate(1621 1893)"/>
        </g>
    </g>
</svg>
