<svg xmlns="http://www.w3.org/2000/svg" width="24" height="24" viewBox="0 0 24 24">
    <defs>
        <filter id="prefix__a">
            <feColorMatrix in="SourceGraphic" values="0 0 0 0 0.000000 0 0 0 0 0.294118 0 0 0 0 0.576471 0 0 0 1.000000 0"/>
        </filter>
    </defs>
    <g fill="none" fill-rule="evenodd" filter="url(#prefix__a)" transform="translate(-885 -1893)">
        <g>
            <path fill="#004B93" d="M12 22c5.523 0 10-4.477 10-10S17.523 2 12 2 2 6.477 2 12s4.477 10 10 10zM8.31 10.14l3-2.86c.043-.042.094-.076.15-.1.047-.042.101-.076.16-.1.242-.107.518-.107.76 0 .123.048.235.119.33.21l3 3c.392.392.392 1.028 0 1.42-.392.392-1.028.392-1.42 0L13 10.41V16c0 .552-.448 1-1 1s-1-.448-1-1v-5.66l-1.31 1.25c-.4.381-1.034.365-1.415-.035s-.365-1.034.035-1.415z" transform="translate(885 1893)"/>
        </g>
    </g>
</svg>
