<svg xmlns="http://www.w3.org/2000/svg" width="24" height="24" viewBox="0 0 24 24">
    <defs>
        <filter id="prefix__a">
            <feColorMatrix in="SourceGraphic" values="0 0 0 0 0.000000 0 0 0 0 0.294118 0 0 0 0 0.576471 0 0 0 1.000000 0"/>
        </filter>
    </defs>
    <g fill="none" fill-rule="evenodd" filter="url(#prefix__a)" transform="translate(-1617 -563)">
        <g>
            <path fill="#004B93" d="M11.37 12.23c.369-.303.901-.303 1.27 0l6 5c.426.355.484.986.13 1.41l-.087.092c-.184.172-.428.268-.683.268l-.137-.01c-.18-.027-.351-.102-.493-.22L12 14.29l-5.37 4.33-.004.003c-.43.346-1.06.278-1.406-.153l-.002-.002c-.347-.433-.279-1.062.152-1.408zm0-7c.369-.303.901-.303 1.27 0l6 5c.426.355.484.986.13 1.41l-.087.092c-.184.172-.428.268-.683.268l-.137-.01c-.18-.027-.351-.102-.493-.22L12 7.29l-5.37 4.32-.003.002c-.428.35-1.058.286-1.407-.142l-.002-.002c-.347-.433-.279-1.062.152-1.408z" transform="translate(1617 563)"/>
        </g>
    </g>
</svg>
