<svg xmlns="http://www.w3.org/2000/svg" width="24" height="24" viewBox="0 0 24 24">
    <defs>
        <filter id="prefix__a">
            <feColorMatrix in="SourceGraphic" values="0 0 0 0 0.000000 0 0 0 0 0.294118 0 0 0 0 0.576471 0 0 0 1.000000 0"/>
        </filter>
    </defs>
    <g fill="none" fill-rule="evenodd" filter="url(#prefix__a)" transform="translate(-1495 -1084)">
        <g>
            <path fill="#004B93" d="M16.21 13.083c.678-.001 1.297.388 1.59 1l.067.157c.26.69.14 1.471-.327 2.053l-4.21 5.1c-.055.063-.114.122-.177.177-.735.637-1.846.557-2.483-.177l-4.21-5.1c-.502-.627-.603-1.485-.26-2.21l.073-.138c.315-.532.89-.863 1.517-.862zm-.31 2H8l4 4.82 3.9-4.82zm-2.747-12.57c.063.055.122.114.177.177l4.21 5.1c.466.582.586 1.363.327 2.053L17.8 10c-.293.612-.912 1.001-1.59 1H7.79c-.626 0-1.202-.33-1.517-.863L6.2 10c-.343-.726-.242-1.584.26-2.21l4.21-5.1c.637-.735 1.748-.814 2.483-.177zM12 4.18L8 9h7.9L12 4.18z" transform="translate(1495 1084)"/>
        </g>
    </g>
</svg>
