<svg xmlns="http://www.w3.org/2000/svg" width="24" height="24" viewBox="0 0 24 24">
    <defs>
        <filter id="prefix__a">
            <feColorMatrix in="SourceGraphic" values="0 0 0 0 0.000000 0 0 0 0 0.294118 0 0 0 0 0.576471 0 0 0 1.000000 0"/>
        </filter>
    </defs>
    <g fill="none" fill-rule="evenodd" filter="url(#prefix__a)" transform="translate(-397 -563)">
        <g>
            <path fill="#004B93" d="M18.77 13.36c-.352-.425-.983-.484-1.408-.132l-.002.002L13 16.86V5c0-.552-.448-1-1-1s-1 .448-1 1v11.86l-4.36-3.63c-.425-.353-1.057-.295-1.41.13s-.295 1.057.13 1.41l6 5 .15.09.13.07c.232.09.488.09.72 0l.13-.07.15-.09 6-5c.425-.352.484-.983.132-1.408l-.002-.002z" transform="translate(397 563)"/>
        </g>
    </g>
</svg>
