<svg xmlns="http://www.w3.org/2000/svg" width="24" height="24" viewBox="0 0 24 24">
    <defs>
        <filter id="prefix__a">
            <feColorMatrix in="SourceGraphic" values="0 0 0 0 0.000000 0 0 0 0 0.294118 0 0 0 0 0.576471 0 0 0 1.000000 0"/>
        </filter>
    </defs>
    <g fill="none" fill-rule="evenodd" filter="url(#prefix__a)" transform="translate(-3083 -2383)">
        <g>
            <path fill="#004B93" d="M17.447 2h.18c.396.001.546.205.6.326.135.295-.058.57-.144.67l-.03.032-2.745 2.71c-.14.416 1.832 3.17 2.745 3.17l.137-.002c.144-.004.232-.012.282-.02l.019-.003 2.712-2.693c.086-.077.265-.21.488-.21.14 0 .272.053.37.15.12.12.178.286.176.51l-.004.492c-.022 1.39-.171 3.777-1.371 5.075l-.097.1-.276.273c-.917.907-2.121 1.406-3.391 1.406-1.236 0-2.41-.467-3.322-1.32l-.108-.104-.04-.04-6.316 8.548c-.346.343-.956.733-1.693.875l-.131.022c-.135.02-.282.033-.44.033-.615 0-1.383-.194-2.115-.917-1.561-1.542-.87-3.409-.045-4.265l.045-.046 8.673-6.245-.026-.025c-1.88-1.866-1.918-4.765-.112-6.657l.094-.096.279-.274C13.145 2.187 15.554 2.01 17.31 2h.137z" transform="translate(3083 2383)"/>
        </g>
    </g>
</svg>
