<svg xmlns="http://www.w3.org/2000/svg" xmlns:xlink="http://www.w3.org/1999/xlink" width="24" height="24" viewBox="0 0 24 24">
    <defs>
        <filter id="prefix__a">
            <feColorMatrix in="SourceGraphic" values="0 0 0 0 0.000000 0 0 0 0 0.294118 0 0 0 0 0.576471 0 0 0 1.000000 0"/>
        </filter>
        <filter id="prefix__b">
            <feColorMatrix in="SourceGraphic" values="0 0 0 0 0.000000 0 0 0 0 0.294118 0 0 0 0 0.576471 0 0 0 1.000000 0"/>
        </filter>
        <path id="prefix__c" d="M0 0.001L18.19 0.001 18.19 18 0 18z"/>
    </defs>
    <g fill="none" fill-rule="evenodd" filter="url(#prefix__a)" transform="translate(-3083 -1564)">
        <g>
            <g filter="url(#prefix__b)" transform="translate(3083 1564)">
                <g transform="translate(3 3)">
                    <mask id="prefix__d" fill="#fff">
                        <use xlink:href="#prefix__c"/>
                    </mask>
                    <path fill="#114C96" d="M10.182 7.896l.934.917c1.075 1.005 2.896 1.002 3.972-.06l.284-.284c.414-.447.675-1.287.773-2.493L14.67 7.442l-.318.053c-.1.013-.204.026-.374.03l-.122.002c-.75 0-1.575-.627-2.466-1.86-.77-1.066-.832-1.569-.691-1.992l.075-.228 1.428-1.41c-.893.067-2.03.267-2.626.855l-.286.284C8.22 4.295 8.25 5.982 9.369 7.09l.813.808v-.003zM2.414 13.57c-.186.218-.843 1.12.035 1.986.365.36.822.486 1.193.43l.083-.014c.32-.063.607-.236.775-.383l5.607-7.59-.837.635-6.855 4.936zM3.439 18c-.89 0-1.718-.354-2.394-1.021C-.52 15.436-.151 13.345.99 12.16l.171-.154L7.253 7.62c-1.144-1.84-.946-4.216.6-5.836l.32-.319C9.488.168 11.695.008 13.242 0h.263c.627.002 1.146.318 1.386.848.236.519.133 1.132-.265 1.598l-.083.088-1.72 1.697c.27.415.72.96 1.023 1.21l1.81-1.798c.712-.632 1.564-.577 2.096-.048.203.2.44.557.437 1.124l-.004.395c-.035 2.232-.48 3.776-1.363 4.73l-.329.332c-.921.91-2.136 1.412-3.415 1.412-.923 0-1.815-.26-2.588-.743l-4.538 6.123c-.232.227-.876.779-1.87.97l-.124.02c-.174.027-.341.043-.52.043z" mask="url(#prefix__d)"/>
                </g>
            </g>
        </g>
    </g>
</svg>
