<svg xmlns="http://www.w3.org/2000/svg" width="24" height="24" viewBox="0 0 24 24">
    <defs>
        <filter id="prefix__a">
            <feColorMatrix in="SourceGraphic" values="0 0 0 0 0.000000 0 0 0 0 0.294118 0 0 0 0 0.576471 0 0 0 1.000000 0"/>
        </filter>
    </defs>
    <g fill="none" fill-rule="evenodd" filter="url(#prefix__a)" transform="translate(-1739 -563)">
        <g>
            <path fill="#004B93" d="M13 2C7.502 1.472 2.618 5.5 2.09 10.998 1.678 15.288 4.06 19.358 8 21.1c1.258.569 2.62.875 4 .9 2.198 0 4.335-.724 6.08-2.06.439-.334.524-.96.19-1.4-.332-.441-.96-.53-1.4-.197l-.01.007c-3.525 2.663-8.542 1.964-11.205-1.562C2.992 13.263 3.69 8.246 7.216 5.583c1.59-1.2 3.57-1.765 5.554-1.583 4.16.482 7.283 4.032 7.23 8.22v.68c-.005.944-.774 1.706-1.718 1.701l-.062-.001c-.95-.104-1.657-.925-1.62-1.88V8.4c0-.552-.448-1-1-1-.505-.004-.934.369-1 .87-.93-.876-2.162-1.363-3.44-1.36-2.811.021-5.073 2.317-5.052 5.128.021 2.811 2.317 5.073 5.128 5.052 1.613-.012 3.124-.788 4.074-2.09 1.08 1.67 3.308 2.148 4.978 1.069.206-.133.397-.287.572-.459.741-.705 1.154-1.687 1.14-2.71v-.68c.046-5.204-3.832-9.608-9-10.22zm-1.82 13.09c-1.707 0-3.09-1.383-3.09-3.09 0-1.707 1.383-3.09 3.09-3.09 1.707 0 3.09 1.383 3.09 3.09-.005 1.704-1.386 3.085-3.09 3.09z" transform="translate(1739 563)"/>
        </g>
    </g>
</svg>
