<svg xmlns="http://www.w3.org/2000/svg" width="24" height="24" viewBox="0 0 24 24">
    <defs>
        <filter id="prefix__a">
            <feColorMatrix in="SourceGraphic" values="0 0 0 0 0.000000 0 0 0 0 0.294118 0 0 0 0 0.576471 0 0 0 1.000000 0"/>
        </filter>
    </defs>
    <g fill="none" fill-rule="evenodd" filter="url(#prefix__a)" transform="translate(-1983 -563)">
        <g>
            <path fill="#004B93" d="M12 22c-3.23.078-5.913-2.471-6-5.7V6.13C6.06 3.796 7.996 1.95 10.33 2c2.338-.056 4.28 1.792 4.34 4.13v10.18c-.09 1.472-1.356 2.592-2.828 2.502-1.346-.083-2.42-1.156-2.502-2.502V6.92c0-.552.448-1 1-1s1 .448 1 1v9.39c.045.367.38.628.747.583.305-.037.545-.278.583-.583V6.13c-.065-1.231-1.108-2.181-2.34-2.13-1.228-.045-2.265.903-2.33 2.13V16.3c.087 2.125 1.875 3.779 4 3.7 2.125.079 3.913-1.575 4-3.7V6.13c0-.552.448-1 1-1s1 .448 1 1V16.3c-.087 3.229-2.77 5.778-6 5.7z" transform="translate(1983 563)"/>
        </g>
    </g>
</svg>
