<svg xmlns="http://www.w3.org/2000/svg" width="24" height="24" viewBox="0 0 24 24">
    <defs>
        <filter id="prefix__a">
            <feColorMatrix in="SourceGraphic" values="0 0 0 0 0.000000 0 0 0 0 0.294118 0 0 0 0 0.576471 0 0 0 1.000000 0"/>
        </filter>
    </defs>
    <g fill="none" fill-rule="evenodd" filter="url(#prefix__a)" transform="translate(-1861 -563)">
        <g>
            <path fill="#004B93" d="M9.29 21c-1.669-.008-3.265-.685-4.43-1.88-2.405-2.28-2.507-6.077-.227-8.482l.007-.008L12 3.2c.794-.793 1.878-1.226 3-1.2 1.201.004 2.35.49 3.19 1.35 1.721 1.657 1.788 4.39.15 6.13l-7.4 7.43c-.479.482-1.13.752-1.81.75-.734.001-1.437-.295-1.95-.82-1.056-1.022-1.091-2.704-.08-3.77l6.83-6.86c.46-.306 1.08-.18 1.386.28.229.344.222.793-.016 1.13l-6.83 6.86c-.237.285-.201.708.08.95.14.142.33.224.53.23.15.002.293-.055.4-.16l7.39-7.43c.863-.959.796-2.433-.15-3.31-.877-.91-2.313-.977-3.27-.15L6.06 12c-1.505 1.617-1.415 4.148.202 5.653l.018.017c.786.815 1.867 1.28 3 1.29.976.008 1.916-.374 2.61-1.06l7.39-7.43c.39-.392 1.023-.394 1.415-.005.392.39.394 1.023.005 1.415l-7.39 7.43c-1.06 1.079-2.508 1.687-4.02 1.69z" transform="translate(1861 563)"/>
        </g>
    </g>
</svg>
