<svg xmlns="http://www.w3.org/2000/svg" width="24" height="24" viewBox="0 0 24 24">
    <defs>
        <filter id="prefix__a">
            <feColorMatrix in="SourceGraphic" values="0 0 0 0 0.000000 0 0 0 0 0.294118 0 0 0 0 0.576471 0 0 0 1.000000 0"/>
        </filter>
    </defs>
    <g fill="none" fill-rule="evenodd" filter="url(#prefix__a)" transform="translate(-1252 -2001)">
        <g>
            <path fill="#004B93" d="M19 20.75l-2.31-9C17.544 10.687 18.007 9.363 18 8c0-3.314-2.686-6-6-6S6 4.686 6 8c-.003 1.374.47 2.706 1.34 3.77L5 20.75c-.139.535.182 1.08.717 1.219.259.067.533.028.763-.109l5.33-3.13 5.68 3.14c.153.093.33.138.51.13.552.018 1.014-.416 1.031-.968.003-.095-.007-.19-.031-.282zM12 4c2.21 0 4 1.79 4 4s-1.79 4-4 4-4-1.79-4-4 1.79-4 4-4z" transform="translate(1252 2001)"/>
        </g>
    </g>
</svg>
