<svg xmlns="http://www.w3.org/2000/svg" width="24" height="24" viewBox="0 0 24 24">
    <defs>
        <filter id="prefix__a">
            <feColorMatrix in="SourceGraphic" values="0 0 0 0 0.000000 0 0 0 0 0.294118 0 0 0 0 0.576471 0 0 0 1.000000 0"/>
        </filter>
    </defs>
    <g fill="none" fill-rule="evenodd" filter="url(#prefix__a)" transform="translate(-1863 -1464)">
        <g>
            <path fill="#004B93" d="M20.14 4c1.016-.011 1.849.804 1.86 1.82v12.36c-.011 1.012-.838 1.826-1.85 1.82h-9.77c-.74-.004-1.452-.282-2-.78l-6-5.48c-.394-.355-.443-.956-.11-1.37l6-7.48.1-.11c.548-.498 1.26-.776 2-.78zM20 6h-9.63c-.226.001-.444.079-.62.22l-5.38 6.67 5.33 4.85c.183.167.422.26.67.26H20V6zm-8.71 3.29c.392-.392 1.028-.392 1.42 0l1.29 1.3 1.29-1.3c.392-.392 1.028-.392 1.42 0 .392.392.392 1.028 0 1.42L15.41 12l1.3 1.29c.395.398.392 1.031 0 1.42l-.003.003c-.395.392-1.028.39-1.417-.003L14 13.41l-1.29 1.3-.006.006c-.392.389-1.025.386-1.414-.006l-.003-.003c-.392-.395-.39-1.028.003-1.417l1.3-1.29-1.3-1.29-.084-.095c-.306-.393-.278-.963.084-1.325z" transform="translate(1863 1464)"/>
        </g>
    </g>
</svg>
