<svg xmlns="http://www.w3.org/2000/svg" width="24" height="24" viewBox="0 0 24 24">
    <defs>
        <filter id="prefix__a">
            <feColorMatrix in="SourceGraphic" values="0 0 0 0 0.000000 0 0 0 0 0.294118 0 0 0 0 0.576471 0 0 0 1.000000 0"/>
        </filter>
    </defs>
    <g fill="none" fill-rule="evenodd" filter="url(#prefix__a)" transform="translate(-1857 -2287)">
        <g>
            <path fill="#004B93" d="M20.14 4h-9.77c-.74.004-1.452.282-2 .78l-.1.11-6 7.48c-.333.414-.284 1.015.11 1.37l6 5.48c.548.498 1.26.776 2 .78h9.77c1.012.006 1.839-.808 1.85-1.82V5.82c-.011-1.016-.844-1.831-1.86-1.82zm-3.43 9.29c.392.389.395 1.022.006 1.414l-.006.006c-.389.392-1.022.395-1.414.006l-.006-.006-1.29-1.3-1.29 1.3c-.389.392-1.022.395-1.414.006l-.006-.006c-.392-.389-.395-1.022-.006-1.414l.006-.006 1.3-1.29-1.3-1.29c-.392-.392-.392-1.028 0-1.42.392-.392 1.028-.392 1.42 0l1.29 1.3 1.29-1.3c.392-.392 1.028-.392 1.42 0 .392.392.392 1.028 0 1.42L15.41 12l1.3 1.29z" transform="translate(1857 2287)"/>
        </g>
    </g>
</svg>
