<svg xmlns="http://www.w3.org/2000/svg" width="24" height="24" viewBox="0 0 24 24">
    <defs>
        <filter id="prefix__a">
            <feColorMatrix in="SourceGraphic" values="0 0 0 0 0.000000 0 0 0 0 0.294118 0 0 0 0 0.576471 0 0 0 1.000000 0"/>
        </filter>
    </defs>
    <g fill="none" fill-rule="evenodd" filter="url(#prefix__a)" transform="translate(-2105 -563)">
        <g>
            <path fill="#004B93" d="M12 4l.117.007c.497.057.883.48.883.993v15c0 .552-.448 1-1 1s-1-.448-1-1V5l.007-.117c.057-.497.48-.883.993-.883zm7 8l.117.007c.497.057.883.48.883.993v7c0 .552-.448 1-1 1s-1-.448-1-1v-7l.007-.117c.057-.497.48-.883.993-.883zM5 8l.117.007c.497.057.883.48.883.993v11c0 .552-.448 1-1 1s-1-.448-1-1V9l.007-.117C4.064 8.386 4.487 8 5 8z" transform="translate(2105 563)"/>
        </g>
    </g>
</svg>
