<svg xmlns="http://www.w3.org/2000/svg" width="24" height="24" viewBox="0 0 24 24">
    <defs>
        <filter id="prefix__a">
            <feColorMatrix in="SourceGraphic" values="0 0 0 0 0.000000 0 0 0 0 0.294118 0 0 0 0 0.576471 0 0 0 1.000000 0"/>
        </filter>
    </defs>
    <g fill="none" fill-rule="evenodd" filter="url(#prefix__a)" transform="translate(-2111 -1084)">
        <g>
            <path fill="#004B93" d="M5.28 8.11l2 2v3.29c0 .533-.212 1.044-.59 1.42L5.51 16h7.66l.83.86L15.17 18l.83.78c-.33 1.928-2.046 3.309-4 3.22l-.197.003C9.776 21.988 8.094 20.388 8 18.34V18H4.64c-.441.004-.865-.17-1.175-.485-.632-.64-.626-1.673.015-2.305l1.8-1.81V8.7c-.01-.197-.01-.393 0-.59zM3.29 3.29c.392-.392 1.028-.392 1.42 0l3.18 3.18L17.41 16l2 2 1.3 1.29c.395.398.392 1.031 0 1.42l-.003.003c-.395.392-1.028.39-1.417-.003L16.59 18l-2-2-7.31-7.3L5.53 7 3.29 4.71l-.084-.095c-.306-.393-.278-.963.084-1.325zM14 18h-4v.34c.115 1 .997 1.73 2 1.66l.15.005c.94-.008 1.74-.716 1.85-1.665V18zM7.802 3.483c1.43-1.15 3.271-1.668 5.098-1.423l.235.04c3.265.616 5.633 3.495 5.585 6.84v4.46l1.8 1.81c.47.466.608 1.17.35 1.78l-.066.136c-.097.178-.227.335-.384.464l-3.6-3.6c-.064-.19-.098-.39-.1-.59V8.68c-.055-2.327-1.761-4.304-4.08-4.68l-.255-.026c-1.272-.096-2.534.334-3.485 1.196l-.15.15c-.098.103-.192.21-.28.32L7 4.21c.183-.191.376-.371.58-.54z" transform="translate(2111 1084)"/>
        </g>
    </g>
</svg>
