<svg xmlns="http://www.w3.org/2000/svg" width="24" height="24" viewBox="0 0 24 24">
    <defs>
        <filter id="prefix__a">
            <feColorMatrix in="SourceGraphic" values="0 0 0 0 0.000000 0 0 0 0 0.294118 0 0 0 0 0.576471 0 0 0 1.000000 0"/>
        </filter>
    </defs>
    <g fill="none" fill-rule="evenodd" filter="url(#prefix__a)" transform="translate(-1989 -1893)">
        <g>
            <path fill="#004B93" d="M20.52 15.21l-1.8-1.81V8.94c.05-3.425-2.435-6.361-5.82-6.88-3.69-.486-7.076 2.112-7.562 5.802-.038.288-.057.578-.058.868v4.67l-1.8 1.81c-.635.646-.627 1.684.02 2.32.304.299.713.468 1.14.47H8v.34c.097 2.114 1.886 3.75 4 3.66 2.114.09 3.903-1.546 4-3.66V18h3.36c.906-.005 1.636-.743 1.63-1.65-.002-.426-.17-.836-.47-1.14zM14 18.34c-.115 1-.997 1.73-2 1.66-1.003.07-1.885-.66-2-1.66V18h4v.34z" transform="translate(1989 1893)"/>
        </g>
    </g>
</svg>
