<svg xmlns="http://www.w3.org/2000/svg" width="24" height="24" viewBox="0 0 24 24">
    <defs>
        <filter id="prefix__a">
            <feColorMatrix in="SourceGraphic" values="0 0 0 0 0.000000 0 0 0 0 0.294118 0 0 0 0 0.576471 0 0 0 1.000000 0"/>
        </filter>
    </defs>
    <g fill="none" fill-rule="evenodd" filter="url(#prefix__a)" transform="translate(-2111 -1893)">
        <g>
            <path fill="#004B93" d="M5.31 8.14L6.58 9.4l7.35 7.31.07.07 1.29 1.34.59.59.12.07c-.33 1.928-2.046 3.309-4 3.22l-.197.003C9.776 21.988 8.094 20.388 8 18.34V18H4.64c-.417-.01-.814-.178-1.112-.47-.645-.636-.653-1.675-.018-2.32l1.8-1.81V8.73c-.01-.197-.01-.393 0-.59zM3.29 3.29c.392-.392 1.028-.392 1.42 0l3.18 3.18L17.41 16l2 2 1.3 1.29.006.006c.389.392.386 1.025-.006 1.414-.398.395-1.031.392-1.42 0L16.59 18l-2-2-7.31-7.3L5.53 7 3.29 4.71l-.084-.095c-.306-.393-.278-.963.084-1.325zM14 18h-4v.34c.115 1 .997 1.73 2 1.66l.15.005c.94-.008 1.74-.716 1.85-1.665V18zM7.802 3.483c1.43-1.15 3.271-1.668 5.098-1.423l.235.04c3.269.611 5.643 3.492 5.595 6.84v4.46l1.8 1.81c.47.466.608 1.17.35 1.78l-.066.137c-.097.177-.227.334-.384.463l-.31-.3L7.13 4.3 7 4.21c.183-.191.376-.371.58-.54z" transform="translate(2111 1893)"/>
        </g>
    </g>
</svg>
