<svg xmlns="http://www.w3.org/2000/svg" width="24" height="24" viewBox="0 0 24 24">
    <defs>
        <filter id="prefix__a">
            <feColorMatrix in="SourceGraphic" values="0 0 0 0 0.000000 0 0 0 0 0.294118 0 0 0 0 0.576471 0 0 0 1.000000 0"/>
        </filter>
    </defs>
    <g fill="none" fill-rule="evenodd" filter="url(#prefix__a)" transform="translate(-2349 -563)">
        <g>
            <path fill="#004B93" d="M13.63 12l4-3.79c.46-.43.484-1.151.054-1.611-.056-.06-.117-.113-.184-.159l-4.67-3.23c-.357-.25-.823-.28-1.21-.08-.374.194-.612.578-.62 1v6.2l-3.19-4c-.359-.43-1-.489-1.43-.13-.43.359-.489 1-.13 1.43L9.72 12l-3.5 4.43c-.34.431-.269 1.057.16 1.4.182.123.4.183.62.17.304-.001.591-.141.78-.38L11 13.56v6.29c.005.637.523 1.15 1.16 1.15.24 0 .474-.072.67-.21l4.64-3.18c.28-.198.46-.509.49-.85.027-.339-.098-.672-.34-.91L13.63 12zM13 5.76l2.5 1.73L13 9.85V5.76zm0 12.49v-4.07l2.47 2.38L13 18.25z" transform="translate(2349 563)"/>
        </g>
    </g>
</svg>
