<svg xmlns="http://www.w3.org/2000/svg" width="24" height="24" viewBox="0 0 24 24">
    <defs>
        <filter id="prefix__a">
            <feColorMatrix in="SourceGraphic" values="0 0 0 0 0.000000 0 0 0 0 0.294118 0 0 0 0 0.576471 0 0 0 1.000000 0"/>
        </filter>
    </defs>
    <g fill="none" fill-rule="evenodd" filter="url(#prefix__a)" transform="translate(-2233 -1084)">
        <g>
            <path fill="#004B93" d="M19 3H7C5.343 3 4 4.343 4 6v12c0 1.657 1.343 3 3 3h12c.552 0 1-.448 1-1V4c0-.552-.448-1-1-1zM7 5h11v10H7c-.341.003-.68.064-1 .18V6c0-.552.448-1 1-1zm0 14c-.552 0-1-.448-1-1s.448-1 1-1h11v2H7z" transform="translate(2233 1084)"/>
        </g>
    </g>
</svg>
