<svg xmlns="http://www.w3.org/2000/svg" width="24" height="24" viewBox="0 0 24 24">
    <defs>
        <filter id="prefix__a">
            <feColorMatrix in="SourceGraphic" values="0 0 0 0 0.000000 0 0 0 0 0.294118 0 0 0 0 0.576471 0 0 0 1.000000 0"/>
        </filter>
    </defs>
    <g fill="none" fill-rule="evenodd" filter="url(#prefix__a)" transform="translate(-2477 -1084)">
        <g>
            <path fill="#004B93" d="M6.09 21.06c-.552 0-1-.448-1-1L4.94 5.4c-.05-1.247.92-2.3 2.167-2.35h.013L16.71 3c1.253.022 2.252 1.056 2.23 2.31l.14 14.66c.003.357-.183.688-.49.87-.31.179-.69.179-1 0l-5.7-3.16-5.29 3.23c-.157.088-.33.139-.51.15zm5.76-5.55c.174 0 .345.041.5.12l4.71 2.61-.12-12.95c0-.2-.13-.34-.21-.33l-9.6.09c-.08 0-.19.13-.19.33l.12 12.9 4.28-2.63c.155-.089.33-.137.51-.14z" transform="translate(2477 1084)"/>
        </g>
    </g>
</svg>
