<svg xmlns="http://www.w3.org/2000/svg" width="24" height="24" viewBox="0 0 24 24">
    <defs>
        <filter id="prefix__a">
            <feColorMatrix in="SourceGraphic" values="0 0 0 0 0.000000 0 0 0 0 0.294118 0 0 0 0 0.576471 0 0 0 1.000000 0"/>
        </filter>
    </defs>
    <g fill="none" fill-rule="evenodd" filter="url(#prefix__a)" transform="translate(-2599 -1893)">
        <g>
            <path fill="#004B93" d="M13.5 3C14.88 3 16 4.12 16 5.5V7h1v14H7V7h1V5.5l.005-.164C8.09 4.032 9.175 3 10.5 3zM19 7c1.657 0 3 1.343 3 3v8c0 1.657-1.343 3-3 3zM5 7v14c-1.657 0-3-1.343-3-3v-8l.005-.176C2.096 8.249 3.402 7 5 7zm8.5-2h-3c-.276 0-.5.224-.5.5V7h4V5.5c0-.276-.224-.5-.5-.5z" transform="translate(2599 1893)"/>
        </g>
    </g>
</svg>
