<svg xmlns="http://www.w3.org/2000/svg" width="24" height="24" viewBox="0 0 24 24">
    <defs>
        <filter id="prefix__a">
            <feColorMatrix in="SourceGraphic" values="0 0 0 0 0.000000 0 0 0 0 0.294118 0 0 0 0 0.576471 0 0 0 1.000000 0"/>
        </filter>
    </defs>
    <g fill="none" fill-rule="evenodd" filter="url(#prefix__a)" transform="translate(-2721 -1893)">
        <g>
            <path fill="#004B93" d="M18 3H6C4.343 3 3 4.343 3 6v12c0 1.657 1.343 3 3 3h12c1.657 0 3-1.343 3-3V6c0-1.657-1.343-3-3-3zm-6 3c.552 0 1 .448 1 1s-.448 1-1 1-1-.448-1-1 .448-1 1-1zM8 6c.552 0 1 .448 1 1s-.448 1-1 1-1-.448-1-1 .448-1 1-1zm11 12c0 .552-.448 1-1 1H6c-.552 0-1-.448-1-1v-7h14v7z" transform="translate(2721 1893)"/>
        </g>
    </g>
</svg>
