<svg xmlns="http://www.w3.org/2000/svg" width="24" height="24" viewBox="0 0 24 24">
    <defs>
        <filter id="prefix__a">
            <feColorMatrix in="SourceGraphic" values="0 0 0 0 0.000000 0 0 0 0 0.294118 0 0 0 0 0.576471 0 0 0 1.000000 0"/>
        </filter>
    </defs>
    <g fill="none" fill-rule="evenodd" filter="url(#prefix__a)" transform="translate(-2721 -1084)">
        <g>
            <path fill="#004B93" d="M18 3c1.657 0 3 1.343 3 3v12c0 1.657-1.343 3-3 3H6c-1.657 0-3-1.343-3-3V6l.005-.176C3.096 4.249 4.402 3 6 3zm1 8H5v7l.007.117c.057.497.48.883.993.883h12c.552 0 1-.448 1-1v-7zm-1-6H6c-.552 0-1 .448-1 1v3h14V6c0-.552-.448-1-1-1zM8.707 6.323c.39.39.39 1.024 0 1.414-.39.39-1.024.39-1.414 0-.39-.39-.39-1.024 0-1.414.39-.39 1.024-.39 1.414 0zm4 0c.39.39.39 1.024 0 1.414-.39.39-1.024.39-1.414 0-.39-.39-.39-1.024 0-1.414.39-.39 1.024-.39 1.414 0z" transform="translate(2721 1084)"/>
        </g>
    </g>
</svg>
