<svg xmlns="http://www.w3.org/2000/svg" width="24" height="24" viewBox="0 0 24 24">
    <defs>
        <filter id="prefix__a">
            <feColorMatrix in="SourceGraphic" values="0 0 0 0 0.000000 0 0 0 0 0.294118 0 0 0 0 0.576471 0 0 0 1.000000 0"/>
        </filter>
    </defs>
    <g fill="none" fill-rule="evenodd" filter="url(#prefix__a)" transform="translate(-2843 -1084)">
        <g>
            <path fill="#004B93" d="M20 6.83c.01-.75-.286-1.473-.82-2-1.118-1.072-2.882-1.072-4 0l-6.6 6.6h-.22c-2.352.063-4.242 1.958-4.3 4.31L4 19c-.007.273.098.536.29.73.195.175.448.272.71.27l3.26-.06c2.352-.058 4.247-1.948 4.31-4.3v-.23l6.61-6.6c.53-.521.827-1.236.82-1.98zM8.25 17.94L6 18v-2.23c.022-1.31 1.09-2.36 2.4-2.36 1.187 0 2.15.962 2.15 2.15v.04c-.03 1.264-1.037 2.288-2.3 2.34zm9.52-10.55l-5.87 5.87c-.154-.229-.328-.443-.52-.64-.195-.195-.41-.37-.64-.52l5.87-5.86c.325-.31.835-.31 1.16 0 .154.157.237.37.23.59 0 .21-.082.411-.23.56z" transform="translate(2843 1084)"/>
        </g>
    </g>
</svg>
