<svg xmlns="http://www.w3.org/2000/svg" width="24" height="24" viewBox="0 0 24 24">
    <defs>
        <filter id="prefix__a">
            <feColorMatrix in="SourceGraphic" values="0 0 0 0 0.000000 0 0 0 0 0.294118 0 0 0 0 0.576471 0 0 0 1.000000 0"/>
        </filter>
    </defs>
    <g fill="none" fill-rule="evenodd" filter="url(#prefix__a)" transform="translate(-2843 -1893)">
        <g>
            <path fill="#004B93" d="M7.347 12.505c.76-.127 1.542-.01 2.234.337 1.803.903 2.532 3.096 1.629 4.898l-.093.189c-.653 1.234-1.94 2.013-3.347 2.011L4.53 20h-.02c-.26-.006-.466-.22-.46-.48v-3.11c.014-1.84 1.28-3.432 3.07-3.86zM16.38 4.67c.761-.805 2.01-.896 2.88-.21l.126.111c.402.387.627.926.614 1.489l-.007.183c-.039.483-.248.94-.593 1.287L12.91 14c-.183.18-.477.18-.66 0L10 11.74c-.18-.183-.18-.477 0-.66z" transform="translate(2843 1893)"/>
        </g>
    </g>
</svg>
