<svg xmlns="http://www.w3.org/2000/svg" width="24" height="24" viewBox="0 0 24 24">
    <defs>
        <filter id="prefix__a">
            <feColorMatrix in="SourceGraphic" values="0 0 0 0 0.000000 0 0 0 0 0.294118 0 0 0 0 0.576471 0 0 0 1.000000 0"/>
        </filter>
    </defs>
    <g fill="none" fill-rule="evenodd" filter="url(#prefix__a)" transform="translate(-2965 -1084)">
        <g>
            <path fill="#004B93" d="M12 7l.248.006C13.728 7.08 15.105 7.807 16 9c1.657 2.21 1.21 5.343-1 7v4c0 1.105-.895 2-2 2h-2c-1.105 0-2-.895-2-2v-4c-1.259-.944-2-2.426-2-4 0-2.761 2.239-5 5-5zm0 2c-1.657 0-3 1.343-3 3l.007.2c.069.99.625 1.889 1.493 2.39l.099.065c.252.188.402.486.401.805V20h2v-4.54c-.001-.359.19-.69.5-.87l.17-.105c.825-.553 1.327-1.483 1.33-2.485l-.005-.176C14.904 10.249 13.598 9 12 9zm9 2c.552 0 1 .448 1 1s-.448 1-1 1h-2c-.552 0-1-.448-1-1s.448-1 1-1zM5 11c.552 0 1 .448 1 1s-.448 1-1 1H3c-.552 0-1-.448-1-1s.448-1 1-1zm-.21-5.96c.384-.406 1.024-.424 1.43-.04l1.44 1.42c.405.373.432 1.004.06 1.41l-.085.08c-.177.147-.402.23-.635.23l-.135-.004c-.222-.023-.432-.119-.595-.276L4.83 6.47l-.087-.093c-.32-.388-.307-.962.047-1.337zm12.99.01c.39-.388 1.02-.388 1.41 0l.006.006c.389.392.386 1.025-.006 1.414l-1.44 1.39c-.185.179-.433.279-.69.28l-.116-.007c-.229-.028-.443-.134-.604-.303-.388-.39-.388-1.02 0-1.41zM12 2c.552 0 1 .448 1 1v2c0 .552-.448 1-1 1l-.117-.007C11.386 5.936 11 5.513 11 5V3c0-.552.448-1 1-1z" transform="translate(2965 1084)"/>
        </g>
    </g>
</svg>
