<svg xmlns="http://www.w3.org/2000/svg" width="24" height="24" viewBox="0 0 24 24">
    <defs>
        <filter id="prefix__a">
            <feColorMatrix in="SourceGraphic" values="0 0 0 0 0.000000 0 0 0 0 0.294118 0 0 0 0 0.576471 0 0 0 1.000000 0"/>
        </filter>
    </defs>
    <g fill="none" fill-rule="evenodd" filter="url(#prefix__a)" transform="translate(-3087 -1084)">
        <g>
            <path fill="#004B93" d="M16 2c.552 0 1 .448 1 1v1h1c1.657 0 3 1.343 3 3v12c0 1.657-1.343 3-3 3H6c-1.657 0-3-1.343-3-3V7l.005-.176C3.096 5.249 4.402 4 6 4h1V3c0-.552.448-1 1-1s1 .448 1 1v1h6V3c0-.552.448-1 1-1zm3 11H5v6l.007.117c.057.497.48.883.993.883h12c.552 0 1-.448 1-1v-6zm-3 2c.552 0 1 .448 1 1s-.448 1-1 1h-4c-.552 0-1-.448-1-1s.448-1 1-1zm-7.293.293c.39.39.39 1.024 0 1.414-.39.39-1.024.39-1.414 0-.39-.39-.39-1.024 0-1.414.39-.39 1.024-.39 1.414 0zM7 6H6c-.552 0-1 .448-1 1v4h14V7c0-.552-.448-1-1-1h-1v1c0 .552-.448 1-1 1s-1-.448-1-1V6H9v1c0 .552-.448 1-1 1s-1-.448-1-1V6z" transform="translate(3087 1084)"/>
        </g>
    </g>
</svg>
