<svg xmlns="http://www.w3.org/2000/svg" width="24" height="24" viewBox="0 0 24 24">
    <defs>
        <filter id="prefix__a">
            <feColorMatrix in="SourceGraphic" values="0 0 0 0 0.000000 0 0 0 0 0.294118 0 0 0 0 0.576471 0 0 0 1.000000 0"/>
        </filter>
    </defs>
    <g fill="none" fill-rule="evenodd" filter="url(#prefix__a)" transform="translate(-3087 -1893)">
        <g>
            <path fill="#004B93" d="M18 4h-1V3c0-.552-.448-1-1-1s-1 .448-1 1v1H9V3c0-.552-.448-1-1-1s-1 .448-1 1v1H6C4.343 4 3 5.343 3 7v12c0 1.657 1.343 3 3 3h12c1.657 0 3-1.343 3-3V7c0-1.657-1.343-3-3-3zM8 17c-.552 0-1-.448-1-1s.448-1 1-1 1 .448 1 1-.448 1-1 1zm8 0h-4c-.552 0-1-.448-1-1s.448-1 1-1h4c.552 0 1 .448 1 1s-.448 1-1 1zm3-6H5V7c0-.552.448-1 1-1h1v1c0 .552.448 1 1 1s1-.448 1-1V6h6v1c0 .552.448 1 1 1s1-.448 1-1V6h1c.552 0 1 .448 1 1v4z" transform="translate(3087 1893)"/>
        </g>
    </g>
</svg>
