<svg xmlns="http://www.w3.org/2000/svg" width="24" height="24" viewBox="0 0 24 24">
    <defs>
        <filter id="prefix__a">
            <feColorMatrix in="SourceGraphic" values="0 0 0 0 0.000000 0 0 0 0 0.294118 0 0 0 0 0.576471 0 0 0 1.000000 0"/>
        </filter>
    </defs>
    <g fill="none" fill-rule="evenodd" filter="url(#prefix__a)" transform="translate(-1983 -1468)">
        <g>
            <path fill="#004B93" d="M13.5 3C14.88 3 16 4.12 16 5.5V7h3c1.657 0 3 1.343 3 3v8c0 1.657-1.343 3-3 3H5c-1.657 0-3-1.343-3-3v-8l.005-.176C2.096 8.249 3.402 7 5 7h3V5.5l.005-.164C8.09 4.032 9.175 3 10.5 3zM19 9H5c-.552 0-1 .448-1 1v8l.007.117c.057.497.48.883.993.883h14c.552 0 1-.448 1-1v-8c0-.552-.448-1-1-1zm-7 1.5l.192.005c1.844.1 3.308 1.626 3.308 3.495l-.005.192c-.1 1.844-1.626 3.308-3.495 3.308-1.933 0-3.5-1.567-3.5-3.5s1.567-3.5 3.5-3.5zm0 2c-.828 0-1.5.672-1.5 1.5s.672 1.5 1.5 1.5l.144-.007C12.905 15.42 13.5 14.78 13.5 14l-.007-.144C13.42 13.095 12.78 12.5 12 12.5zM13.5 5h-3c-.276 0-.5.224-.5.5V7h4V5.5c0-.276-.224-.5-.5-.5z" transform="translate(1983 1468)"/>
        </g>
    </g>
</svg>
