<svg xmlns="http://www.w3.org/2000/svg" width="24" height="24" viewBox="0 0 24 24">
    <defs>
        <filter id="prefix__a">
            <feColorMatrix in="SourceGraphic" values="0 0 0 0 0.000000 0 0 0 0 0.294118 0 0 0 0 0.576471 0 0 0 1.000000 0"/>
        </filter>
    </defs>
    <g fill="none" fill-rule="evenodd" filter="url(#prefix__a)" transform="translate(-153 -1989)">
        <g>
            <path fill="#004B93" d="M17 7.52V5c.051-1.052-.759-1.946-1.81-2H3.79c-1.043.064-1.841.956-1.79 2v10c-.019.812.455 1.555 1.2 1.88-.627 1.534.108 3.285 1.642 3.912 1.534.627 3.285-.108 3.912-1.642.28-.686.297-1.452.046-2.15h6.36c-.565 1.557.239 3.278 1.796 3.844 1.558.565 3.279-.24 3.844-1.797.24-.661.24-1.386 0-2.047h.2c.552 0 1-.448 1-1v-4c-.006-.308-.154-.595-.4-.78L17 7.52zm3 4.96V15h-3v-4.92l3 2.4zM6 19c-.552 0-1-.448-1-1s.448-1 1-1 1 .448 1 1-.448 1-1 1zm12 0c-.552 0-1-.448-1-1s.448-1 1-1 1 .448 1 1-.448 1-1 1z" transform="translate(153 1989)"/>
        </g>
    </g>
</svg>
