<svg xmlns="http://www.w3.org/2000/svg" width="24" height="24" viewBox="0 0 24 24">
    <defs>
        <filter id="prefix__a">
            <feColorMatrix in="SourceGraphic" values="0 0 0 0 0.000000 0 0 0 0 0.294118 0 0 0 0 0.576471 0 0 0 1.000000 0"/>
        </filter>
    </defs>
    <g fill="none" fill-rule="evenodd" filter="url(#prefix__a)" transform="translate(-2471 -563)">
        <g>
            <path fill="#004B93" d="M3.9 10.08c1.15-.167 2.323-.082 3.436.25 4.235 1.26 6.645 5.716 5.384 9.95l-.038.107c-.16.382-.541.63-.962.613l-.093.01c-.063.003-.125 0-.187-.01l-.024-.007c-.527-.165-.82-.726-.656-1.253l.066-.245c.508-2.043-.092-4.213-1.596-5.705l-.194-.187C7.718 12.392 5.922 11.83 4.14 12.08l-.118.01c-.505.011-.95-.357-1.022-.87-.077-.552.308-1.063.86-1.14zM18.4 3c1.484.054 2.645 1.296 2.6 2.78v12.44c.045 1.484-1.116 2.726-2.6 2.78H17c-.552 0-1-.448-1-1s.448-1 1-1h1.4c.374-.061.637-.403.6-.78V5.78c.037-.377-.226-.719-.6-.78H5.6c-.374.061-.637.403-.6.78V7c0 .552-.448 1-1 1s-1-.448-1-1V5.61C3.045 4.202 4.173 3.052 5.6 3zM4.122 13.97c.785-.063 1.576.079 2.292.416C8.673 15.449 9.643 18.14 8.58 20.4l-.062.113c-.181.289-.5.468-.848.467l-.144-.01c-.095-.015-.188-.041-.276-.08l-.103-.056c-.425-.263-.595-.81-.377-1.274l.071-.171c.346-.921.124-1.967-.581-2.669l-.132-.124c-.542-.477-1.267-.697-1.988-.596l-.116.011c-.498.02-.943-.337-1.024-.841l-.004-.027-.004-.027c-.069-.548.32-1.047.868-1.116zm.585 4.323c.39.39.39 1.024 0 1.414-.39.39-1.024.39-1.414 0-.39-.39-.39-1.024 0-1.414.39-.39 1.024-.39 1.414 0z" transform="translate(2471 563)"/>
        </g>
    </g>
</svg>
