<svg xmlns="http://www.w3.org/2000/svg" width="24" height="24" viewBox="0 0 24 24">
    <defs>
        <filter id="prefix__a">
            <feColorMatrix in="SourceGraphic" values="0 0 0 0 0.000000 0 0 0 0 0.294118 0 0 0 0 0.576471 0 0 0 1.000000 0"/>
        </filter>
    </defs>
    <g fill="none" fill-rule="evenodd" filter="url(#prefix__a)" transform="translate(-275 -1989)">
        <g>
            <path fill="#004B93" d="M9.28 6l-3.14 5.5c-.179.31-.179.69 0 1l.065.098c.186.25.48.4.795.402h4.28l-2.86 5H4.17c-1.269-.075-2.238-1.161-2.17-2.43V8.43C1.932 7.161 2.901 6.075 4.17 6h5.11zm6.55 0c1.269.075 2.238 1.161 2.17 2.43v7.14c.068 1.269-.901 2.355-2.17 2.43h-5.11l3.14-5.5c.179-.31.179-.69 0-1l-.065-.098c-.186-.25-.48-.4-.795-.402H8.72l2.86-5zM21 9l.117.007c.497.057.883.48.883.993v4c0 .552-.448 1-1 1s-1-.448-1-1v-4l.007-.117c.057-.497.48-.883.993-.883z" transform="translate(275 1989)"/>
        </g>
    </g>
</svg>
