<svg xmlns="http://www.w3.org/2000/svg" width="24" height="24" viewBox="0 0 24 24">
    <defs>
        <filter id="prefix__a">
            <feColorMatrix in="SourceGraphic" values="0 0 0 0 0.000000 0 0 0 0 0.294118 0 0 0 0 0.576471 0 0 0 1.000000 0"/>
        </filter>
    </defs>
    <g fill="none" fill-rule="evenodd" filter="url(#prefix__a)" transform="translate(-275 -1180)">
        <g>
            <path fill="#004B93" d="M11.51 4.13c.48.276.646.89.37 1.37L8.72 11H13c.316.002.61.152.795.402l.065.098c.179.31.179.69 0 1l-4 7c-.158.273-.434.454-.743.492L9 20c-.552.002-1.002-.444-1.004-.996 0-.177.046-.35.134-.504l3.15-5.5H7c-.316-.002-.61-.152-.795-.402L6.14 12.5c-.179-.31-.179-.69 0-1l4-7c.276-.48.89-.646 1.37-.37zM15.83 6c1.269.075 2.238 1.161 2.17 2.43v7.14c.069 1.262-.89 2.344-2.15 2.43h-4L13 16h2.83c.12-.109.184-.268.17-.43V8.43c.015-.164-.053-.325-.18-.43h-4.23l1.14-2zm-7.7 0L7 8H4.17c-.12.11-.182.268-.17.43v7.14c-.015.164.053.325.18.43h4.23l-1.14 2h-3.1c-1.269-.075-2.238-1.161-2.17-2.43V8.43C1.931 7.176 2.877 6.096 4.13 6h4zM21 9l.117.007c.497.057.883.48.883.993v4c0 .552-.448 1-1 1s-1-.448-1-1v-4l.007-.117c.057-.497.48-.883.993-.883z" transform="translate(275 1180)"/>
        </g>
    </g>
</svg>
