<svg xmlns="http://www.w3.org/2000/svg" width="24" height="24" viewBox="0 0 24 24">
    <defs>
        <filter id="prefix__a">
            <feColorMatrix in="SourceGraphic" values="0 0 0 0 0.000000 0 0 0 0 0.294118 0 0 0 0 0.576471 0 0 0 1.000000 0"/>
        </filter>
    </defs>
    <g fill="none" fill-rule="evenodd" filter="url(#prefix__a)" transform="translate(-397 -1180)">
        <g>
            <path fill="#004B93" d="M7.833 21.12c0 .7.738 1.118 1.293.733l4.79-3.33h.167c4.37 0 7.917-3.696 7.917-8.261C22 5.697 18.453 2 14.083 2H9.917C5.547 2 2 5.697 2 10.262c0 3.77 2.437 7.002 5.833 7.965v2.894zm1.672-3.731c0-.415-.284-.769-.673-.841C5.936 16.012 3.8 13.4 3.8 10.327 3.8 6.835 6.535 4 9.912 4h4.075c3.378 0 6.113 2.835 6.113 6.327 0 3.491-2.735 6.326-6.113 6.326h-.407c-.16 0-.316.05-.449.141L9.505 19.3v-1.911z" transform="translate(397 1180)"/>
        </g>
    </g>
</svg>
