<svg xmlns="http://www.w3.org/2000/svg" width="24" height="24" viewBox="0 0 24 24">
    <g fill="none" fill-rule="evenodd">
        <path fill="#004B93" d="M18.667 2C20.507 2 22 3.492 22 5.333v13.334C22 20.507 20.508 22 18.667 22H5.333C3.493 22 2 20.508 2 18.667V5.333l.005-.183C2.1 3.395 3.554 2 5.333 2zm-3.593 5.89l-.085.099H15l-4.2 5.555L8.989 11.2c-.378-.485-1.076-.572-1.561-.194-.45.35-.558.978-.268 1.454l.073.107 2.7 3.455c.186.235.457.384.75.416l.128.006c.344 0 .668-.16.878-.433l5.078-6.667c.374-.49.28-1.192-.211-1.566-.456-.348-1.094-.291-1.482.112z"/>
    </g>
</svg>
