<svg xmlns="http://www.w3.org/2000/svg" width="24" height="24" viewBox="0 0 24 24">
    <defs>
        <filter id="prefix__a">
            <feColorMatrix in="SourceGraphic" values="0 0 0 0 0.000000 0 0 0 0 0.294118 0 0 0 0 0.576471 0 0 0 1.000000 0"/>
        </filter>
    </defs>
    <g fill="none" fill-rule="evenodd" filter="url(#prefix__a)" transform="translate(-2715 -563)">
        <g>
            <path fill="#004B93" d="M12 2l.399.01c.664.027 1.324.118 1.971.27.04.007.081.017.121.03.528.163.823.723.66 1.25-.163.528-.723.823-1.251.66l-.376-.077C13.022 4.05 12.512 4.003 12 4l-.304.005c-2.02.07-3.941.91-5.366 2.355l-.218.229c-1.353 1.472-2.107 3.4-2.108 5.407C4.002 16.415 7.582 19.998 12 20l.25-.004C16.551 19.865 20 16.335 20 12l.007-.117c.057-.497.48-.883.993-.883l.117.007c.497.057.883.48.883.993l-.004.28C21.848 17.673 17.43 22 12 22l-.328-.006C9.165 21.905 6.78 20.87 5 19.09l-.23-.236c-1.73-1.84-2.705-4.269-2.718-6.802C2.023 6.529 6.477 2.029 12 2zm6.22 4.34c.36-.374.945-.411 1.348-.086.43.346.498.976.152 1.406l-7 8c-.183.208-.443.331-.72.34l-.132-.008c-.217-.028-.42-.126-.578-.282l-3-3-.084-.095c-.306-.393-.278-.963.084-1.325.392-.392 1.028-.392 1.42 0L12 13.54z" transform="translate(2715 563)"/>
        </g>
    </g>
</svg>
