<svg xmlns="http://www.w3.org/2000/svg" width="24" height="24" viewBox="0 0 24 24">
    <defs>
        <filter id="prefix__a">
            <feColorMatrix in="SourceGraphic" values="0 0 0 0 0.000000 0 0 0 0 0.294118 0 0 0 0 0.576471 0 0 0 1.000000 0"/>
        </filter>
    </defs>
    <g fill="none" fill-rule="evenodd" filter="url(#prefix__a)" transform="translate(-2837 -563)">
        <g>
            <path fill="#004B93" d="M15.17 3c.552 0 1 .448 1 1s-.448 1-1 1H5.6c-.331 0-.6.269-.6.6v12.8l.008.097c.046.285.294.503.592.503h12.8l.097-.008c.285-.046.503-.294.503-.592v-5.57l.007-.117c.057-.497.48-.883.993-.883l.117.007c.497.057.883.48.883.993v5.57c-.006 1.434-1.166 2.595-2.6 2.6H5.6c-1.434-.005-2.595-1.166-2.6-2.6V5.6C3.005 4.166 4.166 3.005 5.6 3zm3.11 3.32c.387-.398 1.022-.407 1.42-.02.398.387.407 1.022.02 1.42l-6.78 7c-.19.193-.45.302-.72.3l-.116-.007c-.229-.028-.443-.134-.604-.303l-2.22-2.33c-.315-.382-.303-.937.028-1.305.37-.41 1.001-.444 1.412-.075l1.51 1.58z" transform="translate(2837 563)"/>
        </g>
    </g>
</svg>
