<svg xmlns="http://www.w3.org/2000/svg" width="24" height="24" viewBox="0 0 24 24">
    <defs>
        <filter id="prefix__a">
            <feColorMatrix in="SourceGraphic" values="0 0 0 0 0.000000 0 0 0 0 0.294118 0 0 0 0 0.576471 0 0 0 1.000000 0"/>
        </filter>
    </defs>
    <g fill="none" fill-rule="evenodd" filter="url(#prefix__a)" transform="translate(-514 -1180)">
        <g>
            <path fill="#004B93" d="M18 5V4c0-1.105-.895-2-2-2H8c-1.105 0-2 .895-2 2v1C4.343 5 3 6.343 3 8v11c0 1.657 1.343 3 3 3h12c1.657 0 3-1.343 3-3V8c0-1.657-1.343-3-3-3zM8 4h8v4H8V4zm11 15c0 .552-.448 1-1 1H6c-.552 0-1-.448-1-1V8c0-.552.448-1 1-1v1c0 1.105.895 2 2 2h8c1.105 0 2-.895 2-2V7c.552 0 1 .448 1 1v11z" transform="translate(514 1180)"/>
        </g>
    </g>
</svg>
