<svg xmlns="http://www.w3.org/2000/svg" width="24" height="24" viewBox="0 0 24 24">
    <defs>
        <filter id="prefix__a">
            <feColorMatrix in="SourceGraphic" values="0 0 0 0 0.000000 0 0 0 0 0.294118 0 0 0 0 0.576471 0 0 0 1.000000 0"/>
        </filter>
    </defs>
    <g fill="none" fill-rule="evenodd" filter="url(#prefix__a)" transform="translate(-517 -1989)">
        <g>
            <path fill="#004B93" d="M18 4c1.657 0 3 1.343 3 3v12c0 1.657-1.343 3-3 3H6c-1.657 0-3-1.343-3-3V7l.005-.176C3.096 5.249 4.402 4 6 4v3l.005.15C6.082 8.183 6.945 9 8 9h8c1.105 0 2-.895 2-2zm-2-2c.552 0 1 .448 1 1v4c0 .552-.448 1-1 1H8c-.552 0-1-.448-1-1V3c0-.552.448-1 1-1h8z" transform="translate(517 1989)"/>
        </g>
    </g>
</svg>
