<svg xmlns="http://www.w3.org/2000/svg" width="24" height="24" viewBox="0 0 24 24">
    <defs>
        <filter id="prefix__a">
            <feColorMatrix in="SourceGraphic" values="0 0 0 0 0.000000 0 0 0 0 0.294118 0 0 0 0 0.576471 0 0 0 1.000000 0"/>
        </filter>
    </defs>
    <g fill="none" fill-rule="evenodd" filter="url(#prefix__a)" transform="translate(-761 -1989)">
        <g>
            <path fill="#004B93" d="M12 2C6.477 2 2 6.477 2 12s4.477 10 10 10 10-4.477 10-10S17.523 2 12 2zm2.71 11.29c.392.389.395 1.022.006 1.414l-.006.006c-.389.392-1.022.395-1.414.006l-.006-.006-1.29-1.3-1.29 1.3c-.389.392-1.022.395-1.414.006l-.006-.006c-.392-.389-.395-1.022-.006-1.414l.006-.006 1.3-1.29-1.3-1.29c-.392-.392-.392-1.028 0-1.42.392-.392 1.028-.392 1.42 0l1.29 1.3 1.29-1.3c.392-.392 1.028-.392 1.42 0 .392.392.392 1.028 0 1.42L13.41 12l1.3 1.29z" transform="translate(761 1989)"/>
        </g>
    </g>
</svg>
