<svg xmlns="http://www.w3.org/2000/svg" width="24" height="24" viewBox="0 0 24 24">
    <defs>
        <filter id="prefix__a">
            <feColorMatrix in="SourceGraphic" values="0 0 0 0 0.000000 0 0 0 0 0.294118 0 0 0 0 0.576471 0 0 0 1.000000 0"/>
        </filter>
    </defs>
    <g fill="none" fill-rule="evenodd" filter="url(#prefix__a)" transform="translate(-397 -659)">
        <g>
            <path fill="#004B93" d="M13.878 11.999l5.728-5.715c.522-.523.522-1.37 0-1.892-.522-.523-1.37-.523-1.892 0L12 10.12 6.286 4.392c-.523-.523-1.37-.523-1.892 0-.522.522-.522 1.37 0 1.892l5.728 5.715-5.728 5.715c-.522.518-.526 1.362-.008 1.884l.008.008c.518.522 1.361.526 1.884.008l.008-.008L12 13.877l5.714 5.729c.519.522 1.362.526 1.884.008l.008-.008c.522-.518.526-1.362.008-1.884l-.008-.008L13.878 12z" transform="translate(397 659)"/>
        </g>
    </g>
</svg>
