<svg xmlns="http://www.w3.org/2000/svg" width="24" height="24" viewBox="0 0 24 24">
    <defs>
        <filter id="prefix__a">
            <feColorMatrix in="SourceGraphic" values="0 0 0 0 0.000000 0 0 0 0 0.294118 0 0 0 0 0.576471 0 0 0 1.000000 0"/>
        </filter>
    </defs>
    <g fill="none" fill-rule="evenodd" filter="url(#prefix__a)" transform="translate(-880 -1180)">
        <g>
            <path fill="#004B93" d="M18 3c1.657 0 3 1.343 3 3v12c0 1.657-1.343 3-3 3H6c-1.657 0-3-1.343-3-3V6l.005-.176C3.096 4.249 4.402 3 6 3zm0 2H6c-.552 0-1 .448-1 1v12l.007.117c.057.497.48.883.993.883h12c.552 0 1-.448 1-1V6c0-.552-.448-1-1-1zm-4.704 4.284c.392-.389 1.025-.386 1.414.006l.006.006c.389.392.386 1.025-.006 1.414L13.41 12l1.3 1.29.006.006c.389.392.386 1.025-.006 1.414l-.003.003c-.395.392-1.028.39-1.417-.003L12 13.41l-1.29 1.3-.006.006c-.392.389-1.025.386-1.414-.006l-.003-.003c-.392-.395-.39-1.028.003-1.417l1.3-1.29-1.3-1.29-.084-.095c-.306-.393-.278-.963.084-1.325.392-.392 1.028-.392 1.42 0l1.29 1.3 1.29-1.3.006-.006z" transform="translate(880 1180)"/>
        </g>
    </g>
</svg>
