<svg xmlns="http://www.w3.org/2000/svg" width="24" height="24" viewBox="0 0 24 24">
    <defs>
        <filter id="prefix__a">
            <feColorMatrix in="SourceGraphic" values="0 0 0 0 0.000000 0 0 0 0 0.294118 0 0 0 0 0.576471 0 0 0 1.000000 0"/>
        </filter>
    </defs>
    <g fill="none" fill-rule="evenodd" filter="url(#prefix__a)" transform="translate(-1127 -1989)">
        <g>
            <path fill="#004B93" d="M11.31 11.29c.389-.381 1.011-.381 1.4 0l3 3c.395.398.392 1.031 0 1.42l-.003.003c-.395.392-1.028.39-1.417-.003L13 14.41V20c0 .552-.448 1-1 1s-1-.448-1-1v-5.64l-1.31 1.27c-.033.037-.069.071-.107.103-.426.351-1.056.29-1.408-.135-.351-.426-.291-1.056.135-1.408zm-1.272-6.998C13.169 3.21 16.586 4.87 17.67 8l.23.11c.139.02.276.05.41.09l.169.043c.112.031.222.067.331.107l.39.18c.152.067.299.144.44.23L20 9l.37.33c.11.1.21.18.32.3.11.12.31.29.31.37 0 .08.12.15.21.29.09.14.18.31.24.44s.13.25.18.37c.074.185.134.376.18.57l.037.11c.026.073.053.147.053.22.065.33.099.664.1 1l-.012.312c-.015.207-.04.413-.078.618l-.027.097c-.02.064-.043.126-.043.193-.05.196-.11.39-.18.58l-.12.29c-.088.193-.188.38-.3.56l-.14.22c-.014.028-.031.055-.05.08L21 16c-.944 1.259-2.426 2-4 2h-3v-1.27c.302.18.648.273 1 .27l.176-.008c.465-.043.902-.248 1.234-.582l.116-.127c.657-.784.619-1.954-.116-2.693l-3-3c-.373-.376-.88-.588-1.41-.59l-.172.007c-.456.039-.886.233-1.218.553l-3 2.9-.002.002c-.794.768-.816 2.034-.048 2.828l.132.122c.364.31.826.483 1.308.488l.175-.008c.29-.026.572-.115.825-.262V18H7c-1.574 0-3.056-.741-4-2l-.05-.07c-.019-.025-.036-.052-.05-.08l-.14-.22c-.112-.18-.212-.367-.3-.56l-.12-.29c-.07-.19-.13-.384-.18-.58l-.027-.097c-.02-.064-.043-.126-.043-.193-.055-.3-.085-.605-.09-.91l.014-.319c.016-.211.045-.422.086-.631l.032-.11c.027-.073.058-.147.058-.22.046-.194.106-.385.18-.57l.038-.087c.039-.086.082-.17.142-.283.08-.15.16-.31.24-.44.08-.13.16-.24.26-.36s.21-.26.31-.37c.1-.11.21-.2.32-.3L4.05 9l.36-.3c.141-.086.288-.163.44-.23l.39-.18c.163-.06.33-.11.5-.15.134-.04.271-.07.41-.09L6.33 8c.602-1.739 1.969-3.106 3.708-3.708z" transform="translate(1127 1989)"/>
        </g>
    </g>
</svg>
