<svg xmlns="http://www.w3.org/2000/svg" width="24" height="24" viewBox="0 0 24 24">
    <defs>
        <filter id="prefix__a">
            <feColorMatrix in="SourceGraphic" values="0 0 0 0 0.000000 0 0 0 0 0.294118 0 0 0 0 0.576471 0 0 0 1.000000 0"/>
        </filter>
    </defs>
    <g fill="none" fill-rule="evenodd" filter="url(#prefix__a)" transform="translate(-1005 -1989)">
        <g>
            <path fill="#004B93" d="M12 11c.552 0 1 .448 1 1v5.64l1.31-1.26c.033-.037.069-.071.107-.103.426-.351 1.056-.29 1.408.135.351.426.291 1.056-.135 1.408l-3 2.9c-.185.179-.433.279-.69.28l-.132-.008c-.217-.028-.42-.126-.578-.282l-3-3-.084-.095c-.306-.393-.278-.963.084-1.325.392-.392 1.028-.392 1.42 0l1.29 1.3V12c0-.552.448-1 1-1zm-1.826-7.77c3.155-1.013 6.534.725 7.546 3.88h.18c.139.02.276.05.41.09l.169.043c.112.031.222.067.331.107l.39.18c.152.067.299.144.44.23L20 8l.37.33c.11.1.21.18.32.3.11.12.31.29.31.37 0 .08.12.15.21.29.09.14.18.31.24.44s.13.25.18.37c.074.185.134.376.18.57l.073.22.017.11c.065.33.099.664.1 1l-.012.312c-.015.207-.04.413-.078.618l-.027.097c-.02.064-.043.126-.043.193-.05.196-.11.39-.18.58l-.12.29c-.088.193-.188.38-.3.56l-.14.22c-.014.028-.031.055-.05.08L21 15c-.944 1.259-2.426 2-4 2l-.017-.18c-.06-.416-.248-.805-.543-1.11l-.132-.122c-.364-.31-.826-.484-1.308-.488l-.175.008c-.29.026-.572.115-.825.262V12l-.005-.15C13.918 10.817 13.055 10 12 10c-1.105 0-2 .895-2 2v3.27c-.302-.18-.648-.273-1-.27l-.176.008c-.465.043-.902.248-1.234.582l-.12.13c-.3.356-.468.81-.47 1.28l-.248-.006C5.272 16.92 3.895 16.193 3 15l-.05-.07c-.019-.025-.036-.052-.05-.08l-.14-.22c-.112-.18-.212-.367-.3-.56l-.12-.29c-.07-.19-.13-.384-.18-.58l-.027-.097c-.02-.064-.043-.126-.043-.193-.055-.3-.085-.605-.09-.91l.014-.319c.016-.211.045-.422.086-.631l.032-.11c.027-.073.058-.147.058-.22.046-.194.106-.385.18-.57l.038-.087c.039-.086.082-.17.142-.283.08-.15.16-.31.24-.44.08-.13.16-.24.26-.36s.21-.26.31-.37c.1-.11.21-.2.32-.3L4.05 8l.36-.35c.141-.086.288-.163.44-.23l.39-.18c.163-.06.33-.11.5-.15l.203-.052L6.15 7h.18c.614-1.793 2.039-3.191 3.844-3.77z" transform="translate(1005 1989)"/>
        </g>
    </g>
</svg>
