<svg xmlns="http://www.w3.org/2000/svg" width="24" height="24" viewBox="0 0 24 24">
    <defs>
        <filter id="prefix__a">
            <feColorMatrix in="SourceGraphic" values="0 0 0 0 0.000000 0 0 0 0 0.294118 0 0 0 0 0.576471 0 0 0 1.000000 0"/>
        </filter>
    </defs>
    <g fill="none" fill-rule="evenodd" filter="url(#prefix__a)" transform="translate(-1124 -1180)">
        <g>
            <path fill="#004B93" d="M11.31 11.29c.389-.381 1.011-.381 1.4 0l3.006 3.006c.389.392.386 1.025-.006 1.414l-.003.003c-.395.392-1.028.39-1.417-.003L13 14.41V20c0 .552-.448 1-1 1s-1-.448-1-1v-5.64l-1.31 1.27c-.033.037-.069.071-.107.103-.426.351-1.056.29-1.408-.135-.351-.426-.291-1.056.135-1.408zm-1.272-7.998C13.169 2.21 16.586 3.87 17.67 7l.255.038c.93.165 1.797.59 2.498 1.229 2.04 1.86 2.187 5.022.327 7.063l-.086.087c-.182.162-.418.253-.664.253l-.12-.007c-.2-.025-.388-.109-.54-.243l-.005-.004c-.416-.372-.453-1.004-.085-1.416l.142-.17c.405-.527.625-1.176.622-1.844C20.006 10.329 18.657 8.992 17 9h-.06c-.483.01-.904-.327-1-.8l-.047-.203c-.38-1.476-1.571-2.615-3.077-2.921-2.165-.44-4.276.959-4.716 3.124l-.03.115c-.137.412-.527.694-.97.685H7c-.743-.003-1.46.269-2.014.764-1.235 1.105-1.34 3.001-.236 4.236l.091.084c.058.06.107.126.148.199.273.48.105 1.09-.376 1.363-.48.273-1.09.104-1.363-.376l-.174-.207c-.559-.705-.918-1.549-1.038-2.444C1.671 9.883 3.593 7.367 6.33 7l.091-.246c.642-1.621 1.96-2.888 3.617-3.462z" transform="translate(1124 1180)"/>
        </g>
    </g>
</svg>
