<svg xmlns="http://www.w3.org/2000/svg" width="24" height="24" viewBox="0 0 24 24">
    <defs>
        <filter id="prefix__a">
            <feColorMatrix in="SourceGraphic" values="0 0 0 0 0.000000 0 0 0 0 0.294118 0 0 0 0 0.576471 0 0 0 1.000000 0"/>
        </filter>
    </defs>
    <g fill="none" fill-rule="evenodd" filter="url(#prefix__a)" transform="translate(-1493 -1192)">
        <g>
            <path fill="#004B93" d="M13.7 5c3.551 0 6.278 2.347 6.573 5.549 1.923.57 3.727 2.267 3.727 4.501 0 2.475-2.292 4.632-5.005 4.708l-.128.002H5.473C2.558 19.76 0 17.41 0 14.73c0-2.091 1.551-3.715 3.165-4.491.42-1.733 2.012-3.014 3.877-3.014.434 0 .859.068 1.263.201C9.463 5.872 11.377 5 13.7 5zm0 2c-1.928 0-3.429.786-4.123 2.157l-.502.993-.934-.605c-.324-.209-.703-.32-1.099-.32-1.04 0-1.91.786-1.979 1.79l-.046.653-.617.22C3.236 12.302 2 13.439 2 14.73c0 1.586 1.655 3.03 3.473 3.03l13.481-.001C20.541 17.714 22 16.423 22 15.05c0-1.398-1.486-2.541-2.819-2.692l-.944-.107.058-.947c.004-.059.005-.117.005-.173C18.3 8.776 16.322 7 13.7 7zm-.797 4.707l.21.006c.617.037 1.093.24 1.427.608l.106.129c.3.403.451.962.451 1.676l-.006.232c-.033.678-.218 1.201-.554 1.572l-.117.117c-.367.333-.875.5-1.522.5l-.208-.006c-.61-.037-1.085-.242-1.426-.614l-.108-.13c-.306-.407-.459-.966-.459-1.679l.006-.229c.033-.67.22-1.191.559-1.563.377-.413.923-.619 1.641-.619zm-4.457 0l.237.01c.393.03.77.137 1.134.322L9.45 13.04l-.163-.077-.164-.069-.163-.06-.168-.046c-.115-.025-.234-.038-.359-.038l-.118.008c-.229.03-.413.152-.548.364l-.064.113c-.117.236-.175.54-.175.913l.004.165c.038.796.36 1.194.967 1.194l.194-.01c.128-.012.253-.038.376-.077l.184-.062c.123-.044.246-.093.37-.147v1.076l-.125.054-.207.074c-.283.088-.59.132-.922.132l-.196-.006c-.573-.037-1.02-.24-1.341-.612L6.73 15.8c-.289-.404-.433-.957-.433-1.658l.007-.239c.024-.39.109-.738.252-1.046l.078-.153c.167-.295.39-.529.668-.699.323-.199.704-.298 1.144-.298zm8.236 1.76l.142.007c.138.013.263.046.377.097l.108.058c.1.063.183.142.246.237l.054.1c.047.102.071.213.071.332l-.005.116c-.007.075-.02.147-.04.214l-.034.1c-.026.067-.06.133-.101.198l-.068.1c-.05.067-.109.136-.176.208l-.044.045c-.048.05-.113.114-.195.19l-.409.38v.021h1.129v.677h-2.168v-.54l.73-.749.129-.138.191-.212.089-.105.134-.208.037-.183-.075-.187-.058-.038c-.043-.02-.094-.03-.155-.03l-.094.009c-.063.012-.127.036-.191.072l-.1.064c-.07.048-.145.108-.226.178l-.443-.526.075-.068.088-.073c.085-.069.16-.122.225-.16l.108-.055c.074-.034.152-.062.235-.084.123-.03.261-.047.414-.047zm-3.779-.718l-.118.006c-.534.058-.801.514-.801 1.371 0 .91.306 1.363.914 1.363l.128-.006c.245-.028.431-.136.559-.325l.06-.102c.11-.22.165-.53.165-.93l-.005-.194c-.018-.372-.093-.655-.223-.847l-.07-.089c-.147-.164-.351-.247-.609-.247z" transform="translate(1493 1192)"/>
        </g>
    </g>
</svg>
