<svg xmlns="http://www.w3.org/2000/svg" width="24" height="24" viewBox="0 0 24 24">
    <defs>
        <filter id="prefix__a">
            <feColorMatrix in="SourceGraphic" values="0 0 0 0 0.000000 0 0 0 0 0.294118 0 0 0 0 0.576471 0 0 0 1.000000 0"/>
        </filter>
    </defs>
    <g fill="none" fill-rule="evenodd" filter="url(#prefix__a)" transform="translate(-1493 -2001)">
        <g>
            <path fill="#004B93" d="M13.7 6c3.087 0 5.6 2.109 5.6 5.13 0 .077-.003.154-.007.235C21.178 11.578 23 13.149 23 15.05c0 2.01-1.982 3.65-4.033 3.708l-.112.002H5.472C3.202 18.76 1 16.952 1 14.73c0-1.698 1.454-3.21 3.064-3.784.105-1.518 1.4-2.721 2.977-2.721.594 0 1.16.168 1.643.481C9.62 6.857 11.567 6 13.7 6zm-.814 6.6c-.718 0-1.265.206-1.641.62-.377.412-.565 1.01-.565 1.792 0 .791.19 1.394.568 1.807.378.414.922.621 1.632.621.72 0 1.267-.206 1.64-.617.373-.412.56-1.013.56-1.805 0-.793-.186-1.394-.557-1.804-.371-.41-.917-.614-1.637-.614zm3.78 1.76c-.154 0-.292.016-.416.048-.123.032-.237.078-.342.138-.087.05-.192.128-.313.233l-.075.067.443.528c.121-.107.23-.188.326-.242.096-.055.191-.082.285-.082.091 0 .162.022.212.068.05.046.076.108.076.187 0 .064-.013.125-.038.183-.025.058-.07.127-.134.208l-.088.105c-.05.057-.114.127-.192.212l-.128.137-.73.75v.54h2.168v-.677h-1.13v-.02l.41-.38c.109-.103.188-.182.239-.236.101-.108.183-.21.244-.308s.107-.197.136-.298c.03-.101.044-.211.044-.33 0-.16-.042-.303-.126-.431-.084-.128-.201-.227-.353-.296-.152-.07-.325-.104-.518-.104zM8.428 12.6c-.438 0-.82.1-1.144.298-.324.198-.572.482-.745.852-.173.369-.259.797-.259 1.284 0 .78.178 1.376.535 1.788.356.412.869.618 1.537.618.415 0 .791-.069 1.13-.206l.124-.055v-1.075c-.186.081-.37.151-.554.209-.184.058-.374.087-.57.087-.648 0-.972-.453-.972-1.36 0-.435.08-.777.24-1.025.159-.248.38-.372.666-.372.187 0 .363.028.527.084.109.037.218.08.327.129l.163.077.367-1.001c-.436-.221-.894-.332-1.372-.332zm4.458 1.042c.301 0 .528.112.68.336.151.224.227.57.227 1.04 0 .468-.075.812-.225 1.033-.15.22-.379.331-.688.331-.609 0-.913-.455-.913-1.364 0-.917.307-1.376.92-1.376z" transform="translate(1493 2001)"/>
        </g>
    </g>
</svg>
