<svg xmlns="http://www.w3.org/2000/svg" width="24" height="24" viewBox="0 0 24 24">
    <defs>
        <filter id="prefix__a">
            <feColorMatrix in="SourceGraphic" values="0 0 0 0 0.000000 0 0 0 0 0.294118 0 0 0 0 0.576471 0 0 0 1.000000 0"/>
        </filter>
    </defs>
    <g fill="none" fill-rule="evenodd" filter="url(#prefix__a)" transform="translate(-519 -659)">
        <g>
            <path fill="#004B93" d="M7.232 5.358c.353-.424.984-.482 1.408-.128.426.355.484.986.13 1.41L4.29 12l4.33 5.37c.145.18.224.403.223.633-.001.553-.45.999-1.003.997l-.128-.008c-.255-.032-.489-.16-.652-.362l-4.83-6c-.303-.369-.303-.901 0-1.27l5-6zm8.362-.141c.43-.346 1.06-.278 1.406.153l4.78 6c.3.371.296.903-.01 1.27l-5 6c-.19.229-.473.36-.77.36l-.138-.008c-.183-.023-.357-.096-.502-.212h-.001c-.425-.355-.483-.986-.129-1.41L19.71 12l-4.27-5.37-.003-.004c-.346-.43-.278-1.06.153-1.406l.002-.002z" transform="translate(519 659)"/>
        </g>
    </g>
</svg>
