<svg xmlns="http://www.w3.org/2000/svg" width="24" height="24" viewBox="0 0 24 24">
    <defs>
        <filter id="prefix__a">
            <feColorMatrix in="SourceGraphic" values="0 0 0 0 0.000000 0 0 0 0 0.294118 0 0 0 0 0.576471 0 0 0 1.000000 0"/>
        </filter>
    </defs>
    <g fill="none" fill-rule="evenodd" filter="url(#prefix__a)" transform="translate(-641 -659)">
        <g>
            <path fill="#004B93" d="M7.23 5.36c.353-.425.985-.483 1.41-.13.425.353.483.985.13 1.41L4.29 12l4.33 5.37c.145.18.224.403.223.633-.001.553-.45.999-1.003.997l-.128-.008c-.255-.032-.489-.16-.652-.362l-4.83-6c-.303-.369-.303-.901 0-1.27zm8.36-.14c.43-.348 1.062-.28 1.41.15l4.78 6c.3.371.296.903-.01 1.27l-5 6c-.19.229-.473.36-.77.36l-.138-.008c-.183-.023-.357-.096-.502-.212h-.001c-.425-.355-.483-.986-.129-1.41L19.71 12l-4.27-5.37c-.348-.43-.28-1.062.15-1.41zM12 7c.552 0 1 .448 1 1v4.64l1.31-1.23c.39-.388 1.02-.388 1.41 0l.08.096c.295.398.256.962-.11 1.314l-3 2.9c-.185.179-.433.279-.69.28l-.132-.008c-.217-.028-.42-.126-.578-.282l-3-3-.084-.095c-.306-.393-.278-.963.084-1.325.392-.392 1.028-.392 1.42 0l1.29 1.3V8c0-.552.448-1 1-1z" transform="translate(641 659)"/>
        </g>
    </g>
</svg>
