<svg xmlns="http://www.w3.org/2000/svg" width="24" height="24" viewBox="0 0 24 24">
    <defs>
        <filter id="prefix__a">
            <feColorMatrix in="SourceGraphic" values="0 0 0 0 0.000000 0 0 0 0 0.294118 0 0 0 0 0.576471 0 0 0 1.000000 0"/>
        </filter>
    </defs>
    <g fill="none" fill-rule="evenodd" filter="url(#prefix__a)" transform="translate(-763 -659)">
        <g>
            <path fill="#004B93" d="M10 13c.552 0 1 .448 1 1v5c0 .552-.448 1-1 1l-.117-.007C9.386 19.936 9 19.513 9 19v-2.58l-3.29 3.29-.006.006c-.392.389-1.025.386-1.414-.006-.395-.398-.392-1.031 0-1.42L7.57 15H5c-.552 0-1-.448-1-1s.448-1 1-1zm8.29-8.71c.392-.392 1.028-.392 1.42 0 .392.392.392 1.028 0 1.42L16.42 9H19c.552 0 1 .448 1 1s-.448 1-1 1h-5c-.552 0-1-.448-1-1V5l.007-.117c.057-.497.48-.883.993-.883l.117.007c.497.057.883.48.883.993v2.57z" transform="translate(763 659)"/>
        </g>
    </g>
</svg>
