<svg xmlns="http://www.w3.org/2000/svg" width="24" height="24" viewBox="0 0 24 24">
    <defs>
        <filter id="prefix__a">
            <feColorMatrix in="SourceGraphic" values="0 0 0 0 0.000000 0 0 0 0 0.294118 0 0 0 0 0.576471 0 0 0 1.000000 0"/>
        </filter>
    </defs>
    <g fill="none" fill-rule="evenodd" filter="url(#prefix__a)" transform="translate(-1619 -1180)">
        <g>
            <path fill="#004B93" d="M12.252 2c2.731.049 5.344 1.15 7.288 3.08l.21.22c1.51 1.633 2.322 3.798 2.25 6.03l-.022.228c-.358 3.1-2.993 5.457-6.138 5.442h-1.65c-.12.001-.235.045-.324.124-.208.183-.228.499-.046.706l.122.147c.463.603.63 1.388.448 2.133l-.053.167c-.366 1.042-1.36 1.742-2.477 1.723l-.28-.005c-5.393-.161-9.709-4.59-9.695-10.02C1.899 6.452 6.387 1.986 11.91 2zM12 4h-.08c-3.946.078-7.261 2.988-7.85 6.89l-.04.335c-.022.224-.034.448-.037.673-.056 4.418 3.48 8.045 7.897 8.102l.112-.013c.253-.04.434-.163.478-.347.054-.173.007-.361-.12-.49l-.13-.158c-.329-.435-.507-.967-.504-1.516.008-1.375 1.129-2.484 2.504-2.476h1.65c2.13-.015 3.906-1.631 4.12-3.75l.001-.297c-.031-1.677-.71-3.281-1.901-4.473l-.224-.216C16.284 4.785 14.181 3.971 12 4zm-5.827 7.251c.684-.458 1.609-.275 2.067.409l.001.002c.465.688.284 1.62-.402 2.084-.687.464-1.62.283-2.083-.403-.463-.687-.283-1.62.404-2.083l.006-.004zm.528-3.5c.414-.718 1.331-.965 2.049-.551.719.415.964 1.333.55 2.05l-.078.122c-.443.621-1.295.816-1.97.427-.718-.413-.964-1.33-.55-2.048zm8.55-.552c.718-.413 1.635-.167 2.049.551l.066.129c.317.694.06 1.529-.615 1.919-.718.414-1.635.169-2.05-.549-.414-.717-.168-1.635.549-2.049zm-2.19-1.76c.585.586.585 1.536 0 2.122-.586.585-1.536.585-2.122 0-.585-.586-.585-1.536 0-2.122.586-.585 1.536-.585 2.122 0z" transform="translate(1619 1180)"/>
        </g>
    </g>
</svg>
