<svg xmlns="http://www.w3.org/2000/svg" width="24" height="24" viewBox="0 0 24 24">
    <defs>
        <filter id="prefix__a">
            <feColorMatrix in="SourceGraphic" values="0 0 0 0 0.000000 0 0 0 0 0.294118 0 0 0 0 0.576471 0 0 0 1.000000 0"/>
        </filter>
    </defs>
    <g fill="none" fill-rule="evenodd" filter="url(#prefix__a)" transform="translate(-1741 -1180)">
        <g>
            <path fill="#004B93" d="M19.4 7.34L16.66 4.6c-.724-.734-1.898-.764-2.66-.07l-2 2-1.29-1.24c-.392-.392-1.028-.392-1.42 0-.392.392-.392 1.028 0 1.42L10.53 8 5 13.53c-.323.326-.524.753-.57 1.21L4 18.91c-.027.297.079.59.29.8.189.187.444.292.71.29h.09l4.17-.38c.457-.046.884-.247 1.21-.57l5.58-5.58 1.24 1.24c.389.392 1.022.395 1.414.006l.006-.006c.392-.389.395-1.022.006-1.414l-.006-.006-1.24-1.24 2-2c.727-.768.696-1.98-.07-2.71zM9.08 17.62l-3 .28.27-3L12 9.36l2.69 2.7-5.61 5.56zm7-7L13.36 8l1.91-2L18 8.73l-1.92 1.89z" transform="translate(1741 1180)"/>
        </g>
    </g>
</svg>
