<svg xmlns="http://www.w3.org/2000/svg" width="24" height="24" viewBox="0 0 24 24">
    <defs>
        <filter id="prefix__a">
            <feColorMatrix in="SourceGraphic" values="0 0 0 0 0.000000 0 0 0 0 0.294118 0 0 0 0 0.576471 0 0 0 1.000000 0"/>
        </filter>
    </defs>
    <g fill="none" fill-rule="evenodd" filter="url(#prefix__a)" transform="translate(-1619 -1989)">
        <g>
            <path fill="#004B93" d="M19.54 5.08C17.515 3.069 14.764 1.959 11.91 2 6.387 1.986 1.899 6.452 1.885 11.975 1.871 17.498 6.337 21.986 11.86 22c1.175.02 2.216-.757 2.53-1.89.198-.807-.016-1.66-.57-2.28-.182-.207-.162-.523.046-.706.09-.079.204-.123.324-.124h1.65c3.221.015 5.909-2.458 6.16-5.67.075-2.333-.815-4.594-2.46-6.25zm-12.7 9.66c-.685.466-1.618.288-2.084-.397-.465-.686-.287-1.619.398-2.084.685-.466 1.618-.288 2.083.397l.003.004c.465.679.292 1.606-.387 2.071l-.013.009zM8.3 9.25c-.394.729-1.304 1-2.033.607-.729-.393-1-1.303-.607-2.032.394-.73 1.304-1.001 2.033-.608.02.01.038.022.057.033.689.412.931 1.294.55 2zM11 7c-.828 0-1.5-.672-1.5-1.5S10.172 4 11 4s1.5.672 1.5 1.5S11.828 7 11 7zm5.75.8c-.711.425-1.632.194-2.057-.517-.425-.711-.194-1.632.517-2.058.711-.425 1.632-.193 2.057.518l.033.057c.381.706.139 1.588-.55 2z" transform="translate(1619 1989)"/>
        </g>
    </g>
</svg>
