<svg xmlns="http://www.w3.org/2000/svg" width="24" height="24" viewBox="0 0 24 24">
    <defs>
        <filter id="prefix__a">
            <feColorMatrix in="SourceGraphic" values="0 0 0 0 0.000000 0 0 0 0 0.294118 0 0 0 0 0.576471 0 0 0 1.000000 0"/>
        </filter>
    </defs>
    <g fill="none" fill-rule="evenodd" filter="url(#prefix__a)" transform="translate(-1863 -1180)">
        <g>
            <path fill="#004B93" d="M12 2l.28.004C17.673 2.152 22 6.57 22 12l-.004.28C21.848 17.673 17.43 22 12 22 6.477 22 2 17.523 2 12S6.477 2 12 2zm0 2c-4.418 0-8 3.582-8 8s3.582 8 8 8l.25-.004C16.551 19.865 20 16.335 20 12l-.004-.25C19.865 7.449 16.335 4 12 4zm2.58 4.07c.383-.151.82-.052 1.1.25l.088.102c.215.283.265.665.122.998l-1.75 4.26c-.102.25-.3.448-.55.55l-4.21 1.7c-.12.048-.25.072-.38.07l-.12-.022c-.233-.057-.44-.198-.58-.398h-.05c-.237-.276-.306-.659-.18-1l1.75-4.26c.102-.25.3-.448.55-.55zm-1.38 2.72l-1.69.68-.71 1.74 1.69-.68.71-1.74z" transform="translate(1863 1180)"/>
        </g>
    </g>
</svg>
