<svg xmlns="http://www.w3.org/2000/svg" width="24" height="24" viewBox="0 0 24 24">
    <defs>
        <filter id="prefix__a">
            <feColorMatrix in="SourceGraphic" values="0 0 0 0 0.000000 0 0 0 0 0.294118 0 0 0 0 0.576471 0 0 0 1.000000 0"/>
        </filter>
    </defs>
    <g fill="none" fill-rule="evenodd" filter="url(#prefix__a)" transform="translate(-1863 -1989)">
        <g>
            <path fill="#004B93" d="M12 2l.28.004C17.673 2.152 22 6.57 22 12l-.004.28C21.848 17.673 17.43 22 12 22 6.477 22 2 17.523 2 12S6.477 2 12 2zm3.571 6.337c-.278-.228-.66-.291-1.001-.157l-4.21 1.7c-.25.102-.448.3-.55.55l-1.75 4.26c-.126.341-.057.724.18 1h.05c.185.195.441.306.71.31l.143-.003c.095-.01.188-.032.277-.067l4.21-1.7c.25-.102.448-.3.55-.55l1.75-4.26c.102-.353.002-.733-.26-.99zM13.2 10.79l-.71 1.74-1.69.68.71-1.74 1.69-.68z" transform="translate(1863 1989)"/>
        </g>
    </g>
</svg>
