<svg xmlns="http://www.w3.org/2000/svg" width="24" height="24" viewBox="0 0 24 24">
    <defs>
        <filter id="prefix__a">
            <feColorMatrix in="SourceGraphic" values="0 0 0 0 0.000000 0 0 0 0 0.294118 0 0 0 0 0.576471 0 0 0 1.000000 0"/>
        </filter>
    </defs>
    <g fill="none" fill-rule="evenodd" filter="url(#prefix__a)" transform="translate(-1985 -1180)">
        <g>
            <path fill="#004B93" d="M12.33 3c1.472.005 2.665 1.198 2.67 2.67L14.999 9H18c1.657 0 3 1.343 3 3v6c0 1.657-1.343 3-3 3h-6c-1.598 0-2.904-1.249-2.995-2.824L9 18l-.001-3.001L5.67 15c-1.472-.005-2.665-1.198-2.67-2.67V5.67C3.005 4.198 4.198 3.005 5.67 3h6.66zM18 11h-6c-.513 0-.936.386-.993.883L11 12v6c0 .552.448 1 1 1h6c.552 0 1-.448 1-1v-6c0-.552-.448-1-1-1zm-5.67-6H5.67C5.3 5 5 5.3 5 5.67v6.66c0 .37.3.67.67.67l3.329-.001L9 12c0-1.657 1.343-3 3-3h.999L13 5.67c0-.37-.3-.67-.67-.67z" transform="translate(1985 1180)"/>
        </g>
    </g>
</svg>
