<svg xmlns="http://www.w3.org/2000/svg" width="24" height="24" viewBox="0 0 24 24">
    <defs>
        <filter id="prefix__a">
            <feColorMatrix in="SourceGraphic" values="0 0 0 0 0.000000 0 0 0 0 0.294118 0 0 0 0 0.576471 0 0 0 1.000000 0"/>
        </filter>
    </defs>
    <g fill="none" fill-rule="evenodd" filter="url(#prefix__a)" transform="translate(-1739 -659)">
        <g>
            <path fill="#004B93" d="M19.78 10.38l-4-5c-.38-.402-1.012-.42-1.414-.04-.354.334-.416.874-.146 1.28l2.7 3.38H8c-1.657 0-3 1.343-3 3v5c0 .552.448 1 1 1s1-.448 1-1v-5c0-.552.448-1 1-1h8.92l-2.7 3.38c-.34.431-.269 1.057.16 1.4.176.141.394.219.62.22.304-.001.591-.141.78-.38l4-5c.287-.363.287-.877 0-1.24z" transform="translate(1739 659)"/>
        </g>
    </g>
</svg>
