<svg xmlns="http://www.w3.org/2000/svg" width="24" height="24" viewBox="0 0 24 24">
    <defs>
        <filter id="prefix__a">
            <feColorMatrix in="SourceGraphic" values="0 0 0 0 0.000000 0 0 0 0 0.294118 0 0 0 0 0.576471 0 0 0 1.000000 0"/>
        </filter>
    </defs>
    <g fill="none" fill-rule="evenodd" filter="url(#prefix__a)" transform="translate(-1251 -659)">
        <g>
            <path fill="#004B93" d="M18.78 14.38c-.343-.429-.969-.5-1.4-.16L14 16.92V8c0-1.657-1.343-3-3-3H6c-.552 0-1 .448-1 1s.448 1 1 1h5c.552 0 1 .448 1 1v8.92l-3.38-2.7c-.46-.306-1.08-.18-1.386.28-.27.405-.208.946.146 1.28l5 4c.363.287.877.287 1.24 0l5-4c.429-.343.5-.969.16-1.4z" transform="translate(1251 659)"/>
        </g>
    </g>
</svg>
