<svg xmlns="http://www.w3.org/2000/svg" width="24" height="24" viewBox="0 0 24 24">
    <defs>
        <filter id="prefix__a">
            <feColorMatrix in="SourceGraphic" values="0 0 0 0 0.000000 0 0 0 0 0.294118 0 0 0 0 0.576471 0 0 0 1.000000 0"/>
        </filter>
    </defs>
    <g fill="none" fill-rule="evenodd" filter="url(#prefix__a)" transform="translate(-1495 -659)">
        <g>
            <path fill="#004B93" d="M18.62 8.22l-5-4c-.363-.287-.877-.287-1.24 0l-5 4c-.402.38-.42 1.012-.04 1.414.334.354.874.416 1.28.146L12 7.08V16c0 .552-.448 1-1 1H6c-.552 0-1 .448-1 1s.448 1 1 1h5c1.657 0 3-1.343 3-3V7.08l3.38 2.7c.176.141.394.219.62.22.304-.001.591-.141.78-.38.34-.431.269-1.057-.16-1.4z" transform="translate(1495 659)"/>
        </g>
    </g>
</svg>
