<svg xmlns="http://www.w3.org/2000/svg" width="24" height="24" viewBox="0 0 24 24">
    <defs>
        <filter id="prefix__a">
            <feColorMatrix in="SourceGraphic" values="0 0 0 0 0.000000 0 0 0 0 0.294118 0 0 0 0 0.576471 0 0 0 1.000000 0"/>
        </filter>
    </defs>
    <g fill="none" fill-rule="evenodd" filter="url(#prefix__a)" transform="translate(-885 -659)">
        <g>
            <path fill="#004B93" d="M19.917 5.975c0-.55-.446-.996-.996-.996s-.996.446-.996.996v4.98c.002.264-.102.518-.288.706-.188.187-.443.29-.708.29H8.046l2.68-3.377c.198-.513-.057-1.09-.57-1.288-.316-.122-.67-.075-.944.123l-3.984 4.98c-.291.363-.291.88 0 1.244l3.984 4.98c.19.233.475.369.776.368.225-.001.443-.079.618-.22.429-.344.497-.97.153-1.4-.002 0-.003-.002-.004-.003l-2.649-3.346h8.883c1.65 0 2.988-1.338 2.988-2.988l-.06-5.049z" transform="translate(885 659)"/>
        </g>
    </g>
</svg>
