<svg xmlns="http://www.w3.org/2000/svg" width="24" height="24" viewBox="0 0 24 24">
    <defs>
        <filter id="prefix__a">
            <feColorMatrix in="SourceGraphic" values="0 0 0 0 0.000000 0 0 0 0 0.294118 0 0 0 0 0.576471 0 0 0 1.000000 0"/>
        </filter>
    </defs>
    <g fill="none" fill-rule="evenodd" filter="url(#prefix__a)" transform="translate(-1617 -659)">
        <g>
            <path fill="#004B93" d="M16 10H7.08l2.7-3.38c.38-.402.36-1.035-.04-1.414-.402-.379-1.035-.36-1.414.041-.04.041-.075.086-.106.133l-4 5c-.287.363-.287.877 0 1.24l4 5c.189.239.476.379.78.38.226-.001.444-.079.62-.22.429-.343.5-.969.16-1.4L7.08 12H16c.552 0 1 .448 1 1v5c0 .552.448 1 1 1s1-.448 1-1v-5c0-1.657-1.343-3-3-3z" transform="translate(1617 659)"/>
        </g>
    </g>
</svg>
