<svg xmlns="http://www.w3.org/2000/svg" width="24" height="24" viewBox="0 0 24 24">
    <defs>
        <filter id="prefix__a">
            <feColorMatrix in="SourceGraphic" values="0 0 0 0 0.000000 0 0 0 0 0.294118 0 0 0 0 0.576471 0 0 0 1.000000 0"/>
        </filter>
    </defs>
    <g fill="none" fill-rule="evenodd" filter="url(#prefix__a)" transform="translate(-2107 -1989)">
        <g>
            <path fill="#004B93" d="M19 5H5C3.343 5 2 6.343 2 8v8c0 1.657 1.343 3 3 3h14c1.657 0 3-1.343 3-3V8c0-1.657-1.343-3-3-3zm-8 10H7c-.552 0-1-.448-1-1s.448-1 1-1h4c.552 0 1 .448 1 1s-.448 1-1 1zm6 0h-2c-.552 0-1-.448-1-1s.448-1 1-1h2c.552 0 1 .448 1 1s-.448 1-1 1zm3-6H4V8c0-.552.448-1 1-1h14c.552 0 1 .448 1 1v1z" transform="translate(2107 1989)"/>
        </g>
    </g>
</svg>
