<svg xmlns="http://www.w3.org/2000/svg" width="24" height="24" viewBox="0 0 24 24">
    <defs>
        <filter id="prefix__a">
            <feColorMatrix in="SourceGraphic" values="0 0 0 0 0.000000 0 0 0 0 0.294118 0 0 0 0 0.576471 0 0 0 1.000000 0"/>
        </filter>
    </defs>
    <g fill="none" fill-rule="evenodd" filter="url(#prefix__a)" transform="translate(-2107 -1180)">
        <g>
            <path fill="#004B93" d="M19 5c1.657 0 3 1.343 3 3v8c0 1.657-1.343 3-3 3H5c-1.657 0-3-1.343-3-3V8l.005-.176C2.096 6.249 3.402 5 5 5zm1 6H4v5l.007.117c.057.497.48.883.993.883h14c.552 0 1-.448 1-1v-5zm-9 2c.552 0 1 .448 1 1s-.448 1-1 1H7c-.552 0-1-.448-1-1s.448-1 1-1zm6 0c.552 0 1 .448 1 1s-.448 1-1 1h-2c-.552 0-1-.448-1-1s.448-1 1-1zm2-6H5c-.552 0-1 .448-1 1v1h16V8c0-.552-.448-1-1-1z" transform="translate(2107 1180)"/>
        </g>
    </g>
</svg>
