<svg xmlns="http://www.w3.org/2000/svg" width="24" height="24" viewBox="0 0 24 24">
    <defs>
        <filter id="prefix__a">
            <feColorMatrix in="SourceGraphic" values="0 0 0 0 0.000000 0 0 0 0 0.294118 0 0 0 0 0.576471 0 0 0 1.000000 0"/>
        </filter>
    </defs>
    <g fill="none" fill-rule="evenodd" filter="url(#prefix__a)" transform="translate(-1861 -659)">
        <g>
            <path fill="#004B93" d="M21 16h-3V8.56C18 7.146 16.854 6 15.44 6H8V3c0-.552-.448-1-1-1s-1 .448-1 1v3H3c-.552 0-1 .448-1 1s.448 1 1 1h3v7.44C6 16.854 7.146 18 8.56 18H16v3c0 .552.448 1 1 1s1-.448 1-1v-3h3c.552 0 1-.448 1-1s-.448-1-1-1zM8.56 16c-.31 0-.56-.25-.56-.56V8h7.44c.31 0 .56.25.56.56V16H8.56z" transform="translate(1861 659)"/>
        </g>
    </g>
</svg>
