<svg xmlns="http://www.w3.org/2000/svg" width="24" height="24" viewBox="0 0 24 24">
    <defs>
        <filter id="prefix__a">
            <feColorMatrix in="SourceGraphic" values="0 0 0 0 0.000000 0 0 0 0 0.294118 0 0 0 0 0.576471 0 0 0 1.000000 0"/>
        </filter>
    </defs>
    <g fill="none" fill-rule="evenodd" filter="url(#prefix__a)" transform="translate(-2229 -1180)">
        <g>
            <path fill="#004B93" d="M20.66 7.26c0-.07-.1-.14-.15-.21l-.09-.1c-.233-.288-.527-.52-.86-.68l-6.4-3c-.717-.33-1.543-.33-2.26 0l-6.4 3c-.332.163-.625.395-.86.68L3.52 7c-.058.06-.109.127-.15.2-.239.377-.367.814-.37 1.26v7.06c.003.974.573 1.857 1.46 2.26l6.4 3c.72.334 1.55.334 2.27 0l6.4-3c.884-.397 1.458-1.27 1.47-2.24V8.46c-.005-.423-.122-.837-.34-1.2zm-8.95-2.2c.185-.08.395-.08.58 0l5.33 2.48L12 10.15 6.38 7.54l5.33-2.48zM5.3 16c-.178-.07-.297-.239-.3-.43V9.1l6 2.79v6.72L5.3 16zm13.39 0L13 18.61v-6.72l6-2.79v6.44c.005.204-.12.388-.31.46z" transform="translate(2229 1180)"/>
        </g>
    </g>
</svg>
