<svg xmlns="http://www.w3.org/2000/svg" width="24" height="24" viewBox="0 0 24 24">
    <defs>
        <filter id="prefix__a">
            <feColorMatrix in="SourceGraphic" values="0 0 0 0 0.000000 0 0 0 0 0.294118 0 0 0 0 0.576471 0 0 0 1.000000 0"/>
        </filter>
    </defs>
    <g fill="none" fill-rule="evenodd" filter="url(#prefix__a)" transform="translate(-2105 -659)">
        <g>
            <path fill="#004B93" d="M17.71 16.29L9.42 8H15c.552 0 1-.448 1-1s-.448-1-1-1H7.05c-.552 0-1 .448-1 1v8c0 .552.448 1 1 1H7c.552 0 1-.448 1-1V9.45l8.26 8.26c.389.392 1.022.395 1.414.006l.006-.006c.4-.38.416-1.013.036-1.414l-.006-.006z" transform="translate(2105 659)"/>
        </g>
    </g>
</svg>
