<svg xmlns="http://www.w3.org/2000/svg" width="24" height="24" viewBox="0 0 24 24">
    <g fill="none" fill-rule="evenodd">
        <path fill="#004B93" d="M17.54 13.034l.196.006c1.811.097 3.268 1.539 3.383 3.35l.007.195-.008.224c-.179 2.396-3.134 4.97-3.286 5.083-.144.123-.346.14-.507.053l-.076-.053-.02-.017c-.303-.265-3.275-2.908-3.275-5.29.02-1.967 1.62-3.55 3.586-3.55zM5.9 10.858c-.143.123-.345.14-.506.053l-.076-.053-.02-.018c-.303-.264-3.275-2.908-3.275-5.29C2.043 3.584 3.643 2 5.609 2l.196.005c1.811.097 3.268 1.54 3.383 3.35l.007.195-.008.224c-.043.576-.246 1.161-.532 1.72h.701c1.521 0 2.759 1.238 2.759 2.759 0 1.52-1.238 2.758-2.759 2.758H6.138c-1.775 0-3.218 1.444-3.218 3.219s1.443 3.218 3.218 3.218h8.276c.254 0 .46.206.46.46s-.206.46-.46.46H6.138C3.857 20.368 2 18.51 2 16.23c0-2.282 1.857-4.138 4.138-4.138h3.218c1.015 0 1.84-.825 1.84-1.84 0-1.013-.825-1.838-1.84-1.838H8.103c-.922 1.345-2.108 2.373-2.202 2.444zm11.64 3.97c-.866 0-1.569.702-1.569 1.569 0 .818.627 1.49 1.426 1.562l.143.006.143-.006c.753-.068 1.352-.667 1.42-1.42l.006-.142-.006-.143c-.072-.8-.744-1.426-1.563-1.426zm.476 1.093c.262.263.262.688 0 .951-.263.263-.689.263-.951 0-.263-.263-.263-.688 0-.95.262-.264.688-.264.95 0zM5.609 3.793c-.866 0-1.569.703-1.569 1.57 0 .817.627 1.49 1.426 1.562l.143.006.143-.006c.753-.068 1.352-.668 1.42-1.42l.006-.143-.006-.143c-.072-.8-.744-1.426-1.563-1.426zm.476 1.094c.262.262.262.688 0 .95-.263.263-.689.263-.951 0-.263-.262-.263-.688 0-.95.262-.263.688-.263.95 0z"/>
    </g>
</svg>
