<svg xmlns="http://www.w3.org/2000/svg" width="24" height="24" viewBox="0 0 24 24">
    <g fill="none" fill-rule="evenodd">
        <path fill="#004B93" d="M18.364 12.91l.191.004c1.842.096 3.324 1.563 3.438 3.403l.007.192-.008.22c-.177 2.432-3.179 5.047-3.333 5.162-.146.125-.35.142-.513.053l-.078-.053-.02-.017c-.302-.264-3.32-2.947-3.32-5.365.02-1.994 1.641-3.6 3.636-3.6zm0 .872c-1.45 0-2.637 1.132-2.723 2.56l-.005.167.01.205c.146 1.649 1.989 3.524 2.718 4.218.728-.694 2.571-2.582 2.718-4.22l.009-.203-.005-.166c-.086-1.429-1.272-2.561-2.722-2.561zM5.636 2l.192.005c1.842.096 3.324 1.562 3.438 3.403l.007.192-.008.22c-.04.546-.222 1.101-.482 1.635h.676c1.542 0 2.797 1.255 2.797 2.797 0 1.542-1.255 2.797-2.797 2.797H6.196c-1.8 0-3.264 1.464-3.264 3.263 0 1.8 1.464 3.264 3.264 3.264h8.391c.258 0 .467.209.467.466s-.21.466-.467.466H6.196C3.883 20.508 2 18.626 2 16.312 2 14 3.883 12.117 6.196 12.117h3.263c1.029 0 1.865-.837 1.865-1.865 0-1.029-.836-1.865-1.865-1.865H8.244c-.945 1.42-2.213 2.521-2.312 2.595-.146.125-.351.142-.514.053l-.077-.053-.02-.017C5.02 10.7 2 8.018 2 5.6 2.02 3.606 3.642 2 5.636 2zm12.728 12.727l.144.007c.763.069 1.371.676 1.44 1.44l.007.144-.007.145c-.073.81-.755 1.446-1.584 1.446-.879 0-1.591-.712-1.591-1.59 0-.88.712-1.592 1.59-1.592zm0 .91c-.377 0-.682.305-.682.681 0 .342.252.626.58.675l.102.007.1-.007c.296-.044.53-.278.574-.574l.007-.1-.007-.102c-.049-.328-.332-.58-.674-.58zM5.636 2.872c-1.45 0-2.636 1.132-2.722 2.56L2.91 5.6l.01.205c.146 1.649 1.989 3.524 2.717 4.218.73-.694 2.572-2.582 2.718-4.22l.01-.203-.005-.166c-.086-1.429-1.272-2.561-2.723-2.561zm0 .945l.145.007c.763.069 1.37.676 1.44 1.44l.006.144-.006.145C7.148 6.364 6.466 7 5.636 7c-.878 0-1.59-.712-1.59-1.59 0-.88.712-1.592 1.59-1.592zm0 .91c-.376 0-.681.305-.681.681 0 .342.252.626.58.675l.101.007.101-.007c.296-.044.53-.278.574-.574l.007-.1-.007-.102c-.049-.328-.332-.58-.675-.58z"/>
    </g>
</svg>
