<svg xmlns="http://www.w3.org/2000/svg" width="24" height="24" viewBox="0 0 24 24">
    <defs>
        <filter id="prefix__a">
            <feColorMatrix in="SourceGraphic" values="0 0 0 0 0.000000 0 0 0 0 0.294118 0 0 0 0 0.576471 0 0 0 1.000000 0"/>
        </filter>
    </defs>
    <g fill="none" fill-rule="evenodd" filter="url(#prefix__a)" transform="translate(-2471 -659)">
        <g>
            <path fill="#004B93" d="M12 1c.552 0 1 .41 1 .917v2.749h4c.513 0 .936.355.993.81l.007.107c0 .507-.448.917-1 .917h-4v4.583h1.5c2.412 0 4.381 1.74 4.495 3.925l.005.2c0 2.279-2.015 4.125-4.5 4.125H13v2.75c0 .47-.386.858-.883.91L12 23c-.552 0-1-.41-1-.917v-2.75H6c-.513 0-.936-.354-.993-.81L5 18.418c0-.507.448-.917 1-.917h5v-4.584H9.5c-2.412 0-4.381-1.74-4.495-3.924L5 8.792c0-2.279 2.015-4.125 4.5-4.125l1.5-.001v-2.75c0-.47.386-.857.883-.91zm1 16.5h1.5c1.38 0 2.5-1.026 2.5-2.292 0-1.265-1.12-2.291-2.5-2.291l-1.5-.001V17.5zm-2-6.417V6.5H9.5c-1.323 0-2.406.942-2.494 2.135L7 8.792c0 1.265 1.12 2.291 2.5 2.291H11z" transform="translate(2471 659)"/>
        </g>
    </g>
</svg>
