<svg xmlns="http://www.w3.org/2000/svg" width="24" height="24" viewBox="0 0 24 24">
    <defs>
        <filter id="prefix__a">
            <feColorMatrix in="SourceGraphic" values="0 0 0 0 0.000000 0 0 0 0 0.294118 0 0 0 0 0.576471 0 0 0 1.000000 0"/>
        </filter>
    </defs>
    <g fill="none" fill-rule="evenodd" filter="url(#prefix__a)" transform="translate(-2593 -659)">
        <g>
            <path fill="#004B93" d="M15.215 6.373c.343-.433.972-.506 1.405-.163l.006.005c.448.337.536.964.204 1.405L9 17.62c-.2.253-.508.394-.83.38l-.128-.008c-.255-.032-.489-.16-.652-.362l-4.17-5.18-.04-.049c-.33-.441-.242-1.068.2-1.4.441-.332 1.068-.243 1.4.199l3.43 4.18 7-9 .005-.007zm5 0c.343-.433.972-.506 1.405-.163.445.33.539.956.21 1.4l-7.83 10c-.189.239-.476.379-.78.38l-.128-.008c-.255-.032-.489-.16-.652-.362l-1.1-1.37 1.26-1.62.61.75 7-9 .005-.007zM8.404 10.974c.448-.323 1.073-.222 1.396.226l.2.24-1.29 1.62-.49-.65-.003-.004c-.346-.43-.278-1.06.153-1.406z" transform="translate(2593 659)"/>
        </g>
    </g>
</svg>
