<svg xmlns="http://www.w3.org/2000/svg" width="24" height="24" viewBox="0 0 24 24">
    <defs>
        <filter id="prefix__a">
            <feColorMatrix in="SourceGraphic" values="0 0 0 0 0.000000 0 0 0 0 0.294118 0 0 0 0 0.576471 0 0 0 1.000000 0"/>
        </filter>
    </defs>
    <g fill="none" fill-rule="evenodd" filter="url(#prefix__a)" transform="translate(-2715 -659)">
        <g>
            <path fill="#004B93" d="M19 16c.552 0 1 .448 1 1v2c0 .513-.386.936-.883.993L19 20H5c-.552 0-1-.448-1-1v-2c0-.513.386-.936.883-.993L5 16c.552 0 1 .448 1 1v.999h12V17c0-.513.386-.936.883-.993L19 16zm-6.001-3.993L15.4 10.2c.442-.331 1.069-.242 1.4.2.331.442.242 1.069-.2 1.4l-4 3c-.138.104-.3.17-.471.192L12 15c-.207.002-.41-.061-.58-.18l-4-2.82c-.414-.294-.538-.846-.305-1.283l.065-.107c.317-.452.94-.562 1.393-.245l.007.005 2.423 1.692L11 12V4c0-.552.448-1 1-1 .513 0 .936.386.993.883L13 4l-.001 8.007z" transform="translate(2715 659)"/>
        </g>
    </g>
</svg>
