<svg xmlns="http://www.w3.org/2000/svg" width="24" height="24" viewBox="0 0 24 24">
    <defs>
        <filter id="prefix__a">
            <feColorMatrix in="SourceGraphic" values="0 0 0 0 0.000000 0 0 0 0 0.294118 0 0 0 0 0.576471 0 0 0 1.000000 0"/>
        </filter>
    </defs>
    <g fill="none" fill-rule="evenodd" filter="url(#prefix__a)" transform="translate(-2473 -1180)">
        <g>
            <path fill="#004B93" d="M3.29 3.29c.392-.392 1.028-.392 1.42 0l16.006 16.006c.389.392.386 1.025-.006 1.414l-.003.003c-.395.392-1.028.39-1.417-.003l-16-16-.084-.095c-.306-.393-.278-.963.084-1.325zM6 8.82l1.43 1.43c-1.456 2.24-1.17 5.19.69 7.11l.195.191c.998.93 2.314 1.45 3.685 1.449l.281-.007c1.03-.051 2.025-.395 2.869-.993l1.43 1.41C15.277 20.442 13.662 21.002 12 21l-.299-.006c-1.888-.074-3.68-.872-5.001-2.234l-.192-.205C4.068 15.848 3.841 11.787 6 8.82zM12 3l.132.01c.219.03.422.131.578.29l4.6 4.7c2.105 2.154 2.765 5.336 1.69 8.15l-1.63-1.57c.39-1.858-.168-3.788-1.49-5.15l-3.88-4-1.85 1.89L8.73 5.9l2.55-2.6c.19-.193.45-.302.72-.3z" transform="translate(2473 1180)"/>
        </g>
    </g>
</svg>
