<svg xmlns="http://www.w3.org/2000/svg" width="24" height="24" viewBox="0 0 24 24">
    <defs>
        <filter id="prefix__a">
            <feColorMatrix in="SourceGraphic" values="0 0 0 0 0.000000 0 0 0 0 0.294118 0 0 0 0 0.576471 0 0 0 1.000000 0"/>
        </filter>
    </defs>
    <g fill="none" fill-rule="evenodd" filter="url(#prefix__a)" transform="translate(-2473 -1989)">
        <g>
            <path fill="#004B93" d="M3.29 3.29c.392-.392 1.028-.392 1.42 0l16.006 16.006c.389.392.386 1.025-.006 1.414l-.003.003c-.395.392-1.028.39-1.417-.003l-16-16-.084-.095c-.306-.393-.278-.963.084-1.325zM6 8.82L16.56 19.4c-1.317 1.05-2.956 1.615-4.64 1.6l-.298-.01c-1.885-.095-3.668-.905-4.982-2.27l-.19-.206C4.047 15.802 3.845 11.764 6 8.82zM12.07 3l.133.01c.219.033.423.138.577.3L17.34 8c2.088 2.16 2.736 5.335 1.66 8.14L8.74 5.92l2.61-2.62c.19-.193.45-.302.72-.3z" transform="translate(2473 1989)"/>
        </g>
    </g>
</svg>
