<svg xmlns="http://www.w3.org/2000/svg" width="24" height="24" viewBox="0 0 24 24">
    <g fill="none" fill-rule="evenodd">
        <path fill="#004B93" d="M15.672 2l.649.982c.099.15 2.413 3.728 1.744 8.458-.297 2.09-2.571 7.738-8.884 7.327-.184.433-.315.914-.39 1.436l-.086.613-.597.164c-.16.042-.612.228-.867.339L5.678 22l.256-1.686c.077-.507.233-1.34.524-2.212-.913-.705-1.368-3.316-1.419-3.835-.237-2.463.414-7.004 7.456-9.746 1.184-.46 2.35-1.66 2.36-1.672L15.671 2zm-.592 1.978c-.1.11-1.2 1.3-2.387 1.792C3.51 9.583 7.383 17.015 7.51 17.038l.005-.01c.056-.11.55-1.053 1.205-1.605l.246-.211c4.04-3.534 4.993-7.486 5.06-7.785l.003-.014-.003.02c-.076.37-1.096 5.064-4.685 8.156l-.227.19-.142.128c-.79.775-1.326 2.423-1.561 4.07l.014-.006c.094-.043.625-.285.865-.356l.044-.288c.115-.668.32-1.306.639-1.884l.296.035c5.256.53 6.993-4.395 7.225-6.133l.034-.29c.43-4.038-1.448-7.077-1.448-7.077z"/>
    </g>
</svg>
