<svg xmlns="http://www.w3.org/2000/svg" width="24" height="24" viewBox="0 0 24 24">
    <defs>
        <filter id="prefix__a">
            <feColorMatrix in="SourceGraphic" values="0 0 0 0 0.000000 0 0 0 0 0.294118 0 0 0 0 0.576471 0 0 0 1.000000 0"/>
        </filter>
    </defs>
    <g fill="none" fill-rule="evenodd" filter="url(#prefix__a)" transform="translate(-2717 -1180)">
        <g>
            <path fill="#004B93" d="M19 20c.552 0 1 .448 1 1s-.448 1-1 1H5c-.552 0-1-.448-1-1s.448-1 1-1zM14 2.53c.776-.655 1.92-.625 2.66.07l2.74 2.74c.766.73.797 1.942.07 2.71l-9 9c-.326.323-.753.524-1.21.57L5.09 18H5c-.266.002-.521-.103-.71-.29l-.084-.095c-.155-.199-.23-.45-.206-.705l.43-4.17c.046-.457.247-.884.57-1.21zm-2 4.79l-5.63 5.59-.27 2.99 3-.28 5.6-5.6-2.7-2.7zM15.27 4l-1.95 2L16 8.68l2-1.95L15.27 4z" transform="translate(2717 1180)"/>
        </g>
    </g>
</svg>
