<svg xmlns="http://www.w3.org/2000/svg" width="24" height="24" viewBox="0 0 24 24">
    <defs>
        <filter id="prefix__a">
            <feColorMatrix in="SourceGraphic" values="0 0 0 0 0.000000 0 0 0 0 0.294118 0 0 0 0 0.576471 0 0 0 1.000000 0"/>
        </filter>
    </defs>
    <g fill="none" fill-rule="evenodd" filter="url(#prefix__a)" transform="translate(-2837 -659)">
        <g>
            <path fill="#004B93" d="M19.059 3c.52 0 .941.448.941 1s-.421 1-.941 1h-3.765c-2.628 0-4.897 1.635-5.954 4h5.013c.52 0 .941.448.941 1s-.421 1-.941 1h-5.58c-.044.327-.067.66-.067 1 0 .695.095 1.367.273 2h5.374c.52 0 .941.448.941 1s-.421 1-.941 1H9.887c1.191 1.814 3.169 3 5.407 3h3.765c.52 0 .941.448.941 1s-.421 1-.941 1h-3.765c-3.325 0-6.203-2.036-7.59-4.999L4.942 16C4.421 16 4 15.552 4 15s.421-1 .941-1h2.093c-.138-.643-.21-1.312-.21-2 0-.338.017-.671.051-1H4.941C4.421 11 4 10.552 4 10s.421-1 .941-1h2.364c1.163-3.495 4.301-6 7.99-6z" transform="translate(2837 659)"/>
        </g>
    </g>
</svg>
