<svg xmlns="http://www.w3.org/2000/svg" width="24" height="24" viewBox="0 0 24 24">
    <defs>
        <filter id="prefix__a">
            <feColorMatrix in="SourceGraphic" values="0 0 0 0 0.000000 0 0 0 0 0.294118 0 0 0 0 0.576471 0 0 0 1.000000 0"/>
        </filter>
    </defs>
    <g fill="none" fill-rule="evenodd" filter="url(#prefix__a)" transform="translate(-3081 -659)">
        <g>
            <path fill="#004B93" d="M12 3c.552 0 1 .448 1 1s-.448 1-1 1H6c-.552 0-1 .448-1 1v12l.007.117c.057.497.48.883.993.883h12c.552 0 1-.448 1-1v-6l.007-.117c.057-.497.48-.883.993-.883l.117.007c.497.057.883.48.883.993v6c0 1.657-1.343 3-3 3H6c-1.657 0-3-1.343-3-3V6l.005-.176C3.096 4.249 4.402 3 6 3zm8 0c.552 0 1 .448 1 1v4c0 .552-.448 1-1 1l-.117-.007C19.386 8.936 19 8.513 19 8V6.42l-6.29 6.28-.006.006c-.392.389-1.025.386-1.414-.006l-.003-.003c-.392-.395-.39-1.028.003-1.417L17.58 5H16c-.552 0-1-.448-1-1s.448-1 1-1z" transform="translate(3081 659)"/>
        </g>
    </g>
</svg>
