<svg xmlns="http://www.w3.org/2000/svg" width="24" height="24" viewBox="0 0 24 24">
    <defs>
        <filter id="prefix__a">
            <feColorMatrix in="SourceGraphic" values="0 0 0 0 0.000000 0 0 0 0 0.294118 0 0 0 0 0.576471 0 0 0 1.000000 0"/>
        </filter>
    </defs>
    <g fill="none" fill-rule="evenodd" filter="url(#prefix__a)" transform="translate(-3083 -1180)">
        <g>
            <path fill="#004B93" d="M3.29 3.29c.392-.392 1.028-.392 1.42 0l16 16 .006.006c.389.392.386 1.025-.006 1.414-.398.395-1.031.392-1.42 0l-5.63-5.63c-1.035.556-2.28.556-3.314 0-1.703-.915-2.341-3.037-1.426-4.74L3.29 4.71l-.084-.095c-.306-.393-.278-.963.084-1.325zM5 7.87l1.46 1.41C5.6 10.086 4.846 11 4.22 12l.07.11c.952 1.482 3.737 4.988 7.93 4.89.574-.02 1.144-.104 1.7-.25l1.58 1.58c-1.03.41-2.122.637-3.23.67h-.25c-5.89 0-9.26-5.41-9.89-6.5-.179-.31-.179-.69 0-1l.265-.443C3.121 9.887 3.997 8.815 5 7.87zm7.078-2.874c5.76.04 9.165 5.416 9.792 6.504.191.302.206.683.04 1l-.27.444c-.737 1.172-1.624 2.243-2.64 3.186l-1.51-1.41c.878-.803 1.648-1.718 2.29-2.72l-.07-.11c-.962-1.483-3.747-4.997-7.93-4.89-.574.02-1.144.104-1.7.25L8.5 5.67c1.03-.41 2.122-.637 3.23-.67zM10.5 11.93V12l.007.144c.073.761.713 1.356 1.493 1.356l.06-.01-1.56-1.56z" transform="translate(3083 1180)"/>
        </g>
    </g>
</svg>
