<svg xmlns="http://www.w3.org/2000/svg" width="24" height="24" viewBox="0 0 24 24">
    <defs>
        <filter id="prefix__a">
            <feColorMatrix in="SourceGraphic" values="0 0 0 0 0.000000 0 0 0 0 0.294118 0 0 0 0 0.576471 0 0 0 1.000000 0"/>
        </filter>
    </defs>
    <g fill="none" fill-rule="evenodd" filter="url(#prefix__a)" transform="translate(-2961 -1989)">
        <g>
            <path fill="#004B93" d="M11.73 5c5.98-.18 9.5 5.39 10.14 6.5.179.31.179.69 0 1l-.06.103c-.94 1.606-4.13 6.26-9.54 6.397h-.25c-5.89 0-9.26-5.41-9.89-6.5-.179-.31-.179-.69 0-1l.06-.103C3.14 9.791 6.32 5.137 11.73 5zM12 8.5c-1.933 0-3.5 1.567-3.5 3.5s1.567 3.5 3.5 3.5l.192-.005c1.844-.1 3.308-1.626 3.308-3.495l-.005-.192C15.395 9.964 13.869 8.5 12 8.5zm1.06 2.44c.586.585.586 1.535 0 2.12-.585.586-1.535.586-2.12 0-.586-.585-.586-1.535 0-2.12.585-.586 1.535-.586 2.12 0z" transform="translate(2961 1989)"/>
        </g>
    </g>
</svg>
