<svg xmlns="http://www.w3.org/2000/svg" width="24" height="24" viewBox="0 0 24 24">
    <defs>
        <filter id="prefix__a">
            <feColorMatrix in="SourceGraphic" values="0 0 0 0 0.000000 0 0 0 0 0.294118 0 0 0 0 0.576471 0 0 0 1.000000 0"/>
        </filter>
    </defs>
    <g fill="none" fill-rule="evenodd" filter="url(#prefix__a)" transform="translate(-3083 -1989)">
        <g>
            <path fill="#004B93" d="M3.29 3.29c.392-.392 1.028-.392 1.42 0l3.18 3.18 4.028 4.032c.41-.022.829.124 1.143.437.314.314.46.733.437 1.144L17.41 16l2 2 1.3 1.29.006.006c.389.392.386 1.025-.006 1.414-.398.395-1.031.392-1.42 0L16.59 18l-2-2-2.507-2.502c-.411.022-.83-.123-1.144-.437-.313-.314-.459-.73-.437-1.141L7.28 8.7 5.53 7 3.29 4.71l-.084-.095c-.306-.393-.278-.963.084-1.325zM5 7.87l1.56 1.52 2 2c-.035.202-.055.405-.06.61v.05c.028 1.933 1.617 3.478 3.55 3.45l.204-.01c.136-.01.272-.026.406-.05L14 16.78l1.29 1.34.21.21c-1.03.41-2.122.637-3.23.67h-.25c-5.89 0-9.26-5.41-9.89-6.5-.179-.31-.179-.69 0-1l.265-.443C3.121 9.887 3.997 8.815 5 7.87zm7.079-2.874c5.768.04 9.164 5.416 9.791 6.504.179.31.179.69 0 1l-.27.444c-.737 1.172-1.624 2.243-2.64 3.186l-3.52-3.52c.035-.202.055-.405.06-.61l-.005-.192C15.395 9.964 13.869 8.5 12 8.5l-.204.01c-.136.01-.272.026-.406.05L8.5 5.67c1.03-.41 2.122-.637 3.23-.67z" transform="translate(3083 1989)"/>
        </g>
    </g>
</svg>
