<svg xmlns="http://www.w3.org/2000/svg" width="24" height="24" viewBox="0 0 24 24">
    <defs>
        <filter id="prefix__a">
            <feColorMatrix in="SourceGraphic" values="0 0 0 0 0.000000 0 0 0 0 0.294118 0 0 0 0 0.576471 0 0 0 1.000000 0"/>
        </filter>
    </defs>
    <g fill="none" fill-rule="evenodd" filter="url(#prefix__a)" transform="translate(-153 -755)">
        <g>
            <path fill="#004B93" d="M17.81 13.39c1.76-1.446 2.902-3.51 3.19-5.77.066-.552-.328-1.054-.88-1.12-.552-.066-1.054.328-1.12.88-.548 3.866-4.126 6.556-7.992 6.008C7.89 12.946 5.442 10.497 5 7.38c-.066-.552-.568-.946-1.12-.88-.552.066-.946.568-.88 1.12.286 2.258 1.423 4.322 3.18 5.77l-2.3 2.32c-.36.42-.31 1.05.11 1.41.373.32.926.32 1.3 0l2.61-2.6c.97.49 2.02.802 3.1.92V19c0 .552.448 1 1 1s1-.448 1-1v-3.56c1.08-.118 2.13-.43 3.1-.92l2.61 2.6c.42.36 1.05.31 1.41-.11.32-.373.32-.926 0-1.3l-2.31-2.32z" transform="translate(153 755)"/>
        </g>
    </g>
</svg>
