<svg xmlns="http://www.w3.org/2000/svg" width="24" height="24" viewBox="0 0 24 24">
    <defs>
        <filter id="prefix__a">
            <feColorMatrix in="SourceGraphic" values="0 0 0 0 0.000000 0 0 0 0 0.294118 0 0 0 0 0.576471 0 0 0 1.000000 0"/>
        </filter>
    </defs>
    <g fill="none" fill-rule="evenodd" filter="url(#prefix__a)" transform="translate(-2961 -1180)">
        <g>
            <path fill="#004B93" d="M11.73 5c5.98-.18 9.5 5.39 10.14 6.5.179.31.179.69 0 1l-.06.103c-.94 1.606-4.13 6.26-9.54 6.397h-.25c-5.89 0-9.26-5.41-9.89-6.5-.179-.31-.179-.69 0-1l.06-.103C3.14 9.791 6.32 5.137 11.73 5zm.419 1.999L11.83 7c-4 .1-6.61 3.39-7.61 5 .88 1.41 3.69 5.1 8 5 4-.1 6.58-3.39 7.61-5-.89-1.41-3.71-5.11-8-5zM12 8.5l.192.005c1.844.1 3.308 1.626 3.308 3.495l-.005.192c-.1 1.844-1.626 3.308-3.495 3.308-1.933 0-3.5-1.567-3.5-3.5s1.567-3.5 3.5-3.5zm0 2c-.828 0-1.5.672-1.5 1.5s.672 1.5 1.5 1.5l.144-.007C12.905 13.42 13.5 12.78 13.5 12l-.007-.144C13.42 11.095 12.78 10.5 12 10.5z" transform="translate(2961 1180)"/>
        </g>
    </g>
</svg>
