<svg xmlns="http://www.w3.org/2000/svg" width="24" height="24" viewBox="0 0 24 24">
    <defs>
        <filter id="prefix__a">
            <feColorMatrix in="SourceGraphic" values="0 0 0 0 0.000000 0 0 0 0 0.294118 0 0 0 0 0.576471 0 0 0 1.000000 0"/>
        </filter>
    </defs>
    <g fill="none" fill-rule="evenodd" filter="url(#prefix__a)" transform="translate(-519 -1276)">
        <g>
            <path fill="#004B93" d="M13.56 2c.282 0 .55.12.74.33l5.44 6c.167.183.26.422.26.67v10.5l-.007.167C19.89 20.985 18.78 22.016 17.44 22H6.56l-.167-.003C5.073 21.927 4.016 20.84 4 19.5v-15l.007-.167C4.11 3.015 5.22 1.984 6.56 2zM12 4H6.558c-.292-.016-.542.208-.558.5v15.002c.017.292.268.515.56.498h10.882c.292.016.542-.208.558-.5V10h-3.29c-1.533-.044-2.744-1.317-2.71-2.85V4zm3 12c.552 0 1 .448 1 1s-.448 1-1 1H9c-.552 0-1-.448-1-1s.448-1 1-1zm-3-4c.552 0 1 .448 1 1s-.448 1-1 1H9c-.552 0-1-.448-1-1s.448-1 1-1zm2-7v2.15l-.001.014v.107c.03.388.342.705.741.729h2L14 5z" transform="translate(519 1276)"/>
        </g>
    </g>
</svg>
