<svg xmlns="http://www.w3.org/2000/svg" width="24" height="24" viewBox="0 0 24 24">
    <defs>
        <filter id="prefix__a">
            <feColorMatrix in="SourceGraphic" values="0 0 0 0 0.000000 0 0 0 0 0.294118 0 0 0 0 0.576471 0 0 0 1.000000 0"/>
        </filter>
    </defs>
    <g fill="none" fill-rule="evenodd" filter="url(#prefix__a)" transform="translate(-519 -2085)">
        <g>
            <path fill="#004B93" d="M19.74 7.33l-4.44-5c-.19-.21-.458-.33-.74-.33h-8C5.163 1.983 4.017 3.102 4 4.5v15c.016 1.397 1.162 2.516 2.56 2.5h10.88c1.397.017 2.543-1.102 2.56-2.5V8c0-.248-.093-.487-.26-.67zM9 12h3c.552 0 1 .448 1 1s-.448 1-1 1H9c-.552 0-1-.448-1-1s.448-1 1-1zm6 6H9c-.552 0-1-.448-1-1s.448-1 1-1h6c.552 0 1 .448 1 1s-.448 1-1 1zm-.29-10c-.429-.042-.745-.42-.71-.85V4l3.74 4h-3.03z" transform="translate(519 2085)"/>
        </g>
    </g>
</svg>
