<svg xmlns="http://www.w3.org/2000/svg" width="24" height="24" viewBox="0 0 24 24">
    <defs>
        <filter id="prefix__a">
            <feColorMatrix in="SourceGraphic" values="0 0 0 0 0.000000 0 0 0 0 0.294118 0 0 0 0 0.576471 0 0 0 1.000000 0"/>
        </filter>
    </defs>
    <g fill="none" fill-rule="evenodd" filter="url(#prefix__a)" transform="translate(-153 -1276)">
        <g>
            <path fill="#004B93" d="M19.74 8.33l-5.44-6c-.19-.21-.458-.33-.74-.33h-7C5.163 1.983 4.017 3.102 4 4.5v15c.016 1.397 1.162 2.516 2.56 2.5h10.88c1.397.017 2.543-1.102 2.56-2.5V9c0-.248-.093-.487-.26-.67zM17.65 9h-3.94c-.429-.042-.745-.42-.71-.85V4h.11l4.54 5zm-.21 11H6.56c-.292.017-.543-.206-.56-.498V4.5c.016-.292.266-.516.558-.5H11v4.15c-.034 1.533 1.177 2.806 2.71 2.85H18v8.5c-.016.292-.266.516-.558.5h-.002z" transform="translate(153 1276)"/>
        </g>
    </g>
</svg>
