<svg xmlns="http://www.w3.org/2000/svg" width="20" height="20" viewBox="0 0 20 20">
    <defs>
        <filter id="prefix__a">
            <feColorMatrix in="SourceGraphic" values="0 0 0 0 0.000000 0 0 0 0 0.294118 0 0 0 0 0.576471 0 0 0 1.000000 0"/>
        </filter>
    </defs>
    <g fill="none" fill-rule="evenodd" filter="url(#prefix__a)" transform="translate(-887 -1895)">
        <path fill="#004B93" d="M897 1915c5.523 0 10-4.477 10-10s-4.477-10-10-10-10 4.477-10 10 4.477 10 10 10zm-3.69-11.86l3-2.86c.043-.042.094-.076.15-.1.047-.042.101-.076.16-.1.242-.107.518-.107.76 0 .123.048.235.119.33.21l3 3c.392.392.392 1.028 0 1.42-.392.392-1.028.392-1.42 0l-1.29-1.3v5.59c0 .552-.448 1-1 1s-1-.448-1-1v-5.66l-1.31 1.25c-.4.381-1.034.365-1.415-.035s-.365-1.034.035-1.415z"/>
    </g>
</svg>
