<svg xmlns="http://www.w3.org/2000/svg" width="24" height="24" viewBox="0 0 24 24">
    <defs>
        <filter id="prefix__a">
            <feColorMatrix in="SourceGraphic" values="0 0 0 0 0.000000 0 0 0 0 0.294118 0 0 0 0 0.576471 0 0 0 1.000000 0"/>
        </filter>
    </defs>
    <g fill="none" fill-rule="evenodd" filter="url(#prefix__a)" transform="translate(-763 -2085)">
        <g>
            <path fill="#004B93" d="M19.27 4.68c-.463-.334-1.057-.426-1.6-.25-.706.198-1.437.293-2.17.28-1.083-.059-2.146-.324-3.13-.78-1.216-.562-2.531-.878-3.87-.93-2.89 0-4 1-4.2 1.14-.193.19-.302.45-.3.72V20c0 .552.448 1 1 1s1-.448 1-1v-4.3c.797-.305 1.647-.445 2.5-.41 1.083.059 2.146.324 3.13.78 1.216.562 2.531.878 3.87.93 1.206.046 2.405-.194 3.5-.7.602-.283.99-.885 1-1.55V6.11c0-.566-.272-1.097-.73-1.43z" transform="translate(763 2085)"/>
        </g>
    </g>
</svg>
