<svg xmlns="http://www.w3.org/2000/svg" width="24" height="24" viewBox="0 0 24 24">
    <defs>
        <filter id="prefix__a">
            <feColorMatrix in="SourceGraphic" values="0 0 0 0 0.000000 0 0 0 0 0.294118 0 0 0 0 0.576471 0 0 0 1.000000 0"/>
        </filter>
    </defs>
    <g fill="none" fill-rule="evenodd" filter="url(#prefix__a)" transform="translate(-885 -1276)">
        <g>
            <path fill="#004B93" d="M11.11 23c-.116 0-.231-.02-.34-.06-.433-.158-.701-.592-.65-1.05l.77-7.09H5c-.552 0-1-.446-1.002-.998 0-.2.06-.396.172-.562l7.89-11.8c.257-.38.739-.537 1.17-.38.413.154.678.56.65 1l-.77 7.14H19c.552 0 1 .446 1.002.998 0 .2-.06.396-.172.562l-7.89 11.8c-.186.276-.497.44-.83.44zM6.87 12.8H12c.282 0 .55.12.74.33.19.212.282.496.25.78l-.45 4.15 4.59-6.86H12c-.552.003-1.003-.442-1.006-.994 0-.039.002-.077.006-.116l.45-4.15-4.58 6.86z" transform="translate(885 1276)"/>
        </g>
    </g>
</svg>
