<svg xmlns="http://www.w3.org/2000/svg" width="24" height="24" viewBox="0 0 24 24">
    <defs>
        <filter id="prefix__a">
            <feColorMatrix in="SourceGraphic" values="0 0 0 0 0.000000 0 0 0 0 0.294118 0 0 0 0 0.576471 0 0 0 1.000000 0"/>
        </filter>
    </defs>
    <g fill="none" fill-rule="evenodd" filter="url(#prefix__a)" transform="translate(-1007 -2085)">
        <g>
            <path fill="#004B93" d="M6.67 9.5l8.39 8.39-3.12 4.67c-.186.276-.497.44-.83.44l-.115-.007c-.077-.009-.152-.027-.225-.053l-.105-.045c-.37-.186-.592-.585-.545-1.005l.77-7.09H5c-.2 0-.396-.06-.562-.172-.457-.309-.577-.93-.268-1.388l2.5-3.74zM3.29 3.29c.392-.392 1.028-.392 1.42 0l16 16 .006.006c.389.392.386 1.025-.006 1.414l-.003.003c-.395.392-1.028.39-1.417-.003l-16-16-.084-.095c-.306-.393-.278-.963.084-1.325zm8.77-1.8c.257-.38.739-.537 1.17-.38l.109.048c.35.18.566.552.541.952l-.77 7.09H19c.2 0 .396.06.562.172.457.309.577.93.268 1.388l-2.5 3.74-8.39-8.39z" transform="translate(1007 2085)"/>
        </g>
    </g>
</svg>
