<svg xmlns="http://www.w3.org/2000/svg" width="24" height="24" viewBox="0 0 24 24">
    <defs>
        <filter id="prefix__a">
            <feColorMatrix in="SourceGraphic" values="0 0 0 0 0.000000 0 0 0 0 0.294118 0 0 0 0 0.576471 0 0 0 1.000000 0"/>
        </filter>
    </defs>
    <g fill="none" fill-rule="evenodd" filter="url(#prefix__a)" transform="translate(-275 -755)">
        <g>
            <path fill="#004B93" d="M11 2.5c.552 0 1 .448 1 1s-.448 1-1 1H8.53l-.142.01c-.794.086-1.404.766-1.388 1.58v12l1.29-1.3.006-.006c.392-.389 1.025-.386 1.414.006l.003.003c.392.395.39 1.028-.003 1.417l-3.006 3.006c-.392.389-1.025.386-1.414-.006l-3-3-.084-.095c-.306-.393-.278-.963.084-1.325.392-.392 1.028-.392 1.42 0L5 18.09v-12C4.983 4.124 6.564 2.516 8.53 2.5zm6.296.284c.392-.389 1.025-.386 1.414.006l3 3 .006.006c.389.392.386 1.025-.006 1.414-.398.395-1.031.392-1.42 0L19 5.91v12c.017 1.966-1.564 3.574-3.53 3.59H13c-.552 0-1-.448-1-1s.448-1 1-1h2.47l.142-.01c.794-.086 1.404-.766 1.388-1.58v-12l-1.29 1.3c-.392.392-1.028.392-1.42 0-.392-.392-.392-1.028 0-1.42l3-3 .006-.006z" transform="translate(275 755)"/>
        </g>
    </g>
</svg>
