<svg xmlns="http://www.w3.org/2000/svg" width="24" height="24" viewBox="0 0 24 24">
    <defs>
        <filter id="prefix__a">
            <feColorMatrix in="SourceGraphic" values="0 0 0 0 0.000000 0 0 0 0 0.294118 0 0 0 0 0.576471 0 0 0 1.000000 0"/>
        </filter>
    </defs>
    <g fill="none" fill-rule="evenodd" filter="url(#prefix__a)" transform="translate(-397 -755)">
        <g>
            <path fill="#004B93" d="M3.5 12c.552 0 1 .448 1 1v2.47l.01.142c.086.794.766 1.404 1.58 1.388h12l-1.3-1.29-.006-.006c-.389-.392-.386-1.025.006-1.414l.003-.003c.395-.392 1.028-.39 1.417.003l3.006 3.006c.389.392.386 1.025-.006 1.414l-3 3c-.392.392-1.028.392-1.42 0-.392-.392-.392-1.028 0-1.42l1.3-1.29h-12c-1.966.016-3.574-1.564-3.59-3.53V13c0-.552.448-1 1-1zm2.296-9.716c.392-.389 1.025-.386 1.414.006.395.398.392 1.031 0 1.42L5.91 5h12c1.966-.016 3.574 1.564 3.59 3.53V11c0 .552-.448 1-1 1s-1-.448-1-1V8.53l-.01-.142c-.086-.794-.766-1.404-1.58-1.388h-12l1.3 1.29.084.095c.306.393.278.963-.084 1.325-.392.392-1.028.392-1.42 0L2.784 6.704c-.389-.392-.386-1.025.006-1.414z" transform="translate(397 755)"/>
        </g>
    </g>
</svg>
