<svg xmlns="http://www.w3.org/2000/svg" width="24" height="24" viewBox="0 0 24 24">
    <defs>
        <filter id="prefix__a">
            <feColorMatrix in="SourceGraphic" values="0 0 0 0 0.000000 0 0 0 0 0.294118 0 0 0 0 0.576471 0 0 0 1.000000 0"/>
        </filter>
    </defs>
    <g fill="none" fill-rule="evenodd" filter="url(#prefix__a)" transform="translate(-1251 -1276)">
        <g>
            <path fill="#004B93" d="M9.1 3.5c.3.002.582.138.77.37l2.63 3.18h7c1.36-.017 2.478 1.07 2.5 2.43v8.59c-.022 1.36-1.14 2.447-2.5 2.43h-15c-1.36.017-2.478-1.07-2.5-2.43V5.93c.022-1.36 1.14-2.447 2.5-2.43zm-4.606 2c-.26-.017-.478.176-.494.43l.001 12.133c.023.253.246.44.499.417h15.006c.26.017.478-.176.494-.43V9.48l-.001-.013c-.023-.253-.246-.44-.499-.417H12c-.3-.002-.582-.138-.77-.37L8.63 5.5H4.5l-.013-.001zM12 11c.552 0 1 .448 1 1v1h1c.552 0 1 .448 1 1s-.448 1-1 1h-1v1c0 .552-.448 1-1 1s-1-.448-1-1v-1h-1c-.552 0-1-.448-1-1s.448-1 1-1h1v-1c0-.552.448-1 1-1z" transform="translate(1251 1276)"/>
        </g>
    </g>
</svg>
