<svg xmlns="http://www.w3.org/2000/svg" width="24" height="24" viewBox="0 0 24 24">
    <defs>
        <filter id="prefix__a">
            <feColorMatrix in="SourceGraphic" values="0 0 0 0 0.000000 0 0 0 0 0.294118 0 0 0 0 0.576471 0 0 0 1.000000 0"/>
        </filter>
    </defs>
    <g fill="none" fill-rule="evenodd" filter="url(#prefix__a)" transform="translate(-1373 -2085)">
        <g>
            <path fill="#004B93" d="M19.5 7.05h-7L9.87 3.87c-.188-.232-.47-.368-.77-.37H4.5C3.14 3.483 2.022 4.57 2 5.93v12.14c.022 1.36 1.14 2.447 2.5 2.43h15c1.36.017 2.478-1.07 2.5-2.43V9.48c-.022-1.36-1.14-2.447-2.5-2.43zM14 15h-4c-.552 0-1-.448-1-1s.448-1 1-1h4c.552 0 1 .448 1 1s-.448 1-1 1z" transform="translate(1373 2085)"/>
        </g>
    </g>
</svg>
