<svg xmlns="http://www.w3.org/2000/svg" width="24" height="24" viewBox="0 0 24 24">
    <defs>
        <filter id="prefix__a">
            <feColorMatrix in="SourceGraphic" values="0 0 0 0 0.000000 0 0 0 0 0.294118 0 0 0 0 0.576471 0 0 0 1.000000 0"/>
        </filter>
    </defs>
    <g fill="none" fill-rule="evenodd" filter="url(#prefix__a)" transform="translate(-276 -1660)">
        <g>
            <g>
                <path fill="#004B93" d="M1.81 8.138h9.013v-6.32H1.81v6.32zm0 9.734h9.013V9.956H1.81v7.916zM13.972 2.318v1.818h2.835v9.96h-1.102V5.09h-3.073V1.016c0-.579-.48-1.016-1.118-1.016H1.118C.48 0 0 .437 0 1.016v17.529c0 .631.501 1.145 1.118 1.145h10.396c.617 0 1.118-.514 1.118-1.145V6.907h1.263v9.007h4.721V2.318h-4.644z" transform="translate(276 1660) translate(3 2)"/>
                <path fill="#0F4C91" d="M5.612 16.062c.37.313.843.47 1.417.47.414 0 .758-.07 1.03-.209v-.904c-.309.134-.632.201-.967.201-.632 0-1.008-.286-1.128-.858h1.188v-.629H5.904l-.008-.116v-.167l.008-.123h1.47v-.622H5.957c.053-.316.173-.556.358-.723.186-.165.421-.249.707-.249.153 0 .3.021.44.062.14.042.292.098.453.172l.345-.82c-.385-.193-.798-.29-1.238-.29-.57 0-1.044.165-1.424.497-.38.33-.613.78-.7 1.35h-.467v.623h.408l-.008.187c0 .092.006.165.015.22H4.43v.628h.482c.096.554.328.987.7 1.3" transform="translate(276 1660) translate(3 2)"/>
            </g>
        </g>
    </g>
</svg>
