<svg xmlns="http://www.w3.org/2000/svg" width="24" height="24" viewBox="0 0 24 24">
    <defs>
        <filter id="prefix__a">
            <feColorMatrix in="SourceGraphic" values="0 0 0 0 0.000000 0 0 0 0 0.294118 0 0 0 0 0.576471 0 0 0 1.000000 0"/>
        </filter>
    </defs>
    <g fill="none" fill-rule="evenodd" filter="url(#prefix__a)" transform="translate(-519 -755)">
        <g>
            <path fill="#004B93" d="M19.445 3H15c-.552 0-1 .448-1 1s.448 1 1 1h4.001v4c0 .552.448 1 1 1s1-.448 1-1V3.955c0-.527-.428-.955-.955-.955h-.601zm-.444 16H15c-.552 0-1 .448-1 1s.448 1 1 1h4.445c.86 0 1.556-.697 1.556-1.556V15c0-.552-.448-1-1-1s-1 .448-1 1v4zm-15-5H4c-.552 0-1 .447-1 1l.001 2.955V20c0 .552.448 1 1 1H9c.552 0 1-.448 1-1s-.448-1-1-1H5.001v-4c0-.552-.448-1-1-1zm0-4c-.552 0-1-.448-1-1V3.955c0-.527.428-.955.955-.955H9c.552 0 1 .448 1 1s-.448 1-1 1H5.001v4c0 .552-.448 1-1 1z" transform="translate(519 755)"/>
        </g>
    </g>
</svg>
