<svg xmlns="http://www.w3.org/2000/svg" width="24" height="24" viewBox="0 0 24 24">
    <defs>
        <filter id="prefix__a">
            <feColorMatrix in="SourceGraphic" values="0 0 0 0 0.000000 0 0 0 0 0.294118 0 0 0 0 0.576471 0 0 0 1.000000 0"/>
        </filter>
    </defs>
    <g fill="none" fill-rule="evenodd" filter="url(#prefix__a)" transform="translate(-1495 -1276)">
        <g>
            <path fill="#004B93" d="M13.9 22c-.216 0-.427-.07-.6-.2l-4-3.05c-.248-.19-.392-.487-.39-.8v-3.27l-4.8-9.22c-.254-.49-.062-1.094.428-1.348C4.68 4.038 4.839 4 5 4h14c.353 0 .68.186.86.49.179.31.179.69 0 1l-5 9.21V21c.003.38-.21.729-.55.9-.128.062-.268.096-.41.1zm-3-4.54l2 1.53v-4.55c0-.152.034-.303.1-.44l4.3-8H6.64l4.13 8c.073.142.11.3.11.46l.02 3z" transform="translate(1495 1276)"/>
        </g>
    </g>
</svg>
