<svg xmlns="http://www.w3.org/2000/svg" width="24" height="24" viewBox="0 0 24 24">
    <defs>
        <filter id="prefix__a">
            <feColorMatrix in="SourceGraphic" values="0 0 0 0 0.000000 0 0 0 0 0.294118 0 0 0 0 0.576471 0 0 0 1.000000 0"/>
        </filter>
    </defs>
    <g fill="none" fill-rule="evenodd" filter="url(#prefix__a)" transform="translate(-1619 -2085)">
        <g>
            <path fill="#004B93" d="M11.18 15.27V21H5.56c-.504 0-.915-.406-.92-.91v-4.82h6.54zm8.18 0v4.82c-.005.504-.416.91-.92.91h-5.62v-5.73h6.54zM15.68 3l.168.005c1.503.087 2.697 1.33 2.702 2.855l-.01.213c-.028.353-.123.698-.28 1.017h1.84c.5 0 .9.59.9 1.31v3.93c0 .72-.4 1.31-.9 1.31h-7.28V7.09h-1.64v6.55H3.9c-.5 0-.9-.59-.9-1.31V8.4c0-.72.4-1.31.9-1.31h1.84c-.188-.383-.288-.803-.29-1.23C5.456 4.279 6.739 3 8.32 3l.21.015c1.532.15 2.868 1.126 3.47 2.555l.087-.192C12.754 3.991 14.13 3.073 15.68 3zM8.21 4.635l-.112.005c-.676.061-1.175.66-1.114 1.336.061.676.66 1.175 1.336 1.114h2.58c-.39-1.01-1.18-2.45-2.58-2.45-.074-.007-.148-.007-.222 0zm7.596 0l-.126.005-.18.008c-1.288.117-2.027 1.485-2.4 2.442h2.58c.074.007.148.007.222 0 .676-.061 1.175-.66 1.114-1.336-.061-.676-.66-1.175-1.336-1.114z" transform="translate(1619 2085)"/>
        </g>
    </g>
</svg>
