<svg xmlns="http://www.w3.org/2000/svg" width="24" height="24" viewBox="0 0 24 24">
    <defs>
        <filter id="prefix__a">
            <feColorMatrix in="SourceGraphic" values="0 0 0 0 0.000000 0 0 0 0 0.294118 0 0 0 0 0.576471 0 0 0 1.000000 0"/>
        </filter>
    </defs>
    <g fill="none" fill-rule="evenodd" filter="url(#prefix__a)" transform="translate(-1619 -1276)">
        <g>
            <path fill="#004B93" d="M19.2 7h-.39c.12-.32.184-.658.19-1-.044-1.693-1.446-3.034-3.14-3-1.628.035-3.108.955-3.86 2.4-.752-1.445-2.232-2.365-3.86-2.4C6.446 2.966 5.044 4.307 5 6c.006.342.07.68.19 1H4.8c-1.1.104-1.906 1.08-1.802 2.18L3 9.2v3.6c-.096 1 .535 1.925 1.5 2.2v4.37c.064.943.865 1.665 1.81 1.63h11.38c.96.034 1.767-.711 1.81-1.67V15c.965-.275 1.596-1.2 1.5-2.2V9.2c.115-1.099-.682-2.083-1.78-2.198L19.2 7zM19 9.2v3.6c.012.066.012.134 0 .2h-6V9h6c.012.066.012.134 0 .2zM15.86 5c.59-.034 1.097.411 1.14 1-.043.589-.55 1.034-1.14 1H13.4c.357-1.091 1.319-1.873 2.46-2zM7 6c.043-.589.55-1.034 1.14-1 1.137.13 2.094.912 2.45 2H8.14c-.59.034-1.097-.411-1.14-1zM5 9.2c-.012-.066-.012-.134 0-.2h6v4H5c-.012-.066-.012-.134 0-.2V9.2zM6.5 15H11v4H6.5v-4zm6.5 4v-4h4.5v4H13z" transform="translate(1619 1276)"/>
        </g>
    </g>
</svg>
