<svg xmlns="http://www.w3.org/2000/svg" width="24" height="24" viewBox="0 0 24 24">
    <defs>
        <filter id="prefix__a">
            <feColorMatrix in="SourceGraphic" values="0 0 0 0 0.000000 0 0 0 0 0.294118 0 0 0 0 0.576471 0 0 0 1.000000 0"/>
        </filter>
    </defs>
    <g fill="none" fill-rule="evenodd" filter="url(#prefix__a)" transform="translate(-1741 -2085)">
        <g>
            <path fill="#004B93" d="M12 2C6.477 2 2 6.477 2 12s4.477 10 10 10 10-4.477 10-10S17.523 2 12 2zm0 2c.603.004 1.203.074 1.79.21-.174.392-.442.736-.78 1-.22.17-.46.31-.7.46-.76.374-1.4.952-1.85 1.67-.493 1.027-.706 2.165-.62 3.3 0 1.36 0 2.16-.95 2.87-1.37 1.07-3.46.47-4.76-.07-.085-.475-.128-.957-.13-1.44 0-4.418 3.582-8 8-8zm4.89 14.32c-.173-.4-.384-.781-.63-1.14-.11-.16-.22-.32-.32-.49-.39-.68-.25-1 .38-2l.1-.17c.406-.744.606-1.583.58-2.43-.001-.335.03-.67.09-1 .16-.73 1.71-.93 2.67-1 .793 3.084-.333 6.343-2.86 8.28l-.01-.05z" transform="translate(1741 2085)"/>
        </g>
    </g>
</svg>
