<svg xmlns="http://www.w3.org/2000/svg" width="24" height="24" viewBox="0 0 24 24">
    <defs>
        <filter id="prefix__a">
            <feColorMatrix in="SourceGraphic" values="0 0 0 0 0.000000 0 0 0 0 0.294118 0 0 0 0 0.576471 0 0 0 1.000000 0"/>
        </filter>
    </defs>
    <g fill="none" fill-rule="evenodd" filter="url(#prefix__a)" transform="translate(-1741 -1276)">
        <g>
            <path fill="#004B93" d="M12 2C6.477 2 2 6.477 2 12s4.477 10 10 10 10-4.477 10-10S17.523 2 12 2zm0 2c.603.004 1.203.074 1.79.21-.174.392-.442.736-.78 1-.22.17-.46.31-.7.46-.76.374-1.4.952-1.85 1.67-.493 1.027-.706 2.165-.62 3.3 0 1.36 0 2.16-.95 2.87-1.37 1.07-3.46.47-4.76-.07-.085-.475-.128-.957-.13-1.44 0-4.418 3.582-8 8-8zM5 15.8c.653.17 1.325.26 2 .27 1.13.031 2.236-.321 3.14-1 1.71-1.34 1.71-3.06 1.71-4.44-.076-.799.051-1.604.37-2.34.29-.394.675-.707 1.12-.91.318-.186.625-.39.92-.61.621-.49 1.104-1.135 1.4-1.87 1.407.72 2.57 1.84 3.34 3.22-1.43.2-3.46.67-3.86 2.53-.09.444-.137.897-.14 1.35.032.507-.068 1.013-.29 1.47l-.1.17c-.65 1.08-1.38 2.31-.39 4 .12.21.25.41.38.61.266.307.446.68.52 1.08-.984.434-2.045.662-3.12.67-2.926-.015-5.61-1.625-7-4.2zm11.93 2.52c-.173-.4-.384-.781-.63-1.14-.11-.16-.22-.32-.32-.49-.39-.68-.25-1 .38-2l.1-.17c.392-.748.578-1.586.54-2.43-.001-.335.03-.67.09-1 .16-.73 1.71-.93 2.67-1 .793 3.084-.333 6.343-2.86 8.28l.03-.05z" transform="translate(1741 1276)"/>
        </g>
    </g>
</svg>
