<svg xmlns="http://www.w3.org/2000/svg" width="24" height="24" viewBox="0 0 24 24">
    <defs>
        <filter id="prefix__a">
            <feColorMatrix in="SourceGraphic" values="0 0 0 0 0.000000 0 0 0 0 0.294118 0 0 0 0 0.576471 0 0 0 1.000000 0"/>
        </filter>
    </defs>
    <g fill="none" fill-rule="evenodd" filter="url(#prefix__a)" transform="translate(-641 -755)">
        <g>
            <path fill="#004B93" d="M22 12c0-5.523-4.477-10-10-10S2 6.477 2 12s4.477 10 10 10 10-4.477 10-10zm-2.07-1H17c-.165-2.352-.97-4.614-2.33-6.54 2.848 1.011 4.883 3.541 5.26 6.54zM9.08 13H15c-.256 2.47-1.309 4.79-3 6.61-1.69-1.812-2.719-4.14-2.92-6.61zm0-2c.233-2.458 1.258-4.774 2.92-6.6 1.705 1.806 2.76 4.128 3 6.6H9.08zm.36-6.57C8.074 6.367 7.255 8.637 7.07 11h-3c.385-3.037 2.47-5.588 5.37-6.57zM4.07 13h3c.165 2.361.978 4.631 2.35 6.56-2.889-.987-4.964-3.532-5.35-6.56zm10.55 6.55c1.368-1.93 2.19-4.192 2.38-6.55h2.95c-.386 3.02-2.452 5.559-5.33 6.55z" transform="translate(641 755)"/>
        </g>
    </g>
</svg>
