<svg xmlns="http://www.w3.org/2000/svg" width="24" height="24" viewBox="0 0 24 24">
    <defs>
        <filter id="prefix__a">
            <feColorMatrix in="SourceGraphic" values="0 0 0 0 0.000000 0 0 0 0 0.294118 0 0 0 0 0.576471 0 0 0 1.000000 0"/>
        </filter>
    </defs>
    <g fill="none" fill-rule="evenodd" filter="url(#prefix__a)" transform="translate(-1985 -2085)">
        <g>
            <path fill="#004B93" d="M20.79 11.34l-3.34-6.68C16.941 3.64 15.9 2.998 14.76 3H9.24c-1.14-.002-2.181.64-2.69 1.66l-3.34 6.68c-.14.28-.211.588-.21.9V18c0 1.657 1.343 3 3 3h12c1.657 0 3-1.343 3-3v-5.76c.001-.312-.07-.62-.21-.9zM8 17c-.552 0-1-.448-1-1s.448-1 1-1 1 .448 1 1-.448 1-1 1zm8 0h-4c-.552 0-1-.448-1-1s.448-1 1-1h4c.552 0 1 .448 1 1s-.448 1-1 1zM5.62 11l2.72-5.45c.171-.34.52-.553.9-.55h5.52c.38-.003.729.21.9.55L18.38 11H5.62z" transform="translate(1985 2085)"/>
        </g>
    </g>
</svg>
