<svg xmlns="http://www.w3.org/2000/svg" width="24" height="24" viewBox="0 0 24 24">
    <defs>
        <filter id="prefix__a">
            <feColorMatrix in="SourceGraphic" values="0 0 0 0 0.000000 0 0 0 0 0.294118 0 0 0 0 0.576471 0 0 0 1.000000 0"/>
        </filter>
    </defs>
    <g fill="none" fill-rule="evenodd" filter="url(#prefix__a)" transform="translate(-1985 -1276)">
        <g>
            <path fill="#004B93" d="M14.76 3c1.14-.002 2.181.64 2.69 1.66l3.34 6.68c.14.28.211.588.21.9V18c0 1.657-1.343 3-3 3H6c-1.657 0-3-1.343-3-3v-5.76c-.001-.312.07-.62.21-.9l3.34-6.68C7.059 3.64 8.1 2.998 9.24 3zM19 13H5v5l.007.117c.057.497.48.883.993.883h12c.552 0 1-.448 1-1v-5zm-3 2c.552 0 1 .448 1 1s-.448 1-1 1h-4c-.552 0-1-.448-1-1s.448-1 1-1zm-7.293.293c.39.39.39 1.024 0 1.414-.39.39-1.024.39-1.414 0-.39-.39-.39-1.024 0-1.414.39-.39 1.024-.39 1.414 0zM14.76 5H9.24c-.38-.003-.729.21-.9.55L5.62 11h12.76l-2.72-5.45c-.171-.34-.52-.553-.9-.55z" transform="translate(1985 1276)"/>
        </g>
    </g>
</svg>
