<svg xmlns="http://www.w3.org/2000/svg" width="24" height="24" viewBox="0 0 24 24">
    <defs>
        <filter id="prefix__a">
            <feColorMatrix in="SourceGraphic" values="0 0 0 0 0.000000 0 0 0 0 0.294118 0 0 0 0 0.576471 0 0 0 1.000000 0"/>
        </filter>
    </defs>
    <g fill="none" fill-rule="evenodd" filter="url(#prefix__a)" transform="translate(-763 -755)">
        <g>
            <path fill="#004B93" d="M20 14h-4.3l.73-4H20c.552 0 1-.448 1-1s-.448-1-1-1h-3.21l.69-3.81c.11-.541-.239-1.07-.78-1.18L16.64 3c-.537-.128-1.077.204-1.205.741-.006.026-.01.052-.015.079L14.67 8h-3.88l.69-3.81c.11-.541-.239-1.07-.78-1.18L10.64 3c-.537-.128-1.077.204-1.205.741-.006.026-.01.052-.015.079L8.67 8H4c-.552 0-1 .448-1 1s.448 1 1 1h4.3l-.73 4H4c-.552 0-1 .448-1 1s.448 1 1 1h3.21l-.69 3.81c-.11.541.239 1.07.78 1.18l.06.01c.537.128 1.077-.204 1.205-.741.006-.026.01-.052.015-.079L9.33 16h3.88l-.69 3.81c-.11.541.239 1.07.78 1.18l.06.01c.537.128 1.077-.204 1.205-.741.006-.026.01-.052.015-.079l.75-4.18H20c.552 0 1-.448 1-1s-.448-1-1-1zM9.7 14l.73-4h3.87l-.73 4H9.7z" transform="translate(763 755)"/>
        </g>
    </g>
</svg>
