<svg xmlns="http://www.w3.org/2000/svg" width="24" height="24" viewBox="0 0 24 24">
    <defs>
        <filter id="prefix__a">
            <feColorMatrix in="SourceGraphic" values="0 0 0 0 0.000000 0 0 0 0 0.294118 0 0 0 0 0.576471 0 0 0 1.000000 0"/>
        </filter>
    </defs>
    <g fill="none" fill-rule="evenodd" filter="url(#prefix__a)" transform="translate(-2107 -1276)">
        <g>
            <path fill="#004B93" d="M12 2C6.378 2.11 1.905 6.748 2 12.37V17c0 2.21 1.79 4 4 4s4-1.79 4-4-1.79-4-4-4c-.705.003-1.396.196-2 .56v-1.19C3.905 7.852 7.483 4.11 12 4c4.517.11 8.095 3.852 8 8.37v1.19c-.604-.364-1.295-.557-2-.56-2.21 0-4 1.79-4 4s1.79 4 4 4 4-1.79 4-4v-4.63C22.095 6.748 17.622 2.11 12 2zM6 15c1.105 0 2 .895 2 2s-.895 2-2 2-2-.895-2-2 .895-2 2-2zm12 4c-1.105 0-2-.895-2-2s.895-2 2-2 2 .895 2 2-.895 2-2 2z" transform="translate(2107 1276)"/>
        </g>
    </g>
</svg>
