<svg xmlns="http://www.w3.org/2000/svg" width="24" height="24" viewBox="0 0 24 24">
    <defs>
        <filter id="prefix__a">
            <feColorMatrix in="SourceGraphic" values="0 0 0 0 0.000000 0 0 0 0 0.294118 0 0 0 0 0.576471 0 0 0 1.000000 0"/>
        </filter>
    </defs>
    <g fill="none" fill-rule="evenodd" filter="url(#prefix__a)" transform="translate(-2229 -1276)">
        <g>
            <path fill="#004B93" d="M12 21c-.266.002-.521-.103-.71-.29l-7.77-7.78c-2.028-2.05-2.028-5.35 0-7.4 2.045-2.04 5.355-2.04 7.4 0L12 6.61l1.08-1.08c2.045-2.04 5.355-2.04 7.4 0 2.028 2.05 2.028 5.35 0 7.4l-7.77 7.78c-.189.187-.444.292-.71.29zM7.22 6c-.855-.004-1.676.335-2.28.94-1.257 1.264-1.257 3.306 0 4.57L12 18.58l7.06-7.07c1.257-1.264 1.257-3.306 0-4.57-1.28-1.209-3.28-1.209-4.56 0l-1.79 1.8c-.389.392-1.022.395-1.414.006l-.006-.006-1.79-1.8c-.604-.605-1.425-.944-2.28-.94z" transform="translate(2229 1276)"/>
        </g>
    </g>
</svg>
