<svg xmlns="http://www.w3.org/2000/svg" width="24" height="24" viewBox="0 0 24 24">
    <g fill="none" fill-rule="evenodd">
        <path fill="#004B93" d="M14.393 10.436c1.13-.802 2.794-1.982 3.058-5.474h.16c.484.006.88-.38.888-.864v-.234c-.007-.484-.405-.87-.889-.864H5.89c-.233-.002-.458.088-.626.25-.166.161-.261.382-.263.614v.232c.007.484.405.87.889.864h.392c.264 3.491 1.925 4.673 3.058 5.476.73.516 1.109.81 1.109 1.363 0 .554-.38.85-1.106 1.366-1.174.832-2.919 2.07-3.081 5.873H5.89c-.234-.002-.459.088-.627.25-.167.162-.261.384-.263.616v.232c.002.232.097.453.263.614.168.162.393.252.627.25H17.61c.484.006.88-.38.888-.864v-.232c-.007-.484-.405-.87-.889-.864h-.136c-.162-3.804-1.907-5.043-3.082-5.875-.729-.516-1.108-.811-1.108-1.365 0-.55.38-.847 1.109-1.363v-.001zm-.481 3.372c1.164.826 2.598 1.843 2.744 5.229H7.078c.146-3.386 1.58-4.404 2.745-5.229.742-.526 1.445-1.023 1.445-2.009 0-.984-.702-1.481-1.447-2.008-1.117-.792-2.48-1.76-2.72-4.83h9.532c-.239 3.07-1.606 4.038-2.721 4.83-.743.527-1.446 1.024-1.446 2.008 0 .986.702 1.483 1.446 2.01zm1.482-6.147c-1.148-.42-2.362-.63-3.584-.622-1.188-.007-2.368.191-3.488.586.447.726 1.058 1.339 1.783 1.788.77.547 1.642 1.165 1.642 2.386v.027h.241V11.8c0-1.221.873-1.84 1.642-2.385.714-.443 1.317-1.043 1.764-1.754zM7.606 18.392c-.01.117-.023.237-.033.36h8.588c0-.027-.004-.053-.006-.078-.766-1.632-2.384-2.694-4.185-2.749-1.803-.064-3.49.89-4.364 2.467z"/>
    </g>
</svg>
