<svg xmlns="http://www.w3.org/2000/svg" width="24" height="24" viewBox="0 0 24 24">
    <defs>
        <filter id="prefix__a">
            <feColorMatrix in="SourceGraphic" values="0 0 0 0 0.000000 0 0 0 0 0.294118 0 0 0 0 0.576471 0 0 0 1.000000 0"/>
        </filter>
    </defs>
    <g fill="none" fill-rule="evenodd" filter="url(#prefix__a)" transform="translate(-2595 -1276)">
        <g>
            <path fill="#004B93" d="M20.79 11.34l-3.34-6.68C16.941 3.64 15.9 2.998 14.76 3H9.24c-1.14-.002-2.181.64-2.69 1.66l-3.34 6.68c-.14.28-.211.588-.21.9V18c0 1.657 1.343 3 3 3h12c1.657 0 3-1.343 3-3v-5.76c.001-.312-.07-.62-.21-.9zM8.34 5.55c.171-.34.52-.553.9-.55h5.52c.38-.003.729.21.9.55L18.38 11H16c-.552 0-1 .448-1 1v3H9v-3c0-.552-.448-1-1-1H5.62l2.72-5.45zM18 19H6c-.552 0-1-.448-1-1v-5h2v3c0 .552.448 1 1 1h8c.552 0 1-.448 1-1v-3h2v5c0 .552-.448 1-1 1z" transform="translate(2595 1276)"/>
        </g>
    </g>
</svg>
