<svg xmlns="http://www.w3.org/2000/svg" width="24" height="24" viewBox="0 0 24 24">
    <defs>
        <filter id="prefix__a">
            <feColorMatrix in="SourceGraphic" values="0 0 0 0 0.000000 0 0 0 0 0.294118 0 0 0 0 0.576471 0 0 0 1.000000 0"/>
        </filter>
    </defs>
    <g fill="none" fill-rule="evenodd" filter="url(#prefix__a)" transform="translate(-2839 -2085)">
        <g>
            <path fill="#004B93" d="M5 16l.176.005C6.751 16.096 8 17.402 8 19l-.005.176C7.904 20.751 6.598 22 5 22c-1.657 0-3-1.343-3-3s1.343-3 3-3zm7 0l.176.005C13.751 16.096 15 17.402 15 19l-.005.176C14.904 20.751 13.598 22 12 22c-1.657 0-3-1.343-3-3s1.343-3 3-3zm7 0l.176.005C20.751 16.096 22 17.402 22 19l-.005.176C21.904 20.751 20.598 22 19 22c-1.657 0-3-1.343-3-3s1.343-3 3-3zM5 9l.176.005C6.751 9.096 8 10.402 8 12l-.005.176C7.904 13.751 6.598 15 5 15c-1.657 0-3-1.343-3-3s1.343-3 3-3zm7 0l.176.005C13.751 9.096 15 10.402 15 12l-.005.176C14.904 13.751 13.598 15 12 15c-1.657 0-3-1.343-3-3s1.343-3 3-3zm7 0l.176.005C20.751 9.096 22 10.402 22 12l-.005.176C21.904 13.751 20.598 15 19 15c-1.657 0-3-1.343-3-3s1.343-3 3-3zm0-7c1.657 0 3 1.343 3 3s-1.343 3-3 3l-.176-.005C17.249 7.904 16 6.598 16 5l.005-.176C16.096 3.249 17.402 2 19 2zM5 2l.176.005C6.751 2.096 8 3.402 8 5l-.005.176C7.904 6.751 6.598 8 5 8 3.343 8 2 6.657 2 5s1.343-3 3-3zm7 0l.176.005C13.751 2.096 15 3.402 15 5l-.005.176C14.904 6.751 13.598 8 12 8c-1.657 0-3-1.343-3-3s1.343-3 3-3z" transform="translate(2839 2085)"/>
        </g>
    </g>
</svg>
