<svg xmlns="http://www.w3.org/2000/svg" width="24" height="24" viewBox="0 0 24 24">
    <defs>
        <filter id="prefix__a">
            <feColorMatrix in="SourceGraphic" values="0 0 0 0 0.000000 0 0 0 0 0.294118 0 0 0 0 0.576471 0 0 0 1.000000 0"/>
        </filter>
    </defs>
    <g fill="none" fill-rule="evenodd" filter="url(#prefix__a)" transform="translate(-2839 -1276)">
        <g>
            <path fill="#004B93" d="M5 16l.176.005C6.751 16.096 8 17.402 8 19l-.005.176C7.904 20.751 6.598 22 5 22c-1.657 0-3-1.343-3-3s1.343-3 3-3zm7 0l.176.005C13.751 16.096 15 17.402 15 19l-.005.176C14.904 20.751 13.598 22 12 22c-1.657 0-3-1.343-3-3s1.343-3 3-3zm7 0l.176.005C20.751 16.096 22 17.402 22 19l-.005.176C21.904 20.751 20.598 22 19 22c-1.657 0-3-1.343-3-3s1.343-3 3-3zM5 18c-.552 0-1 .448-1 1s.448 1 1 1l.117-.007c.497-.057.883-.48.883-.993l-.007-.117C5.936 18.386 5.513 18 5 18zm7 0c-.552 0-1 .448-1 1s.448 1 1 1l.117-.007c.497-.057.883-.48.883-.993l-.007-.117c-.057-.497-.48-.883-.993-.883zm7 0c-.552 0-1 .448-1 1s.448 1 1 1l.117-.007c.497-.057.883-.48.883-.993l-.007-.117c-.057-.497-.48-.883-.993-.883zM5 9l.176.005C6.751 9.096 8 10.402 8 12l-.005.176C7.904 13.751 6.598 15 5 15c-1.657 0-3-1.343-3-3s1.343-3 3-3zm7 0l.176.005C13.751 9.096 15 10.402 15 12l-.005.176C14.904 13.751 13.598 15 12 15c-1.657 0-3-1.343-3-3s1.343-3 3-3zm7 0l.176.005C20.751 9.096 22 10.402 22 12l-.005.176C21.904 13.751 20.598 15 19 15c-1.657 0-3-1.343-3-3s1.343-3 3-3zM5 11c-.552 0-1 .448-1 1s.448 1 1 1l.117-.007c.497-.057.883-.48.883-.993l-.007-.117C5.936 11.386 5.513 11 5 11zm7 0c-.552 0-1 .448-1 1s.448 1 1 1l.117-.007c.497-.057.883-.48.883-.993l-.007-.117c-.057-.497-.48-.883-.993-.883zm7 0c-.552 0-1 .448-1 1s.448 1 1 1l.117-.007c.497-.057.883-.48.883-.993l-.007-.117c-.057-.497-.48-.883-.993-.883zm0-9c1.657 0 3 1.343 3 3s-1.343 3-3 3l-.176-.005C17.249 7.904 16 6.598 16 5l.005-.176C16.096 3.249 17.402 2 19 2zM5 2l.176.005C6.751 2.096 8 3.402 8 5l-.005.176C7.904 6.751 6.598 8 5 8 3.343 8 2 6.657 2 5s1.343-3 3-3zm7 0l.176.005C13.751 2.096 15 3.402 15 5l-.005.176C14.904 6.751 13.598 8 12 8c-1.657 0-3-1.343-3-3s1.343-3 3-3zm7 2l-.117.007c-.497.057-.883.48-.883.993l.007.117c.057.497.48.883.993.883.552 0 1-.448 1-1s-.448-1-1-1zM5 4c-.552 0-1 .448-1 1s.448 1 1 1l.117-.007C5.614 5.936 6 5.513 6 5l-.007-.117C5.936 4.386 5.513 4 5 4zm7 0c-.552 0-1 .448-1 1s.448 1 1 1l.117-.007c.497-.057.883-.48.883-.993l-.007-.117C12.936 4.386 12.513 4 12 4z" transform="translate(2839 1276)"/>
        </g>
    </g>
</svg>
