<svg xmlns="http://www.w3.org/2000/svg" width="24" height="24" viewBox="0 0 24 24">
    <g fill="none" fill-rule="evenodd">
        <path fill="#004B93" d="M5.276 14.942H2.655c-.36.001-.652-.288-.655-.647V2.647c.003-.36.296-.649.655-.647h2.621c.362 0 .655.29.655.647v11.648c-.003.36-.296.648-.655.647zm15.089.137c-.106.018-5.047 0-5.047 0l.69 1.86c.476 1.284.168 3.245-1.152 3.942-.43.228-1.032.342-1.516.22-.28-.07-.52-.247-.669-.494-.166-.28-.15-.606-.209-.917-.146-.797-.534-1.53-1.11-2.098-1.018-.98-4.178-3.807-4.178-3.807V3.432h10.92c1.473 0 2.438 1.625 1.712 2.893.866.549 1.162 1.702.655 2.59.866.548 1.162 1.701.655 2.587 1.494.946.994 3.286-.751 3.577z"/>
    </g>
</svg>
