<svg xmlns="http://www.w3.org/2000/svg" width="24" height="24" viewBox="0 0 24 24">
    <defs>
        <filter id="prefix__a">
            <feColorMatrix in="SourceGraphic" values="0 0 0 0 0.000000 0 0 0 0 0.294118 0 0 0 0 0.576471 0 0 0 1.000000 0"/>
        </filter>
    </defs>
    <g fill="none" fill-rule="evenodd" filter="url(#prefix__a)" transform="translate(-2961 -2085)">
        <g>
            <path fill="#004B93" d="M19.15 14.42l1.56.68c.099.036.184.103.241.192.149.226.085.53-.141.678l-8.52 5c-.15.08-.33.08-.48 0l-8.52-5c-.09-.047-.163-.12-.21-.21-.124-.24-.03-.535.21-.66l1.56-.68 6.91 3.76c.15.08.33.08.48 0l6.91-3.76zm-.27-4.54l1.83.78c.095.035.177.1.234.184.147.221.087.52-.134.666l-8.52 4.9c-.147.09-.333.09-.48 0l-8.52-4.9c-.086-.045-.157-.116-.202-.202-.123-.235-.033-.525.202-.648l1.83-.78 6.64 3.61c.15.08.33.08.48 0l6.64-3.61zM11.81 3c.122-.05.258-.05.38 0l8.52 3.48c.109.038.199.117.25.22.107.219.018.482-.2.59l-8.52 4.63c-.15.08-.33.08-.48 0L3.24 7.29c-.103-.051-.183-.14-.22-.25-.08-.23.04-.48.27-.56z" transform="translate(2961 2085)"/>
        </g>
    </g>
</svg>
