<svg xmlns="http://www.w3.org/2000/svg" width="24" height="24" viewBox="0 0 24 24">
    <defs>
        <filter id="prefix__a">
            <feColorMatrix in="SourceGraphic" values="0 0 0 0 0.000000 0 0 0 0 0.294118 0 0 0 0 0.576471 0 0 0 1.000000 0"/>
        </filter>
    </defs>
    <g fill="none" fill-rule="evenodd" filter="url(#prefix__a)" transform="translate(-2961 -1276)">
        <g>
            <path fill="#004B93" d="M21 11.35c-.023-.38-.26-.713-.61-.86l-2.15-.92 2.26-1.3c.327-.188.52-.544.5-.92-.023-.38-.26-.713-.61-.86l-8-3.41c-.25-.106-.53-.106-.78 0l-8 3.41c-.35.147-.587.48-.61.86-.02.376.173.732.5.92l2.26 1.3-2.15.92c-.35.147-.587.48-.61.86-.02.376.173.732.5.92l2.26 1.3-2.15.92c-.35.147-.587.48-.61.86-.02.376.173.732.5.92l8 4.6c.31.179.69.179 1 0l8-4.6c.327-.188.52-.544.5-.92-.023-.38-.26-.713-.61-.86l-2.15-.92 2.26-1.3c.327-.188.52-.544.5-.92zm-9-6.26l5.76 2.45L12 10.85 6.24 7.54 12 5.09zm-.5 7.78c.31.179.69.179 1 0l3.57-2 1.69.72L12 14.85l-5.76-3.31 1.69-.72 3.57 2.05zm6.26 2.67L12 18.85l-5.76-3.31 1.69-.72 3.57 2.05c.31.179.69.179 1 0l3.57-2.05 1.69.72z" transform="translate(2961 1276)"/>
        </g>
    </g>
</svg>
