<svg xmlns="http://www.w3.org/2000/svg" width="24" height="24" viewBox="0 0 24 24">
    <defs>
        <filter id="prefix__a">
            <feColorMatrix in="SourceGraphic" values="0 0 0 0 0.000000 0 0 0 0 0.294118 0 0 0 0 0.576471 0 0 0 1.000000 0"/>
        </filter>
    </defs>
    <g fill="none" fill-rule="evenodd" filter="url(#prefix__a)" transform="translate(-3083 -1276)">
        <g>
            <path fill="#004B93" d="M18 3H6C4.343 3 3 4.343 3 6v12c0 1.657 1.343 3 3 3h12c1.657 0 3-1.343 3-3V6c0-1.657-1.343-3-3-3zM6 5h12c.552 0 1 .448 1 1v2H5V6c0-.552.448-1 1-1zM5 18v-8h6v9H6c-.552 0-1-.448-1-1zm13 1h-5v-9h6v8c0 .552-.448 1-1 1z" transform="translate(3083 1276)"/>
        </g>
    </g>
</svg>
