<svg xmlns="http://www.w3.org/2000/svg" xmlns:xlink="http://www.w3.org/1999/xlink" width="24" height="24" viewBox="0 0 24 24">
    <defs>
        <path id="prefix__a" d="M22 22h-4v-6.999c0-1.92-.847-2.991-2.366-2.991-1.653 0-2.634 1.116-2.634 2.991V22H9V9h4v1.462s1.255-2.202 4.083-2.202C19.912 8.26 22 9.986 22 13.558V22zM4.442 6.921C3.093 6.921 2 5.819 2 4.46 2 3.102 3.093 2 4.442 2 5.79 2 6.883 3.102 6.883 4.46c.001 1.359-1.093 2.461-2.441 2.461zM2 22h5V9H2v13z"/>
    </defs>
    <g fill="none" fill-rule="evenodd">
        <use fill="#FFF" xlink:href="#prefix__a"/>
    </g>
</svg>
