<svg xmlns="http://www.w3.org/2000/svg" width="24" height="24" viewBox="0 0 24 24">
    <defs>
        <filter id="prefix__a">
            <feColorMatrix in="SourceGraphic" values="0 0 0 0 0.000000 0 0 0 0 0.294118 0 0 0 0 0.576471 0 0 0 1.000000 0"/>
        </filter>
    </defs>
    <g fill="none" fill-rule="evenodd" filter="url(#prefix__a)" transform="translate(-885 -755)">
        <g>
            <path fill="#004B93" d="M9 6c.552 0 1 .448 1 1s-.448 1-1 1H7c-.13 0-.258.005-.387.017-2.2.204-3.817 2.153-3.613 4.353l.03.203c.345 2.011 2.12 3.482 4.18 3.427H9c.552 0 1 .448 1 1s-.448 1-1 1H7c-.265 0-.53-.017-.792-.052C2.923 17.51.614 14.495 1.05 11.21l.041-.237C1.657 8.066 4.226 5.96 7.21 6zm7.76 0c3.103-.075 5.777 2.17 6.24 5.24l.028.269c.015.18.022.36.02.54C23.021 15.362 20.314 18.027 17 18h-2c-.552 0-1-.448-1-1s.448-1 1-1h2c.13 0 .258-.005.387-.017 2.2-.204 3.817-2.153 3.613-4.353l-.03-.203C20.625 9.416 18.85 7.945 16.79 8H15c-.552 0-1-.448-1-1l.006-.109C14.06 6.392 14.494 6 15.25 6zM15 11c.552 0 1 .448 1 1s-.448 1-1 1H9c-.552 0-1-.448-1-1l.007-.117c.057-.497.48-.883.993-.883z" transform="translate(885 755)"/>
        </g>
    </g>
</svg>
