<svg xmlns="http://www.w3.org/2000/svg" width="24" height="24" viewBox="0 0 24 24">
    <defs>
        <filter id="prefix__a">
            <feColorMatrix in="SourceGraphic" values="0 0 0 0 0.000000 0 0 0 0 0.294118 0 0 0 0 0.576471 0 0 0 1.000000 0"/>
        </filter>
    </defs>
    <g fill="none" fill-rule="evenodd" filter="url(#prefix__a)" transform="translate(-1007 -755)">
        <g>
            <path fill="#004B93" d="M5.156 10.284c.392-.389 1.025-.386 1.414.006.395.398.392 1.031 0 1.42l-1.42 1.43c-.096.095-.187.195-.273.3-1.405 1.704-1.162 4.225.543 5.63l.177.13c1.679 1.162 3.967.95 5.403-.53l1.28-1.27c.392-.392 1.028-.392 1.42 0 .392.392.392 1.028 0 1.42l-1.42 1.42c-.18.178-.37.345-.57.5-2.651 2.043-6.457 1.55-8.5-1.1l-.152-.215c-1.66-2.46-1.327-5.774.822-7.855l1.27-1.28zm8.134-.994c.392-.392 1.028-.392 1.42 0 .392.392.392 1.028 0 1.42l-4.003 4.003c-.395.392-1.028.39-1.417-.003l-.003-.003c-.392-.395-.39-1.028.003-1.417zM11.53 3.9c2.154-2.237 5.634-2.528 8.13-.68l.193.156c.127.106.249.218.366.334 2.378 2.355 2.396 6.192.041 8.57l-1.423 1.423c-.395.392-1.028.39-1.417-.003l-.003-.003c-.392-.395-.39-1.028.003-1.417l1.42-1.43c.104-.102.201-.209.293-.321 1.4-1.71 1.147-4.23-.563-5.629l-.177-.13C16.72 3.6 14.43 3.812 13 5.3l-1.3 1.31-.006.006c-.392.389-1.025.386-1.414-.006l-.036-.043-.035-.044c-.354-.487-.246-1.169.241-1.523z" transform="translate(1007 755)"/>
        </g>
    </g>
</svg>
