<svg xmlns="http://www.w3.org/2000/svg" width="24" height="24" viewBox="0 0 24 24">
    <defs>
        <filter id="prefix__a">
            <feColorMatrix in="SourceGraphic" values="0 0 0 0 0.000000 0 0 0 0 0.294118 0 0 0 0 0.576471 0 0 0 1.000000 0"/>
        </filter>
    </defs>
    <g fill="none" fill-rule="evenodd" filter="url(#prefix__a)" transform="translate(-1129 -755)">
        <g>
            <path fill="#004B93" d="M20.06 16c.52 0 .94.42.94.94v.12c0 .52-.42.94-.94.94H7.94c-.52 0-.94-.42-.94-.94v-.12c0-.52.42-.94.94-.94h12.12zm-15.353.293c.39.39.39 1.024 0 1.414-.39.39-1.024.39-1.414 0-.39-.39-.39-1.024 0-1.414.39-.39 1.024-.39 1.414 0zM20.06 11c.52 0 .94.42.94.94v.12c0 .52-.42.94-.94.94H7.94c-.52 0-.94-.42-.94-.94v-.12c0-.52.42-.94.94-.94h12.12zm-15.353.293c.39.39.39 1.024 0 1.414-.39.39-1.024.39-1.414 0-.39-.39-.39-1.024 0-1.414.39-.39 1.024-.39 1.414 0zM20.06 6c.52 0 .94.42.94.94v.12c0 .52-.42.94-.94.94H7.94C7.42 8 7 7.58 7 7.06v-.12c0-.52.42-.94.94-.94h12.12zm-15.353.293c.39.39.39 1.024 0 1.414-.39.39-1.024.39-1.414 0-.39-.39-.39-1.024 0-1.414.39-.39 1.024-.39 1.414 0z" transform="translate(1129 755)"/>
        </g>
    </g>
</svg>
