<svg xmlns="http://www.w3.org/2000/svg" width="24" height="24" viewBox="0 0 24 24">
    <defs>
        <filter id="prefix__a">
            <feColorMatrix in="SourceGraphic" values="0 0 0 0 0.000000 0 0 0 0 0.294118 0 0 0 0 0.576471 0 0 0 1.000000 0"/>
        </filter>
    </defs>
    <g fill="none" fill-rule="evenodd" filter="url(#prefix__a)" transform="translate(-1251 -755)">
        <g>
            <path fill="#004B93" d="M12 18l.117.007c.497.057.883.48.883.993v2c0 .552-.448 1-1 1s-1-.448-1-1v-2l.007-.117c.057-.497.48-.883.993-.883zm4.315-1.835c.384-.398 1.017-.409 1.415-.025l1.46 1.42c.395.398.392 1.031 0 1.42l-.1.09c-.176.136-.394.211-.62.21l-.128-.009c-.21-.028-.408-.122-.562-.271l-1.44-1.42-.085-.093c-.312-.387-.294-.955.06-1.322zM6.27 16.17c.398-.384 1.031-.373 1.415.025.384.398.373 1.031-.025 1.415L6.22 19c-.185.163-.423.252-.67.25l-.134-.008c-.221-.029-.428-.13-.586-.292l-.003-.003c-.392-.395-.39-1.028.003-1.417l1.44-1.39zM21 11c.552 0 1 .448 1 1s-.448 1-1 1h-2c-.552 0-1-.448-1-1s.448-1 1-1zM5 11c.552 0 1 .448 1 1l-.007.117c-.057.497-.48.883-.993.883H3c-.552 0-1-.448-1-1s.448-1 1-1zm-.21-5.96c.384-.406 1.024-.424 1.43-.04l1.5 1.42c.388.39.388 1.02 0 1.41l-.085.08c-.177.147-.402.23-.635.23l-.135-.004c-.222-.023-.432-.119-.595-.276L4.83 6.47l-.087-.093c-.32-.388-.307-.962.047-1.337zM17.78 5c.391-.315.956-.291 1.319.056.399.382.413 1.015.031 1.414l-1.44 1.39c-.185.179-.433.279-.69.28-.251-.017-.487-.127-.66-.31l-.083-.094c-.302-.392-.275-.956.083-1.316zM12 2l.117.007c.497.057.883.48.883.993v2c0 .552-.448 1-1 1s-1-.448-1-1V3l.007-.117c.057-.497.48-.883.993-.883z" transform="translate(1251 755)"/>
        </g>
    </g>
</svg>
