<svg xmlns="http://www.w3.org/2000/svg" width="24" height="24" viewBox="0 0 24 24">
    <defs>
        <filter id="prefix__a">
            <feColorMatrix in="SourceGraphic" values="0 0 0 0 0.000000 0 0 0 0 0.294118 0 0 0 0 0.576471 0 0 0 1.000000 0"/>
        </filter>
    </defs>
    <g fill="none" fill-rule="evenodd" filter="url(#prefix__a)" transform="translate(-1495 -755)">
        <g>
            <path fill="#004B93" d="M7 4c.552 0 1 .448 1 1s-.448 1-1 1H6v12h1c.552 0 1 .448 1 1s-.448 1-1 1H5c-.552 0-1-.448-1-1V5l.007-.117C4.064 4.386 4.487 4 5 4zm9.717 3.115c.437-.233.99-.11 1.283.305l2.82 4c.25.356.243.833-.02 1.18l-3 4c-.189.252-.485.4-.8.4l-.129-.008c-.17-.022-.333-.088-.471-.192l-.096-.081c-.357-.346-.41-.911-.104-1.319L18 13h-8c-.552 0-1-.448-1-1s.448-1 1-1h8.09l-1.72-2.42-.005-.007c-.317-.452-.207-1.076.245-1.393z" transform="translate(1495 755)"/>
        </g>
    </g>
</svg>
