<svg xmlns="http://www.w3.org/2000/svg" xmlns:xlink="http://www.w3.org/1999/xlink" width="24" height="24" viewBox="0 0 24 24">
    <defs>
        <path id="prefix__a" d="M17.598 4.5l.454-.662c.186-.27.398-.264.478-.253.082.014.281.08.37.396l.679 2.465c.054.198.023.402-.087.562-.11.158-.289.26-.492.279l-2.53.228c-.325.032-.457-.136-.498-.207-.042-.071-.12-.268.065-.537l.448-.65c-2.555-1.606-5.777-1.538-8.272.195-.743.518-1.368 1.144-1.88 1.876-2.396 3.428-1.579 8.178 1.822 10.591.231.164.473.316.72.452.136.075.273.146.411.212.616.29 1.24.49 1.876.604.53.096.884.608.788 1.14-.046.258-.189.484-.404.634-.166.116-.358.175-.555.175-.059 0-.116-.005-.174-.015-1.88-.336-3.61-1.242-5.004-2.62-1.534-1.517-2.507-3.552-2.754-5.744l-.006-.06c-.02-.168-.037-.365-.044-.559-.086-1.994.449-3.981 1.505-5.612.125-.199.237-.36.351-.515l.038-.047c1.304-1.754 3.11-2.972 5.218-3.518.271-.07.512-.122.755-.163 2.326-.418 4.705.063 6.722 1.354zm-2.542 15.557c.223.136.382.35.444.607.064.252.025.516-.11.741-.134.225-.348.384-.602.448-.186.046-.375.088-.564.123-.06.012-.12.017-.18.017-.2 0-.394-.062-.563-.181-.203-.142-.348-.368-.396-.621-.099-.534.252-1.047.78-1.146.152-.028.302-.06.451-.098.253-.063.517-.024.74.11zm2.962-.875c.144.218.195.489.143.746-.052.257-.206.483-.421.62-.159.103-.324.207-.488.304-.152.087-.322.13-.49.13-.2 0-.397-.06-.563-.178-.27-.182-.43-.508-.415-.85.016-.342.206-.65.496-.808.111-.064.226-.135.34-.207l.046-.033c.45-.3 1.042-.178 1.352.276zm1.881-2.242c.204.147.344.382.381.644.037.26-.03.526-.185.732-.116.155-.236.307-.362.455-.197.226-.472.344-.748.344-.194 0-.389-.058-.558-.176-.223-.15-.373-.398-.408-.677-.035-.278.048-.557.227-.765.097-.115.195-.236.285-.36l.003-.002c.333-.435.934-.519 1.365-.195zm1.027-2.749c.514.164.8.716.64 1.231-.058.185-.122.37-.191.55-.092.245-.273.44-.513.547-.127.057-.263.087-.398.087-.119 0-.236-.022-.35-.066-.076-.03-.148-.069-.214-.115-.356-.245-.505-.728-.35-1.148.056-.148.106-.296.151-.442.079-.251.25-.457.482-.579.23-.12.494-.144.743-.065zm-9.353-5.63c.638 0 1.158.52 1.158 1.159v2.548h2.55c.638 0 1.158.52 1.158 1.159 0 .64-.52 1.158-1.159 1.158h-3.707c-.64 0-1.159-.519-1.159-1.158V9.72c0-.639.52-1.159 1.159-1.159zm9.405 2.694c.265-.004.51.083.702.262.19.178.302.42.312.68.008.196.01.391.006.586-.013.534-.45.96-.978.96H21c-.194-.004-.38-.067-.54-.18-.264-.18-.42-.488-.415-.822.003-.155.002-.31-.005-.464-.021-.543.4-1 .938-1.022zm-.184-2.776c.24.104.428.296.525.54.073.18.138.363.199.548.167.514-.11 1.07-.62 1.24-.1.034-.202.05-.305.05-.2 0-.4-.061-.567-.18-.166-.117-.295-.291-.363-.491-.048-.149-.102-.295-.158-.439-.2-.502.045-1.075.544-1.275.24-.097.505-.094.745.007z"/>
    </defs>
    <g fill="none" fill-rule="evenodd">
        <use fill="#004B93" xlink:href="#prefix__a"/>
    </g>
</svg>
