<svg xmlns="http://www.w3.org/2000/svg" width="24" height="24" viewBox="0 0 24 24">
    <defs>
        <filter id="prefix__a">
            <feColorMatrix in="SourceGraphic" values="0 0 0 0 0.000000 0 0 0 0 0.294118 0 0 0 0 0.576471 0 0 0 1.000000 0"/>
        </filter>
    </defs>
    <g fill="none" fill-rule="evenodd" filter="url(#prefix__a)" transform="translate(-397 -1660)">
        <g>
            <path fill="#004B93" d="M15.727 9.034h2.338l.025.974c.014.325.214.537.455.537.251 0 .455-.229.455-.51 0-.052-.007-.102-.02-.15l-.035-.095-1.03-2.154H6.083L5.017 9.894c-.01.046-.017.093-.017.14 0 .282.204.511.454.511.251 0 .455-.229.455-.51v-1h2.338l.025.973c.014.325.213.537.455.537.25 0 .454-.229.454-.51v-1h2.34l.024.973c.014.325.213.537.455.537.25 0 .454-.229.454-.51v-1H14.8l.02.98c.012.318.212.53.453.53.251 0 .455-.229.455-.51v-1zM6.633 18.4h11.061v-5.2H6.634v5.2zm11.698 2H5.995c-.75 0-1.362-.616-1.362-1.373v-6.456c0-.056.003-.112.01-.167C3.687 12.061 3 11.128 3 10.034c0-.176.018-.354.054-.527.018-.158.062-.313.131-.456l1.267-2.639c.064-.132.147-.25.246-.353-.042-.128-.065-.264-.065-.405v-.327C4.633 4.595 5.244 4 5.995 4h12.336c.751 0 1.363.595 1.363 1.327v.327c0 .247-.07.477-.19.676.016.03.031.058.045.088l1.265 2.65c.053.11.091.23.112.354.05.2.074.405.074.612 0 .974-.545 1.82-1.34 2.237.022.096.034.197.034.3v6.456c0 .757-.612 1.373-1.363 1.373z" transform="translate(397 1660)"/>
        </g>
    </g>
</svg>
