<svg xmlns="http://www.w3.org/2000/svg" width="24" height="24" viewBox="0 0 24 24">
    <defs>
        <filter id="prefix__a">
            <feColorMatrix in="SourceGraphic" values="0 0 0 0 0.000000 0 0 0 0 0.294118 0 0 0 0 0.576471 0 0 0 1.000000 0"/>
        </filter>
    </defs>
    <g fill="none" fill-rule="evenodd" filter="url(#prefix__a)" transform="translate(-397 -2479)">
        <g>
            <path fill="#004B93" d="M19.914 12c.25 0 .453.208.453.465v8.07c0 .257-.203.465-.453.465H4.494c-.25 0-.453-.208-.453-.465v-8.07c0-.257.203-.465.453-.465h15.42zM19.9 5.045c.173 0 .33.102.407.263l1.485 3.107.022.045.071.152c.025.052.04.107.045.162.046.165.07.34.07.52 0 1.042-.814 1.888-1.818 1.888-.974 0-1.769-.795-1.816-1.794l-.002-.094h-.455c0 1.042-.814 1.888-1.818 1.888-.974 0-1.769-.795-1.816-1.794l-.002-.094h-.455c0 1.042-.814 1.888-1.818 1.888-.974 0-1.769-.795-1.816-1.794l-.002-.094h-.455c0 1.042-.814 1.888-1.818 1.888-.974 0-1.769-.795-1.816-1.794l-.002-.094h-.455c0 1.042-.814 1.888-1.818 1.888S2 10.336 2 9.294c0-.164.02-.323.058-.474 0-.071.017-.144.048-.209l1.587-3.304c.077-.16.234-.262.406-.262h15.8zM19.914 3c.25 0 .453.183.453.41v.408c0 .226-.203.41-.453.41H4.494c-.25 0-.453-.184-.453-.41V3.41c0-.226.203-.409.453-.409h15.42z" transform="translate(397 2479)"/>
        </g>
    </g>
</svg>
