<svg xmlns="http://www.w3.org/2000/svg" width="24" height="24" viewBox="0 0 24 24">
    <defs>
        <filter id="prefix__a">
            <feColorMatrix in="SourceGraphic" values="0 0 0 0 0.000000 0 0 0 0 0.294118 0 0 0 0 0.576471 0 0 0 1.000000 0"/>
        </filter>
    </defs>
    <g fill="none" fill-rule="evenodd" filter="url(#prefix__a)" transform="translate(-397 -1372)">
        <g>
            <path fill="#004B93" d="M11 3c4.418 0 8 3.582 8 8l-.007.332c-.067 1.66-.655 3.258-1.683 4.568l3.4 3.39.006.006c.389.392.386 1.025-.006 1.414-.398.395-1.031.392-1.42 0l-3.39-3.4c-1.398 1.097-3.123 1.692-4.9 1.69l-.25-.004C6.449 18.865 3 15.335 3 11c0-4.418 3.582-8 8-8zm0 2c-3.314 0-6 2.686-6 6l.004.225C5.122 14.435 7.762 17 11 17l.225-.004C14.435 16.878 17 14.238 17 11c0-3.314-2.686-6-6-6zm0 3c.552 0 1 .448 1 1v1h1c.552 0 1 .448 1 1s-.448 1-1 1h-1v1c0 .552-.448 1-1 1s-1-.448-1-1v-1H9c-.552 0-1-.448-1-1s.448-1 1-1h1V9c0-.552.448-1 1-1z" transform="translate(397 1372)"/>
        </g>
    </g>
</svg>
