<svg xmlns="http://www.w3.org/2000/svg" width="24" height="24" viewBox="0 0 24 24">
    <defs>
        <filter id="prefix__a">
            <feColorMatrix in="SourceGraphic" values="0 0 0 0 0.000000 0 0 0 0 0.294118 0 0 0 0 0.576471 0 0 0 1.000000 0"/>
        </filter>
    </defs>
    <g fill="none" fill-rule="evenodd" filter="url(#prefix__a)" transform="translate(-1861 -755)">
        <g>
            <path fill="#004B93" d="M20.05 17c.525 0 .95.425.95.95v.1c0 .525-.425.95-.95.95H3.95c-.525 0-.95-.425-.95-.95v-.1c0-.525.425-.95.95-.95h16.1zM5.79 8.29c.392-.392 1.028-.392 1.42 0 .392.392.392 1.028 0 1.42L5.91 11h14.14c.533.027.95.467.95 1v.05c-.025.514-.436.925-.95.95H5.91l1.3 1.29.006.006c.389.392.386 1.025-.006 1.414-.398.395-1.031.392-1.42 0l-3-3-.006-.006c-.389-.392-.386-1.025.006-1.414zM20.05 5c.525 0 .95.425.95.95v.1c0 .525-.425.95-.95.95H3.95C3.425 7 3 6.575 3 6.05v-.1c0-.525.425-.95.95-.95h16.1z" transform="translate(1861 755)"/>
        </g>
    </g>
</svg>
