<svg xmlns="http://www.w3.org/2000/svg" width="24" height="24" viewBox="0 0 24 24">
    <defs>
        <filter id="prefix__a">
            <feColorMatrix in="SourceGraphic" values="0 0 0 0 0.000000 0 0 0 0 0.294118 0 0 0 0 0.576471 0 0 0 1.000000 0"/>
        </filter>
    </defs>
    <g fill="none" fill-rule="evenodd" filter="url(#prefix__a)" transform="translate(-519 -2181)">
        <g>
            <path fill="#004B93" d="M19.07 4.93C15.177 1.012 8.846.991 4.928 4.884 2.015 7.778 1.168 12.158 2.79 15.93c.096.199.127.422.09.64L2 20.8c-.069.33.033.671.27.91.194.192.457.297.73.29h.2l4.28-.86c.217-.026.438.005.64.09 5.073 2.183 10.955-.16 13.138-5.234 1.623-3.772.775-8.152-2.138-11.046l-.05-.02zM8 13c-.552 0-1-.448-1-1s.448-1 1-1 1 .448 1 1-.448 1-1 1zm4 0c-.552 0-1-.448-1-1s.448-1 1-1 1 .448 1 1-.448 1-1 1zm4 0c-.552 0-1-.448-1-1s.448-1 1-1 1 .448 1 1-.448 1-1 1z" transform="translate(519 2181)"/>
        </g>
    </g>
</svg>
