<svg xmlns="http://www.w3.org/2000/svg" width="24" height="24" viewBox="0 0 24 24">
    <defs>
        <filter id="prefix__a">
            <feColorMatrix in="SourceGraphic" values="0 0 0 0 0.000000 0 0 0 0 0.294118 0 0 0 0 0.576471 0 0 0 1.000000 0"/>
        </filter>
    </defs>
    <g fill="none" fill-rule="evenodd" filter="url(#prefix__a)" transform="translate(-641 -2181)">
        <g>
            <path fill="#004B93" d="M19 3H5C3.343 3 2 4.343 2 6v15c0 .36.196.693.51.87.15.085.318.13.49.13.18 0 .356-.048.51-.14L8 19.14c.166-.099.357-.147.55-.14H19c1.657 0 3-1.343 3-3V6c0-1.657-1.343-3-3-3zM8 12c-.552 0-1-.448-1-1s.448-1 1-1 1 .448 1 1-.448 1-1 1zm4 0c-.552 0-1-.448-1-1s.448-1 1-1 1 .448 1 1-.448 1-1 1zm4 0c-.552 0-1-.448-1-1s.448-1 1-1 1 .448 1 1-.448 1-1 1z" transform="translate(641 2181)"/>
        </g>
    </g>
</svg>
