<svg xmlns="http://www.w3.org/2000/svg" width="24" height="24" viewBox="0 0 24 24">
    <defs>
        <filter id="prefix__a">
            <feColorMatrix in="SourceGraphic" values="0 0 0 0 0.000000 0 0 0 0 0.294118 0 0 0 0 0.576471 0 0 0 1.000000 0"/>
        </filter>
    </defs>
    <g fill="none" fill-rule="evenodd" filter="url(#prefix__a)" transform="translate(-519 -1372)">
        <g>
            <path fill="#004B93" d="M4.928 4.884C8.846.991 15.178 1.012 19.07 4.93l.05.02c2.913 2.894 3.76 7.274 2.138 11.046-2.183 5.073-8.065 7.417-13.138 5.234l-.123-.045c-.167-.05-.343-.066-.517-.045L3.2 22H3c-.273.007-.536-.098-.73-.29l-.083-.094c-.177-.23-.247-.528-.187-.816l.88-4.23c.037-.218.006-.441-.09-.64l-.117-.284C1.21 11.94 2.088 7.706 4.928 4.884zM19.9 10.699c-.716-4.36-4.83-7.315-9.19-6.599l-.372.07c-.493.105-.975.256-1.44.452C4.826 6.337 2.915 11.028 4.63 15.1l.086.216c.18.51.223 1.06.124 1.594l-.57 2.82 2.82-.57c.185-.032.372-.049.56-.05l.257.012c.341.03.677.113.993.248l.352.139c.473.173.962.301 1.46.383 4.36.714 8.474-2.242 9.188-6.602.14-.858.14-1.733 0-2.591zm-7.193.594c.39.39.39 1.024 0 1.414-.39.39-1.024.39-1.414 0-.39-.39-.39-1.024 0-1.414.39-.39 1.024-.39 1.414 0zm4 0c.39.39.39 1.024 0 1.414-.39.39-1.024.39-1.414 0-.39-.39-.39-1.024 0-1.414.39-.39 1.024-.39 1.414 0zm-8 0c.39.39.39 1.024 0 1.414-.39.39-1.024.39-1.414 0-.39-.39-.39-1.024 0-1.414.39-.39 1.024-.39 1.414 0z" transform="translate(519 1372)"/>
        </g>
    </g>
</svg>
