<svg xmlns="http://www.w3.org/2000/svg" width="24" height="24" viewBox="0 0 24 24">
    <defs>
        <filter id="prefix__a">
            <feColorMatrix in="SourceGraphic" values="0 0 0 0 0.000000 0 0 0 0 0.294118 0 0 0 0 0.576471 0 0 0 1.000000 0"/>
        </filter>
    </defs>
    <g fill="none" fill-rule="evenodd" filter="url(#prefix__a)" transform="translate(-641 -1372)">
        <g>
            <path fill="#004B93" d="M19 3c1.657 0 3 1.343 3 3v10c0 1.657-1.343 3-3 3H8.55c-.193-.007-.384.041-.55.14l-4.49 2.72c-.154.092-.33.14-.51.14l-.128-.009c-.127-.016-.25-.057-.362-.121l-.1-.065C2.155 21.62 2 21.321 2 21V6l.005-.176C2.096 4.249 3.402 3 5 3zm0 2H5c-.552 0-1 .448-1 1v13.23l3-1.8c.468-.282 1.004-.43 1.55-.43H19c.552 0 1-.448 1-1V6c0-.552-.448-1-1-1zm-6.293 5.293c.39.39.39 1.024 0 1.414-.39.39-1.024.39-1.414 0-.39-.39-.39-1.024 0-1.414.39-.39 1.024-.39 1.414 0zm4 0c.39.39.39 1.024 0 1.414-.39.39-1.024.39-1.414 0-.39-.39-.39-1.024 0-1.414.39-.39 1.024-.39 1.414 0zm-8 0c.39.39.39 1.024 0 1.414-.39.39-1.024.39-1.414 0-.39-.39-.39-1.024 0-1.414.39-.39 1.024-.39 1.414 0z" transform="translate(641 1372)"/>
        </g>
    </g>
</svg>
