<svg xmlns="http://www.w3.org/2000/svg" width="24" height="24" viewBox="0 0 24 24">
    <defs>
        <filter id="prefix__a">
            <feColorMatrix in="SourceGraphic" values="0 0 0 0 0.000000 0 0 0 0 0.294118 0 0 0 0 0.576471 0 0 0 1.000000 0"/>
        </filter>
    </defs>
    <g fill="none" fill-rule="evenodd" filter="url(#prefix__a)" transform="translate(-763 -2181)">
        <g>
            <path fill="#004B93" d="M18 10c.552 0 1 .448 1 1l-.004.242c-.12 3.37-2.635 6.193-5.996 6.678V20h2.11l.112.007c.438.055.778.43.778.883v.22l-.007.112c-.055.438-.43.778-.883.778H8.89c-.492 0-.89-.398-.89-.89v-.22l.007-.112c.055-.438.43-.778.883-.778H11v-2.08c-3.441-.497-5.996-3.444-6-6.92l.007-.117c.057-.497.48-.883.993-.883.552 0 1 .448 1 1l.005.217C7.118 13.877 9.31 16 12 16c2.761 0 5-2.239 5-5l.007-.117c.057-.497.48-.883.993-.883zm-6-8c2.21 0 4 1.79 4 4v5c0 2.21-1.79 4-4 4l-.2-.005C9.684 14.891 8 13.142 8 11V6c0-2.21 1.79-4 4-4z" transform="translate(763 2181)"/>
        </g>
    </g>
</svg>
