<svg xmlns="http://www.w3.org/2000/svg" width="24" height="24" viewBox="0 0 24 24">
    <defs>
        <filter id="prefix__a">
            <feColorMatrix in="SourceGraphic" values="0 0 0 0 0.000000 0 0 0 0 0.294118 0 0 0 0 0.576471 0 0 0 1.000000 0"/>
        </filter>
    </defs>
    <g fill="none" fill-rule="evenodd" filter="url(#prefix__a)" transform="translate(-885 -1372)">
        <g>
            <path fill="#004B93" d="M6 10c.552 0 1 .448 1 1l.005.217C7.118 13.877 9.31 16 12 16l.265-.007c.264-.015.527-.053.785-.113l1.6 1.6c-.53.213-1.084.361-1.65.44V20h2c.552 0 1 .448 1 1s-.448 1-1 1H9c-.552 0-1-.448-1-1s.448-1 1-1h2v-2.08c-3.441-.497-5.996-3.444-6-6.92l.007-.117c.057-.497.48-.883.993-.883zM3.29 3.29c.392-.392 1.028-.392 1.42 0l16 16 .006.006c.389.392.386 1.025-.006 1.414-.398.395-1.031.392-1.42 0l-16-16-.084-.095c-.306-.393-.278-.963.084-1.325zM18 10c.552 0 1 .448 1 1l-.004.305c-.048 1.32-.469 2.601-1.216 3.695l-1.47-1.52c.449-.75.687-1.606.69-2.48l.007-.117c.057-.497.48-.883.993-.883zm-10 .83L12.16 15H12c-2.21 0-4-1.79-4-4v-.17zm3.956-8.785C14.165 2.02 15.976 3.791 16 6v5c.001.606-.136 1.205-.4 1.75L14 11.16c.004-.053.004-.107 0-.16V6l-.005-.15C13.918 4.817 13.055 4 12 4c-1.105 0-2 .895-2 2v1.17L8.08 5.25c.375-1.848 1.99-3.184 3.876-3.205z" transform="translate(885 1372)"/>
        </g>
    </g>
</svg>
