<svg xmlns="http://www.w3.org/2000/svg" width="24" height="24" viewBox="0 0 24 24">
    <defs>
        <filter id="prefix__a">
            <feColorMatrix in="SourceGraphic" values="0 0 0 0 0.000000 0 0 0 0 0.294118 0 0 0 0 0.576471 0 0 0 1.000000 0"/>
        </filter>
    </defs>
    <g fill="none" fill-rule="evenodd" filter="url(#prefix__a)" transform="translate(-1007 -2181)">
        <g>
            <path fill="#004B93" d="M20.71 19.29l-3.4-3.39c1.097-1.398 1.692-3.123 1.69-4.9 0-4.418-3.582-8-8-8s-8 3.582-8 8 3.582 8 8 8c1.777.002 3.502-.593 4.9-1.69l3.39 3.4c.389.392 1.022.395 1.414.006l.006-.006c.392-.389.395-1.022.006-1.414l-.006-.006zM13 12H9c-.552 0-1-.448-1-1s.448-1 1-1h4c.552 0 1 .448 1 1s-.448 1-1 1z" transform="translate(1007 2181)"/>
        </g>
    </g>
</svg>
