<svg xmlns="http://www.w3.org/2000/svg" width="24" height="24" viewBox="0 0 24 24">
    <defs>
        <filter id="prefix__a">
            <feColorMatrix in="SourceGraphic" values="0 0 0 0 0.000000 0 0 0 0 0.294118 0 0 0 0 0.576471 0 0 0 1.000000 0"/>
        </filter>
    </defs>
    <g fill="none" fill-rule="evenodd" filter="url(#prefix__a)" transform="translate(-1373 -2181)">
        <g>
            <path fill="#004B93" d="M22 13v1c0 1.657-1.343 3-3 3h-6v2h4c.552 0 1 .448 1 1s-.448 1-1 1H7c-.552 0-1-.448-1-1s.448-1 1-1h4v-2H5c-1.657 0-3-1.343-3-3v-1h20zM19 3c1.657 0 3 1.343 3 3v5H2V6l.005-.176C2.096 4.249 3.402 3 5 3z" transform="translate(1373 2181)"/>
        </g>
    </g>
</svg>
