<svg xmlns="http://www.w3.org/2000/svg" width="24" height="24" viewBox="0 0 24 24">
    <defs>
        <filter id="prefix__a">
            <feColorMatrix in="SourceGraphic" values="0 0 0 0 0.000000 0 0 0 0 0.294118 0 0 0 0 0.576471 0 0 0 1.000000 0"/>
        </filter>
    </defs>
    <g fill="none" fill-rule="evenodd" filter="url(#prefix__a)" transform="translate(-1373 -1372)">
        <g>
            <path fill="#004B93" d="M19 3H5C3.343 3 2 4.343 2 6v8c0 1.657 1.343 3 3 3h6v2H7c-.552 0-1 .448-1 1s.448 1 1 1h10c.552 0 1-.448 1-1s-.448-1-1-1h-4v-2h6c1.657 0 3-1.343 3-3V6c0-1.657-1.343-3-3-3zm1 11c0 .552-.448 1-1 1H5c-.552 0-1-.448-1-1V6c0-.552.448-1 1-1h14c.552 0 1 .448 1 1v8z" transform="translate(1373 1372)"/>
        </g>
    </g>
</svg>
