<svg xmlns="http://www.w3.org/2000/svg" width="24" height="24" viewBox="0 0 24 24">
    <defs>
        <filter id="prefix__a">
            <feColorMatrix in="SourceGraphic" values="0 0 0 0 0.000000 0 0 0 0 0.294118 0 0 0 0 0.576471 0 0 0 1.000000 0"/>
        </filter>
    </defs>
    <g fill="none" fill-rule="evenodd" filter="url(#prefix__a)" transform="translate(-1495 -2181)">
        <g>
            <path fill="#004B93" d="M12.3 22h-.1c-2.77-.021-5.416-1.156-7.34-3.15-3.658-3.912-3.77-9.955-.26-14 1.092-1.224 2.465-2.164 4-2.74.366-.14.78-.055 1.06.22.258.264.35.648.24 1-1.119 3.064-.362 6.5 1.94 8.81 2.323 2.295 5.759 3.05 8.83 1.94.521-.183 1.092.09 1.275.611.078.22.076.46-.005.679-.51 1.364-1.309 2.602-2.34 3.63-1.937 1.931-4.564 3.011-7.3 3z" transform="translate(1495 2181)"/>
        </g>
    </g>
</svg>
