<svg xmlns="http://www.w3.org/2000/svg" width="24" height="24" viewBox="0 0 24 24">
    <defs>
        <filter id="prefix__a">
            <feColorMatrix in="SourceGraphic" values="0 0 0 0 0.000000 0 0 0 0 0.294118 0 0 0 0 0.576471 0 0 0 1.000000 0"/>
        </filter>
    </defs>
    <g fill="none" fill-rule="evenodd" filter="url(#prefix__a)" transform="translate(-2105 -755)">
        <g>
            <path fill="#004B93" d="M13.414 10.586c.781.78.781 2.047 0 2.828-.78.781-2.047.781-2.828 0-.781-.78-.781-2.047 0-2.828.78-.781 2.047-.781 2.828 0zm7 0c.781.78.781 2.047 0 2.828-.78.781-2.047.781-2.828 0-.781-.78-.781-2.047 0-2.828.78-.781 2.047-.781 2.828 0zm-14 0c.781.78.781 2.047 0 2.828-.78.781-2.047.781-2.828 0-.781-.78-.781-2.047 0-2.828.78-.781 2.047-.781 2.828 0z" transform="translate(2105 755)"/>
        </g>
    </g>
</svg>
