<svg xmlns="http://www.w3.org/2000/svg" width="24" height="24" viewBox="0 0 24 24">
    <defs>
        <filter id="prefix__a">
            <feColorMatrix in="SourceGraphic" values="0 0 0 0 0.000000 0 0 0 0 0.294118 0 0 0 0 0.576471 0 0 0 1.000000 0"/>
        </filter>
    </defs>
    <g fill="none" fill-rule="evenodd" filter="url(#prefix__a)" transform="translate(-2349 -755)">
        <g>
            <path fill="#004B93" d="M21.71 11.31l-3-3c-.392-.392-1.028-.392-1.42 0-.392.392-.392 1.028 0 1.42L18.58 11H13V5.41l1.29 1.3c.189.187.444.292.71.29.266.002.521-.103.71-.29.392-.389.395-1.022.006-1.414l-.006-.006-3-3c-.189-.187-.444-.292-.71-.29-.262.001-.514.105-.7.29l-3 3c-.392.39-.394 1.023-.005 1.415.39.392 1.023.394 1.415.005L11 5.42V11H5.41l1.3-1.29c.392-.392.392-1.028 0-1.42-.392-.392-1.028-.392-1.42 0l-3 3c-.187.189-.292.444-.29.71-.002.266.103.521.29.71l3 3c.189.187.444.292.71.29.266.002.521-.103.71-.29.392-.389.395-1.022.006-1.414l-.006-.006L5.42 13H11v5.59l-1.29-1.3c-.392-.392-1.028-.392-1.42 0-.392.392-.392 1.028 0 1.42l3 3c.189.187.444.292.71.29.262-.001.514-.105.7-.29l3-3c.392-.392.392-1.028 0-1.42-.392-.392-1.028-.392-1.42 0L13 18.58V13h5.59l-1.3 1.29c-.392.389-.395 1.022-.006 1.414l.006.006c.189.187.444.292.71.29.266.002.521-.103.71-.29l3-3c.187-.189.292-.444.29-.71-.004-.259-.108-.506-.29-.69z" transform="translate(2349 755)"/>
        </g>
    </g>
</svg>
