<svg xmlns="http://www.w3.org/2000/svg" width="24" height="24" viewBox="0 0 24 24">
    <defs>
        <filter id="prefix__a">
            <feColorMatrix in="SourceGraphic" values="0 0 0 0 0.000000 0 0 0 0 0.294118 0 0 0 0 0.576471 0 0 0 1.000000 0"/>
        </filter>
    </defs>
    <g fill="none" fill-rule="evenodd" filter="url(#prefix__a)" transform="translate(-1619 -1372)">
        <g>
            <path fill="#004B93" d="M19 15V4c-.001-.304-.141-.591-.38-.78-.235-.19-.544-.264-.84-.2l-9 2c-.458.103-.782.51-.78.98v8.34c-1.743-.823-3.823-.077-4.646 1.666-.823 1.743-.077 3.823 1.666 4.646 1.743.823 3.823.077 4.646-1.666.217-.459.33-.959.334-1.466.01-.173.01-.347 0-.52V6.8l7-1.55v7.09c-1.743-.823-3.823-.077-4.646 1.666-.823 1.743-.077 3.823 1.666 4.646 1.743.823 3.823.077 4.646-1.666.218-.462.332-.966.334-1.476.01-.17.01-.34 0-.51zM6.54 19c-.823 0-1.49-.668-1.49-1.49 0-.823.668-1.49 1.491-1.49.707 0 1.317.497 1.459 1.19.01.1.01.2 0 .3 0 .812-.65 1.474-1.46 1.49zm9-2c-.828.006-1.505-.66-1.512-1.488-.006-.829.66-1.505 1.489-1.512.72-.006 1.344.503 1.483 1.21.01.1.01.2 0 .3-.005.82-.67 1.485-1.49 1.49h.03z" transform="translate(1619 1372)"/>
        </g>
    </g>
</svg>
