<svg xmlns="http://www.w3.org/2000/svg" width="24" height="24" viewBox="0 0 24 24">
    <defs>
        <filter id="prefix__a">
            <feColorMatrix in="SourceGraphic" values="0 0 0 0 0.000000 0 0 0 0 0.294118 0 0 0 0 0.576471 0 0 0 1.000000 0"/>
        </filter>
    </defs>
    <g fill="none" fill-rule="evenodd" filter="url(#prefix__a)" transform="translate(-1863 -1372)">
        <g>
            <path fill="#004B93" d="M13.67 22h-.06c-.453-.027-.83-.356-.92-.8L11 13l-8.2-1.69c-.542-.108-.894-.634-.786-1.176.07-.353.324-.64.666-.754l16-5.33c.51-.21 1.095.032 1.306.543.096.232.1.491.014.727l-5.33 16c-.143.425-.552.703-1 .68zm-6.8-11.9l5.19 1.06c.397.077.708.384.79.78l1.05 5.19 3.52-10.55L6.87 10.1z" transform="translate(1863 1372)"/>
        </g>
    </g>
</svg>
