<svg xmlns="http://www.w3.org/2000/svg" width="24" height="24" viewBox="0 0 24 24">
    <defs>
        <filter id="prefix__a">
            <feColorMatrix in="SourceGraphic" values="0 0 0 0 0.000000 0 0 0 0 0.294118 0 0 0 0 0.576471 0 0 0 1.000000 0"/>
        </filter>
    </defs>
    <g fill="none" fill-rule="evenodd" filter="url(#prefix__a)" transform="translate(-519 -2479)">
        <g>
            <path fill="#004B93" d="M21.09 4c.503 0 .91.407.91.91v14.703c0 .502-.407.909-.91.909h-.355c-.502 0-.909-.407-.909-.91V4.91c0-.502.407-.909.91-.909h.355zm-3.043 1.554c.503 0 .91.407.91.91V17.94c0 .103-.018.204-.052.3-.165.474-.684.724-1.158.558L11.38 16.57l-.188.517c-.374 1.028-1.477 1.58-2.513 1.283l-.14-.046-.757-.275c-1.074-.391-1.628-1.58-1.237-2.654l.167-.459-2.537-.887v.347c0 .502-.407.91-.91.91H2.91c-.502 0-.909-.408-.909-.91V9.257c0-.502.407-.91.91-.91h.355c.502 0 .909.408.909.91v.42l13.612-4.084c.085-.026.173-.039.261-.039z" transform="translate(519 2479)"/>
        </g>
    </g>
</svg>
