<svg xmlns="http://www.w3.org/2000/svg" width="24" height="24" viewBox="0 0 24 24">
    <defs>
        <filter id="prefix__a">
            <feColorMatrix in="SourceGraphic" values="0 0 0 0 0.000000 0 0 0 0 0.294118 0 0 0 0 0.576471 0 0 0 1.000000 0"/>
        </filter>
    </defs>
    <g fill="none" fill-rule="evenodd" filter="url(#prefix__a)" transform="translate(-2229 -2181)">
        <g>
            <path fill="#004B93" d="M9.976 15.204c1.558-.566 3.279.239 3.844 1.796H21c.552 0 1 .448 1 1s-.448 1-1 1h-7.18c-.303.835-.961 1.493-1.796 1.796-1.558.566-3.279-.239-3.844-1.796H3c-.552 0-1-.448-1-1s.448-1 1-1h5.18c.303-.835.961-1.493 1.796-1.796zM19 9l.19.005c1.196.073 2.243.854 2.647 1.995.552 1.562-.266 3.276-1.829 3.828-1.562.553-3.276-.266-3.828-1.828H3c-.552 0-1-.448-1-1s.448-1 1-1h13.18c.423-1.196 1.552-1.996 2.82-2zM5.976 3.204C7.534 2.638 9.255 3.443 9.82 5H21c.552 0 1 .448 1 1s-.448 1-1 1H9.82c-.303.835-.961 1.493-1.796 1.796C6.466 9.362 4.745 8.557 4.18 7H3c-.552 0-1-.448-1-1s.448-1 1-1h1.18c.303-.835.961-1.493 1.796-1.796z" transform="translate(2229 2181)"/>
        </g>
    </g>
</svg>
