<svg xmlns="http://www.w3.org/2000/svg" width="24" height="24" viewBox="0 0 24 24">
    <defs>
        <filter id="prefix__a">
            <feColorMatrix in="SourceGraphic" values="0 0 0 0 0.000000 0 0 0 0 0.294118 0 0 0 0 0.576471 0 0 0 1.000000 0"/>
        </filter>
    </defs>
    <g fill="none" fill-rule="evenodd" filter="url(#prefix__a)" transform="translate(-2471 -755)">
        <g>
            <path fill="#004B93" d="M20.94 3.73v-.09c-.048-.111-.116-.213-.2-.3-.085-.08-.183-.144-.29-.19h-.09c-.092-.07-.198-.121-.31-.15H20c-.1-.015-.2-.015-.3 0l-18 6c-.525.172-.81.738-.638 1.262.1.302.336.539.638.638l8.53 2.84 2.84 8.53c.172.525.738.81 1.262.638.302-.1.539-.336.638-.638l6-18c.022-.088.032-.18.03-.27-.01-.092-.03-.182-.06-.27zM16.3 6.29l-5.57 5.57L5.16 10 16.3 6.29zM14 18.84l-1.86-5.57 5.57-5.57L14 18.84z" transform="translate(2471 755)"/>
        </g>
    </g>
</svg>
