<svg xmlns="http://www.w3.org/2000/svg" width="24" height="24" viewBox="0 0 24 24">
    <defs>
        <filter id="prefix__a">
            <feColorMatrix in="SourceGraphic" values="0 0 0 0 0.000000 0 0 0 0 0.294118 0 0 0 0 0.576471 0 0 0 1.000000 0"/>
        </filter>
    </defs>
    <g fill="none" fill-rule="evenodd" filter="url(#prefix__a)" transform="translate(-2595 -2181)">
        <g>
            <path fill="#004B93" d="M4.04 15.07c2.729-2.74 7.161-2.748 9.9-.02l.205-.15c.835-.581 1.83-.895 2.85-.896C19.758 14.002 21.999 16.24 22 19c0 .552-.448 1-1 1h-5c0 .552-.448 1-1 1H3c-.552 0-1-.448-1-1l.007-.307c.079-1.737.801-3.387 2.034-4.624zM17 7c1.657 0 3 1.343 3 3s-1.343 3-3 3l-.176-.005C15.249 12.904 14 11.598 14 10l.005-.176C14.096 8.249 15.402 7 17 7zM9 3c2.21 0 4 1.79 4 4s-1.79 4-4 4l-.2-.005C6.684 10.891 5 9.142 5 7l.005-.2C5.109 4.684 6.858 3 9 3z" transform="translate(2595 2181)"/>
        </g>
    </g>
</svg>
