<svg xmlns="http://www.w3.org/2000/svg" width="24" height="24" viewBox="0 0 24 24">
    <defs>
        <filter id="prefix__a">
            <feColorMatrix in="SourceGraphic" values="0 0 0 0 0.000000 0 0 0 0 0.294118 0 0 0 0 0.576471 0 0 0 1.000000 0"/>
        </filter>
    </defs>
    <g fill="none" fill-rule="evenodd" filter="url(#prefix__a)" transform="translate(-2595 -1372)">
        <g>
            <path fill="#004B93" d="M4.04 15.07c2.729-2.74 7.161-2.748 9.9-.02.875-.68 1.952-1.049 3.06-1.05 2.761 0 5 2.239 5 5l-.007.117c-.057.497-.48.883-.993.883-.552 0-1-.448-1-1l-.009-.224c-.045-.593-.266-1.162-.637-1.632-1.027-1.3-2.914-1.521-4.214-.494l.148.283c.47.952.714 2.002.712 3.067l-.007.117c-.057.497-.48.883-.993.883-.552 0-1-.448-1-1l-.005-.217C13.882 17.123 11.69 15 9 15c-2.761 0-5 2.239-5 5l-.007.117c-.057.497-.48.883-.993.883-.552 0-1-.448-1-1l.007-.307c.079-1.737.802-3.387 2.034-4.624zM17 7c1.657 0 3 1.343 3 3s-1.343 3-3 3l-.176-.005C15.249 12.904 14 11.598 14 10l.005-.176C14.096 8.249 15.402 7 17 7zm0 2l-.117.007c-.497.057-.883.48-.883.993l.007.117c.057.497.48.883.993.883.552 0 1-.448 1-1s-.448-1-1-1zM9 3c2.21 0 4 1.79 4 4s-1.79 4-4 4l-.2-.005C6.684 10.891 5 9.142 5 7l.005-.2C5.109 4.684 6.858 3 9 3zm0 2l-.15.005C7.817 5.082 7 5.945 7 7l.005.15C7.082 8.183 7.945 9 9 9c1.105 0 2-.895 2-2s-.895-2-2-2z" transform="translate(2595 1372)"/>
        </g>
    </g>
</svg>
