<svg xmlns="http://www.w3.org/2000/svg" width="24" height="24" viewBox="0 0 24 24">
    <defs>
        <filter id="prefix__a">
            <feColorMatrix in="SourceGraphic" values="0 0 0 0 0.000000 0 0 0 0 0.294118 0 0 0 0 0.576471 0 0 0 1.000000 0"/>
        </filter>
    </defs>
    <g fill="none" fill-rule="evenodd" filter="url(#prefix__a)" transform="translate(-2593 -755)">
        <g>
            <path fill="#004B93" d="M16 14l.192.005c1.844.1 3.308 1.626 3.308 3.495l-.005.192C19.395 19.536 17.869 21 16 21c-1.933 0-3.5-1.567-3.5-3.5S14.067 14 16 14zm2.481-9.741c.348-.348.912-.347 1.259.001.349.35.348.913 0 1.26L5.52 19.74c-.167.168-.394.262-.631.261-.492 0-.89-.4-.889-.891l.008-.117c.027-.192.114-.373.252-.513L18.48 4.26l.001-.001zM16 16c-.828 0-1.5.672-1.5 1.5S15.172 19 16 19l.144-.007c.761-.073 1.356-.713 1.356-1.493l-.007-.144C17.42 16.595 16.78 16 16 16zM8 4c1.933 0 3.5 1.567 3.5 3.5S9.933 11 8 11l-.192-.005C5.964 10.895 4.5 9.369 4.5 7.5l.005-.192C4.605 5.464 6.131 4 8 4zm0 2l-.144.007C7.095 6.08 6.5 6.72 6.5 7.5l.007.144C6.58 8.405 7.22 9 8 9c.828 0 1.5-.672 1.5-1.5S8.828 6 8 6z" transform="translate(2593 755)"/>
        </g>
    </g>
</svg>
