<svg xmlns="http://www.w3.org/2000/svg" width="24" height="24" viewBox="0 0 24 24">
    <defs>
        <filter id="prefix__a">
            <feColorMatrix in="SourceGraphic" values="0 0 0 0 0.000000 0 0 0 0 0.294118 0 0 0 0 0.576471 0 0 0 1.000000 0"/>
        </filter>
    </defs>
    <g fill="none" fill-rule="evenodd" filter="url(#prefix__a)" transform="translate(-2839 -2181)">
        <g>
            <path fill="#004B93" d="M10 13c3.866 0 7 3.134 7 7l-.007.117c-.057.497-.48.883-.993.883H4c-.552 0-1-.448-1-1l.004-.24C3.131 16.004 6.214 13 10 13zm0-10c2.21 0 4 1.79 4 4s-1.79 4-4 4l-.2-.005C7.684 10.891 6 9.142 6 7l.005-.2C6.109 4.684 7.858 3 10 3zm9 1c.552 0 1 .448 1 1v1h1c.552 0 1 .448 1 1s-.448 1-1 1h-1v1c0 .552-.448 1-1 1s-1-.448-1-1V8h-1c-.552 0-1-.448-1-1s.448-1 1-1h1V5c0-.552.448-1 1-1z" transform="translate(2839 2181)"/>
        </g>
    </g>
</svg>
