<svg xmlns="http://www.w3.org/2000/svg" width="24" height="24" viewBox="0 0 24 24">
    <defs>
        <filter id="prefix__a">
            <feColorMatrix in="SourceGraphic" values="0 0 0 0 0.000000 0 0 0 0 0.294118 0 0 0 0 0.576471 0 0 0 1.000000 0"/>
        </filter>
    </defs>
    <g fill="none" fill-rule="evenodd" filter="url(#prefix__a)" transform="translate(-3083 -2181)">
        <g>
            <path fill="#004B93" d="M10 13c3.866 0 7 3.134 7 7l-.007.117c-.057.497-.48.883-.993.883H4c-.552 0-1-.448-1-1l.004-.24C3.131 16.004 6.214 13 10 13zm0-10c2.21 0 4 1.79 4 4s-1.79 4-4 4l-.2-.005C7.684 10.891 6 9.142 6 7l.005-.2C6.109 4.684 7.858 3 10 3zm10.25 1.34c.365-.414.996-.454 1.41-.09.41.368.446.998.08 1.41l-2.61 3c-.187.213-.456.337-.74.34l-.121-.006c-.241-.028-.465-.142-.629-.324l-1.39-1.56-.078-.1c-.281-.41-.22-.976.163-1.315.414-.367 1.048-.33 1.415.085l.63.71z" transform="translate(3083 2181)"/>
        </g>
    </g>
</svg>
