<svg xmlns="http://www.w3.org/2000/svg" width="24" height="24" viewBox="0 0 24 24">
    <defs>
        <filter id="prefix__a">
            <feColorMatrix in="SourceGraphic" values="0 0 0 0 0.000000 0 0 0 0 0.294118 0 0 0 0 0.576471 0 0 0 1.000000 0"/>
        </filter>
    </defs>
    <g fill="none" fill-rule="evenodd" filter="url(#prefix__a)" transform="translate(-153 -1468)">
        <g>
            <path fill="#004B93" d="M10 13l.24.004C13.996 13.131 17 16.214 17 20l-.007.117c-.057.497-.48.883-.993.883-.552 0-1-.448-1-1l-.005-.217C14.882 17.123 12.69 15 10 15c-2.761 0-5 2.239-5 5l-.007.117c-.057.497-.48.883-.993.883-.552 0-1-.448-1-1l.004-.24C3.131 16.004 6.214 13 10 13zm0-10c2.21 0 4 1.79 4 4s-1.79 4-4 4l-.2-.005C7.684 10.891 6 9.142 6 7l.005-.2C6.109 4.684 7.858 3 10 3zm0 2l-.15.005C8.817 5.082 8 5.945 8 7l.005.15C8.082 8.183 8.945 9 10 9c1.105 0 2-.895 2-2s-.895-2-2-2zm11 1c.552 0 1 .448 1 1s-.448 1-1 1h-4c-.552 0-1-.448-1-1s.448-1 1-1z" transform="translate(153 1468)"/>
        </g>
    </g>
</svg>
