<svg xmlns="http://www.w3.org/2000/svg" width="24" height="24" viewBox="0 0 24 24">
    <defs>
        <filter id="prefix__a">
            <feColorMatrix in="SourceGraphic" values="0 0 0 0 0.000000 0 0 0 0 0.294118 0 0 0 0 0.576471 0 0 0 1.000000 0"/>
        </filter>
    </defs>
    <g fill="none" fill-rule="evenodd" filter="url(#prefix__a)" transform="translate(-2717 -2181)">
        <g>
            <path fill="#004B93" d="M12 13c3.866 0 7 3.134 7 7l-.007.117c-.057.497-.48.883-.993.883H6c-.552 0-1-.448-1-1l.004-.24C5.131 16.004 8.214 13 12 13zm0-10c2.21 0 4 1.79 4 4s-1.79 4-4 4l-.2-.005C9.684 10.891 8 9.142 8 7l.005-.2C8.109 4.684 9.858 3 12 3z" transform="translate(2717 2181)"/>
        </g>
    </g>
</svg>
