<svg xmlns="http://www.w3.org/2000/svg" width="24" height="24" viewBox="0 0 24 24">
    <defs>
        <filter id="prefix__a">
            <feColorMatrix in="SourceGraphic" values="0 0 0 0 0.000000 0 0 0 0 0.294118 0 0 0 0 0.576471 0 0 0 1.000000 0"/>
        </filter>
    </defs>
    <g fill="none" fill-rule="evenodd" filter="url(#prefix__a)" transform="translate(-2961 -2181)">
        <g>
            <path fill="#004B93" d="M10 13c3.866 0 7 3.134 7 7l-.007.117c-.057.497-.48.883-.993.883H4c-.552 0-1-.448-1-1l.004-.24C3.131 16.004 6.214 13 10 13zm0-10c2.21 0 4 1.79 4 4s-1.79 4-4 4l-.2-.005C7.684 10.891 6 9.142 6 7l.005-.2C6.109 4.684 7.858 3 10 3zm6.785 2.285c.406-.414 1.07-.42 1.485-.015L19 6l.73-.7c.406-.406 1.064-.406 1.47 0 .406.406.406 1.064 0 1.47l-.73.73.73.73c.414.406.42 1.07.015 1.485-.406.414-1.07.42-1.485.015L19 9l-.73.7c-.406.406-1.064.406-1.47 0-.406-.406-.406-1.064 0-1.47l.73-.73-.73-.73c-.414-.406-.42-1.07-.015-1.485z" transform="translate(2961 2181)"/>
        </g>
    </g>
</svg>
