<svg xmlns="http://www.w3.org/2000/svg" width="24" height="24" viewBox="0 0 24 24">
    <defs>
        <filter id="prefix__a">
            <feColorMatrix in="SourceGraphic" values="0 0 0 0 0.000000 0 0 0 0 0.294118 0 0 0 0 0.576471 0 0 0 1.000000 0"/>
        </filter>
    </defs>
    <g fill="none" fill-rule="evenodd" filter="url(#prefix__a)" transform="translate(-519 -1468)">
        <g>
            <path fill="#004B93" d="M6.6 2l.259.016c.172.017.343.045.511.084.245.036.486.097.72.18l.118.05c.267.13.464.376.532.67l1.37 5.93c.075.33-.023.677-.26.92-.13.15-.14.15-1.42.79.994 2.158 2.724 3.891 4.88 4.89l.093-.177c.558-1.064.574-1.08.707-1.203.243-.237.59-.335.92-.26l6 1.37c.336.078.608.324.72.65l.077.24c.047.16.085.324.113.49.04.251.06.505.06.76 0 2.54-2.06 4.6-4.6 4.6l-.318-.004C8.728 21.816 2.01 14.994 2 6.6l.005-.21C2.115 3.946 4.13 2 6.6 2zm.33 2H6.6C5.166 4.005 4.005 5.166 4 6.6l.004.312C4.174 14.166 10.106 19.995 17.4 20c1.434-.006 2.595-1.166 2.6-2.6v-.33l-4.63-1.06-.29.55c-.45.87-.78 1.5-1.62 1.16-3.356-1.201-5.993-3.85-7.18-7.21l-.044-.122c-.219-.713.39-1.032 1.214-1.458L8 8.64 6.93 4zm8.855.285c.406-.414 1.07-.42 1.485-.015L18 5l.73-.7c.406-.406 1.064-.406 1.47 0 .406.406.406 1.064 0 1.47l-.73.73.73.73c.414.406.42 1.07.015 1.485-.406.414-1.07.42-1.485.015L18 8l-.73.7c-.408.4-1.062.4-1.47 0l-.085-.098c-.313-.41-.284-.995.085-1.372l.73-.73-.73-.73c-.414-.406-.42-1.07-.015-1.485z" transform="translate(519 1468)"/>
        </g>
    </g>
</svg>
