<svg xmlns="http://www.w3.org/2000/svg" width="24" height="24" viewBox="0 0 24 24">
    <defs>
        <filter id="prefix__a">
            <feColorMatrix in="SourceGraphic" values="0 0 0 0 0.000000 0 0 0 0 0.294118 0 0 0 0 0.576471 0 0 0 1.000000 0"/>
        </filter>
    </defs>
    <g fill="none" fill-rule="evenodd" filter="url(#prefix__a)" transform="translate(-641 -1468)">
        <g>
            <path fill="#004B93" d="M14.11 14.15c.243-.237.59-.335.92-.26l6 1.37c.336.078.608.324.72.65l.077.24c.047.16.085.324.113.49.04.251.06.505.06.76 0 2.54-2.06 4.6-4.6 4.6l-.411-.006c-3.285-.089-6.458-1.231-9.049-3.264L9.4 17.3c2.302 1.746 5.11 2.694 8 2.7l.164-.006c1.357-.09 2.43-1.216 2.436-2.594v-.33l-4.68-1.06-.29.55c-.45.87-.78 1.5-1.62 1.16-1.05-.375-2.04-.9-2.94-1.56l1.43-1.43c.45.301.92.569 1.41.8l.093-.177c.558-1.064.574-1.08.707-1.203zm4.371-9.891c.348-.348.912-.347 1.259.001l.001.001c.348.348.347.912-.001 1.259L5.52 19.74c-.167.168-.394.262-.631.261-.492 0-.89-.4-.889-.891l.008-.117c.027-.192.114-.373.252-.513zM6.6 2l.259.016c.172.017.343.045.511.084.245.036.486.097.72.18l.118.05c.267.13.464.376.532.67l1.37 5.93c.075.33-.023.677-.26.92-.13.15-.14.15-1.37.82.229.494.496.968.8 1.42l-1.43 1.42c-.668-.918-1.197-1.928-1.57-3l-.044-.122c-.219-.713.39-1.032 1.214-1.458L8 8.64 6.93 4H6.6C5.166 4.005 4.005 5.166 4 6.6l.006.395c.082 2.76 1.022 5.43 2.694 7.635l-1.432 1.427C3.15 13.357 2 10.027 2 6.597V6.6l.005-.21C2.115 3.946 4.13 2 6.6 2z" transform="translate(641 1468)"/>
        </g>
    </g>
</svg>
