<svg xmlns="http://www.w3.org/2000/svg" width="24" height="24" viewBox="0 0 24 24">
    <defs>
        <filter id="prefix__a">
            <feColorMatrix in="SourceGraphic" values="0 0 0 0 0.000000 0 0 0 0 0.294118 0 0 0 0 0.576471 0 0 0 1.000000 0"/>
        </filter>
    </defs>
    <g fill="none" fill-rule="evenodd" filter="url(#prefix__a)" transform="translate(-641 -2287)">
        <g>
            <path fill="#004B93" d="M14.11 14.15c.243-.237.59-.335.92-.26l6 1.37c.336.078.608.324.72.65l.077.24c.047.16.085.324.113.49.04.251.06.505.06.76l-.005.21C21.885 20.054 19.87 22 17.4 22l-.413-.005c-3.298-.08-6.486-1.224-9.087-3.265l4-4c.45.301.92.569 1.41.8l.093-.177c.558-1.064.574-1.08.707-1.203zm4.371-9.891c.348-.348.912-.347 1.259.001l.001.001c.348.348.347.912-.001 1.259L5.52 19.74c-.167.168-.394.262-.631.261-.492 0-.89-.4-.889-.891l.008-.117c.027-.192.114-.373.252-.513zM6.6 2l.259.016c.172.017.343.045.511.084.245.036.486.097.72.18l.118.05c.267.13.464.376.532.67l1.37 5.93c.075.33-.023.677-.26.92-.13.15-.14.15-1.38.79.229.494.496.968.8 1.42l-4.002 3.997C3.15 13.357 2 10.027 2 6.597V6.6l.005-.21C2.115 3.946 4.13 2 6.6 2z" transform="translate(641 2287)"/>
        </g>
    </g>
</svg>
