<svg xmlns="http://www.w3.org/2000/svg" width="24" height="24" viewBox="0 0 24 24">
    <defs>
        <filter id="prefix__a">
            <feColorMatrix in="SourceGraphic" values="0 0 0 0 0.000000 0 0 0 0 0.294118 0 0 0 0 0.576471 0 0 0 1.000000 0"/>
        </filter>
    </defs>
    <g fill="none" fill-rule="evenodd" filter="url(#prefix__a)" transform="translate(-397 -1468)">
        <g>
            <path fill="#004B93" d="M6.6 2l.259.016c.172.017.343.045.511.084.245.036.486.097.72.18l.118.05c.267.13.464.376.532.67l1.37 5.93c.075.33-.023.677-.26.92-.13.15-.14.15-1.41.79.985 2.16 2.713 3.896 4.87 4.89l.093-.177c.558-1.064.574-1.08.707-1.203.243-.237.59-.335.92-.26l6 1.37c.336.078.608.324.72.65.084.237.148.482.19.73l.033.252c.018.169.027.338.027.508 0 2.54-2.06 4.6-4.6 4.6l-.318-.004C8.728 21.816 2.01 14.994 2 6.6l.005-.21C2.115 3.946 4.13 2 6.6 2zm.33 2H6.6C5.166 4.005 4.005 5.166 4 6.6l.004.312C4.174 14.166 10.106 19.995 17.4 20c1.434-.006 2.595-1.166 2.6-2.6v-.33l-4.63-1.06-.29.55c-.45.87-.78 1.5-1.62 1.16-3.356-1.201-5.993-3.85-7.18-7.21l-.048-.12c-.24-.698.413-1.044 1.228-1.47L8 8.64 6.93 4zM13 6l.217.005C15.877 6.118 18 8.31 18 11l-.007.117c-.057.497-.48.883-.993.883-.552 0-1-.448-1-1l-.005-.176C15.904 9.249 14.598 8 13 8l-.117-.007C12.386 7.936 12 7.513 12 7c0-.552.448-1 1-1zm0-4l.265.004C18.113 2.144 22 6.118 22 11l-.007.117c-.057.497-.48.883-.993.883-.552 0-1-.448-1-1l-.004-.24C19.869 7.004 16.786 4 13 4l-.117-.007C12.386 3.936 12 3.513 12 3c0-.552.448-1 1-1z" transform="translate(397 1468)"/>
        </g>
    </g>
</svg>
