<svg xmlns="http://www.w3.org/2000/svg" width="24" height="24" viewBox="0 0 24 24">
    <defs>
        <filter id="prefix__a">
            <feColorMatrix in="SourceGraphic" values="0 0 0 0 0.000000 0 0 0 0 0.294118 0 0 0 0 0.576471 0 0 0 1.000000 0"/>
        </filter>
    </defs>
    <g fill="none" fill-rule="evenodd" filter="url(#prefix__a)" transform="translate(-763 -2287)">
        <g>
            <path fill="#004B93" d="M11.105 1.995c.509.003.918.417.915.925v8.17l.006.106c.053.453.437.804.904.804h8.15c.028 0 .056.001.083.003.507.045.881.49.837.997l-.034.28c-.612 4.554-4.26 8.12-8.854 8.608-5.492.583-10.417-3.396-11-8.888C1.529 7.508 5.508 2.583 11 2l.053-.004zM14.5 2l.243.004C18.773 2.132 22 5.439 22 9.5l-.006.104c-.052.41-.4.726-.824.726H14.5c-.458 0-.83-.372-.83-.83V2.83l.006-.104c.052-.41.4-.726.824-.726z" transform="translate(763 2287)"/>
        </g>
    </g>
</svg>
