<svg xmlns="http://www.w3.org/2000/svg" width="24" height="24" viewBox="0 0 24 24">
    <defs>
        <filter id="prefix__a">
            <feColorMatrix in="SourceGraphic" values="0 0 0 0 0.000000 0 0 0 0 0.294118 0 0 0 0 0.576471 0 0 0 1.000000 0"/>
        </filter>
    </defs>
    <g fill="none" fill-rule="evenodd" filter="url(#prefix__a)" transform="translate(-885 -2287)">
        <g>
            <path fill="#004B93" d="M12 2l.247.004c4.274.13 7.71 3.612 7.753 7.916 0 5.48-7 11.58-7.35 11.84-.374.32-.926.32-1.3 0l-.022-.019C10.805 21.286 4 15.304 4 9.92 4.044 5.533 7.613 2 12 2zm0 4c-1.933 0-3.5 1.567-3.5 3.5S10.067 13 12 13l.192-.005c1.844-.1 3.308-1.626 3.308-3.495l-.005-.192C15.395 7.464 13.869 6 12 6zm1.06 2.44c.586.585.586 1.535 0 2.12-.585.586-1.535.586-2.12 0-.586-.585-.586-1.535 0-2.12.585-.586 1.535-.586 2.12 0z" transform="translate(885 2287)"/>
        </g>
    </g>
</svg>
