<svg xmlns="http://www.w3.org/2000/svg" width="24" height="24" viewBox="0 0 24 24">
    <defs>
        <filter id="prefix__a">
            <feColorMatrix in="SourceGraphic" values="0 0 0 0 0.000000 0 0 0 0 0.294118 0 0 0 0 0.576471 0 0 0 1.000000 0"/>
        </filter>
    </defs>
    <g fill="none" fill-rule="evenodd" filter="url(#prefix__a)" transform="translate(-885 -1468)">
        <g>
            <path fill="#004B93" d="M12 2l.247.004c4.274.13 7.71 3.612 7.753 7.916 0 5.48-7 11.58-7.35 11.84-.374.32-.926.32-1.3 0l-.022-.019C10.805 21.286 4 15.304 4 9.92 4.044 5.533 7.613 2 12 2zm0 1.92c-3.314 0-6 2.686-6 6l.008.274C6.21 13.864 10.37 18.1 12 19.65c1.67-1.59 6-6.03 6-9.73l-.004-.225C17.878 6.485 15.238 3.92 12 3.92zM12 6l.192.005c1.844.1 3.308 1.626 3.308 3.495l-.005.192C15.395 11.536 13.869 13 12 13c-1.933 0-3.5-1.567-3.5-3.5S10.067 6 12 6zm0 2c-.828 0-1.5.672-1.5 1.5S11.172 11 12 11l.144-.007c.761-.073 1.356-.713 1.356-1.493l-.007-.144C13.42 8.595 12.78 8 12 8z" transform="translate(885 1468)"/>
        </g>
    </g>
</svg>
