<svg xmlns="http://www.w3.org/2000/svg" width="24" height="24" viewBox="0 0 24 24">
    <defs>
        <filter id="prefix__a">
            <feColorMatrix in="SourceGraphic" values="0 0 0 0 0.000000 0 0 0 0 0.294118 0 0 0 0 0.576471 0 0 0 1.000000 0"/>
        </filter>
    </defs>
    <g fill="none" fill-rule="evenodd" filter="url(#prefix__a)" transform="translate(-2837 -755)">
        <g>
            <path fill="#004B93" d="M5 21c-.552 0-1-.448-1-1s.448-1 1-1h4v-5H5c-.513 0-.936-.386-.993-.883L4 13c0-.552.448-1 1-1h4V8c0-2.689 2.122-4.882 4.783-4.995L14 3c2.761 0 5 2.239 5 5 0 .552-.448 1-1 1s-1-.448-1-1c0-1.657-1.343-3-3-3s-3 1.343-3 3v4h4c.513 0 .936.386.993.883L16 13c0 .552-.448 1-1 1h-4v5h8c.513 0 .936.386.993.883L20 20c0 .552-.448 1-1 1z" transform="translate(2837 755)"/>
        </g>
    </g>
</svg>
