<svg xmlns="http://www.w3.org/2000/svg" width="24" height="24" viewBox="0 0 24 24">
    <defs>
        <filter id="prefix__a">
            <feColorMatrix in="SourceGraphic" values="0 0 0 0 0.000000 0 0 0 0 0.294118 0 0 0 0 0.576471 0 0 0 1.000000 0"/>
        </filter>
    </defs>
    <g fill="none" fill-rule="evenodd" filter="url(#prefix__a)" transform="translate(-2959 -755)">
        <g>
            <path fill="#004B93" d="M15.24 3.54c.254-.492.858-.684 1.35-.43l.322.174c1.695.955 3.077 2.387 3.972 4.12 2.535 4.907.613 10.94-4.294 13.475s-10.94.612-13.474-4.295C.58 11.678 2.503 5.645 7.41 3.11l.107-.048c.47-.177 1.007.022 1.243.478.254.492.062 1.096-.43 1.35l-.291.158c-1.342.765-2.437 1.904-3.147 3.28-2.027 3.926-.488 8.752 3.438 10.779 3.926 2.027 8.752.487 10.779-3.438 2.026-3.926.487-8.752-3.439-10.779l-.1-.06c-.417-.28-.566-.834-.33-1.29zM12 1c.552 0 1 .448 1 1v10c0 .552-.448 1-1 1l-.117-.007c-.497-.057-.883-.48-.883-.993V2c0-.552.448-1 1-1z" transform="translate(2959 755)"/>
        </g>
    </g>
</svg>
