<svg xmlns="http://www.w3.org/2000/svg" width="24" height="24" viewBox="0 0 24 24">
    <defs>
        <filter id="prefix__a">
            <feColorMatrix in="SourceGraphic" values="0 0 0 0 0.000000 0 0 0 0 0.294118 0 0 0 0 0.576471 0 0 0 1.000000 0"/>
        </filter>
    </defs>
    <g fill="none" fill-rule="evenodd" filter="url(#prefix__a)" transform="translate(-1373 -1468)">
        <g>
            <path fill="#004B93" d="M5.09 4l9.35.88c.23.023.446.126.61.29l6.42 6.41c.708.71.708 1.86 0 2.57l-7.32 7.32c-.298.296-.687.479-1.101.52l-.179.01c-.483 0-.946-.19-1.29-.53l-6.41-6.42c-.164-.164-.267-.38-.29-.61L4 5.09c-.023-.254.051-.506.206-.705l.084-.095c.21-.211.503-.317.8-.29zm1.02 2.11l.76 7.78 6 6 7.05-7.05-6-6-7.81-.73zm5.45 3.33c.586.585.586 1.535 0 2.12-.585.586-1.535.586-2.12 0-.586-.585-.586-1.535 0-2.12.585-.586 1.535-.586 2.12 0z" transform="translate(1373 1468)"/>
        </g>
    </g>
</svg>
