<svg xmlns="http://www.w3.org/2000/svg" width="24" height="24" viewBox="0 0 24 24">
    <defs>
        <filter id="prefix__a">
            <feColorMatrix in="SourceGraphic" values="0 0 0 0 0.000000 0 0 0 0 0.294118 0 0 0 0 0.576471 0 0 0 1.000000 0"/>
        </filter>
    </defs>
    <g fill="none" fill-rule="evenodd" filter="url(#prefix__a)" transform="translate(-1373 -2287)">
        <g>
            <path fill="#004B93" d="M21.47 11.58l-6.42-6.41c-.164-.164-.38-.267-.61-.29L5.09 4c-.297-.027-.59.079-.8.29-.211.21-.317.503-.29.8l.88 9.35c.023.23.126.446.29.61l6.41 6.42c.344.34.807.53 1.29.53.48-.001.94-.192 1.28-.53l7.32-7.32c.708-.71.708-1.86 0-2.57zm-9.91 0c-.585.586-1.535.587-2.121.001-.586-.585-.587-1.535-.002-2.121.586-.586 1.536-.587 2.122-.001l.001.001c.577.581.577 1.519 0 2.1v.02z" transform="translate(1373 2287)"/>
        </g>
    </g>
</svg>
