<svg xmlns="http://www.w3.org/2000/svg" xmlns:xlink="http://www.w3.org/1999/xlink" width="24" height="24" viewBox="0 0 24 24">
    <defs>
        <filter id="prefix__a">
            <feColorMatrix in="SourceGraphic" values="0 0 0 0 0.000000 0 0 0 0 0.294118 0 0 0 0 0.576471 0 0 0 1.000000 0"/>
        </filter>
        <filter id="prefix__b">
            <feColorMatrix in="SourceGraphic" values="0 0 0 0 0.000000 0 0 0 0 0.294118 0 0 0 0 0.576471 0 0 0 1.000000 0"/>
        </filter>
        <path id="prefix__c" d="M0 0L21.926 0 21.926 21.925 0 21.925z"/>
    </defs>
    <g fill="none" fill-rule="evenodd" filter="url(#prefix__a)" transform="translate(-1007 -1660)">
        <g>
            <g filter="url(#prefix__b)" transform="translate(1007 1660)">
                <g transform="translate(1 1)">
                    <mask id="prefix__d" fill="#fff">
                        <use xlink:href="#prefix__c"/>
                    </mask>
                    <path fill="#114C96" d="M19.206 12.64c.382 1.181-.146 2.47-1.236 3.048-.127 1.228-1.126 2.202-2.364 2.29-.566 1.104-1.849 1.641-3.03 1.281-.469.38-1.04.57-1.614.57-.598 0-1.197-.207-1.676-.623-1.18.381-2.472-.146-3.05-1.236-1.228-.128-2.2-1.127-2.288-2.364-1.106-.566-1.645-1.851-1.283-3.03-.777-.96-.759-2.353.055-3.29-.19-.586-.164-1.216.08-1.79.232-.547.637-.987 1.156-1.26.126-1.228 1.125-2.2 2.364-2.288C6.883 2.84 8.17 2.3 9.35 2.663c.96-.777 2.353-.758 3.29.055.585-.192 1.213-.163 1.788.08.547.232.987.638 1.261 1.155 1.227.127 2.201 1.126 2.29 2.365 1.104.564 1.644 1.85 1.281 3.03.778.96.76 2.352-.054 3.29m2.015-3.67c.448-1.46-.219-3.05-1.585-3.746-.109-1.532-1.312-2.768-2.829-2.924-.339-.641-.884-1.142-1.56-1.43-.71-.3-1.487-.335-2.21-.099C11.877-.234 10.154-.256 8.968.704 7.51.256 5.92.923 5.223 2.29 3.691 2.397 2.456 3.601 2.3 5.119c-.64.338-1.142.883-1.429 1.559-.3.71-.334 1.487-.099 2.212-1.006 1.159-1.028 2.88-.066 4.066-.448 1.459.218 3.047 1.585 3.747.11 1.53 1.311 2.765 2.83 2.922.714 1.348 2.31 2.002 3.77 1.529.592.514 1.332.771 2.072.771.708 0 1.415-.235 1.994-.704 1.461.445 3.048-.22 3.747-1.585 1.531-.11 2.766-1.311 2.923-2.83 1.348-.715 2.001-2.31 1.528-3.77 1.006-1.16 1.03-2.883.067-4.067" mask="url(#prefix__d)"/>
                    <path fill="#004B93" fill-rule="nonzero" d="M8.297 12.082c.603 0 1.06-.197 1.371-.59.312-.394.468-.983.468-1.767 0-.75-.159-1.327-.476-1.731-.316-.404-.77-.606-1.363-.606-1.208 0-1.812.779-1.812 2.337 0 .764.158 1.347.473 1.751.315.404.761.606 1.34.606zm1.193 2.89l4.26-7.477h-1.26l-4.261 7.477h1.26zm-1.182-3.948c-.175 0-.302-.107-.381-.32-.079-.213-.118-.536-.118-.969 0-.433.04-.754.118-.964.079-.21.206-.314.38-.314.337 0 .505.426.505 1.278 0 .86-.168 1.289-.504 1.289zm5.368 4.04c.603 0 1.06-.197 1.372-.591.311-.394.467-.981.467-1.762 0-.75-.158-1.327-.475-1.73-.317-.405-.772-.607-1.364-.607-1.208 0-1.812.78-1.812 2.337 0 .76.158 1.343.473 1.747.315.404.762.606 1.34.606zm.011-1.054c-.175 0-.302-.106-.38-.32-.08-.213-.12-.536-.12-.968 0-.433.04-.755.12-.964.078-.21.205-.315.38-.315.336 0 .504.426.504 1.279 0 .859-.168 1.288-.504 1.288z" mask="url(#prefix__d)"/>
                </g>
            </g>
        </g>
    </g>
</svg>
