<svg xmlns="http://www.w3.org/2000/svg" width="24" height="24" viewBox="0 0 24 24">
    <defs>
        <filter id="prefix__a">
            <feColorMatrix in="SourceGraphic" values="0 0 0 0 0.000000 0 0 0 0 0.294118 0 0 0 0 0.576471 0 0 0 1.000000 0"/>
        </filter>
    </defs>
    <g fill="none" fill-rule="evenodd" filter="url(#prefix__a)" transform="translate(-1128 -2479)">
        <g>
            <path fill="#004B93" d="M12.825 1.277l1.127 1.127 1.478-.596c.598-.242 1.278.047 1.519.644l.558 1.382h1.492c.644 0 1.166.523 1.166 1.167v1.594l1.468.623c.593.252.87.937.618 1.53l-.583 1.373 1.055 1.054c.455.456.455 1.194 0 1.65l-1.128 1.127.597 1.478c.242.598-.047 1.278-.644 1.519l-1.383.559v1.49c0 .645-.522 1.167-1.166 1.167h-1.595l-.622 1.468c-.252.593-.937.87-1.53.618l-1.373-.583-1.054 1.055c-.456.455-1.194.455-1.65 0l-1.127-1.128-1.478.597c-.598.242-1.278-.047-1.519-.644l-.56-1.383h-1.49c-.644 0-1.166-.522-1.166-1.166l-.001-1.595-1.467-.622c-.593-.252-.87-.937-.618-1.53l.583-1.372-1.055-1.055c-.455-.456-.455-1.194 0-1.65l1.127-1.127-.596-1.478c-.242-.598.047-1.278.644-1.519l1.382-.558V5c0-.644.523-1.166 1.167-1.166l1.594-.001.623-1.467c.252-.593.937-.87 1.53-.618l1.372.583 1.055-1.055c.456-.455 1.194-.455 1.65 0zm1.851 10.097c-1.208 0-1.812.78-1.812 2.337 0 .76.158 1.343.473 1.747.315.404.762.606 1.34.606.602 0 1.059-.197 1.37-.591.312-.394.468-.981.468-1.762 0-.75-.158-1.327-.475-1.73-.317-.405-.772-.607-1.364-.607zm.074-2.879h-1.26l-4.261 7.477h1.26l4.261-7.477zm-.063 3.948c.336 0 .504.426.504 1.279 0 .859-.168 1.288-.504 1.288-.175 0-.302-.106-.38-.32-.08-.213-.12-.536-.12-.968 0-.433.04-.755.12-.964.078-.21.205-.315.38-.315zm-5.39-4.055c-1.208 0-1.812.779-1.812 2.337 0 .764.158 1.347.473 1.751.315.404.761.606 1.34.606.602 0 1.059-.197 1.37-.59.312-.394.468-.983.468-1.767 0-.75-.159-1.327-.476-1.731-.316-.404-.77-.606-1.363-.606zm.01 1.069c.337 0 .505.426.505 1.278 0 .86-.168 1.289-.504 1.289-.175 0-.302-.107-.381-.32-.079-.213-.118-.536-.118-.969 0-.433.04-.754.118-.964.079-.21.206-.314.38-.314z" transform="translate(1128 2479)"/>
        </g>
    </g>
</svg>
