<svg xmlns="http://www.w3.org/2000/svg" width="24" height="24" viewBox="0 0 24 24">
    <defs>
        <filter id="prefix__a">
            <feColorMatrix in="SourceGraphic" values="0 0 0 0 0.000000 0 0 0 0 0.294118 0 0 0 0 0.576471 0 0 0 1.000000 0"/>
        </filter>
    </defs>
    <g fill="none" fill-rule="evenodd" filter="url(#prefix__a)" transform="translate(-3081 -755)">
        <g>
            <path fill="#004B93" d="M12.707 18.293c.39.39.39 1.024 0 1.414-.39.39-1.024.39-1.414 0-.39-.39-.39-1.024 0-1.414.39-.39 1.024-.39 1.414 0zM12 4c2.761 0 5 2.239 5 5l-.005.229C16.892 11.507 15.253 13.44 13 13.9V15c0 .552-.448 1-1 1s-1-.448-1-1v-2l.007-.117c.057-.497.48-.883.993-.883l.176-.005C13.751 11.904 15 10.598 15 9c0-1.657-1.343-3-3-3S9 7.343 9 9l-.007.117C8.936 9.614 8.513 10 8 10c-.552 0-1-.448-1-1l.005-.217C7.118 6.123 9.31 4 12 4z" transform="translate(3081 755)"/>
        </g>
    </g>
</svg>
