<svg xmlns="http://www.w3.org/2000/svg" width="24" height="24" viewBox="0 0 24 24">
    <defs>
        <filter id="prefix__a">
            <feColorMatrix in="SourceGraphic" values="0 0 0 0 0.000000 0 0 0 0 0.294118 0 0 0 0 0.576471 0 0 0 1.000000 0"/>
        </filter>
    </defs>
    <g fill="none" fill-rule="evenodd" filter="url(#prefix__a)" transform="translate(-1619 -1468)">
        <g>
            <path fill="#004B93" d="M12 2l.28.004C17.673 2.152 22 6.57 22 12l-.004.28C21.848 17.673 17.43 22 12 22 6.477 22 2 17.523 2 12S6.477 2 12 2zm0 2c-4.418 0-8 3.582-8 8s3.582 8 8 8l.25-.004C16.551 19.865 20 16.335 20 12l-.004-.25C19.865 7.449 16.335 4 12 4zm.707 12.293c.39.39.39 1.024 0 1.414-.39.39-1.024.39-1.414 0-.39-.39-.39-1.024 0-1.414.39-.39 1.024-.39 1.414 0zM12 6l.194.004c1.478.073 2.759 1.074 3.178 2.508.54 1.85-.522 3.788-2.372 4.328V14c0 .552-.448 1-1 1s-1-.448-1-1v-2l.007-.117c.057-.497.48-.883.993-.883l.144-.007c.761-.073 1.356-.713 1.356-1.493 0-.828-.672-1.5-1.5-1.5s-1.5.672-1.5 1.5l-.007.117c-.057.497-.48.883-.993.883-.552 0-1-.448-1-1l.005-.192C8.605 7.464 10.131 6 12 6z" transform="translate(1619 1468)"/>
        </g>
    </g>
</svg>
