<svg xmlns="http://www.w3.org/2000/svg" width="24" height="24" viewBox="0 0 24 24">
    <defs>
        <filter id="prefix__a">
            <feColorMatrix in="SourceGraphic" values="0 0 0 0 0.000000 0 0 0 0 0.294118 0 0 0 0 0.576471 0 0 0 1.000000 0"/>
        </filter>
    </defs>
    <g fill="none" fill-rule="evenodd" filter="url(#prefix__a)" transform="translate(-1619 -2287)">
        <g>
            <path fill="#004B93" d="M12 2C6.477 2 2 6.477 2 12s4.477 10 10 10 10-4.477 10-10S17.523 2 12 2zm0 16c-.552 0-1-.448-1-1s.448-1 1-1 1 .448 1 1-.448 1-1 1zm1-5.16V14c0 .552-.448 1-1 1s-1-.448-1-1v-2c0-.552.448-1 1-1 .828 0 1.5-.672 1.5-1.5S12.828 8 12 8s-1.5.672-1.5 1.5c0 .552-.448 1-1 1s-1-.448-1-1c-.008-1.933 1.553-3.506 3.486-3.514 1.933-.008 3.506 1.553 3.514 3.486.006 1.553-1.012 2.924-2.5 3.368z" transform="translate(1619 2287)"/>
        </g>
    </g>
</svg>
