<svg xmlns="http://www.w3.org/2000/svg" width="24" height="24" viewBox="0 0 24 24">
    <defs>
        <filter id="prefix__a">
            <feColorMatrix in="SourceGraphic" values="0 0 0 0 0.000000 0 0 0 0 0.294118 0 0 0 0 0.576471 0 0 0 1.000000 0"/>
        </filter>
    </defs>
    <g fill="none" fill-rule="evenodd" filter="url(#prefix__a)" transform="translate(-1741 -2287)">
        <g>
            <path fill="#004B93" d="M12 8l.19.006c1.197.073 2.243.856 2.644 1.998.55 1.563-.271 3.276-1.834 3.826l.004.085L13 14v6c0 .552-.448 1-1 1s-1-.448-1-1v-6c-.005-.057-.005-.113 0-.17l-.177-.069c-1.104-.468-1.83-1.554-1.827-2.765C8.998 9.339 10.343 7.998 12 8zM4.962 4.156c.419-.268.982-.189 1.308.204.353.425.295 1.057-.13 1.41l-.216.176C4.437 7.206 3.553 9.043 3.5 11l.013.279c.132 1.944 1.084 3.746 2.627 4.951l.092.086c.34.363.364.931.038 1.324-.353.425-.985.483-1.41.13l-.236-.193C2.69 15.94 1.548 13.544 1.5 11l.011-.305c.135-2.53 1.352-4.888 3.349-6.465zm12.768.204c.353-.425.985-.483 1.41-.13 2.077 1.64 3.31 4.124 3.36 6.77l-.011.305c-.135 2.53-1.352 4.888-3.349 6.465l-.102.074c-.419.268-.982.189-1.308-.204-.353-.425-.295-1.057.13-1.41l.216-.176c1.487-1.26 2.371-3.097 2.424-5.054l-.013-.279c-.132-1.944-1.084-3.746-2.627-4.951l-.092-.086c-.34-.363-.364-.931-.038-1.324zm-2.476 2.16c.305-.46.926-.586 1.386-.28C18.101 7.392 18.967 9.14 19 11l-.01.265c-.106 1.76-.958 3.398-2.35 4.495l-.113.083c-.156.1-.34.155-.527.157l-.123-.009c-.242-.032-.466-.153-.627-.341-.36-.42-.31-1.051.11-1.41l.183-.151c.89-.78 1.42-1.898 1.457-3.089l-.014-.237c-.101-1.18-.688-2.269-1.626-3.003l-.08-.096c-.246-.335-.26-.792-.026-1.145zM7.46 6.165c.414-.265.971-.19 1.299.194.35.42.296 1.045-.12 1.4l-.183.151C7.567 8.691 7.037 9.81 7 11l.014.237c.101 1.18.688 2.269 1.626 3.003l.09.087c.332.363.353.924.03 1.313l-.087.09c-.363.332-.924.353-1.313.03l-.205-.169C5.818 14.441 5.031 12.771 5 11l.01-.265c.106-1.76.958-3.398 2.35-4.495z" transform="translate(1741 2287)"/>
        </g>
    </g>
</svg>
