<svg xmlns="http://www.w3.org/2000/svg" width="24" height="24" viewBox="0 0 24 24">
    <defs>
        <filter id="prefix__a">
            <feColorMatrix in="SourceGraphic" values="0 0 0 0 0.000000 0 0 0 0 0.294118 0 0 0 0 0.576471 0 0 0 1.000000 0"/>
        </filter>
    </defs>
    <g fill="none" fill-rule="evenodd" filter="url(#prefix__a)" transform="translate(-2473 -2287)">
        <g>
            <path fill="#004B93" d="M8 3v7l.007.117c.057.497.48.883.993.883h6c.552 0 1-.448 1-1s-.448-1-1-1h-5V3h3.17c.795 0 1.558.317 2.12.88l4.83 4.83c.563.562.88 1.325.88 2.12V18c0 1.657-1.343 3-3 3h-2v-4c0-1.105-.895-2-2-2h-4c-1.105 0-2 .895-2 2v4H6c-1.657 0-3-1.343-3-3V6l.005-.176C3.096 4.249 4.402 3 6 3h2zm6 14v4h-4v-4h4z" transform="translate(2473 2287)"/>
        </g>
    </g>
</svg>
