<svg xmlns="http://www.w3.org/2000/svg" width="24" height="24" viewBox="0 0 24 24">
    <defs>
        <filter id="prefix__a">
            <feColorMatrix in="SourceGraphic" values="0 0 0 0 0.000000 0 0 0 0 0.294118 0 0 0 0 0.576471 0 0 0 1.000000 0"/>
        </filter>
    </defs>
    <g fill="none" fill-rule="evenodd" filter="url(#prefix__a)" transform="translate(-2473 -1468)">
        <g>
            <path fill="#004B93" d="M20.12 8.71l-4.83-4.83c-.562-.563-1.325-.88-2.12-.88H6C4.343 3 3 4.343 3 6v12c0 1.657 1.343 3 3 3h12c1.657 0 3-1.343 3-3v-7.17c0-.795-.317-1.558-.88-2.12zM10 19v-2h4v2h-4zm9-1c0 .552-.448 1-1 1h-2v-3c0-.552-.448-1-1-1H9c-.552 0-1 .448-1 1v3H6c-.552 0-1-.448-1-1V6c0-.552.448-1 1-1h2v5c0 .552.448 1 1 1h4c.552 0 1-.448 1-1s-.448-1-1-1h-3V5h3.17c.265.004.518.107.71.29l4.83 4.83c.187.189.292.444.29.71V18z" transform="translate(2473 1468)"/>
        </g>
    </g>
</svg>
