<svg xmlns="http://www.w3.org/2000/svg" width="24" height="24" viewBox="0 0 24 24">
    <defs>
        <filter id="prefix__a">
            <feColorMatrix in="SourceGraphic" values="0 0 0 0 0.000000 0 0 0 0 0.294118 0 0 0 0 0.576471 0 0 0 1.000000 0"/>
        </filter>
    </defs>
    <g fill="none" fill-rule="evenodd" filter="url(#prefix__a)" transform="translate(-885 -1660)">
        <g>
            <path fill="#004B93" d="M11.77 3c1.245 0 2.264.974 2.318 2.218l.002.096h.307l.848 1.116c.889-.405 1.969-.216 2.665.535l.47.554c.7.834.717 2.017.096 2.863l.694.839c.126.154.207.339.236.535l.01.105.001 8.059c0 .548-.41 1.01-.955 1.072l-.083.007L5.081 21c-.55 0-1.01-.41-1.073-.955l-.006-.082L4 6.39c.004-.298.12-.568.327-.77.206-.201.474-.322.766-.307h.031c.004-1.242.978-2.257 2.22-2.312L7.43 3h4.34zm0 1.5H7.445c-.477.02-.821.38-.821.822v1.493H5.5V19.5h12.417v-7.44l-1.504-1.818.761-.641c.308-.285.339-.781.057-1.117l-.433-.513c-.285-.308-.78-.339-1.119-.057l-.727.61-1.299-1.71H12.59V5.323c-.02-.477-.38-.822-.82-.822zm.765 7.601l.708.71-2.189 2.19 2.19 2.19-.71.709-2.19-2.19-2.189 2.19-.71-.71 2.19-2.189-2.19-2.19.71-.71 2.19 2.19 2.19-2.19zM8.412 5.106l2.459.003c.49.054.838.403.892.849l.006.29-.007.07c-.056.484-.467.851-.957.853H8.412l-.11-.006c-.447-.052-.797-.4-.849-.846l-.007-.29.007-.07c.056-.486.469-.853.959-.853z" transform="translate(885 1660)"/>
        </g>
    </g>
</svg>
