<svg xmlns="http://www.w3.org/2000/svg" xmlns:xlink="http://www.w3.org/1999/xlink" width="24" height="24" viewBox="0 0 24 24">
    <defs>
        <filter id="prefix__a">
            <feColorMatrix in="SourceGraphic" values="0 0 0 0 0.000000 0 0 0 0 0.294118 0 0 0 0 0.576471 0 0 0 1.000000 0"/>
        </filter>
        <path id="prefix__b" d="M7.268 2h-.084c-1.014.046-1.821.88-1.821 1.905v.9h-.957c-.22-.003-.402.173-.406.394v16.396l.004.046c.022.2.192.354.397.354h16.065l.045-.003c.2-.022.354-.192.354-.397v-9.707l-.003-.055c-.01-.073-.04-.143-.089-.2l-1.362-1.65.175-.148.072-.062c.739-.687.819-1.84.163-2.621l-.477-.568-.062-.071c-.686-.74-1.84-.82-2.62-.163l-.152.125-1.268-1.67h-.832v-.9l-.002-.085C14.364 2.807 13.53 2 12.506 2H7.268zm.353 2.688c-.184-.022-.33-.167-.351-.35l-.002-.047v-.247l.003-.048c.023-.198.192-.352.397-.352h4.438l.047.001c.184.022.33.168.35.351l.002.048v.247l-.002.046c-.024.198-.192.354-.397.354H7.667l-.046-.003zm4.904 8.663l.538.539-2.653 2.653 2.653 2.654-.538.539-2.654-2.654-2.654 2.654-.538-.54 2.654-2.653-2.654-2.653.538-.54 2.654 2.654 2.654-2.653z"/>
    </defs>
    <g fill="none" fill-rule="evenodd" filter="url(#prefix__a)" transform="translate(-885 -2479)">
        <g transform="translate(885 2479)">
            <use fill="#004B93" xlink:href="#prefix__b"/>
        </g>
    </g>
</svg>
