<svg xmlns="http://www.w3.org/2000/svg" width="24" height="24" viewBox="0 0 24 24">
    <defs>
        <filter id="prefix__a">
            <feColorMatrix in="SourceGraphic" values="0 0 0 0 0.000000 0 0 0 0 0.294118 0 0 0 0 0.576471 0 0 0 1.000000 0"/>
        </filter>
    </defs>
    <g fill="none" fill-rule="evenodd" filter="url(#prefix__a)" transform="translate(-397 -851)">
        <g>
            <path fill="#004B93" d="M6.5 3c1.657 0 3 1.343 3 3l-.008.222c-.027.37-.123.732-.282 1.068l3.3 3.31 6.28-6.31c.392-.392 1.028-.392 1.42 0 .392.392.392 1.028 0 1.42l-11 11.03c.187.394.286.824.29 1.26l-.005.176C9.404 19.751 8.098 21 6.5 21c-1.657 0-3-1.343-3-3s1.343-3 3-3l.226.008c.376.028.744.127 1.084.292L11.1 12 7.79 8.7c-.402.195-.843.297-1.29.3l-.176-.005C4.749 8.904 3.5 7.598 3.5 6c0-1.657 1.343-3 3-3zm7.29 10.29c.392-.392 1.028-.392 1.42 0l5 5 .006.006c.389.392.386 1.025-.006 1.414l-.003.003c-.395.392-1.028.39-1.417-.003l-5-5-.084-.095c-.306-.393-.278-.963.084-1.325zM6.5 17c-.552 0-1 .448-1 1s.448 1 1 1l.117-.007c.497-.057.883-.48.883-.993l-.007-.117C7.436 17.386 7.013 17 6.5 17zm0-12c-.552 0-1 .448-1 1s.448 1 1 1l.117-.007c.497-.057.883-.48.883-.993l-.007-.117C7.436 5.386 7.013 5 6.5 5z" transform="translate(397 851)"/>
        </g>
    </g>
</svg>
