<svg xmlns="http://www.w3.org/2000/svg" width="24" height="24" viewBox="0 0 24 24">
    <defs>
        <filter id="prefix__a">
            <feColorMatrix in="SourceGraphic" values="0 0 0 0 0.000000 0 0 0 0 0.294118 0 0 0 0 0.576471 0 0 0 1.000000 0"/>
        </filter>
    </defs>
    <g fill="none" fill-rule="evenodd" filter="url(#prefix__a)" transform="translate(-2717 -1468)">
        <g>
            <path fill="#004B93" d="M13 2c.928 0 1.68.752 1.68 1.68v1.09c.009.105.065.198.15.255l.07.035c.125.08.285.08.41 0l.69-.8c.65-.654 1.707-.658 2.362-.008l.008.008 1.37 1.34c.32.314.5.742.5 1.19.01.455-.172.894-.5 1.21l-.74.74c-.073.113-.073.257 0 .37.06.15.16.26.3.26h1.09c.902.043 1.611.787 1.61 1.69V13c0 .928-.752 1.68-1.68 1.68h-1.09c-.105.009-.198.065-.255.15l-.035.07c-.073.113-.073.257 0 .37l.77.77c.654.65.658 1.707.008 2.362l-.008.008-1.31 1.33c-.271.279-.63.452-1.014.491l-.166.009c-.447-.006-.873-.185-1.19-.5l-.77-.74c-.113-.073-.257-.073-.37 0-.15.06-.26.16-.26.3v1.09c-.043.902-.787 1.611-1.69 1.61h-1.89c-.879 0-1.6-.675-1.674-1.535l-.006-.145v-1.09c-.009-.105-.065-.198-.15-.255l-.07-.035c-.125-.08-.285-.08-.41 0l-.74.8c-.65.654-1.707.658-2.362.008l-.008-.008-1.37-1.34c-.28-.274-.453-.637-.492-1.023l-.008-.167c0-.453.18-.888.5-1.21l.74-.74c.073-.113.073-.257 0-.37-.06-.15-.16-.26-.3-.26H3.68C2.75 14.624 2 13.87 2 12.94v-1.89c0-.928.752-1.68 1.68-1.68h1.09c.105-.009.198-.065.255-.15l.035-.07c.08-.125.08-.285 0-.41L4.26 8c-.654-.65-.658-1.707-.008-2.362l.008-.008L5.6 4.26c.271-.279.63-.452 1.014-.491l.166-.009c.457-.002.896.178 1.22.5l.74.74c.113.073.257.073.37 0 .15-.06.26-.16.26-.3V3.68c.005-.93.76-1.68 1.69-1.68H13zm-.33 2h-1.3v.77c-.008.884-.515 1.682-1.3 2.068l-.16.072c-.879.384-1.902.198-2.59-.47l-.54-.54-.88.88.54.55c.89.975.822 2.486-.153 3.377-.416.38-.954.6-1.517.623H4v1.26h.77c.884.008 1.682.515 2.068 1.3l.072.16c.384.879.198 1.902-.47 2.59l-.54.54.88.88.55-.54c.975-.89 2.486-.822 3.377.153.38.416.6.954.623 1.517l.04.81h1.26v-.77c.008-.884.515-1.682 1.3-2.068l.16-.072c.879-.384 1.902-.198 2.59.47l.54.54.88-.88-.54-.55c-.623-.635-.828-1.563-.543-2.395l.063-.165c.355-.871 1.2-1.443 2.14-1.45H20v-1.29h-.77c-.884-.008-1.682-.515-2.068-1.3l-.072-.16c-.384-.879-.198-1.902.47-2.59l.54-.54-.88-.88-.55.54c-.975.89-2.486.822-3.377-.153-.38-.416-.6-.954-.623-1.517V4zM12 8.5c1.869 0 3.395 1.464 3.495 3.308L15.5 12c0 1.869-1.464 3.395-3.308 3.495L12 15.5c-1.933 0-3.5-1.567-3.5-3.5s1.567-3.5 3.5-3.5zm0 2c-.828 0-1.5.672-1.5 1.5s.672 1.5 1.5 1.5c.78 0 1.42-.595 1.493-1.356L13.5 12c0-.78-.595-1.42-1.356-1.493L12 10.5z" transform="translate(2717 1468)"/>
        </g>
    </g>
</svg>
