<svg xmlns="http://www.w3.org/2000/svg" width="24" height="24" viewBox="0 0 24 24">
    <defs>
        <filter id="prefix__a">
            <feColorMatrix in="SourceGraphic" values="0 0 0 0 0.000000 0 0 0 0 0.294118 0 0 0 0 0.576471 0 0 0 1.000000 0"/>
        </filter>
    </defs>
    <g fill="none" fill-rule="evenodd" filter="url(#prefix__a)" transform="translate(-2717 -2287)">
        <g>
            <path fill="#004B93" d="M13 2c.908.027 1.63.771 1.63 1.68v1.03c.011.131.097.244.22.29l.079.038c.109.039.231.026.331-.038l.77-.74.008-.008c.655-.65 1.712-.646 2.362.008l1.34 1.37c.32.314.5.742.5 1.19l-.008.166c-.038.384-.211.744-.492 1.014l-.81.74c-.073.113-.073.257 0 .37l.033.071c.061.113.15.189.267.189h1.09c.93.005 1.68.76 1.68 1.69V13c-.005.901-.72 1.638-1.62 1.67h-1.09c-.131.011-.244.097-.29.22l-.035.07c-.035.1-.023.21.035.3l.73.73.008.008c.65.655.646 1.712-.008 2.362l-1.34 1.34c-.31.319-.735.5-1.18.5l-.166-.01c-.386-.043-.747-.215-1.024-.49l-.76-.77c-.113-.073-.257-.073-.37 0l-.071.033c-.113.061-.189.15-.189.267v1.09c-.006.93-.76 1.68-1.69 1.68h-1.89c-.905 0-1.648-.716-1.68-1.62v-1.09c-.011-.131-.097-.244-.22-.29l-.079-.038c-.109-.039-.231-.026-.331.038l-.77.74-.008.008c-.655.65-1.712.646-2.362-.008l-1.34-1.36c-.32-.313-.5-.742-.5-1.19l.01-.166c.043-.386.215-.747.49-1.024l.81-.74c.073-.113.073-.257 0-.37l-.033-.071c-.061-.113-.15-.189-.267-.189H3.68C2.75 14.625 2 13.87 2 12.94v-1.89c0-.928.752-1.68 1.68-1.68h1.03c.131-.011.244-.097.29-.22l.038-.079c.039-.109.026-.231-.038-.331l-.779-.779C3.58 7.3 3.597 6.241 4.26 5.6l1.37-1.34c.31-.319.735-.5 1.18-.5l.166.01c.386.043.747.215 1.024.49l.74.81c.112.073.257.073.37 0l.071-.033c.112-.061.189-.15.189-.267V3.68c.005-.93.76-1.68 1.69-1.68zm-1 6.5c-1.933 0-3.5 1.567-3.5 3.5s1.567 3.5 3.5 3.5l.192-.005c1.844-.1 3.308-1.626 3.308-3.495l-.005-.192C15.395 9.964 13.869 8.5 12 8.5zm1.06 2.44c.586.585.586 1.535 0 2.12-.585.586-1.535.586-2.12 0-.586-.585-.586-1.535 0-2.12.585-.586 1.535-.586 2.12 0z" transform="translate(2717 2287)"/>
        </g>
    </g>
</svg>
