<svg xmlns="http://www.w3.org/2000/svg" width="24" height="24" viewBox="0 0 24 24">
    <defs>
        <filter id="prefix__a">
            <feColorMatrix in="SourceGraphic" values="0 0 0 0 0.000000 0 0 0 0 0.294118 0 0 0 0 0.576471 0 0 0 1.000000 0"/>
        </filter>
    </defs>
    <g fill="none" fill-rule="evenodd" filter="url(#prefix__a)" transform="translate(-2595 -2287)">
        <g>
            <path fill="#004B93" d="M13.21 2c.601.002 1.177.243 1.6.67.44.448.685 1.052.68 1.68v.28c-.01.56.246 1.09.69 1.43l.11.08c.456.342 1.05.439 1.59.26l.34-.11.076-.024c1.198-.35 2.453.336 2.804 1.534l.79 2.52c.378 1.216-.277 2.513-1.48 2.93l-.2.07c-.59.201-1.042.68-1.21 1.28l-.042.169c-.102.51-.003 1.041.282 1.481l.26.38c.716 1.039.496 2.456-.5 3.23l-2.03 1.52c-.036.028-.073.054-.111.08-1.027.69-2.419.417-3.109-.61l-.12-.17c-.333-.5-.9-.795-1.5-.78l-.17.012c-.506.062-.966.336-1.26.758l-.23.33c-.332.521-.864.883-1.47 1l-.13.008c-.087.003-.174 0-.26-.008l-.181-.005c-.42-.029-.826-.176-1.169-.425L5.19 20c-1.041-.78-1.26-2.252-.49-3.3l.094-.153c.29-.52.342-1.142.136-1.707l-.06-.16c-.157-.562-.573-1.015-1.12-1.22h-.16c-1.216-.409-1.876-1.72-1.48-2.94l.82-2.6c.173-.58.578-1.061 1.12-1.33l.176-.081c.478-.194 1.013-.21 1.504-.039l.166.048c.559.134 1.151.012 1.614-.338l.13-.1c.46-.367.728-.922.73-1.51v-.24C8.364 3.056 9.387 2.016 10.66 2zM12 8.5c-1.933 0-3.5 1.567-3.5 3.5s1.567 3.5 3.5 3.5l.192-.005c1.844-.1 3.308-1.626 3.308-3.495l-.005-.192C15.395 9.964 13.869 8.5 12 8.5zm1.06 2.44c.586.585.586 1.535 0 2.12-.585.586-1.535.586-2.12 0-.586-.585-.586-1.535 0-2.12.585-.586 1.535-.586 2.12 0z" transform="translate(2595 2287)"/>
        </g>
    </g>
</svg>
