<svg xmlns="http://www.w3.org/2000/svg" width="24" height="24" viewBox="0 0 24 24">
    <defs>
        <filter id="prefix__a">
            <feColorMatrix in="SourceGraphic" values="0 0 0 0 0.000000 0 0 0 0 0.294118 0 0 0 0 0.576471 0 0 0 1.000000 0"/>
        </filter>
    </defs>
    <g fill="none" fill-rule="evenodd" filter="url(#prefix__a)" transform="translate(-2595 -1468)">
        <g>
            <path fill="#004B93" d="M13.21 2c.601.002 1.177.243 1.6.67.44.448.685 1.052.68 1.68v.28c-.01.56.246 1.09.69 1.43l.11.08c.456.342 1.05.439 1.59.26l.34-.11c1.185-.393 2.464.25 2.856 1.434.009.025.017.05.024.076l.79 2.52c.38 1.21-.265 2.504-1.46 2.93l-.2.07c-.548.18-.98.597-1.181 1.132L19 14.6c-.161.56-.07 1.163.25 1.65l.26.38c.716 1.039.496 2.456-.5 3.23L17 21.41c-.983.752-2.389.564-3.14-.419-.028-.036-.054-.073-.08-.111l-.12-.17c-.303-.455-.798-.74-1.337-.776l-.163-.004c-.572.015-1.103.3-1.43.77l-.23.33c-.31.465-.781.796-1.318.932L9 22c-.086.008-.173.011-.26.008L8.61 22c-.488-.003-.962-.164-1.35-.46L5.19 20c-.947-.738-1.186-2.06-.582-3.077l.092-.143c.37-.547.456-1.239.23-1.86l-.06-.16c-.157-.562-.573-1.015-1.12-1.22h-.16c-1.216-.409-1.876-1.72-1.48-2.94L2.93 8c.137-.548.482-1.02.957-1.317l.163-.093c.462-.238.993-.299 1.494-.175l.186.055c.605.204 1.271.095 1.78-.29l.13-.1c.46-.367.728-.922.73-1.51v-.24C8.364 3.056 9.387 2.016 10.66 2h2.55zm-.01 2h-2.54c-.17.01-.3.158-.29.329v.251c0 1.21-.562 2.352-1.52 3.09l-.13.1c-.976.743-2.239.982-3.412.658L5.09 8.36c-.03-.01-.063-.013-.094-.01l-.046.01c-.057.035-.1.088-.12.15L4 11.12c-.06.185.037.384.22.45l.18.05c1.145.408 2.028 1.336 2.38 2.5v.12c.41 1.135.286 2.39-.33 3.418l-.13.202c-.131.145-.131.365 0 .51L8.47 20c.109.085.266.066.351-.042l.019-.028.23-.33c1.185-1.712 3.533-2.14 5.245-.955.373.259.697.582.955.955l.12.18c.029.04.067.073.11.095l.07.025c.068.01.136-.008.19-.05l2.06-1.56c.15-.119.18-.334.07-.49l-.26-.38c-.64-.934-.853-2.092-.593-3.187L17.1 14c.357-1.223 1.285-2.196 2.49-2.61l.2-.07c.174-.07.258-.266.19-.44l-.78-2.49c-.028-.066-.076-.121-.136-.159L19 8.2c-.06-.03-.13-.03-.19 0l-.34.11c-1.168.385-2.45.172-3.43-.57L15 7.65c-.94-.711-1.49-1.822-1.49-3v-.31c.001-.072-.018-.143-.056-.203l-.044-.057c-.058-.052-.132-.08-.21-.08zM12 8.5c1.869 0 3.395 1.464 3.495 3.308L15.5 12c0 1.869-1.464 3.395-3.308 3.495L12 15.5c-1.933 0-3.5-1.567-3.5-3.5s1.567-3.5 3.5-3.5zm0 2c-.828 0-1.5.672-1.5 1.5s.672 1.5 1.5 1.5c.78 0 1.42-.595 1.493-1.356L13.5 12c0-.78-.595-1.42-1.356-1.493L12 10.5z" transform="translate(2595 1468)"/>
        </g>
    </g>
</svg>
