<svg xmlns="http://www.w3.org/2000/svg" width="24" height="24" viewBox="0 0 24 24">
    <defs>
        <filter id="prefix__a">
            <feColorMatrix in="SourceGraphic" values="0 0 0 0 0.000000 0 0 0 0 0.294118 0 0 0 0 0.576471 0 0 0 1.000000 0"/>
        </filter>
    </defs>
    <g fill="none" fill-rule="evenodd" filter="url(#prefix__a)" transform="translate(-641 -851)">
        <g>
            <path fill="#004B93" d="M13 14.86V20c0 .552-.448 1-1 1s-1-.448-1-1v-5.14c.326.088.662.135 1 .14.338-.005.674-.052 1-.14zM6.274 4.2c.4.38.419 1.013.04 1.414l-.083.078-.091.068c-1.542 1.21-2.494 3.014-2.627 4.961L3.5 11c.054 1.96.938 3.798 2.424 5.063l.216.177c.387.325.466.882.203 1.299l-.073.101c-.163.196-.394.32-.644.352L5.5 18c-.235-.002-.461-.087-.64-.24-1.998-1.572-3.215-3.927-3.35-6.456L1.5 11c.047-2.542 1.19-4.934 3.124-6.568l.236-.192c.38-.401 1.012-.419 1.414-.04zm12.693-.106l.09.068.083.078c1.998 1.572 3.215 3.927 3.35 6.456l.01.304c-.047 2.542-1.19 4.934-3.124 6.568l-.236.192c-.179.153-.405.238-.64.24-.255 0-.499-.096-.683-.268l-.087-.092c-.347-.424-.29-1.048.13-1.4 1.616-1.267 2.583-3.188 2.64-5.24-.054-1.96-.938-3.798-2.424-5.063l-.216-.177c-.46-.306-.585-.926-.28-1.386.306-.46.927-.585 1.387-.28zm-2.5 2l.09.068.083.078c1.392 1.097 2.244 2.735 2.35 4.495L19 11c-.031 1.772-.818 3.441-2.155 4.591l-.205.169c-.143.122-.316.201-.5.229L16 16c-.255 0-.499-.096-.683-.268l-.087-.092c-.347-.424-.29-1.048.13-1.4.938-.734 1.525-1.823 1.626-3.003L17 11c-.036-1.19-.567-2.308-1.457-3.089l-.183-.151c-.46-.306-.585-.926-.28-1.386.306-.46.927-.585 1.387-.28zm-7.693.107c.4.38.419 1.012.04 1.413l-.083.078-.091.068c-.938.734-1.525 1.823-1.626 3.003L7 11c.036 1.19.567 2.308 1.457 3.089l.183.151c.387.325.466.882.203 1.299l-.073.101c-.163.196-.394.32-.644.352L8 16c-.235-.002-.461-.087-.64-.24-1.392-1.097-2.244-2.735-2.35-4.495L5 11c.031-1.772.818-3.441 2.155-4.591l.205-.169c.38-.401 1.012-.419 1.414-.04zM12 10c.513 0 .936.386.993.883L13 11c0 .513-.386.936-.883.993L12 12c-.552 0-1-.448-1-1s.448-1 1-1zm0-8c.552 0 1 .448 1 1v4.14c-.326-.088-.662-.135-1-.14l-.253.012c-.252.02-.502.062-.747.128V3c0-.552.448-1 1-1z" transform="translate(641 851)"/>
        </g>
    </g>
</svg>
