<svg xmlns="http://www.w3.org/2000/svg" width="24" height="24" viewBox="0 0 24 24">
    <defs>
        <filter id="prefix__a">
            <feColorMatrix in="SourceGraphic" values="0 0 0 0 0.000000 0 0 0 0 0.294118 0 0 0 0 0.576471 0 0 0 1.000000 0"/>
        </filter>
    </defs>
    <g fill="none" fill-rule="evenodd" filter="url(#prefix__a)" transform="translate(-2839 -2287)">
        <g>
            <path fill="#004B93" d="M18 15c-.786 0-1.54.31-2.1.86L8 12.34v-.67l7.9-3.53c1.183 1.16 3.083 1.14 4.242-.042 1.16-1.184 1.141-3.083-.042-4.243-1.183-1.16-3.083-1.14-4.242.043-.55.561-.859 1.316-.858 2.102v.34L7.1 9.86c-1.182-1.161-3.081-1.144-4.242.038-1.162 1.181-1.145 3.08.037 4.242 1.167 1.147 3.038 1.147 4.205 0l7.9 3.53V18c0 1.657 1.343 3 3 3s3-1.343 3-3-1.343-3-3-3z" transform="translate(2839 2287)"/>
        </g>
    </g>
</svg>
