<svg xmlns="http://www.w3.org/2000/svg" width="24" height="24" viewBox="0 0 24 24">
    <defs>
        <filter id="prefix__a">
            <feColorMatrix in="SourceGraphic" values="0 0 0 0 0.000000 0 0 0 0 0.294118 0 0 0 0 0.576471 0 0 0 1.000000 0"/>
        </filter>
    </defs>
    <g fill="none" fill-rule="evenodd" filter="url(#prefix__a)" transform="translate(-3083 -2287)">
        <g>
            <path fill="#004B93" d="M3.73 6.56l12.59 12.6c-.902.878-1.91 1.64-3 2.27l-.3.17c-.619.357-1.381.357-2 0l-.3-.17C5.955 18.744 3.005 13.7 3 8.23v-.14c.004-.593.272-1.153.73-1.53zm-.44-3.27c.392-.392 1.028-.392 1.42 0l16 16 .006.006c.389.392.386 1.025-.006 1.414-.398.395-1.031.392-1.42 0l-16-16-.084-.095c-.306-.393-.278-.963.084-1.325zM11 2.4c.619-.357 1.381-.357 2 0l7 3.94c.624.36 1.006 1.03 1 1.75v.14c-.001 2.738-.748 5.424-2.16 7.77L7.32 4.49z" transform="translate(3083 2287)"/>
        </g>
    </g>
</svg>
