<svg xmlns="http://www.w3.org/2000/svg" width="24" height="24" viewBox="0 0 24 24">
    <defs>
        <filter id="prefix__a">
            <feColorMatrix in="SourceGraphic" values="0 0 0 0 0.000000 0 0 0 0 0.294118 0 0 0 0 0.576471 0 0 0 1.000000 0"/>
        </filter>
    </defs>
    <g fill="none" fill-rule="evenodd" filter="url(#prefix__a)" transform="translate(-153 -1564)">
        <g>
            <path fill="#004B93" d="M15.17 3c.795 0 1.558.317 2.12.88l2.83 2.83c.563.562.88 1.325.88 2.12V18c0 1.657-1.343 3-3 3H6c-1.657 0-3-1.343-3-3V8.83c0-.795.317-1.558.88-2.12l2.83-2.83C7.272 3.317 8.035 3 8.83 3zM19 9H5v9l.007.117c.057.497.48.883.993.883h12c.552 0 1-.448 1-1V9zm-4 2l.117.007c.497.057.883.48.883.993l-.005.2C15.891 14.316 14.142 16 12 16c-2.21 0-4-1.79-4-4l.007-.117c.057-.497.48-.883.993-.883.552 0 1 .448 1 1l.005.15c.077 1.034.94 1.85 1.995 1.85 1.105 0 2-.895 2-2l.007-.117c.057-.497.48-.883.993-.883zm.17-6H8.83c-.265.004-.518.107-.71.29L6.41 7h11.18l-1.71-1.71c-.192-.183-.445-.286-.71-.29z" transform="translate(153 1564)"/>
        </g>
    </g>
</svg>
