<svg xmlns="http://www.w3.org/2000/svg" width="24" height="24" viewBox="0 0 24 24">
    <defs>
        <filter id="prefix__a">
            <feColorMatrix in="SourceGraphic" values="0 0 0 0 0.000000 0 0 0 0 0.294118 0 0 0 0 0.576471 0 0 0 1.000000 0"/>
        </filter>
    </defs>
    <g fill="none" fill-rule="evenodd" filter="url(#prefix__a)" transform="translate(-275 -2383)">
        <g>
            <path fill="#004B93" d="M8.56 18.44c.586.585.586 1.535 0 2.12-.585.586-1.535.586-2.12 0-.586-.585-.586-1.535 0-2.12.585-.586 1.535-.586 2.12 0zm10 0c.586.585.586 1.535 0 2.12-.585.586-1.535.586-2.12 0-.586-.585-.586-1.535 0-2.12.585-.586 1.535-.586 2.12 0zM5 3c.465-.016.88.29 1 .74L6.58 6h12.8c.703.011 1.349.391 1.7 1 .345.575.379 1.285.09 1.89l-3.28 6.56c-.17.336-.513.549-.89.55H8c-.465.016-.88-.29-1-.74L4.24 5H3c-.552 0-1-.448-1-1s.448-1 1-1z" transform="translate(275 2383)"/>
        </g>
    </g>
</svg>
