<svg xmlns="http://www.w3.org/2000/svg" width="24" height="24" viewBox="0 0 24 24">
    <defs>
        <filter id="prefix__a">
            <feColorMatrix in="SourceGraphic" values="0 0 0 0 0.000000 0 0 0 0 0.294118 0 0 0 0 0.576471 0 0 0 1.000000 0"/>
        </filter>
    </defs>
    <g fill="none" fill-rule="evenodd" filter="url(#prefix__a)" transform="translate(-153 -2383)">
        <g>
            <path fill="#004B93" d="M20.12 6.71l-2.83-2.83c-.562-.563-1.325-.88-2.12-.88H8.83c-.795 0-1.558.317-2.12.88L3.88 6.71C3.317 7.272 3 8.035 3 8.83V18c0 1.657 1.343 3 3 3h12c1.657 0 3-1.343 3-3V8.83c0-.795-.317-1.558-.88-2.12zM12 16c-2.21 0-4-1.79-4-4 0-.552.448-1 1-1s1 .448 1 1c0 1.105.895 2 2 2s2-.895 2-2c0-.552.448-1 1-1s1 .448 1 1c0 2.21-1.79 4-4 4zM6.41 7l1.71-1.71c.192-.183.445-.286.71-.29h6.34c.265.004.518.107.71.29L17.59 7H6.41z" transform="translate(153 2383)"/>
        </g>
    </g>
</svg>
