<svg xmlns="http://www.w3.org/2000/svg" width="24" height="24" viewBox="0 0 24 24">
    <defs>
        <filter id="prefix__a">
            <feColorMatrix in="SourceGraphic" values="0 0 0 0 0.000000 0 0 0 0 0.294118 0 0 0 0 0.576471 0 0 0 1.000000 0"/>
        </filter>
    </defs>
    <g fill="none" fill-rule="evenodd" filter="url(#prefix__a)" transform="translate(-885 -851)">
        <g>
            <path fill="#004B93" d="M18.71 14.29c-.392-.392-1.028-.392-1.42 0-.392.392-.392 1.028 0 1.42l.29.29H16c-2.21 0-4-1.79-4-4s1.79-4 4-4h1.59l-.3.29c-.392.389-.395 1.022-.006 1.414l.006.006c.189.187.444.292.71.29.266.002.521-.103.71-.29l2-2c.187-.189.292-.444.29-.71.002-.266-.103-.521-.29-.71l-2-2c-.392-.392-1.028-.392-1.42 0-.392.392-.392 1.028 0 1.42l.29.29H16c-2.012.001-3.89 1.012-5 2.69C9.89 7.012 8.012 6.001 6 6H4c-.552 0-1 .448-1 1s.448 1 1 1h2c2.21 0 4 1.79 4 4s-1.79 4-4 4H4c-.552 0-1 .448-1 1s.448 1 1 1h2c2.012-.001 3.89-1.012 5-2.69 1.11 1.678 2.988 2.689 5 2.69h1.59l-.3.29c-.392.389-.395 1.022-.006 1.414l.006.006c.189.187.444.292.71.29.266.002.521-.103.71-.29l2-2c.187-.189.292-.444.29-.71.002-.266-.103-.521-.29-.71l-2-2z" transform="translate(885 851)"/>
        </g>
    </g>
</svg>
