<svg xmlns="http://www.w3.org/2000/svg" width="24" height="24" viewBox="0 0 24 24">
    <defs>
        <filter id="prefix__a">
            <feColorMatrix in="SourceGraphic" values="0 0 0 0 0.000000 0 0 0 0 0.294118 0 0 0 0 0.576471 0 0 0 1.000000 0"/>
        </filter>
    </defs>
    <g fill="none" fill-rule="evenodd" filter="url(#prefix__a)" transform="translate(-763 -851)">
        <g>
            <path fill="#004B93" d="M19 4c.552 0 1 .448 1 1v4.31c0 .552-.448 1-1 1s-1-.448-1-1V7.42L5.704 19.716c-.392.389-1.025.386-1.414-.006l-.003-.003c-.392-.395-.39-1.028.003-1.417L10.58 12 4.75 6.17c-.32-.374-.32-.927 0-1.3.36-.42.99-.47 1.41-.11L12 10.59 16.59 6H14.7c-.552 0-1-.448-1-1l.007-.117c.057-.497.48-.883.993-.883zm-5.2 9.8c.392-.392 1.028-.392 1.42 0L18 16.59v-1.91l.007-.117c.057-.497.48-.883.993-.883l.117.007c.497.057.883.48.883.993v4.21c.004.039.006.077.006.116-.003.552-.454.997-1.006.994h-4.31c-.552 0-1-.448-1-1s.448-1 1-1h1.88l-2.77-2.78-.084-.095c-.306-.393-.278-.963.084-1.325z" transform="translate(763 851)"/>
        </g>
    </g>
</svg>
