<svg xmlns="http://www.w3.org/2000/svg" width="24" height="24" viewBox="0 0 24 24">
    <defs>
        <filter id="prefix__a">
            <feColorMatrix in="SourceGraphic" values="0 0 0 0 0.000000 0 0 0 0 0.294118 0 0 0 0 0.576471 0 0 0 1.000000 0"/>
        </filter>
    </defs>
    <g fill="none" fill-rule="evenodd" filter="url(#prefix__a)" transform="translate(-397 -2383)">
        <g>
            <path fill="#004B93" d="M16.45 6.2c-.726-.343-1.584-.242-2.21.26l-5.1 4.21-.14.15V7c0-.552-.448-1-1-1s-1 .448-1 1v10c0 .552.448 1 1 1s1-.448 1-1v-3.82l.14.15 5.1 4.21c.368.298.827.46 1.3.46.314-.002.624-.07.91-.2.631-.278 1.042-.9 1.05-1.59V7.79c-.008-.69-.419-1.312-1.05-1.59z" transform="translate(397 2383)"/>
        </g>
    </g>
</svg>
