<svg xmlns="http://www.w3.org/2000/svg" width="24" height="24" viewBox="0 0 24 24">
    <defs>
        <filter id="prefix__a">
            <feColorMatrix in="SourceGraphic" values="0 0 0 0 0.000000 0 0 0 0 0.294118 0 0 0 0 0.576471 0 0 0 1.000000 0"/>
        </filter>
    </defs>
    <g fill="none" fill-rule="evenodd" filter="url(#prefix__a)" transform="translate(-763 -2383)">
        <g>
            <path fill="#004B93" d="M17 2c1.657 0 3 1.343 3 3v14c0 1.657-1.343 3-3 3H7c-1.657 0-3-1.343-3-3V5l.005-.176C4.096 3.249 5.402 2 7 2zm-5 10c-1.933 0-3.5 1.567-3.5 3.5S10.067 19 12 19l.192-.005c1.844-.1 3.308-1.626 3.308-3.495l-.005-.192C15.395 13.464 13.869 12 12 12zm1.06 2.44c.586.585.586 1.535 0 2.12-.585.586-1.535.586-2.12 0-.586-.585-.586-1.535 0-2.12.585-.586 1.535-.586 2.12 0zM12 5l-.176.005C10.249 5.096 9 6.402 9 8l.005.176C9.096 9.751 10.402 11 12 11c1.657 0 3-1.343 3-3s-1.343-3-3-3zm.707 2.293c.39.39.39 1.024 0 1.414-.39.39-1.024.39-1.414 0-.39-.39-.39-1.024 0-1.414.39-.39 1.024-.39 1.414 0z" transform="translate(763 2383)"/>
        </g>
    </g>
</svg>
