<svg xmlns="http://www.w3.org/2000/svg" width="24" height="24" viewBox="0 0 24 24">
    <defs>
        <filter id="prefix__a">
            <feColorMatrix in="SourceGraphic" values="0 0 0 0 0.000000 0 0 0 0 0.294118 0 0 0 0 0.576471 0 0 0 1.000000 0"/>
        </filter>
    </defs>
    <g fill="none" fill-rule="evenodd" filter="url(#prefix__a)" transform="translate(-763 -1564)">
        <g>
            <path fill="#004B93" d="M17 2c1.657 0 3 1.343 3 3v14c0 1.657-1.343 3-3 3H7c-1.657 0-3-1.343-3-3V5l.005-.176C4.096 3.249 5.402 2 7 2zm0 2H7c-.552 0-1 .448-1 1v14l.007.117c.057.497.48.883.993.883h10c.552 0 1-.448 1-1V5c0-.552-.448-1-1-1zm-5 8l.192.005c1.844.1 3.308 1.626 3.308 3.495l-.005.192C15.395 17.536 13.869 19 12 19c-1.933 0-3.5-1.567-3.5-3.5S10.067 12 12 12zm0 2c-.828 0-1.5.672-1.5 1.5S11.172 17 12 17l.144-.007c.761-.073 1.356-.713 1.356-1.493l-.007-.144C13.42 14.595 12.78 14 12 14zm0-9c1.657 0 3 1.343 3 3s-1.343 3-3 3l-.176-.005C10.249 10.904 9 9.598 9 8l.005-.176C9.096 6.249 10.402 5 12 5zm0 2l-.117.007c-.497.057-.883.48-.883.993l.007.117c.057.497.48.883.993.883.552 0 1-.448 1-1s-.448-1-1-1z" transform="translate(763 1564)"/>
        </g>
    </g>
</svg>
