<svg xmlns="http://www.w3.org/2000/svg" width="24" height="24" viewBox="0 0 24 24">
    <defs>
        <filter id="prefix__a">
            <feColorMatrix in="SourceGraphic" values="0 0 0 0 0.000000 0 0 0 0 0.294118 0 0 0 0 0.576471 0 0 0 1.000000 0"/>
        </filter>
    </defs>
    <g fill="none" fill-rule="evenodd" filter="url(#prefix__a)" transform="translate(-885 -1564)">
        <g>
            <path fill="#004B93" d="M17.56 21c-.16 0-.318-.037-.46-.11L12 18.22l-5.1 2.67c-.489.257-1.093.07-1.35-.42-.104-.196-.139-.421-.1-.64l1-5.63-4.12-4c-.262-.261-.358-.646-.25-1 .118-.363.432-.626.81-.68l5.7-.83 2.51-5.13c.24-.497.839-.705 1.336-.464.202.098.366.261.464.464l2.54 5.12 5.7.83c.378.054.692.317.81.68.108.354.012.739-.25 1l-4.12 4 1 5.63c.073.383-.083.773-.4 1-.181.127-.4.19-.62.18zM12 16.1c.16-.004.319.034.46.11l3.77 2-.72-4.21c-.057-.326.052-.66.29-.89l3-2.93-4.2-.62c-.312-.063-.576-.27-.71-.56L12 5.25 10.11 9c-.147.292-.427.493-.75.54l-4.2.62 3 2.93c.238.23.347.564.29.89l-.72 4.16 3.77-2c.16-.06.333-.073.5-.04z" transform="translate(885 1564)"/>
        </g>
    </g>
</svg>
