<svg xmlns="http://www.w3.org/2000/svg" width="24" height="24" viewBox="0 0 24 24">
    <defs>
        <filter id="prefix__a">
            <feColorMatrix in="SourceGraphic" values="0 0 0 0 0.000000 0 0 0 0 0.294118 0 0 0 0 0.576471 0 0 0 1.000000 0"/>
        </filter>
    </defs>
    <g fill="none" fill-rule="evenodd" filter="url(#prefix__a)" transform="translate(-1007 -1564)">
        <g>
            <path fill="#004B93" d="M12 2l.28.004C17.673 2.152 22 6.57 22 12l-.004.28C21.848 17.673 17.43 22 12 22 6.477 22 2 17.523 2 12S6.477 2 12 2zm0 2c-4.418 0-8 3.582-8 8s3.582 8 8 8l.25-.004C16.551 19.865 20 16.335 20 12l-.004-.25C19.865 7.449 16.335 4 12 4zm2.75 4c.69 0 1.25.56 1.25 1.25v5.5c0 .69-.56 1.25-1.25 1.25h-5.5C8.56 16 8 15.44 8 14.75v-5.5l.006-.128C8.07 8.492 8.603 8 9.25 8zM14 10h-4v4h4v-4z" transform="translate(1007 1564)"/>
        </g>
    </g>
</svg>
