<svg xmlns="http://www.w3.org/2000/svg" width="24" height="24" viewBox="0 0 24 24">
    <defs>
        <filter id="prefix__a">
            <feColorMatrix in="SourceGraphic" values="0 0 0 0 0.000000 0 0 0 0 0.294118 0 0 0 0 0.576471 0 0 0 1.000000 0"/>
        </filter>
    </defs>
    <g fill="none" fill-rule="evenodd" filter="url(#prefix__a)" transform="translate(-1007 -2383)">
        <g>
            <path fill="#004B93" d="M12 2l.28.004C17.673 2.152 22 6.57 22 12l-.004.28C21.848 17.673 17.43 22 12 22 6.477 22 2 17.523 2 12S6.477 2 12 2zm2.75 6h-5.5C8.56 8 8 8.56 8 9.25v5.5l.006.128C8.07 15.508 8.603 16 9.25 16h5.5c.69 0 1.25-.56 1.25-1.25v-5.5C16 8.56 15.44 8 14.75 8zM14 10v4h-4v-4h4z" transform="translate(1007 2383)"/>
        </g>
    </g>
</svg>
