<svg xmlns="http://www.w3.org/2000/svg" width="24" height="24" viewBox="0 0 24 24">
    <defs>
        <filter id="prefix__a">
            <feColorMatrix in="SourceGraphic" values="0 0 0 0 0.000000 0 0 0 0 0.294118 0 0 0 0 0.576471 0 0 0 1.000000 0"/>
        </filter>
    </defs>
    <g fill="none" fill-rule="evenodd" filter="url(#prefix__a)" transform="translate(-1129 -851)">
        <g>
            <path fill="#004B93" d="M7.4 13.2c.442-.331 1.069-.242 1.4.2.331.442.242 1.069-.2 1.4L7 16h13c.552 0 1 .448 1 1s-.448 1-1 1H6.92l1.57 1.21c.432.34.508.966.17 1.4l-.087.099c-.186.184-.438.29-.703.291l-.132-.01c-.173-.023-.338-.092-.478-.2l-3.86-3c-.07-.054-.134-.117-.188-.188-.335-.44-.251-1.067.188-1.402zm7.935-8.815c.34-.436.969-.515 1.405-.175l3.86 3c.07.054.134.117.188.188.335.44.251 1.067-.188 1.402l-4 3c-.173.13-.384.2-.6.2l-.117-.007c-.27-.032-.518-.173-.683-.393l-.069-.105c-.247-.432-.139-.99.269-1.295L17 9H4c-.552 0-1-.448-1-1s.448-1 1-1h13.08l-1.57-1.21c-.436-.34-.515-.969-.175-1.405z" transform="translate(1129 851)"/>
        </g>
    </g>
</svg>
