<svg xmlns="http://www.w3.org/2000/svg" width="24" height="24" viewBox="0 0 24 24">
    <defs>
        <filter id="prefix__a">
            <feColorMatrix in="SourceGraphic" values="0 0 0 0 0.000000 0 0 0 0 0.294118 0 0 0 0 0.576471 0 0 0 1.000000 0"/>
        </filter>
    </defs>
    <g fill="none" fill-rule="evenodd" filter="url(#prefix__a)" transform="translate(-1251 -851)">
        <g>
            <path fill="#004B93" d="M3.3 12.987l.11.013 4.25.69c.552.044.964.528.92 1.08-.044.552-.528.964-1.08.92h-.16l-1.65-.27c1.288 2.226 3.669 3.592 6.24 3.58l.271-.001c2.791-.068 5.294-1.774 6.369-4.369l.003-.007c.212-.518.796-.762 1.307-.553l.105.048c.436.233.642.758.465 1.232l-.14.316c-.83 1.772-2.205 3.237-3.927 4.18-4.467 2.443-10.07.802-12.513-3.666l-.37 2c-.088.481-.511.828-1 .82h-.18l-.063-.013c-.537-.13-.867-.67-.737-1.207l.75-4c.011-.061.035-.119.07-.17l.03-.097.04-.093.09-.1c.052-.067.113-.128.18-.18l.102-.057c.07-.035.143-.063.218-.083h.08c.11-.02.22-.02.33 0zM7.595 4.16c4.466-2.445 10.07-.807 12.515 3.659l.37-2c.1-.552.628-.92 1.18-.82.552.1.92.628.82 1.18l-.75 4c-.013.067-.036.13-.07.19l-.02.082-.03.078-.066.083-.074.077-.08.1c-.06.046-.128.083-.2.11l-.047.034-.053.026-.11.034c-.076.018-.153.027-.23.026h-.16l-4.25-.71-.115-.025c-.489-.138-.807-.622-.725-1.135.088-.552.608-.928 1.16-.84l1.65.27C17.023 6.354 14.642 4.988 12.07 5h-.265c-2.818.057-5.346 1.784-6.415 4.41l-.002.004c-.213.515-.798.757-1.308.546l-.105-.05c-.438-.24-.636-.776-.445-1.25l.14-.316C4.5 6.57 5.874 5.104 7.596 4.16z" transform="translate(1251 851)"/>
        </g>
    </g>
</svg>
