<svg xmlns="http://www.w3.org/2000/svg" width="24" height="24" viewBox="0 0 24 24">
    <defs>
        <filter id="prefix__a">
            <feColorMatrix in="SourceGraphic" values="0 0 0 0 0.000000 0 0 0 0 0.294118 0 0 0 0 0.576471 0 0 0 1.000000 0"/>
        </filter>
    </defs>
    <g fill="none" fill-rule="evenodd" filter="url(#prefix__a)" transform="translate(-1373 -851)">
        <g>
            <path fill="#004B93" d="M20 4H4c-.552 0-1 .448-1 1v3c0 .552.448 1 1 1s1-.448 1-1V6h6v13H9c-.552 0-1 .448-1 1s.448 1 1 1h6c.552 0 1-.448 1-1s-.448-1-1-1h-2V6h6v2c0 .552.448 1 1 1s1-.448 1-1V5c0-.552-.448-1-1-1z" transform="translate(1373 851)"/>
        </g>
    </g>
</svg>
