<svg xmlns="http://www.w3.org/2000/svg" width="24" height="24" viewBox="0 0 24 24">
    <defs>
        <filter id="prefix__a">
            <feColorMatrix in="SourceGraphic" values="0 0 0 0 0.000000 0 0 0 0 0.294118 0 0 0 0 0.576471 0 0 0 1.000000 0"/>
        </filter>
    </defs>
    <g fill="none" fill-rule="evenodd" filter="url(#prefix__a)" transform="translate(-1495 -2383)">
        <g>
            <path fill="#004B93" d="M14 2c1.598 0 2.904 1.249 2.995 2.824L17 5v8c2.21 1.657 2.657 4.79 1 7-.895 1.193-2.272 1.92-3.752 1.994L14 22c-2.761 0-5-2.239-5-5 0-1.574.741-3.056 2-4V5c0-1.598 1.249-2.904 2.824-2.995L14 2zm0 2c-.552 0-1 .448-1 1v4.54h2V5c.004-.217-.069-.427-.203-.595l-.087-.095c-.155-.162-.358-.267-.577-.3L14 4zM5 3c.552 0 1 .448 1 1v.999L7 5c.513 0 .936.386.993.883L8 6c0 .552-.448 1-1 1l-1-.001V8c0 .513-.386.936-.883.993L5 9c-.552 0-1-.448-1-1V6.999L3 7c-.513 0-.936-.386-.993-.883L2 6c0-.552.448-1 1-1l1-.001V4c0-.513.386-.936.883-.993L5 3z" transform="translate(1495 2383)"/>
        </g>
    </g>
</svg>
