<svg xmlns="http://www.w3.org/2000/svg" width="24" height="24" viewBox="0 0 24 24">
    <defs>
        <filter id="prefix__a">
            <feColorMatrix in="SourceGraphic" values="0 0 0 0 0.000000 0 0 0 0 0.294118 0 0 0 0 0.576471 0 0 0 1.000000 0"/>
        </filter>
    </defs>
    <g fill="none" fill-rule="evenodd" filter="url(#prefix__a)" transform="translate(-1251 -2383)">
        <g>
            <path fill="#004B93" d="M12 22c-2.761 0-5-2.239-5-5 0-1.574.741-3.056 2-4V5c0-1.657 1.343-3 3-3s3 1.343 3 3v8c2.21 1.657 2.657 4.79 1 7-.944 1.259-2.426 2-4 2zm1-12.46V5c.004-.26-.101-.51-.29-.69-.185-.195-.441-.306-.71-.31-.552 0-1 .448-1 1v4.54h2z" transform="translate(1251 2383)"/>
        </g>
    </g>
</svg>
