<svg xmlns="http://www.w3.org/2000/svg" width="24" height="24" viewBox="0 0 24 24">
    <defs>
        <filter id="prefix__a">
            <feColorMatrix in="SourceGraphic" values="0 0 0 0 0.000000 0 0 0 0 0.294118 0 0 0 0 0.576471 0 0 0 1.000000 0"/>
        </filter>
    </defs>
    <g fill="none" fill-rule="evenodd" filter="url(#prefix__a)" transform="translate(-641 -2479)">
        <g transform="translate(641 2479)">
            <path fill="#004B93" d="M12.6 2c.205 0 .374.154.397.353L13 2.4v.819c4.912.31 8.8 4.391 8.8 9.381 0 5.191-4.209 9.4-9.4 9.4C7.209 22 3 17.791 3 12.6c0-4.854 3.679-8.848 8.4-9.347V2.4c0-.205.154-.374.353-.397L11.8 2h.8zm6.437 1.483c.144-.144.371-.155.528-.033l.038.033 1.114 1.114c.144.144.155.371.033.528l-.033.038-.554.554c-.144.144-.371.155-.528.033l-.038-.033-1.114-1.114c-.144-.144-.155-.371-.033-.528l.033-.038.554-.554z"/>
            <rect width="1" height="9" x="14" y="6" fill="#D8D8D8" rx=".5" transform="rotate(38 14.5 10.5)"/>
        </g>
    </g>
</svg>
