<svg xmlns="http://www.w3.org/2000/svg" width="24" height="24" viewBox="0 0 24 24">
    <defs>
        <filter id="prefix__a">
            <feColorMatrix in="SourceGraphic" values="0 0 0 0 0.000000 0 0 0 0 0.294118 0 0 0 0 0.576471 0 0 0 1.000000 0"/>
        </filter>
    </defs>
    <g fill="none" fill-rule="evenodd" filter="url(#prefix__a)" transform="translate(-1741 -1564)">
        <g>
            <path fill="#004B93" d="M13.659 2c1.262.039 2.294 1.05 2.341 2.33V6h5c.552 0 1 .448 1 1s-.448 1-1 1h-1v11c0 1.657-1.343 3-3 3H7c-1.657 0-3-1.343-3-3V8H3c-.552 0-1-.448-1-1s.448-1 1-1h5V4.33C8.049 2.997 9.167 1.955 10.5 2zM18 8H6v11l.007.117c.057.497.48.883.993.883h10c.552 0 1-.448 1-1V8zm-9 3c.552 0 1 .448 1 1v4c0 .552-.448 1-1 1l-.117-.007C8.386 16.936 8 16.513 8 16v-4c0-.552.448-1 1-1zm6 0c.552 0 1 .448 1 1v4c0 .552-.448 1-1 1l-.117-.007c-.497-.057-.883-.48-.883-.993v-4c0-.552.448-1 1-1zm-1.5-7h-3c-.29 0-.5.17-.5.33V6h4V4.33c0-.16-.21-.33-.5-.33z" transform="translate(1741 1564)"/>
        </g>
    </g>
</svg>
