<svg xmlns="http://www.w3.org/2000/svg" width="24" height="24" viewBox="0 0 24 24">
    <defs>
        <filter id="prefix__a">
            <feColorMatrix in="SourceGraphic" values="0 0 0 0 0.000000 0 0 0 0 0.294118 0 0 0 0 0.576471 0 0 0 1.000000 0"/>
        </filter>
    </defs>
    <g fill="none" fill-rule="evenodd" filter="url(#prefix__a)" transform="translate(-1741 -2383)">
        <g>
            <path fill="#004B93" d="M21 6h-5V4.33c-.049-1.333-1.167-2.375-2.5-2.33h-3c-1.333-.045-2.451.997-2.5 2.33V6H3c-.552 0-1 .448-1 1s.448 1 1 1h1v11c0 1.657 1.343 3 3 3h10c1.657 0 3-1.343 3-3V8h1c.552 0 1-.448 1-1s-.448-1-1-1zM10 16c0 .552-.448 1-1 1s-1-.448-1-1v-4c0-.552.448-1 1-1s1 .448 1 1v4zm0-11.67c0-.16.21-.33.5-.33h3c.29 0 .5.17.5.33V6h-4V4.33zM16 16c0 .552-.448 1-1 1s-1-.448-1-1v-4c0-.552.448-1 1-1s1 .448 1 1v4z" transform="translate(1741 2383)"/>
        </g>
    </g>
</svg>
