<svg xmlns="http://www.w3.org/2000/svg" width="24" height="24" viewBox="0 0 24 24">
    <defs>
        <filter id="prefix__a">
            <feColorMatrix in="SourceGraphic" values="0 0 0 0 0.000000 0 0 0 0 0.294118 0 0 0 0 0.576471 0 0 0 1.000000 0"/>
        </filter>
    </defs>
    <g fill="none" fill-rule="evenodd" filter="url(#prefix__a)" transform="translate(-1495 -851)">
        <g>
            <path fill="#004B93" d="M21 12c0-.552-.448-1-1-1s-1 .448-1 1v2.3l-4.24-5c-.316-.37-.852-.458-1.27-.21L9.22 11.7 4.77 6.36c-.353-.425-.985-.483-1.41-.13-.425.353-.483.985-.13 1.41l5 6c.315.378.857.471 1.28.22l4.28-2.57 4 4.71H15c-.552 0-1 .448-1 1s.448 1 1 1h5c.123-.003.245-.027.36-.07l.14-.08c.052-.026.102-.056.15-.09.055-.05.102-.107.14-.17.033-.044.064-.091.09-.14.024-.054.041-.111.05-.17.04-.088.064-.183.07-.28v-5z" transform="translate(1495 851)"/>
        </g>
    </g>
</svg>
