<svg xmlns="http://www.w3.org/2000/svg" width="24" height="24" viewBox="0 0 24 24">
    <defs>
        <filter id="prefix__a">
            <feColorMatrix in="SourceGraphic" values="0 0 0 0 0.000000 0 0 0 0 0.294118 0 0 0 0 0.576471 0 0 0 1.000000 0"/>
        </filter>
    </defs>
    <g fill="none" fill-rule="evenodd" filter="url(#prefix__a)" transform="translate(-1617 -851)">
        <g>
            <path fill="#004B93" d="M21 7c.01-.07.01-.14 0-.21-.009-.059-.026-.116-.05-.17-.026-.049-.057-.096-.09-.14-.038-.063-.085-.12-.14-.17l-.12-.07c-.058-.043-.122-.077-.19-.1h-.2c-.06-.059-.132-.106-.21-.14h-5c-.552 0-1 .448-1 1s.448 1 1 1h2.83l-4 4.71-4.32-2.57c-.423-.251-.965-.158-1.28.22l-5 6c-.354.424-.296 1.055.128 1.408l.002.002c.18.15.406.23.64.23.297 0 .58-.131.77-.36l4.45-5.34 4.27 2.56c.418.248.954.16 1.27-.21L19 9.7V12c0 .552.448 1 1 1s1-.448 1-1V7z" transform="translate(1617 851)"/>
        </g>
    </g>
</svg>
