<svg xmlns="http://www.w3.org/2000/svg" width="24" height="24" viewBox="0 0 24 24">
    <g fill="none" fill-rule="evenodd">
        <path fill="#004B93" d="M19.884 10.945c-.059.07-.144.119-.216.177l-.056-.104c-.019-.036-.032-.07-.033-.106l-.005-.937.002-2.776.01-.165.097-.095.09.075.063.175c.017.06.031.119.032.179l.019 1.707.013 1.707-.016.163zm-.605-.436c-.003.188-.11.263-.266.309-.25.071-.503.133-.753.208-.269.083-.528.203-.802.256-.395.077-.8.147-1.201.152-1.264.018-2.531.032-3.795.03-1.265.002-2.53-.012-3.795-.03-.402-.005-.807-.075-1.202-.152-.274-.053-.533-.173-.802-.256-.25-.075-.503-.137-.753-.208-.155-.046-.263-.12-.266-.309-.014-.779-.047-1.557-.057-2.337-.003-.134 0-.268.003-.402l.033-.804c.004-.124.063-.187.193-.16.225.049.45.101.674.153l.055.017.785.109.392.06c.401.068.795.161 1.21.158 1.177-.008 2.353-.009 3.53-.009 1.175 0 2.352 0 3.528.01.417.002.81-.09 1.211-.158l.392-.061.785-.109.054-.017c.225-.052.45-.104.675-.153.13-.027.189.036.193.16l.032.804c.005.134.007.268.005.402-.011.78-.044 1.558-.058 2.337zm-.132 6.063l-.018.433c-.006.072-.013.143-.025.214-.019.112-.083.259-.172.307-.123.066-.252.121-.383.172l-.396.15c-.262.1-.526.202-.793.293-.23.078-.462.148-.697.208-.153.04-.236-.017-.194-.186.061-.252.088-.52.2-.751l.076-.171c.048-.097.116-.189.244-.225.135-.041.265-.1.394-.158l.386-.187c.064-.03.13-.058.197-.08l.232-.069.47-.112.085-.037.17-.061c.028-.01.055-.016.08-.017l.053.007c.026.009.044.038.06.075l.064.185-.033.01zm-1.381 4.377l-.15.012h-5.141v-.003h-.027v.004l-5.141-.001-.15-.012-.125-.115.095-.115.12-.087c.324-.207.695-.239 1.087-.237l2.064.005H14.524l2.065-.005c.392-.002.763.03 1.088.237l.119.087.095.115-.125.115zm-6.243-1.825c-.309.002-.616 0-.923-.018-.263-.014-.523-.141-.783-.219l-.254-.106c-.203-.08-.412-.155-.576-.282-.133-.102-.17-.326-.24-.498-.092-.222-.175-.45-.263-.674l-.029-.068-.12-.46-.07-.228c-.025-.074-.055-.147-.086-.22l-.195-.435-.034-.084-.293-.795c-.067-.188-.126-.38-.197-.567-.101-.26-.211-.518-.316-.777-.054-.134-.121-.264-.157-.402l-.03-.092c-.093-.231-.292-.35-.518-.459l-.194-.1c-.128-.072-.252-.152-.368-.237-.046-.033-.046-.147-.034-.221l.146-.067.113.008.32.12.32.123.592.247c.183.086.347.198.507.316l.299.226c.117.087.252.152.374.234.07.045.127.106.195.155.153.11.327.14.515.154l.42.038c.42.043.84.095 1.26.101l.78.006h1.556l.779-.006c.42-.006.84-.058 1.26-.101l.42-.038c.188-.013.362-.044.515-.154.067-.05.126-.11.194-.155.123-.082.258-.147.375-.234l.299-.226c.16-.118.325-.23.508-.316l.591-.247.32-.124.32-.119.113-.008.146.067c.012.074.012.188-.033.221-.117.085-.24.165-.368.236l-.194.101c-.227.11-.426.228-.52.46l-.03.09c-.035.139-.102.27-.156.403-.105.26-.215.516-.315.777-.072.187-.13.38-.198.567l-.293.795-.034.084-.195.435c-.03.073-.06.146-.086.22l-.07.228-.12.46-.03.068c-.087.225-.17.452-.26.674-.072.172-.11.396-.241.498-.166.127-.374.201-.577.282l-.254.106c-.26.078-.52.205-.783.22-.307.016-.614.019-.923.017l-.923-.008v.008h-.031v-.008l-.923.008zm-5.149-1.426c-.13-.05-.26-.106-.383-.172-.09-.048-.153-.195-.172-.307-.012-.071-.02-.142-.024-.214l-.02-.433-.032-.01.064-.185c.015-.037.034-.066.06-.075l.053-.007c.025.001.052.007.08.017l.17.061.084.037.472.112.231.069c.067.022.133.05.197.08l.386.187c.129.058.259.117.393.158.129.036.196.128.245.225l.077.17c.112.231.138.5.2.752.04.169-.042.226-.195.186-.235-.06-.467-.13-.697-.208-.267-.09-.531-.192-.793-.293l-.396-.15zM6.297 5.602c.405-.003.811-.006 1.216-.006h9.897c.406 0 .811.003 1.217.006.183.002.307.117.314.265.012.24-.168.17-.29.17l-3.083.002h-3.084v-.001h-.045l-3.084.001-3.083-.003c-.122 0-.302.072-.29-.169.007-.148.131-.263.315-.265zm-.953 5.31c0 .035-.014.07-.033.106l-.056.104c-.072-.058-.157-.107-.216-.177l-.016-.163.014-1.707.018-1.707c.002-.06.015-.12.033-.179l.06-.175.092-.075.097.095.011.165v2.776l-.004.937zm15.107-3.766c-.238-.184-.448-.407-.698-.571-.17-.11-.178-.247-.178-.396l-.014-3.183c-.001-.298-.1-.557-.363-.722-.1-.063-.235-.094-.356-.1-.779-.044-1.559-.092-2.338-.11-1.347-.032-2.694-.044-4.042-.064-1.348.02-2.695.032-4.043.064-.78.018-1.56.066-2.338.11-.12.006-.256.037-.356.1-.263.165-.362.424-.363.722l-.013 3.183c0 .149-.01.286-.18.396-.25.164-.459.387-.698.57-.275.21-.48.431-.47.813.02.834.015 1.671 0 2.506-.002.207.082.374.2.502.272.299.586.562.876.845.123.12.2.265.181.448l-.063.526c-.02.175-.035.35-.035.525-.001.376.001.75.004 1.126l.023 2.251c0 .113 0 .27-.069.332-.13.112-.144.237-.144.378-.004 1.107-.008 2.216-.007 3.322v.077c.001.101.01.21.06.284.143.21.109.434.12.658.01.214.058.26.279.26L7.635 22c.188 0 .278-.09.302-.262l.026-.24c.031-.212.105-.272.327-.272H16.632c.223 0 .296.06.328.273l.026.239c.024.171.114.263.302.262l2.21-.001c.22 0 .268-.047.278-.261.011-.224-.023-.448.12-.658.05-.074.059-.183.06-.284v-.077c.001-1.106-.003-2.215-.007-3.322 0-.14-.014-.266-.144-.378-.068-.061-.068-.219-.068-.332l.022-2.25c.003-.376.005-.751.004-1.127 0-.174-.016-.35-.035-.525l-.063-.526c-.02-.183.058-.327.18-.448.29-.283.605-.546.878-.845.117-.128.202-.295.199-.502-.015-.835-.02-1.672 0-2.506.01-.382-.195-.603-.47-.812z"/>
    </g>
</svg>
