<svg xmlns="http://www.w3.org/2000/svg" width="24" height="24" viewBox="0 0 24 24">
    <g fill="none" fill-rule="evenodd">
        <path fill="#004B93" d="M16.838 2c.739 0 1.21.362 1.415 1.086.204.723.358 1.441.462 2.153.174.07.26.206.26.406 0 .2.115 2.822.343 7.866.114.018.17.07.17.158v2.246c.022.426-.058.639-.24.639-.01 0 .046 1.53.17 4.588.008.572-.084.858-.278.858h-2.836c-.115.007-.286-.134-.513-.424-.31-.394-.63-.43-1.072-.433H9.346c-.515 0-.867 0-1.209.433-.227.29-.398.431-.513.424H4.79c-.195 0-.287-.286-.278-.858.124-3.059.18-4.588.169-4.588-.182 0-.262-.213-.24-.639V13.67c0-.088.056-.14.17-.158l.085-1.874-.945-.333.001-.188c-.05.013-.102.02-.156.02-.329 0-.595-.266-.595-.595V9.043c0-.215.114-.403.285-.508v-.403C3.114 8.028 3 7.84 3 7.624v-.191c0-.33.266-.596.595-.596H3.6v-.17l1.329-.33c.016-.407.025-.638.025-.692 0-.2.087-.335.26-.406.104-.712.258-1.43.463-2.153C5.88 2.362 6.35 2 7.09 2h9.748zM6.806 18.368H5.068c-.062 0-.113.05-.113.112v.695c0 .469.333.871.793.96l.974.186c.027.005.056.008.084.008.248 0 .45-.202.45-.45l-.001-.576H4.998v-.224l2.257-.001v-.26c0-.25-.2-.45-.449-.45zm11.723 0h-1.738c-.062 0-.112.05-.112.112v.695c0 .469.332.871.793.96l.973.186c.028.005.056.008.084.008.249 0 .45-.202.45-.45l-.001-.576h-2.182v-.224l2.182-.001v-.26c0-.25-.2-.45-.449-.45zm-3.483.587H8.814v.367h6.232v-.367zm-10.09-5.358c.193.538.323.89.39 1.056.098.25.554 1.466.706 1.774.102.205.365.291.792.257-.182-.54-.323-.92-.424-1.142-.087-.192-.178-.367-.273-.527-.258-.438-.655-.91-1.192-1.418zm13.982 0c-.536.508-.934.98-1.192 1.418-.094.16-.185.335-.273.527-.1.222-.242.602-.423 1.142.426.034.69-.052.792-.257.152-.308.607-1.524.706-1.774.066-.166.196-.518.39-1.056zm-2.929 2.111H7.864c.209.273.486.522.833.746.176.007 1.036.007 2.578 0h1.323c1.542.007 2.402.007 2.578 0 .347-.224.624-.473.833-.746zm.46-1.128H7.404c.037.324.14.626.307.904h8.45c.169-.278.271-.58.308-.904zm2.058-7.883c-.34.198-.821.294-1.442.29-.62-.005-2.215-.003-4.784.006h-.75c-2.568-.009-4.163-.01-4.784-.006-.62.004-1.1-.092-1.44-.29v3.973c.664.769 1.465 1.153 2.4 1.153h8.398c.936 0 1.737-.384 2.402-1.153V6.697zm.588-.427l1.553.396v.194c.328 0 .595.267.595.596V7.6c0 .23-.13.429-.32.528h.024l.001.445c.176.103.295.295.295.514v1.408c0 .33-.267.596-.595.596-.052 0-.103-.007-.151-.02v.232l-1.157.422-.04-.695 1.088.001c-.199-.097-.336-.3-.336-.536V9.088c0-.22.119-.41.295-.514l.001-.444.024-.001c-.19-.1-.32-.298-.32-.528v-.145c0-.222.121-.415.3-.517h-1.23l-.027-.67zm-14.213.67l-.975-.002c.159.107.263.288.263.495v.191c0 .215-.113.403-.283.508v.404c.17.105.283.293.283.507v1.498c0 .204-.102.384-.259.491h.79c.083-1.829.143-3.193.181-4.093zm8.96-4.353h-3.768c-.094 0-.178.059-.21.147l-.132.358c-.01.025-.014.051-.014.078 0 .124.1.225.225.225h4.03c.027 0 .053-.005.078-.014.116-.043.176-.172.133-.289l-.132-.358c-.032-.088-.116-.147-.21-.147z"/>
    </g>
</svg>
