<svg xmlns="http://www.w3.org/2000/svg" xmlns:xlink="http://www.w3.org/1999/xlink" width="24" height="24" viewBox="0 0 24 24">
    <defs>
        <path id="prefix__a" d="M16.874 11.165c2.831 0 5.126 2.295 5.126 5.125 0 2.831-2.295 5.126-5.126 5.126-2.83 0-5.125-2.295-5.125-5.126 0-2.83 2.295-5.125 5.125-5.125zM9.867 2l2.506.035c.418.007.835.015 1.253.025.725.017 1.449.061 2.172.102.113.006.24.034.332.093.244.153.336.394.337.67l.013 2.9c0 .161-.014.31.166.429.233.152.427.36.65.53.256.194.446.4.437.755-.013.518-.015 1.036-.01 1.553l.008.82c-.281-.039-.567-.058-.857-.058h-.094c-.006-.954-.014-1.909-.027-2.864-.001-.055-.014-.11-.03-.165l-.057-.163-.085-.07-.09.088-.01.154-.001 2.58.002.452c-.093.005-.184.013-.276.022.014-.716.044-1.433.053-2.15.005-.373-.023-.747-.034-1.121-.004-.116-.058-.174-.179-.148l-.314.07-.315.071-.05.017-.73.1c-.121.018-.243.037-.364.057l-.446.08c-.222.038-.447.068-.68.067-1.093-.008-2.186-.01-3.28-.01-1.094 0-2.188.002-3.282.01-.386.002-.751-.084-1.125-.147l-.364-.056-.73-.101-.05-.017c-.21-.048-.418-.097-.628-.141-.121-.026-.175.032-.179.148l-.03.748c-.004.124-.006.249-.004.373.01.725.04 1.45.054 2.174.003.174.103.244.247.286.232.067.468.124.7.194.25.077.49.189.746.238.367.071.743.136 1.116.141 1.176.016 2.353.03 3.529.027.784.002 1.568-.003 2.353-.012l1.176-.015c.06 0 .119-.003.178-.007-.918.548-1.687 1.32-2.234 2.239l-.025.002-.724.006H9.143l-.724-.006c-.391-.006-.78-.054-1.171-.094l-.391-.036c-.175-.012-.337-.04-.48-.143-.062-.044-.116-.101-.18-.144-.114-.075-.24-.136-.348-.217l-.278-.21c-.149-.11-.302-.214-.471-.293l-.551-.23-.297-.115-.298-.112-.105-.007-.136.062c-.01.068-.01.175.031.206.11.079.224.153.343.22l.18.094c.21.1.396.211.483.426l.028.085c.032.13.095.25.146.374.097.241.198.48.292.723.067.173.12.352.184.527l.272.738.032.08.181.403c.03.068.056.136.08.205l.066.211.111.429.027.063c.081.208.159.42.244.626.066.16.1.37.223.464.153.118.347.186.536.261l.236.1c.242.071.483.19.728.203.285.015.571.018.858.016l.858-.007v.008h.03v-.008c.254 0 .51.005.764.007.108.413.256.811.44 1.188l-3.137-.001-1.92-.005c-.364-.002-.709.028-1.01.22l-.112.08-.089.108.117.107.14.011 4.78.001v-.004h.025c.497.004.994.004 1.491.004.05.084.103.166.157.247h-5.54c-.206-.001-.274.055-.304.252l-.024.223c-.022.159-.106.244-.28.243H3.325c-.206 0-.25-.045-.26-.243-.01-.208.021-.417-.111-.612-.047-.07-.055-.17-.056-.265v-.07c0-1.03.003-2.06.007-3.09 0-.13.012-.247.133-.351.064-.056.064-.203.064-.308l-.02-2.093c-.003-.349-.005-.698-.004-1.046 0-.163.014-.326.032-.49l.058-.488c.019-.17-.053-.304-.168-.417-.27-.263-.56-.508-.815-.785-.109-.12-.188-.274-.184-.467.013-.776.017-1.554-.002-2.33-.009-.354.182-.56.438-.756.223-.17.417-.377.65-.53.157-.102.166-.23.166-.368l.012-2.96c.002-.276.094-.517.338-.67.092-.059.218-.087.331-.093.724-.04 1.449-.085 2.173-.102 1.253-.03 2.506-.041 3.759-.06zm7.685 13.154h-1.16v4.251h1.16v-4.25zm-13.767.136l-.05.006c-.023.01-.04.036-.055.07l-.06.172.031.01.017.402c.005.067.012.134.023.2.018.103.077.24.16.285.115.06.235.112.356.16l.368.139c.244.094.49.188.738.273.213.072.43.137.647.193.143.037.22-.016.181-.173-.057-.234-.081-.484-.185-.698l-.072-.16c-.045-.09-.108-.175-.227-.21-.125-.037-.246-.092-.366-.146l-.358-.173c-.06-.028-.121-.054-.184-.075l-.215-.063-.438-.104-.08-.035-.157-.057c-.026-.009-.05-.015-.074-.016zM16.7 13.44h-1.3v.079c.172.167.413.376.722.626l.356.283.192.146.155.112h.768v-.102l-.245-.29c-.228-.273-.407-.502-.536-.686l-.112-.169zM3.153 6.592l-.085.069-.057.163c-.016.055-.029.11-.03.165l-.018 1.588-.012 1.587.015.151c.055.065.133.111.201.166l.052-.098c.017-.033.03-.065.031-.099l.004-.87-.001-2.581-.01-.154-.09-.087zm11.315-1.25H5.267c-.378 0-.755.002-1.132.006-.17.002-.286.109-.293.246-.011.224.157.158.27.158l2.867.002h2.867v-.001h.042c1.911 0 3.822.002 5.734-.001.112 0 .28.066.27-.158-.007-.137-.123-.244-.293-.246-.377-.004-.755-.005-1.131-.005z"/>
    </defs>
    <g fill="none" fill-rule="evenodd">
        <use fill="#004B93" xlink:href="#prefix__a"/>
    </g>
</svg>
