<svg xmlns="http://www.w3.org/2000/svg" xmlns:xlink="http://www.w3.org/1999/xlink" width="24" height="24" viewBox="0 0 24 24">
    <defs>
        <path id="prefix__a" d="M8.29 20.002c7.547 0 11.675-6.156 11.675-11.494 0-.176 0-.35-.012-.523.803-.571 1.496-1.28 2.047-2.091-.748.326-1.543.541-2.356.636.856-.506 1.497-1.3 1.804-2.235-.806.47-1.687.802-2.606.98-1.554-1.626-4.153-1.705-5.806-.175-1.065.987-1.518 2.457-1.187 3.86-3.299-.163-6.373-1.697-8.457-4.22-1.089 1.846-.532 4.207 1.271 5.392-.653-.019-1.292-.192-1.863-.505v.051c.001 1.923 1.378 3.579 3.292 3.96-.604.162-1.238.186-1.852.069.537 1.646 2.078 2.773 3.833 2.806-1.453 1.124-3.248 1.735-5.096 1.733-.326-.001-.652-.02-.977-.058 1.877 1.185 4.06 1.814 6.29 1.811"/>
    </defs>
    <g fill="none" fill-rule="evenodd">
        <use fill="#FFF" xlink:href="#prefix__a"/>
    </g>
</svg>
