<svg xmlns="http://www.w3.org/2000/svg" width="24" height="24" viewBox="0 0 24 24">
    <defs>
        <filter id="prefix__a">
            <feColorMatrix in="SourceGraphic" values="0 0 0 0 0.000000 0 0 0 0 0.294118 0 0 0 0 0.576471 0 0 0 1.000000 0"/>
        </filter>
    </defs>
    <g fill="none" fill-rule="evenodd" filter="url(#prefix__a)" transform="translate(-1985 -2383)">
        <g>
            <path fill="#004B93" d="M12 2C6.477 2 2 6.477 2 12c0 .552.448 1 1 1h8v6c0 1.657 1.343 3 3 3s3-1.343 3-3c0-.552-.448-1-1-1s-1 .448-1 1-.448 1-1 1-1-.448-1-1v-6h8c.552 0 1-.448 1-1 0-5.523-4.477-10-10-10z" transform="translate(1985 2383)"/>
        </g>
    </g>
</svg>
