<svg xmlns="http://www.w3.org/2000/svg" width="24" height="24" viewBox="0 0 24 24">
    <defs>
        <filter id="prefix__a">
            <feColorMatrix in="SourceGraphic" values="0 0 0 0 0.000000 0 0 0 0 0.294118 0 0 0 0 0.576471 0 0 0 1.000000 0"/>
        </filter>
    </defs>
    <g fill="none" fill-rule="evenodd" filter="url(#prefix__a)" transform="translate(-2107 -1564)">
        <g>
            <path fill="#004B93" d="M20.22 21c-.47.014-.887-.303-1-.76-.923-3.656-4.046-6.335-7.8-6.69v1.12c0 .716-.43 1.362-1.09 1.64-.715.329-1.557.207-2.15-.31l-5.06-4.41c-.74-.63-.83-1.741-.199-2.481.061-.072.127-.138.199-.199l5.06-4.42c.601-.527 1.459-.645 2.18-.3.66.278 1.09.924 1.09 1.64V7c5.63.435 9.994 5.103 10.05 10.75-.001.84-.105 1.676-.31 2.49-.113.457-.53.774-1 .76h.03zm-9.77-9.5c3.439-.026 6.694 1.549 8.81 4.26-1.03-4.012-4.668-6.803-8.81-6.76-.552 0-1-.448-1-1V6.08l-4.82 4.17 4.82 4.21v-2c.021-.537.463-.96 1-.96z" transform="translate(2107 1564)"/>
        </g>
    </g>
</svg>
