<svg xmlns="http://www.w3.org/2000/svg" width="24" height="24" viewBox="0 0 24 24">
    <defs>
        <filter id="prefix__a">
            <feColorMatrix in="SourceGraphic" values="0 0 0 0 0.000000 0 0 0 0 0.294118 0 0 0 0 0.576471 0 0 0 1.000000 0"/>
        </filter>
    </defs>
    <g fill="none" fill-rule="evenodd" filter="url(#prefix__a)" transform="translate(-2229 -1564)">
        <g>
            <path fill="#004B93" d="M12 2c2.21 0 4 1.79 4 4l-.007.117c-.057.497-.48.883-.993.883-.552 0-1-.448-1-1l-.005-.15C13.918 4.817 13.055 4 12 4c-1.105 0-2 .895-2 2v2h7c1.657 0 3 1.343 3 3v8c0 1.657-1.343 3-3 3H7c-1.657 0-3-1.343-3-3v-8l.005-.176C4.096 9.249 5.402 8 7 8h1V6c0-2.21 1.79-4 4-4zm5 8H7c-.552 0-1 .448-1 1v8l.007.117c.057.497.48.883.993.883h10c.552 0 1-.448 1-1v-8c0-.552-.448-1-1-1zm-5 2l.176.005C13.751 12.096 15 13.402 15 15l-.005.176C14.904 16.751 13.598 18 12 18c-1.657 0-3-1.343-3-3s1.343-3 3-3zm0 2c-.552 0-1 .448-1 1s.448 1 1 1l.117-.007c.497-.057.883-.48.883-.993l-.007-.117c-.057-.497-.48-.883-.993-.883z" transform="translate(2229 1564)"/>
        </g>
    </g>
</svg>
