<svg xmlns="http://www.w3.org/2000/svg" width="24" height="24" viewBox="0 0 24 24">
    <defs>
        <filter id="prefix__a">
            <feColorMatrix in="SourceGraphic" values="0 0 0 0 0.000000 0 0 0 0 0.294118 0 0 0 0 0.576471 0 0 0 1.000000 0"/>
        </filter>
    </defs>
    <g fill="none" fill-rule="evenodd" filter="url(#prefix__a)" transform="translate(-1739 -851)">
        <g>
            <path fill="#004B93" d="M10.999 11.993L8.6 13.8c-.138.104-.3.17-.471.192L8 14c-.275 0-.537-.113-.724-.31L7.2 13.6c-.306-.408-.253-.973.104-1.319L7.4 12.2l4-3c.351-.257.829-.257 1.18 0l4 2.82c.414.294.538.846.305 1.283l-.065.107c-.317.452-.94.562-1.393.245l-.007-.005-2.424-1.707L13 12v8c0 .513-.386.936-.883.993L12 21c-.513 0-.936-.386-.993-.883L11 20l-.001-8.007zM19 4c.552 0 1 .448 1 1v2c0 .513-.386.936-.883.993L19 8c-.552 0-1-.448-1-1V5.999L6 6v1c0 .513-.386.936-.883.993L5 8c-.552 0-1-.448-1-1V5c0-.513.386-.936.883-.993L5 4h14z" transform="translate(1739 851)"/>
        </g>
    </g>
</svg>
