<svg xmlns="http://www.w3.org/2000/svg" width="24" height="24" viewBox="0 0 24 24">
    <defs>
        <filter id="prefix__a">
            <feColorMatrix in="SourceGraphic" values="0 0 0 0 0.000000 0 0 0 0 0.294118 0 0 0 0 0.576471 0 0 0 1.000000 0"/>
        </filter>
    </defs>
    <g fill="none" fill-rule="evenodd" filter="url(#prefix__a)" transform="translate(-1002 -2479)">
        <g>
            <path fill="#004B93" d="M19.65 12.323s.274 1.269-1.033 1.618l-.757.197c-.157.018-.313-.037-.425-.148l-.21-.247c-.163-.162-.207-.465-.012-.587l2.363-1.395.075.562zm-2.53 4.317s-.51 1.573-1.678 1.573H8.958c-1.169 0-1.679-1.573-1.679-1.573v-.244H17.12v.244zm-9.63 2.918h9.42v-.117H7.49v.117zm-.526-5.568c-.111.111-.267.166-.424.148l-.757-.197c-1.307-.35-1.034-1.618-1.034-1.618l.075-.562 2.363 1.395c.195.122.15.425-.013.587l-.21.247zm9.223.07v.516H8.213v-.516h7.974zm-10-3.847h12.026v-.116H6.187v.116zm-.265-.67s.085-1.143.2-2.539c.113-1.396 1.2-1.396 1.2-1.396h9.756s1.087 0 1.2 1.396c.115 1.396.2 2.538.2 2.538s.085.297-.763.297H6.685c-.848 0-.763-.297-.763-.297zm15.314-.404c0-.266-.215-.48-.482-.48h-.53c-.134 0-.243.107-.243.24v1.21l-.717-.055-.002.05V8.835c-.45-3.464-1.304-6.294-1.516-6.457C17.54 2.218 16.187 2 16.187 2H8.213s-1.364.204-1.56.378c-.245.218-1.065 2.993-1.515 6.457v1.27l-.002-.05-.717.054v-1.21c0-.133-.109-.24-.243-.24h-.53c-.267 0-.482.214-.482.48L3 11.054c0 .28.227.505.507.505h.67c.133 0 .242-.108.242-.241v-.456h.401l-.071.17-.323 3.028s-.253.36-.291.886c-.087 1.197-.134 3.253.128 3.884 0 0 .256.21.486.46v2.487c0 .123.1.223.224.223h1.481c.124 0 .224-.1.224-.223V20.11c.045.002.089.003.135.003h10.774c.046 0 .09-.001.135-.003v1.666c0 .123.1.223.224.223h1.481c.124 0 .224-.1.224-.223V19.29c.23-.25.486-.46.486-.46.262-.63.215-2.687.128-3.884-.038-.526-.291-.886-.291-.886l-.323-3.028-.071-.17h.401v.456c0 .133.109.241.243.241h.67c.28 0 .506-.226.506-.505l-.164-1.915z" transform="translate(1002 2479)"/>
        </g>
    </g>
</svg>
