<svg xmlns="http://www.w3.org/2000/svg" width="24" height="24" viewBox="0 0 24 24">
    <g fill="none" fill-rule="evenodd">
        <path fill="#004B93" d="M2.004 16.92c0 .01-.004.02-.004.03 0 .438.324.794.726.794.401 0 .727-.356.727-.794h.002C3.825 12.152 7.505 8.38 12 8.38c.238 0 .475.011.707.032.756.069 1.37.235 1.793.375.436.115.86-.204.925-.642.057-.39-.186-.796-.573-.901-.904-.294-1.861-.45-2.852-.45-5.287 0-9.609 4.465-9.997 10.124zm17.912-5.882c-.274-.25-.671-.252-.938-.016-.286.256-.353.722-.142 1.071.627.9 1.106 1.928 1.403 3.042.107.406.3.997.308 1.815 0 .438.33.796.73.793.395-.001.723-.358.723-.793-.04-.621-.13-1.228-.263-1.816-.415-1.842-1.202-3.215-1.821-4.096zm.137-4.951l-9.151 7.86c-.714.733-.753 1.917-.193 2.615.624.779 1.882.813 2.61-.089l7.15-9.9c.127-.137.122-.362 0-.486-.111-.114-.293-.118-.416 0z"/>
    </g>
</svg>
