<svg xmlns="http://www.w3.org/2000/svg" width="24" height="24" viewBox="0 0 24 24">
    <defs>
        <filter id="prefix__a">
            <feColorMatrix in="SourceGraphic" values="0 0 0 0 0.000000 0 0 0 0 0.294118 0 0 0 0 0.576471 0 0 0 1.000000 0"/>
        </filter>
    </defs>
    <g fill="none" fill-rule="evenodd" filter="url(#prefix__a)" transform="translate(-2473 -1564)">
        <g>
            <path fill="#004B93" d="M3.29 3.29c.392-.392 1.028-.392 1.42 0L6.41 5 17 15.59l3.71 3.7.006.006c.389.392.386 1.025-.006 1.414-.398.395-1.031.392-1.42 0l-2.9-2.91L3.83 5.24l-.54-.53-.084-.095c-.306-.393-.278-.963.084-1.325zM3 5.8l1.4 1.42c-.246.185-.394.472-.4.78v8l.007.117c.057.497.48.883.993.883h9c.047.005.093.005.14 0l1.52 1.49c-.49.333-1.068.511-1.66.51H5c-1.657 0-3-1.343-3-3V8c.01-.841.373-1.64 1-2.2zM14 5c1.657 0 3 1.343 3 3v1.45l2.15-2c.5-.462 1.229-.58 1.85-.3l.136.062c.53.27.871.815.874 1.418v6.74c-.001.65-.397 1.236-1 1.48l-.166.065c-.169.056-.345.085-.524.085l-.153-.007c-.153-.015-.303-.05-.447-.103L15 12.17V8c0-.552-.448-1-1-1H9.83l-2-2zm6 4.4L17.19 12 20 14.6V9.4z" transform="translate(2473 1564)"/>
        </g>
    </g>
</svg>
