<svg xmlns="http://www.w3.org/2000/svg" width="24" height="24" viewBox="0 0 24 24">
    <defs>
        <filter id="prefix__a">
            <feColorMatrix in="SourceGraphic" values="0 0 0 0 0.000000 0 0 0 0 0.294118 0 0 0 0 0.576471 0 0 0 1.000000 0"/>
        </filter>
    </defs>
    <g fill="none" fill-rule="evenodd" filter="url(#prefix__a)" transform="translate(-2961 -2383)">
        <g>
            <path fill="#004B93" d="M13.47 3.12c.31-.179.69-.179 1 0l.104.064c.264.185.425.488.426.816v16c0 .552-.448 1-1 1l-.125-.006c-.165-.017-.325-.073-.465-.164L7 16.43H2c-.552 0-1-.448-1-1V8.57l.007-.117c.057-.497.48-.883.993-.883h5zm4.76 2.24c.353-.425.985-.483 1.41-.13l.237.192C21.82 7.053 22.964 9.452 23 12l-.01.305c-.124 2.534-1.343 4.896-3.35 6.465l-.113.081c-.158.097-.34.15-.527.149l-.126-.008c-.25-.031-.48-.156-.644-.352v-.001c-.354-.426-.295-1.057.13-1.409l.217-.175C20.071 15.8 20.957 13.959 21 12l-.012-.279c-.123-1.947-1.077-3.753-2.628-4.951l-.092-.086c-.34-.363-.364-.931-.038-1.324zm-1.36 2.86c.43-.348 1.062-.28 1.41.15l.158.217c1.47 2.125 1.418 4.97-.158 7.043l-.087.095c-.186.176-.434.276-.693.275-.23 0-.454-.078-.633-.223-.43-.348-.495-.978-.147-1.407l.13-.187c.905-1.389.862-3.204-.13-4.553l-.073-.103c-.262-.423-.175-.986.223-1.307z" transform="translate(2961 2383)"/>
        </g>
    </g>
</svg>
