<svg xmlns="http://www.w3.org/2000/svg" width="24" height="24" viewBox="0 0 24 24">
    <defs>
        <filter id="prefix__a">
            <feColorMatrix in="SourceGraphic" values="0 0 0 0 0.000000 0 0 0 0 0.294118 0 0 0 0 0.576471 0 0 0 1.000000 0"/>
        </filter>
    </defs>
    <g fill="none" fill-rule="evenodd" filter="url(#prefix__a)" transform="translate(-2595 -1564)">
        <g>
            <path fill="#004B93" d="M15.47 3.12c.31-.179.69-.179 1 0l.104.064c.264.185.425.488.426.816v16c0 .552-.448 1-1 1l-.125-.006c-.165-.017-.325-.073-.465-.164L9 16.43H4c-.552 0-1-.448-1-1V8.57l.007-.117c.057-.497.48-.883.993-.883h5zM15 5.9L9.9 9.4c-.168.113-.367.172-.57.17H5v4.86h4.33c.203-.002.402.057.57.17l5.1 3.5V5.9zm4.37 2.32c.43-.348 1.062-.28 1.41.15l.158.217c1.47 2.125 1.418 4.97-.158 7.043l-.087.095c-.186.176-.434.276-.693.275-.23 0-.454-.078-.633-.223-.43-.348-.495-.978-.147-1.407l.13-.187c.905-1.389.862-3.204-.13-4.553l-.073-.103c-.262-.423-.175-.986.223-1.307z" transform="translate(2595 1564)"/>
        </g>
    </g>
</svg>
