<svg xmlns="http://www.w3.org/2000/svg" width="24" height="24" viewBox="0 0 24 24">
    <defs>
        <filter id="prefix__a">
            <feColorMatrix in="SourceGraphic" values="0 0 0 0 0.000000 0 0 0 0 0.294118 0 0 0 0 0.576471 0 0 0 1.000000 0"/>
        </filter>
    </defs>
    <g fill="none" fill-rule="evenodd" filter="url(#prefix__a)" transform="translate(-2839 -2383)">
        <g>
            <path fill="#004B93" d="M3.29 3.29c.392-.392 1.028-.392 1.42 0l16 16c.395.398.392 1.031 0 1.42l-.003.003c-.395.392-1.028.39-1.417-.003l-16-16-.084-.095c-.306-.393-.278-.963.084-1.325zm1.45 4.28L15 17.83V20c0 .552-.448 1-1 1l-.125-.006c-.165-.017-.325-.073-.465-.164L7 16.43H2c-.552 0-1-.448-1-1V8.57l.007-.117c.057-.497.48-.883.993-.883h2.74zm13.49-2.21c.353-.425.985-.483 1.41-.13l.237.192C21.82 7.053 22.964 9.452 23 12l-.01.324c-.096 2.049-.929 3.998-2.35 5.486l-1.42-1.42c1.124-1.188 1.759-2.755 1.78-4.39l-.012-.279c-.123-1.947-1.077-3.753-2.628-4.951l-.092-.086c-.34-.363-.364-.931-.038-1.324zm-1.36 2.86c.43-.348 1.062-.28 1.41.15l.154.213c1.442 2.087 1.419 4.87-.084 6.937l-.001-.001-1.439-1.439c.806-1.322.775-2.983-.065-4.269l-.125-.181-.073-.103c-.262-.423-.175-.986.223-1.307zm-2.862-5.228c.553.004.997.456.992 1.008v8.17L9 6.2l4.43-3.03c.17-.118.372-.18.578-.178z" transform="translate(2839 2383)"/>
        </g>
    </g>
</svg>
