<svg xmlns="http://www.w3.org/2000/svg" width="24" height="24" viewBox="0 0 24 24">
    <defs>
        <filter id="prefix__a">
            <feColorMatrix in="SourceGraphic" values="0 0 0 0 0.000000 0 0 0 0 0.294118 0 0 0 0 0.576471 0 0 0 1.000000 0"/>
        </filter>
    </defs>
    <g fill="none" fill-rule="evenodd" filter="url(#prefix__a)" transform="translate(-1983 -851)">
        <g>
            <path fill="#004B93" d="M3.29 3.29c.392-.392 1.028-.392 1.42 0l1.82 1.83 1.55 1.55 2.46 2.44 1.9 1.89 8.27 8.29.006.006c.389.392.386 1.025-.006 1.414l-.003.003c-.395.392-1.028.39-1.417-.003l-3.85-3.85-2.79-2.8-2.74-2.74-1.55-1.54-2.23-2.24-1.46-1.46-1.38-1.37-.084-.095c-.306-.393-.278-.963.084-1.325zm9.417 15.003c.39.39.39 1.024 0 1.414-.39.39-1.024.39-1.414 0-.39-.39-.39-1.024 0-1.414.39-.39 1.024-.39 1.414 0zM11.24 14.07l2.52 2.52c-1.179-.833-2.78-.728-3.84.25l-.096.082c-.398.298-.965.26-1.319-.107-.384-.398-.373-1.031.025-1.415l.19-.173c.713-.614 1.586-1.016 2.52-1.157zm-3.81-3.81L9 11.73c-.741.354-1.417.83-2 1.41l-.093.087c-.388.32-.962.307-1.337-.047-.406-.384-.424-1.024-.04-1.43l.287-.284c.49-.462 1.03-.867 1.613-1.206zM12 9c2.426.012 4.745 1.004 6.43 2.75l.082.097c.125.17.193.376.194.59.002.551-.444 1-.996 1.003l-.132-.01c-.219-.03-.422-.131-.578-.29l-.24-.238c-.733-.696-1.61-1.226-2.57-1.552L11.84 9zm0-5l.375.004c3.493.089 6.83 1.487 9.345 3.926l.082.092c.3.38.286.933-.052 1.298l-.085.08c-.177.147-.402.23-.635.23l-.128-.009c-.21-.028-.408-.122-.562-.271l-.256-.241C17.148 6.425 13.054 5.382 9.18 6.35L7.56 4.73C8.991 4.25 10.49 4.004 12 4zM3.82 6.65l1.44 1.43c-.566.387-1.101.819-1.6 1.29l-.099.072c-.374.239-.869.204-1.206-.1-.41-.37-.444-1.001-.075-1.412l.368-.34c.374-.334.765-.647 1.172-.94z" transform="translate(1983 851)"/>
        </g>
    </g>
</svg>
