<svg xmlns="http://www.w3.org/2000/svg" width="24" height="24" viewBox="0 0 24 24">
    <defs>
        <filter id="prefix__a">
            <feColorMatrix in="SourceGraphic" values="0 0 0 0 0.000000 0 0 0 0 0.294118 0 0 0 0 0.576471 0 0 0 1.000000 0"/>
        </filter>
    </defs>
    <g fill="none" fill-rule="evenodd" filter="url(#prefix__a)" transform="translate(-1861 -851)">
        <g>
            <path fill="#004B93" d="M12.707 18.293c.39.39.39 1.024 0 1.414-.39.39-1.024.39-1.414 0-.39-.39-.39-1.024 0-1.414.39-.39 1.024-.39 1.414 0zM12 14l.258.007c1.2.062 2.342.555 3.212 1.393l.085.093c.312.387.294.955-.06 1.322-.384.398-1.017.409-1.415.025l-.15-.13c-1.177-.946-2.882-.903-4.01.13l-.096.082c-.398.298-.965.26-1.319-.107-.384-.398-.373-1.031.025-1.415l.19-.174C9.628 14.437 10.792 14 12 14zm0-5l.32.004c2.337.075 4.56 1.057 6.19 2.746l.082.097c.125.17.193.376.194.59.002.551-.444 1-.996 1.003l-.132-.01c-.219-.03-.422-.131-.578-.29l-.09-.092-.092-.09c-2.784-2.683-7.215-2.602-9.898.182l-.093.087c-.388.32-.962.307-1.337-.047-.406-.384-.424-1.024-.04-1.43l.225-.225C7.428 9.91 9.665 9.002 12 9zM2.537 7.689c5.435-4.99 13.844-4.91 19.183.241l.085.092c.31.385.295.95-.055 1.318l-.085.08c-.177.147-.402.23-.635.23l-.128-.009c-.21-.028-.408-.122-.562-.271l-.243-.229C15.435 4.875 8.231 4.951 3.66 9.37l-.099.072c-.374.239-.869.204-1.206-.1-.41-.37-.444-1.001-.075-1.412z" transform="translate(1861 851)"/>
        </g>
    </g>
</svg>
