<svg xmlns="http://www.w3.org/2000/svg" width="24" height="24" viewBox="0 0 24 24">
    <defs>
        <filter id="prefix__a">
            <feColorMatrix in="SourceGraphic" values="0 0 0 0 0.000000 0 0 0 0 0.294118 0 0 0 0 0.576471 0 0 0 1.000000 0"/>
        </filter>
    </defs>
    <g fill="none" fill-rule="evenodd" filter="url(#prefix__a)" transform="translate(-2105 -851)">
        <g>
            <path fill="#004B93" d="M18.247 3.342c.364-.416.996-.458 1.412-.095.415.364.457.996.094 1.412L13.328 12H17c.513 0 .936.386.993.883L18 13c0 .552-.448 1-1 1h-4v2h4c.513 0 .936.386.993.883L18 17c0 .552-.448 1-1 1h-4v2c0 .513-.386.936-.883.993L12 21c-.552 0-1-.448-1-1v-2H7c-.513 0-.935-.386-.993-.883L6 17c0-.552.448-1 1-1h4v-2H7c-.513 0-.935-.386-.993-.883L6 13c0-.552.448-1 1-1h3.671L4.247 4.659c-.335-.384-.325-.952.005-1.323l.09-.089c.415-.363 1.047-.321 1.41.095L12 10.482z" transform="translate(2105 851)"/>
        </g>
    </g>
</svg>
